M48
; DRILL file {KiCad (5.1.10)-1} date 03/30/24 22:18:24
; FORMAT={-:-/ absolute / inch / decimal}
; #@! TF.CreationDate,2024-03-30T22:18:24+09:00
; #@! TF.GenerationSoftware,Kicad,Pcbnew,(5.1.10)-1
; #@! TF.FileFunction,Plated,1,2,PTH
FMAT,2
INCH
T1C0.0118
T2C0.0150
T3C0.0256
%
G90
G05
T1
X5.4173Y-3.4803
X5.4646Y-3.0315
X5.4646Y-3.1339
X5.4646Y-3.2362
X5.4882Y-2.9055
X5.4961Y-3.3819
X5.5447Y-3.1896
X5.5461Y-3.1631
X5.548Y-3.2161
X5.5512Y-3.2441
X5.5669Y-2.9882
X5.5669Y-3.3386
X5.5789Y-3.437
X5.626Y-2.9213
X5.6279Y-2.9961
X5.6504Y-3.3937
X5.6515Y-2.9961
X5.6752Y-2.9961
X5.6987Y-2.9982
X5.7205Y-3.0197
X5.7402Y-2.9606
X5.7913Y-2.8858
X5.8307Y-3.4882
X5.8346Y-3.0157
X5.8425Y-3.378
X5.8583Y-2.8858
X5.8976Y-3.0157
X5.9016Y-3.0866
X5.9213Y-2.8858
X5.9561Y-3.06
X5.9764Y-3.0866
X5.9882Y-3.4488
X5.9882Y-3.4882
X6.0236Y-3.4882
X6.0276Y-2.8858
T2
X5.3825Y-2.6205
X5.3825Y-2.6605
X5.3825Y-2.7005
X5.3825Y-2.7405
X5.3825Y-2.7805
X5.4225Y-2.621
X5.4225Y-2.661
X5.4225Y-2.701
X5.4225Y-2.741
X5.4225Y-2.781
X5.5515Y-2.621
X5.5515Y-2.661
X5.5515Y-2.701
X5.5515Y-2.741
X5.5515Y-2.781
X5.5915Y-2.6215
X5.5915Y-2.6615
X5.5915Y-2.7015
X5.5915Y-2.7415
X5.5915Y-2.7815
X5.6315Y-2.6215
X5.6315Y-2.6615
X5.6315Y-2.7015
X5.6315Y-2.7415
X5.6315Y-2.7815
X5.6715Y-2.6215
X5.6715Y-2.6615
X5.6715Y-2.7015
X5.6715Y-2.7415
X5.6715Y-2.7815
X5.7115Y-2.6215
X5.7115Y-2.6615
X5.7115Y-2.7015
X5.7115Y-2.7415
X5.7115Y-2.7815
X5.7515Y-2.6215
X5.7515Y-2.6615
X5.7515Y-2.7015
X5.7515Y-2.7415
X5.7515Y-2.7815
X5.76Y-2.561
X5.7915Y-2.6215
X5.7915Y-2.6615
X5.7915Y-2.7015
X5.7915Y-2.7415
X5.7915Y-2.7815
X5.8315Y-2.6215
X5.8315Y-2.6615
X5.8315Y-2.7015
X5.8315Y-2.7415
X5.8315Y-2.7815
X5.8715Y-2.6215
X5.8715Y-2.6615
X5.8715Y-2.7015
X5.8715Y-2.7415
X5.8715Y-2.7815
X5.9115Y-2.6215
X5.9115Y-2.6615
X5.9115Y-2.7015
X5.9115Y-2.7415
X5.9115Y-2.7815
X5.9515Y-2.6215
X5.9515Y-2.6615
X5.9515Y-2.7015
X5.9515Y-2.7415
X5.9515Y-2.7815
X5.9915Y-2.6215
X5.9915Y-2.6615
X5.9915Y-2.7015
X5.9915Y-2.7415
X5.9915Y-2.7815
X6.0315Y-2.6215
X6.0315Y-2.6615
X6.0315Y-2.7015
X6.0315Y-2.7415
X6.0315Y-2.7815
X6.0715Y-2.6215
X6.0715Y-2.6615
X6.0715Y-2.7015
X6.0715Y-2.7415
X6.0715Y-2.7815
T3
X5.3516Y-2.8583
X5.3516Y-2.9083
X5.3516Y-2.9583
X5.3516Y-3.0083
X5.3516Y-3.0583
X5.3516Y-3.1083
X5.3516Y-3.1583
X5.3516Y-3.2083
X5.3516Y-3.2583
X5.3516Y-3.3083
X5.3516Y-3.3583
X5.3516Y-3.4083
X5.4016Y-2.8583
X5.4016Y-2.9083
X5.4016Y-2.9583
X5.4016Y-3.0083
X5.4016Y-3.0583
X5.4016Y-3.1083
X5.4016Y-3.1583
X5.4016Y-3.2083
X5.4016Y-3.2583
X5.4016Y-3.3083
X5.4016Y-3.3583
X5.4016Y-3.4083
X5.4567Y-3.5709
X5.4567Y-3.6209
X5.5067Y-3.5709
X5.5067Y-3.6209
X5.5567Y-3.5709
X5.5567Y-3.6209
X5.6067Y-3.5709
X5.6067Y-3.6209
X5.6567Y-3.5709
X5.6567Y-3.6209
X5.7067Y-3.5709
X5.7067Y-3.6209
X5.7567Y-3.5709
X5.7567Y-3.6209
X5.8067Y-3.5709
X5.8067Y-3.6209
X5.8567Y-3.5709
X5.8567Y-3.6209
X5.9067Y-3.5709
X5.9067Y-3.6209
X5.9567Y-3.5709
X5.9567Y-3.6209
X6.0067Y-3.5709
X6.0067Y-3.6209
X6.063Y-2.8583
X6.063Y-2.9083
X6.063Y-2.9583
X6.063Y-3.0083
X6.063Y-3.0583
X6.063Y-3.1083
X6.063Y-3.1583
X6.063Y-3.2083
X6.063Y-3.2583
X6.063Y-3.3083
X6.063Y-3.3583
X6.063Y-3.4083
X6.113Y-2.8583
X6.113Y-2.9083
X6.113Y-2.9583
X6.113Y-3.0083
X6.113Y-3.0583
X6.113Y-3.1083
X6.113Y-3.1583
X6.113Y-3.2083
X6.113Y-3.2583
X6.113Y-3.3083
X6.113Y-3.3583
X6.113Y-3.4083
T0
M30
