%TF.GenerationSoftware,KiCad,Pcbnew,(5.1.10)-1*%
%TF.CreationDate,2024-03-30T22:18:20+09:00*%
%TF.ProjectId,BLEModule,424c454d-6f64-4756-9c65-2e6b69636164,rev?*%
%TF.SameCoordinates,Original*%
%TF.FileFunction,Soldermask,Top*%
%TF.FilePolarity,Negative*%
%FSLAX46Y46*%
G04 Gerber Fmt 4.6, Leading zero omitted, Abs format (unit mm)*
G04 Created by KiCad (PCBNEW (5.1.10)-1) date 2024-03-30 22:18:20*
%MOMM*%
%LPD*%
G01*
G04 APERTURE LIST*
%ADD10C,0.035000*%
%ADD11C,0.100000*%
%ADD12O,1.000000X1.000000*%
%ADD13R,1.000000X1.000000*%
%ADD14R,0.900000X0.800000*%
%ADD15R,4.300000X4.300000*%
G04 APERTURE END LIST*
D10*
%TO.C,J2*%
G36*
X141622600Y-91944600D02*
G01*
X141622600Y-90725400D01*
X140657400Y-90725400D01*
X140657400Y-91944600D01*
X141622600Y-91944600D01*
G37*
X141622600Y-91944600D02*
X141622600Y-90725400D01*
X140657400Y-90725400D01*
X140657400Y-91944600D01*
X141622600Y-91944600D01*
G36*
X144162600Y-91944600D02*
G01*
X144162600Y-90725400D01*
X143197400Y-90725400D01*
X143197400Y-91944600D01*
X144162600Y-91944600D01*
G37*
X144162600Y-91944600D02*
X144162600Y-90725400D01*
X143197400Y-90725400D01*
X143197400Y-91944600D01*
X144162600Y-91944600D01*
G36*
X139082600Y-91944600D02*
G01*
X139082600Y-90725400D01*
X138117400Y-90725400D01*
X138117400Y-91944600D01*
X139082600Y-91944600D01*
G37*
X139082600Y-91944600D02*
X139082600Y-90725400D01*
X138117400Y-90725400D01*
X138117400Y-91944600D01*
X139082600Y-91944600D01*
G36*
X142892600Y-91944600D02*
G01*
X142892600Y-90725400D01*
X141927400Y-90725400D01*
X141927400Y-91944600D01*
X142892600Y-91944600D01*
G37*
X142892600Y-91944600D02*
X142892600Y-90725400D01*
X141927400Y-90725400D01*
X141927400Y-91944600D01*
X142892600Y-91944600D01*
G36*
X145432600Y-91944600D02*
G01*
X145432600Y-90725400D01*
X144467400Y-90725400D01*
X144467400Y-91944600D01*
X145432600Y-91944600D01*
G37*
X145432600Y-91944600D02*
X145432600Y-90725400D01*
X144467400Y-90725400D01*
X144467400Y-91944600D01*
X145432600Y-91944600D01*
G36*
X149242600Y-91944600D02*
G01*
X149242600Y-90725400D01*
X148277400Y-90725400D01*
X148277400Y-91944600D01*
X149242600Y-91944600D01*
G37*
X149242600Y-91944600D02*
X149242600Y-90725400D01*
X148277400Y-90725400D01*
X148277400Y-91944600D01*
X149242600Y-91944600D01*
G36*
X146702600Y-91944600D02*
G01*
X146702600Y-90725400D01*
X145737400Y-90725400D01*
X145737400Y-91944600D01*
X146702600Y-91944600D01*
G37*
X146702600Y-91944600D02*
X146702600Y-90725400D01*
X145737400Y-90725400D01*
X145737400Y-91944600D01*
X146702600Y-91944600D01*
G36*
X140352600Y-91944600D02*
G01*
X140352600Y-90725400D01*
X139387400Y-90725400D01*
X139387400Y-91944600D01*
X140352600Y-91944600D01*
G37*
X140352600Y-91944600D02*
X140352600Y-90725400D01*
X139387400Y-90725400D01*
X139387400Y-91944600D01*
X140352600Y-91944600D01*
G36*
X147972600Y-91944600D02*
G01*
X147972600Y-90725400D01*
X147007400Y-90725400D01*
X147007400Y-91944600D01*
X147972600Y-91944600D01*
G37*
X147972600Y-91944600D02*
X147972600Y-90725400D01*
X147007400Y-90725400D01*
X147007400Y-91944600D01*
X147972600Y-91944600D01*
G36*
X150512600Y-91944600D02*
G01*
X150512600Y-90725400D01*
X149547400Y-90725400D01*
X149547400Y-91944600D01*
X150512600Y-91944600D01*
G37*
X150512600Y-91944600D02*
X150512600Y-90725400D01*
X149547400Y-90725400D01*
X149547400Y-91944600D01*
X150512600Y-91944600D01*
G36*
X153052600Y-91944600D02*
G01*
X153052600Y-90725400D01*
X152087400Y-90725400D01*
X152087400Y-91944600D01*
X153052600Y-91944600D01*
G37*
X153052600Y-91944600D02*
X153052600Y-90725400D01*
X152087400Y-90725400D01*
X152087400Y-91944600D01*
X153052600Y-91944600D01*
G36*
X151782600Y-91944600D02*
G01*
X151782600Y-90725400D01*
X150817400Y-90725400D01*
X150817400Y-91944600D01*
X151782600Y-91944600D01*
G37*
X151782600Y-91944600D02*
X151782600Y-90725400D01*
X150817400Y-90725400D01*
X150817400Y-91944600D01*
X151782600Y-91944600D01*
%TO.C,J1*%
G36*
X135955400Y-75622600D02*
G01*
X137174600Y-75622600D01*
X137174600Y-74657400D01*
X135955400Y-74657400D01*
X135955400Y-75622600D01*
G37*
X135955400Y-75622600D02*
X137174600Y-75622600D01*
X137174600Y-74657400D01*
X135955400Y-74657400D01*
X135955400Y-75622600D01*
G36*
X135955400Y-78162600D02*
G01*
X137174600Y-78162600D01*
X137174600Y-77197400D01*
X135955400Y-77197400D01*
X135955400Y-78162600D01*
G37*
X135955400Y-78162600D02*
X137174600Y-78162600D01*
X137174600Y-77197400D01*
X135955400Y-77197400D01*
X135955400Y-78162600D01*
G36*
X135955400Y-73082600D02*
G01*
X137174600Y-73082600D01*
X137174600Y-72117400D01*
X135955400Y-72117400D01*
X135955400Y-73082600D01*
G37*
X135955400Y-73082600D02*
X137174600Y-73082600D01*
X137174600Y-72117400D01*
X135955400Y-72117400D01*
X135955400Y-73082600D01*
G36*
X135955400Y-76892600D02*
G01*
X137174600Y-76892600D01*
X137174600Y-75927400D01*
X135955400Y-75927400D01*
X135955400Y-76892600D01*
G37*
X135955400Y-76892600D02*
X137174600Y-76892600D01*
X137174600Y-75927400D01*
X135955400Y-75927400D01*
X135955400Y-76892600D01*
G36*
X135955400Y-79432600D02*
G01*
X137174600Y-79432600D01*
X137174600Y-78467400D01*
X135955400Y-78467400D01*
X135955400Y-79432600D01*
G37*
X135955400Y-79432600D02*
X137174600Y-79432600D01*
X137174600Y-78467400D01*
X135955400Y-78467400D01*
X135955400Y-79432600D01*
G36*
X135955400Y-83242600D02*
G01*
X137174600Y-83242600D01*
X137174600Y-82277400D01*
X135955400Y-82277400D01*
X135955400Y-83242600D01*
G37*
X135955400Y-83242600D02*
X137174600Y-83242600D01*
X137174600Y-82277400D01*
X135955400Y-82277400D01*
X135955400Y-83242600D01*
G36*
X135955400Y-80702600D02*
G01*
X137174600Y-80702600D01*
X137174600Y-79737400D01*
X135955400Y-79737400D01*
X135955400Y-80702600D01*
G37*
X135955400Y-80702600D02*
X137174600Y-80702600D01*
X137174600Y-79737400D01*
X135955400Y-79737400D01*
X135955400Y-80702600D01*
G36*
X135955400Y-74352600D02*
G01*
X137174600Y-74352600D01*
X137174600Y-73387400D01*
X135955400Y-73387400D01*
X135955400Y-74352600D01*
G37*
X135955400Y-74352600D02*
X137174600Y-74352600D01*
X137174600Y-73387400D01*
X135955400Y-73387400D01*
X135955400Y-74352600D01*
G36*
X135955400Y-81972600D02*
G01*
X137174600Y-81972600D01*
X137174600Y-81007400D01*
X135955400Y-81007400D01*
X135955400Y-81972600D01*
G37*
X135955400Y-81972600D02*
X137174600Y-81972600D01*
X137174600Y-81007400D01*
X135955400Y-81007400D01*
X135955400Y-81972600D01*
G36*
X135955400Y-84512600D02*
G01*
X137174600Y-84512600D01*
X137174600Y-83547400D01*
X135955400Y-83547400D01*
X135955400Y-84512600D01*
G37*
X135955400Y-84512600D02*
X137174600Y-84512600D01*
X137174600Y-83547400D01*
X135955400Y-83547400D01*
X135955400Y-84512600D01*
G36*
X135955400Y-87052600D02*
G01*
X137174600Y-87052600D01*
X137174600Y-86087400D01*
X135955400Y-86087400D01*
X135955400Y-87052600D01*
G37*
X135955400Y-87052600D02*
X137174600Y-87052600D01*
X137174600Y-86087400D01*
X135955400Y-86087400D01*
X135955400Y-87052600D01*
G36*
X135955400Y-85782600D02*
G01*
X137174600Y-85782600D01*
X137174600Y-84817400D01*
X135955400Y-84817400D01*
X135955400Y-85782600D01*
G37*
X135955400Y-85782600D02*
X137174600Y-85782600D01*
X137174600Y-84817400D01*
X135955400Y-84817400D01*
X135955400Y-85782600D01*
%TO.C,J3*%
G36*
X155244600Y-83547400D02*
G01*
X154025400Y-83547400D01*
X154025400Y-84512600D01*
X155244600Y-84512600D01*
X155244600Y-83547400D01*
G37*
X155244600Y-83547400D02*
X154025400Y-83547400D01*
X154025400Y-84512600D01*
X155244600Y-84512600D01*
X155244600Y-83547400D01*
G36*
X155244600Y-81007400D02*
G01*
X154025400Y-81007400D01*
X154025400Y-81972600D01*
X155244600Y-81972600D01*
X155244600Y-81007400D01*
G37*
X155244600Y-81007400D02*
X154025400Y-81007400D01*
X154025400Y-81972600D01*
X155244600Y-81972600D01*
X155244600Y-81007400D01*
G36*
X155244600Y-86087400D02*
G01*
X154025400Y-86087400D01*
X154025400Y-87052600D01*
X155244600Y-87052600D01*
X155244600Y-86087400D01*
G37*
X155244600Y-86087400D02*
X154025400Y-86087400D01*
X154025400Y-87052600D01*
X155244600Y-87052600D01*
X155244600Y-86087400D01*
G36*
X155244600Y-82277400D02*
G01*
X154025400Y-82277400D01*
X154025400Y-83242600D01*
X155244600Y-83242600D01*
X155244600Y-82277400D01*
G37*
X155244600Y-82277400D02*
X154025400Y-82277400D01*
X154025400Y-83242600D01*
X155244600Y-83242600D01*
X155244600Y-82277400D01*
G36*
X155244600Y-79737400D02*
G01*
X154025400Y-79737400D01*
X154025400Y-80702600D01*
X155244600Y-80702600D01*
X155244600Y-79737400D01*
G37*
X155244600Y-79737400D02*
X154025400Y-79737400D01*
X154025400Y-80702600D01*
X155244600Y-80702600D01*
X155244600Y-79737400D01*
G36*
X155244600Y-75927400D02*
G01*
X154025400Y-75927400D01*
X154025400Y-76892600D01*
X155244600Y-76892600D01*
X155244600Y-75927400D01*
G37*
X155244600Y-75927400D02*
X154025400Y-75927400D01*
X154025400Y-76892600D01*
X155244600Y-76892600D01*
X155244600Y-75927400D01*
G36*
X155244600Y-78467400D02*
G01*
X154025400Y-78467400D01*
X154025400Y-79432600D01*
X155244600Y-79432600D01*
X155244600Y-78467400D01*
G37*
X155244600Y-78467400D02*
X154025400Y-78467400D01*
X154025400Y-79432600D01*
X155244600Y-79432600D01*
X155244600Y-78467400D01*
G36*
X155244600Y-84817400D02*
G01*
X154025400Y-84817400D01*
X154025400Y-85782600D01*
X155244600Y-85782600D01*
X155244600Y-84817400D01*
G37*
X155244600Y-84817400D02*
X154025400Y-84817400D01*
X154025400Y-85782600D01*
X155244600Y-85782600D01*
X155244600Y-84817400D01*
G36*
X155244600Y-77197400D02*
G01*
X154025400Y-77197400D01*
X154025400Y-78162600D01*
X155244600Y-78162600D01*
X155244600Y-77197400D01*
G37*
X155244600Y-77197400D02*
X154025400Y-77197400D01*
X154025400Y-78162600D01*
X155244600Y-78162600D01*
X155244600Y-77197400D01*
G36*
X155244600Y-74657400D02*
G01*
X154025400Y-74657400D01*
X154025400Y-75622600D01*
X155244600Y-75622600D01*
X155244600Y-74657400D01*
G37*
X155244600Y-74657400D02*
X154025400Y-74657400D01*
X154025400Y-75622600D01*
X155244600Y-75622600D01*
X155244600Y-74657400D01*
G36*
X155244600Y-72117400D02*
G01*
X154025400Y-72117400D01*
X154025400Y-73082600D01*
X155244600Y-73082600D01*
X155244600Y-72117400D01*
G37*
X155244600Y-72117400D02*
X154025400Y-72117400D01*
X154025400Y-73082600D01*
X155244600Y-73082600D01*
X155244600Y-72117400D01*
G36*
X155244600Y-73387400D02*
G01*
X154025400Y-73387400D01*
X154025400Y-74352600D01*
X155244600Y-74352600D01*
X155244600Y-73387400D01*
G37*
X155244600Y-73387400D02*
X154025400Y-73387400D01*
X154025400Y-74352600D01*
X155244600Y-74352600D01*
X155244600Y-73387400D01*
D11*
%TO.C,ANT1*%
G36*
X139928600Y-67068700D02*
G01*
X139928600Y-71132700D01*
X138811000Y-71145400D01*
X138811000Y-67081400D01*
X139115800Y-66065400D01*
X139115800Y-58953400D01*
X140766800Y-58953400D01*
X140766800Y-62763400D01*
X141401800Y-62763400D01*
X141401800Y-58953400D01*
X143052800Y-58953400D01*
X143052800Y-62763400D01*
X143687800Y-62763400D01*
X143687800Y-58953400D01*
X145338800Y-58953400D01*
X145338800Y-62763400D01*
X145973800Y-62763400D01*
X145973800Y-58953400D01*
X150164800Y-58953400D01*
X150164800Y-59461400D01*
X146481800Y-59461400D01*
X146481800Y-63271400D01*
X144830800Y-63271400D01*
X144830800Y-59461400D01*
X144195800Y-59461400D01*
X144195800Y-63271400D01*
X142544800Y-63271400D01*
X142544800Y-59461400D01*
X141909800Y-59461400D01*
X141909800Y-63271400D01*
X140258800Y-63271400D01*
X140258800Y-59461400D01*
X139623800Y-59461400D01*
X139623800Y-64795400D01*
X146558000Y-64795400D01*
X146558000Y-65303400D01*
X139623800Y-65303400D01*
X139623800Y-66065400D01*
X139928600Y-67068700D01*
G37*
%TD*%
D12*
%TO.C,J2*%
X141140000Y-90700000D03*
X151300000Y-90700000D03*
X143680000Y-90700000D03*
X146220000Y-90700000D03*
X152570000Y-90700000D03*
X150030000Y-90700000D03*
X144950000Y-90700000D03*
D13*
X138600000Y-90700000D03*
D12*
X147490000Y-90700000D03*
X148760000Y-90700000D03*
X142410000Y-90700000D03*
X139870000Y-90700000D03*
X138600000Y-91970000D03*
X151300000Y-91970000D03*
X148760000Y-91970000D03*
X147490000Y-91970000D03*
X143680000Y-91970000D03*
X150030000Y-91970000D03*
X141140000Y-91970000D03*
X144950000Y-91970000D03*
X152570000Y-91970000D03*
X146220000Y-91970000D03*
X139870000Y-91970000D03*
X142410000Y-91970000D03*
%TD*%
%TO.C,J1*%
X137200000Y-75140000D03*
X137200000Y-85300000D03*
X137200000Y-77680000D03*
X137200000Y-80220000D03*
X137200000Y-86570000D03*
X137200000Y-84030000D03*
X137200000Y-78950000D03*
D13*
X137200000Y-72600000D03*
D12*
X137200000Y-81490000D03*
X137200000Y-82760000D03*
X137200000Y-76410000D03*
X137200000Y-73870000D03*
X135930000Y-72600000D03*
X135930000Y-85300000D03*
X135930000Y-82760000D03*
X135930000Y-81490000D03*
X135930000Y-77680000D03*
X135930000Y-84030000D03*
X135930000Y-75140000D03*
X135930000Y-78950000D03*
X135930000Y-86570000D03*
X135930000Y-80220000D03*
X135930000Y-73870000D03*
X135930000Y-76410000D03*
%TD*%
%TO.C,J3*%
X154000000Y-84030000D03*
X154000000Y-73870000D03*
X154000000Y-81490000D03*
X154000000Y-78950000D03*
X154000000Y-72600000D03*
X154000000Y-75140000D03*
X154000000Y-80220000D03*
D13*
X154000000Y-86570000D03*
D12*
X154000000Y-77680000D03*
X154000000Y-76410000D03*
X154000000Y-82760000D03*
X154000000Y-85300000D03*
X155270000Y-86570000D03*
X155270000Y-73870000D03*
X155270000Y-76410000D03*
X155270000Y-77680000D03*
X155270000Y-81490000D03*
X155270000Y-75140000D03*
X155270000Y-84030000D03*
X155270000Y-80220000D03*
X155270000Y-72600000D03*
X155270000Y-78950000D03*
X155270000Y-85300000D03*
X155270000Y-82760000D03*
%TD*%
D11*
%TO.C,ANT1*%
G36*
X138811000Y-71145400D02*
G01*
X138811000Y-69494400D01*
X139928600Y-69494400D01*
X139928600Y-71145400D01*
X138811000Y-71145400D01*
G37*
%TD*%
%TO.C,C4*%
G36*
G01*
X142000000Y-85630000D02*
X142000000Y-85970000D01*
G75*
G02*
X141860000Y-86110000I-140000J0D01*
G01*
X141580000Y-86110000D01*
G75*
G02*
X141440000Y-85970000I0J140000D01*
G01*
X141440000Y-85630000D01*
G75*
G02*
X141580000Y-85490000I140000J0D01*
G01*
X141860000Y-85490000D01*
G75*
G02*
X142000000Y-85630000I0J-140000D01*
G01*
G37*
G36*
G01*
X142960000Y-85630000D02*
X142960000Y-85970000D01*
G75*
G02*
X142820000Y-86110000I-140000J0D01*
G01*
X142540000Y-86110000D01*
G75*
G02*
X142400000Y-85970000I0J140000D01*
G01*
X142400000Y-85630000D01*
G75*
G02*
X142540000Y-85490000I140000J0D01*
G01*
X142820000Y-85490000D01*
G75*
G02*
X142960000Y-85630000I0J-140000D01*
G01*
G37*
%TD*%
%TO.C,C1*%
G36*
G01*
X148530000Y-87620000D02*
X148870000Y-87620000D01*
G75*
G02*
X149010000Y-87760000I0J-140000D01*
G01*
X149010000Y-88040000D01*
G75*
G02*
X148870000Y-88180000I-140000J0D01*
G01*
X148530000Y-88180000D01*
G75*
G02*
X148390000Y-88040000I0J140000D01*
G01*
X148390000Y-87760000D01*
G75*
G02*
X148530000Y-87620000I140000J0D01*
G01*
G37*
G36*
G01*
X148530000Y-86660000D02*
X148870000Y-86660000D01*
G75*
G02*
X149010000Y-86800000I0J-140000D01*
G01*
X149010000Y-87080000D01*
G75*
G02*
X148870000Y-87220000I-140000J0D01*
G01*
X148530000Y-87220000D01*
G75*
G02*
X148390000Y-87080000I0J140000D01*
G01*
X148390000Y-86800000D01*
G75*
G02*
X148530000Y-86660000I140000J0D01*
G01*
G37*
%TD*%
D14*
%TO.C,Y1*%
X144700000Y-73350000D03*
X146100000Y-73350000D03*
X146100000Y-72250000D03*
X144700000Y-72250000D03*
%TD*%
%TO.C,U1*%
G36*
G01*
X143450000Y-84750000D02*
X143350000Y-84750000D01*
G75*
G02*
X143300000Y-84700000I0J50000D01*
G01*
X143300000Y-84000000D01*
G75*
G02*
X143350000Y-83950000I50000J0D01*
G01*
X143450000Y-83950000D01*
G75*
G02*
X143500000Y-84000000I0J-50000D01*
G01*
X143500000Y-84700000D01*
G75*
G02*
X143450000Y-84750000I-50000J0D01*
G01*
G37*
G36*
G01*
X143850000Y-84750000D02*
X143750000Y-84750000D01*
G75*
G02*
X143700000Y-84700000I0J50000D01*
G01*
X143700000Y-84000000D01*
G75*
G02*
X143750000Y-83950000I50000J0D01*
G01*
X143850000Y-83950000D01*
G75*
G02*
X143900000Y-84000000I0J-50000D01*
G01*
X143900000Y-84700000D01*
G75*
G02*
X143850000Y-84750000I-50000J0D01*
G01*
G37*
G36*
G01*
X144250000Y-84750000D02*
X144150000Y-84750000D01*
G75*
G02*
X144100000Y-84700000I0J50000D01*
G01*
X144100000Y-84000000D01*
G75*
G02*
X144150000Y-83950000I50000J0D01*
G01*
X144250000Y-83950000D01*
G75*
G02*
X144300000Y-84000000I0J-50000D01*
G01*
X144300000Y-84700000D01*
G75*
G02*
X144250000Y-84750000I-50000J0D01*
G01*
G37*
G36*
G01*
X144650000Y-84750000D02*
X144550000Y-84750000D01*
G75*
G02*
X144500000Y-84700000I0J50000D01*
G01*
X144500000Y-84000000D01*
G75*
G02*
X144550000Y-83950000I50000J0D01*
G01*
X144650000Y-83950000D01*
G75*
G02*
X144700000Y-84000000I0J-50000D01*
G01*
X144700000Y-84700000D01*
G75*
G02*
X144650000Y-84750000I-50000J0D01*
G01*
G37*
G36*
G01*
X145050000Y-84750000D02*
X144950000Y-84750000D01*
G75*
G02*
X144900000Y-84700000I0J50000D01*
G01*
X144900000Y-84000000D01*
G75*
G02*
X144950000Y-83950000I50000J0D01*
G01*
X145050000Y-83950000D01*
G75*
G02*
X145100000Y-84000000I0J-50000D01*
G01*
X145100000Y-84700000D01*
G75*
G02*
X145050000Y-84750000I-50000J0D01*
G01*
G37*
G36*
G01*
X145450000Y-84750000D02*
X145350000Y-84750000D01*
G75*
G02*
X145300000Y-84700000I0J50000D01*
G01*
X145300000Y-84000000D01*
G75*
G02*
X145350000Y-83950000I50000J0D01*
G01*
X145450000Y-83950000D01*
G75*
G02*
X145500000Y-84000000I0J-50000D01*
G01*
X145500000Y-84700000D01*
G75*
G02*
X145450000Y-84750000I-50000J0D01*
G01*
G37*
G36*
G01*
X145850000Y-84750000D02*
X145750000Y-84750000D01*
G75*
G02*
X145700000Y-84700000I0J50000D01*
G01*
X145700000Y-84000000D01*
G75*
G02*
X145750000Y-83950000I50000J0D01*
G01*
X145850000Y-83950000D01*
G75*
G02*
X145900000Y-84000000I0J-50000D01*
G01*
X145900000Y-84700000D01*
G75*
G02*
X145850000Y-84750000I-50000J0D01*
G01*
G37*
G36*
G01*
X146250000Y-84750000D02*
X146150000Y-84750000D01*
G75*
G02*
X146100000Y-84700000I0J50000D01*
G01*
X146100000Y-84000000D01*
G75*
G02*
X146150000Y-83950000I50000J0D01*
G01*
X146250000Y-83950000D01*
G75*
G02*
X146300000Y-84000000I0J-50000D01*
G01*
X146300000Y-84700000D01*
G75*
G02*
X146250000Y-84750000I-50000J0D01*
G01*
G37*
G36*
G01*
X146650000Y-84750000D02*
X146550000Y-84750000D01*
G75*
G02*
X146500000Y-84700000I0J50000D01*
G01*
X146500000Y-84000000D01*
G75*
G02*
X146550000Y-83950000I50000J0D01*
G01*
X146650000Y-83950000D01*
G75*
G02*
X146700000Y-84000000I0J-50000D01*
G01*
X146700000Y-84700000D01*
G75*
G02*
X146650000Y-84750000I-50000J0D01*
G01*
G37*
G36*
G01*
X147050000Y-84750000D02*
X146950000Y-84750000D01*
G75*
G02*
X146900000Y-84700000I0J50000D01*
G01*
X146900000Y-84000000D01*
G75*
G02*
X146950000Y-83950000I50000J0D01*
G01*
X147050000Y-83950000D01*
G75*
G02*
X147100000Y-84000000I0J-50000D01*
G01*
X147100000Y-84700000D01*
G75*
G02*
X147050000Y-84750000I-50000J0D01*
G01*
G37*
G36*
G01*
X147450000Y-84750000D02*
X147350000Y-84750000D01*
G75*
G02*
X147300000Y-84700000I0J50000D01*
G01*
X147300000Y-84000000D01*
G75*
G02*
X147350000Y-83950000I50000J0D01*
G01*
X147450000Y-83950000D01*
G75*
G02*
X147500000Y-84000000I0J-50000D01*
G01*
X147500000Y-84700000D01*
G75*
G02*
X147450000Y-84750000I-50000J0D01*
G01*
G37*
G36*
G01*
X147850000Y-84750000D02*
X147750000Y-84750000D01*
G75*
G02*
X147700000Y-84700000I0J50000D01*
G01*
X147700000Y-84000000D01*
G75*
G02*
X147750000Y-83950000I50000J0D01*
G01*
X147850000Y-83950000D01*
G75*
G02*
X147900000Y-84000000I0J-50000D01*
G01*
X147900000Y-84700000D01*
G75*
G02*
X147850000Y-84750000I-50000J0D01*
G01*
G37*
G36*
G01*
X148900000Y-83700000D02*
X148200000Y-83700000D01*
G75*
G02*
X148150000Y-83650000I0J50000D01*
G01*
X148150000Y-83550000D01*
G75*
G02*
X148200000Y-83500000I50000J0D01*
G01*
X148900000Y-83500000D01*
G75*
G02*
X148950000Y-83550000I0J-50000D01*
G01*
X148950000Y-83650000D01*
G75*
G02*
X148900000Y-83700000I-50000J0D01*
G01*
G37*
G36*
G01*
X148900000Y-83300000D02*
X148200000Y-83300000D01*
G75*
G02*
X148150000Y-83250000I0J50000D01*
G01*
X148150000Y-83150000D01*
G75*
G02*
X148200000Y-83100000I50000J0D01*
G01*
X148900000Y-83100000D01*
G75*
G02*
X148950000Y-83150000I0J-50000D01*
G01*
X148950000Y-83250000D01*
G75*
G02*
X148900000Y-83300000I-50000J0D01*
G01*
G37*
G36*
G01*
X148900000Y-82900000D02*
X148200000Y-82900000D01*
G75*
G02*
X148150000Y-82850000I0J50000D01*
G01*
X148150000Y-82750000D01*
G75*
G02*
X148200000Y-82700000I50000J0D01*
G01*
X148900000Y-82700000D01*
G75*
G02*
X148950000Y-82750000I0J-50000D01*
G01*
X148950000Y-82850000D01*
G75*
G02*
X148900000Y-82900000I-50000J0D01*
G01*
G37*
G36*
G01*
X148900000Y-82500000D02*
X148200000Y-82500000D01*
G75*
G02*
X148150000Y-82450000I0J50000D01*
G01*
X148150000Y-82350000D01*
G75*
G02*
X148200000Y-82300000I50000J0D01*
G01*
X148900000Y-82300000D01*
G75*
G02*
X148950000Y-82350000I0J-50000D01*
G01*
X148950000Y-82450000D01*
G75*
G02*
X148900000Y-82500000I-50000J0D01*
G01*
G37*
G36*
G01*
X148900000Y-82100000D02*
X148200000Y-82100000D01*
G75*
G02*
X148150000Y-82050000I0J50000D01*
G01*
X148150000Y-81950000D01*
G75*
G02*
X148200000Y-81900000I50000J0D01*
G01*
X148900000Y-81900000D01*
G75*
G02*
X148950000Y-81950000I0J-50000D01*
G01*
X148950000Y-82050000D01*
G75*
G02*
X148900000Y-82100000I-50000J0D01*
G01*
G37*
G36*
G01*
X148900000Y-81700000D02*
X148200000Y-81700000D01*
G75*
G02*
X148150000Y-81650000I0J50000D01*
G01*
X148150000Y-81550000D01*
G75*
G02*
X148200000Y-81500000I50000J0D01*
G01*
X148900000Y-81500000D01*
G75*
G02*
X148950000Y-81550000I0J-50000D01*
G01*
X148950000Y-81650000D01*
G75*
G02*
X148900000Y-81700000I-50000J0D01*
G01*
G37*
G36*
G01*
X148900000Y-81300000D02*
X148200000Y-81300000D01*
G75*
G02*
X148150000Y-81250000I0J50000D01*
G01*
X148150000Y-81150000D01*
G75*
G02*
X148200000Y-81100000I50000J0D01*
G01*
X148900000Y-81100000D01*
G75*
G02*
X148950000Y-81150000I0J-50000D01*
G01*
X148950000Y-81250000D01*
G75*
G02*
X148900000Y-81300000I-50000J0D01*
G01*
G37*
G36*
G01*
X148900000Y-80900000D02*
X148200000Y-80900000D01*
G75*
G02*
X148150000Y-80850000I0J50000D01*
G01*
X148150000Y-80750000D01*
G75*
G02*
X148200000Y-80700000I50000J0D01*
G01*
X148900000Y-80700000D01*
G75*
G02*
X148950000Y-80750000I0J-50000D01*
G01*
X148950000Y-80850000D01*
G75*
G02*
X148900000Y-80900000I-50000J0D01*
G01*
G37*
G36*
G01*
X148900000Y-80500000D02*
X148200000Y-80500000D01*
G75*
G02*
X148150000Y-80450000I0J50000D01*
G01*
X148150000Y-80350000D01*
G75*
G02*
X148200000Y-80300000I50000J0D01*
G01*
X148900000Y-80300000D01*
G75*
G02*
X148950000Y-80350000I0J-50000D01*
G01*
X148950000Y-80450000D01*
G75*
G02*
X148900000Y-80500000I-50000J0D01*
G01*
G37*
G36*
G01*
X148900000Y-80100000D02*
X148200000Y-80100000D01*
G75*
G02*
X148150000Y-80050000I0J50000D01*
G01*
X148150000Y-79950000D01*
G75*
G02*
X148200000Y-79900000I50000J0D01*
G01*
X148900000Y-79900000D01*
G75*
G02*
X148950000Y-79950000I0J-50000D01*
G01*
X148950000Y-80050000D01*
G75*
G02*
X148900000Y-80100000I-50000J0D01*
G01*
G37*
G36*
G01*
X148900000Y-79700000D02*
X148200000Y-79700000D01*
G75*
G02*
X148150000Y-79650000I0J50000D01*
G01*
X148150000Y-79550000D01*
G75*
G02*
X148200000Y-79500000I50000J0D01*
G01*
X148900000Y-79500000D01*
G75*
G02*
X148950000Y-79550000I0J-50000D01*
G01*
X148950000Y-79650000D01*
G75*
G02*
X148900000Y-79700000I-50000J0D01*
G01*
G37*
G36*
G01*
X148900000Y-79300000D02*
X148200000Y-79300000D01*
G75*
G02*
X148150000Y-79250000I0J50000D01*
G01*
X148150000Y-79150000D01*
G75*
G02*
X148200000Y-79100000I50000J0D01*
G01*
X148900000Y-79100000D01*
G75*
G02*
X148950000Y-79150000I0J-50000D01*
G01*
X148950000Y-79250000D01*
G75*
G02*
X148900000Y-79300000I-50000J0D01*
G01*
G37*
G36*
G01*
X147850000Y-78850000D02*
X147750000Y-78850000D01*
G75*
G02*
X147700000Y-78800000I0J50000D01*
G01*
X147700000Y-78100000D01*
G75*
G02*
X147750000Y-78050000I50000J0D01*
G01*
X147850000Y-78050000D01*
G75*
G02*
X147900000Y-78100000I0J-50000D01*
G01*
X147900000Y-78800000D01*
G75*
G02*
X147850000Y-78850000I-50000J0D01*
G01*
G37*
G36*
G01*
X147450000Y-78850000D02*
X147350000Y-78850000D01*
G75*
G02*
X147300000Y-78800000I0J50000D01*
G01*
X147300000Y-78100000D01*
G75*
G02*
X147350000Y-78050000I50000J0D01*
G01*
X147450000Y-78050000D01*
G75*
G02*
X147500000Y-78100000I0J-50000D01*
G01*
X147500000Y-78800000D01*
G75*
G02*
X147450000Y-78850000I-50000J0D01*
G01*
G37*
G36*
G01*
X147050000Y-78850000D02*
X146950000Y-78850000D01*
G75*
G02*
X146900000Y-78800000I0J50000D01*
G01*
X146900000Y-78100000D01*
G75*
G02*
X146950000Y-78050000I50000J0D01*
G01*
X147050000Y-78050000D01*
G75*
G02*
X147100000Y-78100000I0J-50000D01*
G01*
X147100000Y-78800000D01*
G75*
G02*
X147050000Y-78850000I-50000J0D01*
G01*
G37*
G36*
G01*
X146650000Y-78850000D02*
X146550000Y-78850000D01*
G75*
G02*
X146500000Y-78800000I0J50000D01*
G01*
X146500000Y-78100000D01*
G75*
G02*
X146550000Y-78050000I50000J0D01*
G01*
X146650000Y-78050000D01*
G75*
G02*
X146700000Y-78100000I0J-50000D01*
G01*
X146700000Y-78800000D01*
G75*
G02*
X146650000Y-78850000I-50000J0D01*
G01*
G37*
G36*
G01*
X146250000Y-78850000D02*
X146150000Y-78850000D01*
G75*
G02*
X146100000Y-78800000I0J50000D01*
G01*
X146100000Y-78100000D01*
G75*
G02*
X146150000Y-78050000I50000J0D01*
G01*
X146250000Y-78050000D01*
G75*
G02*
X146300000Y-78100000I0J-50000D01*
G01*
X146300000Y-78800000D01*
G75*
G02*
X146250000Y-78850000I-50000J0D01*
G01*
G37*
G36*
G01*
X145850000Y-78850000D02*
X145750000Y-78850000D01*
G75*
G02*
X145700000Y-78800000I0J50000D01*
G01*
X145700000Y-78100000D01*
G75*
G02*
X145750000Y-78050000I50000J0D01*
G01*
X145850000Y-78050000D01*
G75*
G02*
X145900000Y-78100000I0J-50000D01*
G01*
X145900000Y-78800000D01*
G75*
G02*
X145850000Y-78850000I-50000J0D01*
G01*
G37*
G36*
G01*
X145450000Y-78850000D02*
X145350000Y-78850000D01*
G75*
G02*
X145300000Y-78800000I0J50000D01*
G01*
X145300000Y-78100000D01*
G75*
G02*
X145350000Y-78050000I50000J0D01*
G01*
X145450000Y-78050000D01*
G75*
G02*
X145500000Y-78100000I0J-50000D01*
G01*
X145500000Y-78800000D01*
G75*
G02*
X145450000Y-78850000I-50000J0D01*
G01*
G37*
G36*
G01*
X145050000Y-78850000D02*
X144950000Y-78850000D01*
G75*
G02*
X144900000Y-78800000I0J50000D01*
G01*
X144900000Y-78100000D01*
G75*
G02*
X144950000Y-78050000I50000J0D01*
G01*
X145050000Y-78050000D01*
G75*
G02*
X145100000Y-78100000I0J-50000D01*
G01*
X145100000Y-78800000D01*
G75*
G02*
X145050000Y-78850000I-50000J0D01*
G01*
G37*
G36*
G01*
X144650000Y-78850000D02*
X144550000Y-78850000D01*
G75*
G02*
X144500000Y-78800000I0J50000D01*
G01*
X144500000Y-78100000D01*
G75*
G02*
X144550000Y-78050000I50000J0D01*
G01*
X144650000Y-78050000D01*
G75*
G02*
X144700000Y-78100000I0J-50000D01*
G01*
X144700000Y-78800000D01*
G75*
G02*
X144650000Y-78850000I-50000J0D01*
G01*
G37*
G36*
G01*
X144250000Y-78850000D02*
X144150000Y-78850000D01*
G75*
G02*
X144100000Y-78800000I0J50000D01*
G01*
X144100000Y-78100000D01*
G75*
G02*
X144150000Y-78050000I50000J0D01*
G01*
X144250000Y-78050000D01*
G75*
G02*
X144300000Y-78100000I0J-50000D01*
G01*
X144300000Y-78800000D01*
G75*
G02*
X144250000Y-78850000I-50000J0D01*
G01*
G37*
G36*
G01*
X143850000Y-78850000D02*
X143750000Y-78850000D01*
G75*
G02*
X143700000Y-78800000I0J50000D01*
G01*
X143700000Y-78100000D01*
G75*
G02*
X143750000Y-78050000I50000J0D01*
G01*
X143850000Y-78050000D01*
G75*
G02*
X143900000Y-78100000I0J-50000D01*
G01*
X143900000Y-78800000D01*
G75*
G02*
X143850000Y-78850000I-50000J0D01*
G01*
G37*
G36*
G01*
X143450000Y-78850000D02*
X143350000Y-78850000D01*
G75*
G02*
X143300000Y-78800000I0J50000D01*
G01*
X143300000Y-78100000D01*
G75*
G02*
X143350000Y-78050000I50000J0D01*
G01*
X143450000Y-78050000D01*
G75*
G02*
X143500000Y-78100000I0J-50000D01*
G01*
X143500000Y-78800000D01*
G75*
G02*
X143450000Y-78850000I-50000J0D01*
G01*
G37*
G36*
G01*
X143000000Y-79300000D02*
X142300000Y-79300000D01*
G75*
G02*
X142250000Y-79250000I0J50000D01*
G01*
X142250000Y-79150000D01*
G75*
G02*
X142300000Y-79100000I50000J0D01*
G01*
X143000000Y-79100000D01*
G75*
G02*
X143050000Y-79150000I0J-50000D01*
G01*
X143050000Y-79250000D01*
G75*
G02*
X143000000Y-79300000I-50000J0D01*
G01*
G37*
G36*
G01*
X143000000Y-79700000D02*
X142300000Y-79700000D01*
G75*
G02*
X142250000Y-79650000I0J50000D01*
G01*
X142250000Y-79550000D01*
G75*
G02*
X142300000Y-79500000I50000J0D01*
G01*
X143000000Y-79500000D01*
G75*
G02*
X143050000Y-79550000I0J-50000D01*
G01*
X143050000Y-79650000D01*
G75*
G02*
X143000000Y-79700000I-50000J0D01*
G01*
G37*
G36*
G01*
X143000000Y-80100000D02*
X142300000Y-80100000D01*
G75*
G02*
X142250000Y-80050000I0J50000D01*
G01*
X142250000Y-79950000D01*
G75*
G02*
X142300000Y-79900000I50000J0D01*
G01*
X143000000Y-79900000D01*
G75*
G02*
X143050000Y-79950000I0J-50000D01*
G01*
X143050000Y-80050000D01*
G75*
G02*
X143000000Y-80100000I-50000J0D01*
G01*
G37*
G36*
G01*
X143000000Y-80500000D02*
X142300000Y-80500000D01*
G75*
G02*
X142250000Y-80450000I0J50000D01*
G01*
X142250000Y-80350000D01*
G75*
G02*
X142300000Y-80300000I50000J0D01*
G01*
X143000000Y-80300000D01*
G75*
G02*
X143050000Y-80350000I0J-50000D01*
G01*
X143050000Y-80450000D01*
G75*
G02*
X143000000Y-80500000I-50000J0D01*
G01*
G37*
G36*
G01*
X143000000Y-80900000D02*
X142300000Y-80900000D01*
G75*
G02*
X142250000Y-80850000I0J50000D01*
G01*
X142250000Y-80750000D01*
G75*
G02*
X142300000Y-80700000I50000J0D01*
G01*
X143000000Y-80700000D01*
G75*
G02*
X143050000Y-80750000I0J-50000D01*
G01*
X143050000Y-80850000D01*
G75*
G02*
X143000000Y-80900000I-50000J0D01*
G01*
G37*
G36*
G01*
X143000000Y-81300000D02*
X142300000Y-81300000D01*
G75*
G02*
X142250000Y-81250000I0J50000D01*
G01*
X142250000Y-81150000D01*
G75*
G02*
X142300000Y-81100000I50000J0D01*
G01*
X143000000Y-81100000D01*
G75*
G02*
X143050000Y-81150000I0J-50000D01*
G01*
X143050000Y-81250000D01*
G75*
G02*
X143000000Y-81300000I-50000J0D01*
G01*
G37*
G36*
G01*
X143000000Y-81700000D02*
X142300000Y-81700000D01*
G75*
G02*
X142250000Y-81650000I0J50000D01*
G01*
X142250000Y-81550000D01*
G75*
G02*
X142300000Y-81500000I50000J0D01*
G01*
X143000000Y-81500000D01*
G75*
G02*
X143050000Y-81550000I0J-50000D01*
G01*
X143050000Y-81650000D01*
G75*
G02*
X143000000Y-81700000I-50000J0D01*
G01*
G37*
G36*
G01*
X143000000Y-82100000D02*
X142300000Y-82100000D01*
G75*
G02*
X142250000Y-82050000I0J50000D01*
G01*
X142250000Y-81950000D01*
G75*
G02*
X142300000Y-81900000I50000J0D01*
G01*
X143000000Y-81900000D01*
G75*
G02*
X143050000Y-81950000I0J-50000D01*
G01*
X143050000Y-82050000D01*
G75*
G02*
X143000000Y-82100000I-50000J0D01*
G01*
G37*
G36*
G01*
X143000000Y-82500000D02*
X142300000Y-82500000D01*
G75*
G02*
X142250000Y-82450000I0J50000D01*
G01*
X142250000Y-82350000D01*
G75*
G02*
X142300000Y-82300000I50000J0D01*
G01*
X143000000Y-82300000D01*
G75*
G02*
X143050000Y-82350000I0J-50000D01*
G01*
X143050000Y-82450000D01*
G75*
G02*
X143000000Y-82500000I-50000J0D01*
G01*
G37*
G36*
G01*
X143000000Y-82900000D02*
X142300000Y-82900000D01*
G75*
G02*
X142250000Y-82850000I0J50000D01*
G01*
X142250000Y-82750000D01*
G75*
G02*
X142300000Y-82700000I50000J0D01*
G01*
X143000000Y-82700000D01*
G75*
G02*
X143050000Y-82750000I0J-50000D01*
G01*
X143050000Y-82850000D01*
G75*
G02*
X143000000Y-82900000I-50000J0D01*
G01*
G37*
G36*
G01*
X143000000Y-83300000D02*
X142300000Y-83300000D01*
G75*
G02*
X142250000Y-83250000I0J50000D01*
G01*
X142250000Y-83150000D01*
G75*
G02*
X142300000Y-83100000I50000J0D01*
G01*
X143000000Y-83100000D01*
G75*
G02*
X143050000Y-83150000I0J-50000D01*
G01*
X143050000Y-83250000D01*
G75*
G02*
X143000000Y-83300000I-50000J0D01*
G01*
G37*
G36*
G01*
X143000000Y-83700000D02*
X142300000Y-83700000D01*
G75*
G02*
X142250000Y-83650000I0J50000D01*
G01*
X142250000Y-83550000D01*
G75*
G02*
X142300000Y-83500000I50000J0D01*
G01*
X143000000Y-83500000D01*
G75*
G02*
X143050000Y-83550000I0J-50000D01*
G01*
X143050000Y-83650000D01*
G75*
G02*
X143000000Y-83700000I-50000J0D01*
G01*
G37*
D15*
X145600000Y-81400000D03*
%TD*%
%TO.C,L3*%
G36*
G01*
X139227500Y-71620000D02*
X139572500Y-71620000D01*
G75*
G02*
X139720000Y-71767500I0J-147500D01*
G01*
X139720000Y-72062500D01*
G75*
G02*
X139572500Y-72210000I-147500J0D01*
G01*
X139227500Y-72210000D01*
G75*
G02*
X139080000Y-72062500I0J147500D01*
G01*
X139080000Y-71767500D01*
G75*
G02*
X139227500Y-71620000I147500J0D01*
G01*
G37*
G36*
G01*
X139227500Y-72590000D02*
X139572500Y-72590000D01*
G75*
G02*
X139720000Y-72737500I0J-147500D01*
G01*
X139720000Y-73032500D01*
G75*
G02*
X139572500Y-73180000I-147500J0D01*
G01*
X139227500Y-73180000D01*
G75*
G02*
X139080000Y-73032500I0J147500D01*
G01*
X139080000Y-72737500D01*
G75*
G02*
X139227500Y-72590000I147500J0D01*
G01*
G37*
%TD*%
%TO.C,L2*%
G36*
G01*
X139743750Y-82975000D02*
X140256250Y-82975000D01*
G75*
G02*
X140475000Y-83193750I0J-218750D01*
G01*
X140475000Y-83631250D01*
G75*
G02*
X140256250Y-83850000I-218750J0D01*
G01*
X139743750Y-83850000D01*
G75*
G02*
X139525000Y-83631250I0J218750D01*
G01*
X139525000Y-83193750D01*
G75*
G02*
X139743750Y-82975000I218750J0D01*
G01*
G37*
G36*
G01*
X139743750Y-84550000D02*
X140256250Y-84550000D01*
G75*
G02*
X140475000Y-84768750I0J-218750D01*
G01*
X140475000Y-85206250D01*
G75*
G02*
X140256250Y-85425000I-218750J0D01*
G01*
X139743750Y-85425000D01*
G75*
G02*
X139525000Y-85206250I0J218750D01*
G01*
X139525000Y-84768750D01*
G75*
G02*
X139743750Y-84550000I218750J0D01*
G01*
G37*
%TD*%
%TO.C,L1*%
G36*
G01*
X139627500Y-80420000D02*
X139972500Y-80420000D01*
G75*
G02*
X140120000Y-80567500I0J-147500D01*
G01*
X140120000Y-80862500D01*
G75*
G02*
X139972500Y-81010000I-147500J0D01*
G01*
X139627500Y-81010000D01*
G75*
G02*
X139480000Y-80862500I0J147500D01*
G01*
X139480000Y-80567500D01*
G75*
G02*
X139627500Y-80420000I147500J0D01*
G01*
G37*
G36*
G01*
X139627500Y-81390000D02*
X139972500Y-81390000D01*
G75*
G02*
X140120000Y-81537500I0J-147500D01*
G01*
X140120000Y-81832500D01*
G75*
G02*
X139972500Y-81980000I-147500J0D01*
G01*
X139627500Y-81980000D01*
G75*
G02*
X139480000Y-81832500I0J147500D01*
G01*
X139480000Y-81537500D01*
G75*
G02*
X139627500Y-81390000I147500J0D01*
G01*
G37*
%TD*%
%TO.C,C10*%
G36*
G01*
X141370000Y-72200000D02*
X141030000Y-72200000D01*
G75*
G02*
X140890000Y-72060000I0J140000D01*
G01*
X140890000Y-71780000D01*
G75*
G02*
X141030000Y-71640000I140000J0D01*
G01*
X141370000Y-71640000D01*
G75*
G02*
X141510000Y-71780000I0J-140000D01*
G01*
X141510000Y-72060000D01*
G75*
G02*
X141370000Y-72200000I-140000J0D01*
G01*
G37*
G36*
G01*
X141370000Y-73160000D02*
X141030000Y-73160000D01*
G75*
G02*
X140890000Y-73020000I0J140000D01*
G01*
X140890000Y-72740000D01*
G75*
G02*
X141030000Y-72600000I140000J0D01*
G01*
X141370000Y-72600000D01*
G75*
G02*
X141510000Y-72740000I0J-140000D01*
G01*
X141510000Y-73020000D01*
G75*
G02*
X141370000Y-73160000I-140000J0D01*
G01*
G37*
%TD*%
%TO.C,C9*%
G36*
G01*
X142970000Y-72200000D02*
X142630000Y-72200000D01*
G75*
G02*
X142490000Y-72060000I0J140000D01*
G01*
X142490000Y-71780000D01*
G75*
G02*
X142630000Y-71640000I140000J0D01*
G01*
X142970000Y-71640000D01*
G75*
G02*
X143110000Y-71780000I0J-140000D01*
G01*
X143110000Y-72060000D01*
G75*
G02*
X142970000Y-72200000I-140000J0D01*
G01*
G37*
G36*
G01*
X142970000Y-73160000D02*
X142630000Y-73160000D01*
G75*
G02*
X142490000Y-73020000I0J140000D01*
G01*
X142490000Y-72740000D01*
G75*
G02*
X142630000Y-72600000I140000J0D01*
G01*
X142970000Y-72600000D01*
G75*
G02*
X143110000Y-72740000I0J-140000D01*
G01*
X143110000Y-73020000D01*
G75*
G02*
X142970000Y-73160000I-140000J0D01*
G01*
G37*
%TD*%
%TO.C,C8*%
G36*
G01*
X148170000Y-72200000D02*
X147830000Y-72200000D01*
G75*
G02*
X147690000Y-72060000I0J140000D01*
G01*
X147690000Y-71780000D01*
G75*
G02*
X147830000Y-71640000I140000J0D01*
G01*
X148170000Y-71640000D01*
G75*
G02*
X148310000Y-71780000I0J-140000D01*
G01*
X148310000Y-72060000D01*
G75*
G02*
X148170000Y-72200000I-140000J0D01*
G01*
G37*
G36*
G01*
X148170000Y-73160000D02*
X147830000Y-73160000D01*
G75*
G02*
X147690000Y-73020000I0J140000D01*
G01*
X147690000Y-72740000D01*
G75*
G02*
X147830000Y-72600000I140000J0D01*
G01*
X148170000Y-72600000D01*
G75*
G02*
X148310000Y-72740000I0J-140000D01*
G01*
X148310000Y-73020000D01*
G75*
G02*
X148170000Y-73160000I-140000J0D01*
G01*
G37*
%TD*%
%TO.C,C7*%
G36*
G01*
X139970000Y-78600000D02*
X139630000Y-78600000D01*
G75*
G02*
X139490000Y-78460000I0J140000D01*
G01*
X139490000Y-78180000D01*
G75*
G02*
X139630000Y-78040000I140000J0D01*
G01*
X139970000Y-78040000D01*
G75*
G02*
X140110000Y-78180000I0J-140000D01*
G01*
X140110000Y-78460000D01*
G75*
G02*
X139970000Y-78600000I-140000J0D01*
G01*
G37*
G36*
G01*
X139970000Y-79560000D02*
X139630000Y-79560000D01*
G75*
G02*
X139490000Y-79420000I0J140000D01*
G01*
X139490000Y-79140000D01*
G75*
G02*
X139630000Y-79000000I140000J0D01*
G01*
X139970000Y-79000000D01*
G75*
G02*
X140110000Y-79140000I0J-140000D01*
G01*
X140110000Y-79420000D01*
G75*
G02*
X139970000Y-79560000I-140000J0D01*
G01*
G37*
%TD*%
%TO.C,C6*%
G36*
G01*
X149770000Y-72200000D02*
X149430000Y-72200000D01*
G75*
G02*
X149290000Y-72060000I0J140000D01*
G01*
X149290000Y-71780000D01*
G75*
G02*
X149430000Y-71640000I140000J0D01*
G01*
X149770000Y-71640000D01*
G75*
G02*
X149910000Y-71780000I0J-140000D01*
G01*
X149910000Y-72060000D01*
G75*
G02*
X149770000Y-72200000I-140000J0D01*
G01*
G37*
G36*
G01*
X149770000Y-73160000D02*
X149430000Y-73160000D01*
G75*
G02*
X149290000Y-73020000I0J140000D01*
G01*
X149290000Y-72740000D01*
G75*
G02*
X149430000Y-72600000I140000J0D01*
G01*
X149770000Y-72600000D01*
G75*
G02*
X149910000Y-72740000I0J-140000D01*
G01*
X149910000Y-73020000D01*
G75*
G02*
X149770000Y-73160000I-140000J0D01*
G01*
G37*
%TD*%
%TO.C,C5*%
G36*
G01*
X151370000Y-72200000D02*
X151030000Y-72200000D01*
G75*
G02*
X150890000Y-72060000I0J140000D01*
G01*
X150890000Y-71780000D01*
G75*
G02*
X151030000Y-71640000I140000J0D01*
G01*
X151370000Y-71640000D01*
G75*
G02*
X151510000Y-71780000I0J-140000D01*
G01*
X151510000Y-72060000D01*
G75*
G02*
X151370000Y-72200000I-140000J0D01*
G01*
G37*
G36*
G01*
X151370000Y-73160000D02*
X151030000Y-73160000D01*
G75*
G02*
X150890000Y-73020000I0J140000D01*
G01*
X150890000Y-72740000D01*
G75*
G02*
X151030000Y-72600000I140000J0D01*
G01*
X151370000Y-72600000D01*
G75*
G02*
X151510000Y-72740000I0J-140000D01*
G01*
X151510000Y-73020000D01*
G75*
G02*
X151370000Y-73160000I-140000J0D01*
G01*
G37*
%TD*%
%TO.C,C3*%
G36*
G01*
X139800000Y-86430000D02*
X139800000Y-86770000D01*
G75*
G02*
X139660000Y-86910000I-140000J0D01*
G01*
X139380000Y-86910000D01*
G75*
G02*
X139240000Y-86770000I0J140000D01*
G01*
X139240000Y-86430000D01*
G75*
G02*
X139380000Y-86290000I140000J0D01*
G01*
X139660000Y-86290000D01*
G75*
G02*
X139800000Y-86430000I0J-140000D01*
G01*
G37*
G36*
G01*
X140760000Y-86430000D02*
X140760000Y-86770000D01*
G75*
G02*
X140620000Y-86910000I-140000J0D01*
G01*
X140340000Y-86910000D01*
G75*
G02*
X140200000Y-86770000I0J140000D01*
G01*
X140200000Y-86430000D01*
G75*
G02*
X140340000Y-86290000I140000J0D01*
G01*
X140620000Y-86290000D01*
G75*
G02*
X140760000Y-86430000I0J-140000D01*
G01*
G37*
%TD*%
%TO.C,C2*%
G36*
G01*
X140600000Y-74430000D02*
X140600000Y-74770000D01*
G75*
G02*
X140460000Y-74910000I-140000J0D01*
G01*
X140180000Y-74910000D01*
G75*
G02*
X140040000Y-74770000I0J140000D01*
G01*
X140040000Y-74430000D01*
G75*
G02*
X140180000Y-74290000I140000J0D01*
G01*
X140460000Y-74290000D01*
G75*
G02*
X140600000Y-74430000I0J-140000D01*
G01*
G37*
G36*
G01*
X141560000Y-74430000D02*
X141560000Y-74770000D01*
G75*
G02*
X141420000Y-74910000I-140000J0D01*
G01*
X141140000Y-74910000D01*
G75*
G02*
X141000000Y-74770000I0J140000D01*
G01*
X141000000Y-74430000D01*
G75*
G02*
X141140000Y-74290000I140000J0D01*
G01*
X141420000Y-74290000D01*
G75*
G02*
X141560000Y-74430000I0J-140000D01*
G01*
G37*
%TD*%
M02*
