%TF.GenerationSoftware,KiCad,Pcbnew,(5.1.10)-1*%
%TF.CreationDate,2024-03-30T22:18:20+09:00*%
%TF.ProjectId,BLEModule,424c454d-6f64-4756-9c65-2e6b69636164,rev?*%
%TF.SameCoordinates,Original*%
%TF.FileFunction,Copper,L1,Top*%
%TF.FilePolarity,Positive*%
%FSLAX46Y46*%
G04 Gerber Fmt 4.6, Leading zero omitted, Abs format (unit mm)*
G04 Created by KiCad (PCBNEW (5.1.10)-1) date 2024-03-30 22:18:20*
%MOMM*%
%LPD*%
G01*
G04 APERTURE LIST*
%TA.AperFunction,EtchedComponent*%
%ADD10C,0.035000*%
%TD*%
%TA.AperFunction,EtchedComponent*%
%ADD11C,0.100000*%
%TD*%
%TA.AperFunction,ComponentPad*%
%ADD12O,1.000000X1.000000*%
%TD*%
%TA.AperFunction,ComponentPad*%
%ADD13R,1.000000X1.000000*%
%TD*%
%TA.AperFunction,ConnectorPad*%
%ADD14C,0.100000*%
%TD*%
%TA.AperFunction,SMDPad,CuDef*%
%ADD15R,0.900000X0.800000*%
%TD*%
%TA.AperFunction,SMDPad,CuDef*%
%ADD16R,4.300000X4.300000*%
%TD*%
%TA.AperFunction,ViaPad*%
%ADD17C,0.500000*%
%TD*%
%TA.AperFunction,ViaPad*%
%ADD18C,0.400000*%
%TD*%
%TA.AperFunction,ViaPad*%
%ADD19C,0.635000*%
%TD*%
%TA.AperFunction,Conductor*%
%ADD20C,0.200000*%
%TD*%
%TA.AperFunction,Conductor*%
%ADD21C,0.500000*%
%TD*%
%TA.AperFunction,Conductor*%
%ADD22C,0.250000*%
%TD*%
%TA.AperFunction,Conductor*%
%ADD23C,1.117600*%
%TD*%
%TA.AperFunction,Conductor*%
%ADD24C,0.254000*%
%TD*%
%TA.AperFunction,Conductor*%
%ADD25C,0.100000*%
%TD*%
G04 APERTURE END LIST*
D10*
%TO.C,J2*%
G36*
X140352600Y-91944600D02*
G01*
X140352600Y-90725400D01*
X139387400Y-90725400D01*
X139387400Y-91944600D01*
X140352600Y-91944600D01*
G37*
X140352600Y-91944600D02*
X140352600Y-90725400D01*
X139387400Y-90725400D01*
X139387400Y-91944600D01*
X140352600Y-91944600D01*
G36*
X144162600Y-91944600D02*
G01*
X144162600Y-90725400D01*
X143197400Y-90725400D01*
X143197400Y-91944600D01*
X144162600Y-91944600D01*
G37*
X144162600Y-91944600D02*
X144162600Y-90725400D01*
X143197400Y-90725400D01*
X143197400Y-91944600D01*
X144162600Y-91944600D01*
G36*
X145432600Y-91944600D02*
G01*
X145432600Y-90725400D01*
X144467400Y-90725400D01*
X144467400Y-91944600D01*
X145432600Y-91944600D01*
G37*
X145432600Y-91944600D02*
X145432600Y-90725400D01*
X144467400Y-90725400D01*
X144467400Y-91944600D01*
X145432600Y-91944600D01*
G36*
X146702600Y-91944600D02*
G01*
X146702600Y-90725400D01*
X145737400Y-90725400D01*
X145737400Y-91944600D01*
X146702600Y-91944600D01*
G37*
X146702600Y-91944600D02*
X146702600Y-90725400D01*
X145737400Y-90725400D01*
X145737400Y-91944600D01*
X146702600Y-91944600D01*
G36*
X149242600Y-91944600D02*
G01*
X149242600Y-90725400D01*
X148277400Y-90725400D01*
X148277400Y-91944600D01*
X149242600Y-91944600D01*
G37*
X149242600Y-91944600D02*
X149242600Y-90725400D01*
X148277400Y-90725400D01*
X148277400Y-91944600D01*
X149242600Y-91944600D01*
G36*
X142892600Y-91944600D02*
G01*
X142892600Y-90725400D01*
X141927400Y-90725400D01*
X141927400Y-91944600D01*
X142892600Y-91944600D01*
G37*
X142892600Y-91944600D02*
X142892600Y-90725400D01*
X141927400Y-90725400D01*
X141927400Y-91944600D01*
X142892600Y-91944600D01*
G36*
X141622600Y-91944600D02*
G01*
X141622600Y-90725400D01*
X140657400Y-90725400D01*
X140657400Y-91944600D01*
X141622600Y-91944600D01*
G37*
X141622600Y-91944600D02*
X141622600Y-90725400D01*
X140657400Y-90725400D01*
X140657400Y-91944600D01*
X141622600Y-91944600D01*
G36*
X139082600Y-91944600D02*
G01*
X139082600Y-90725400D01*
X138117400Y-90725400D01*
X138117400Y-91944600D01*
X139082600Y-91944600D01*
G37*
X139082600Y-91944600D02*
X139082600Y-90725400D01*
X138117400Y-90725400D01*
X138117400Y-91944600D01*
X139082600Y-91944600D01*
G36*
X147972600Y-91944600D02*
G01*
X147972600Y-90725400D01*
X147007400Y-90725400D01*
X147007400Y-91944600D01*
X147972600Y-91944600D01*
G37*
X147972600Y-91944600D02*
X147972600Y-90725400D01*
X147007400Y-90725400D01*
X147007400Y-91944600D01*
X147972600Y-91944600D01*
G36*
X151782600Y-91944600D02*
G01*
X151782600Y-90725400D01*
X150817400Y-90725400D01*
X150817400Y-91944600D01*
X151782600Y-91944600D01*
G37*
X151782600Y-91944600D02*
X151782600Y-90725400D01*
X150817400Y-90725400D01*
X150817400Y-91944600D01*
X151782600Y-91944600D01*
G36*
X153052600Y-91944600D02*
G01*
X153052600Y-90725400D01*
X152087400Y-90725400D01*
X152087400Y-91944600D01*
X153052600Y-91944600D01*
G37*
X153052600Y-91944600D02*
X153052600Y-90725400D01*
X152087400Y-90725400D01*
X152087400Y-91944600D01*
X153052600Y-91944600D01*
G36*
X150512600Y-91944600D02*
G01*
X150512600Y-90725400D01*
X149547400Y-90725400D01*
X149547400Y-91944600D01*
X150512600Y-91944600D01*
G37*
X150512600Y-91944600D02*
X150512600Y-90725400D01*
X149547400Y-90725400D01*
X149547400Y-91944600D01*
X150512600Y-91944600D01*
%TO.C,J1*%
G36*
X135955400Y-74352600D02*
G01*
X137174600Y-74352600D01*
X137174600Y-73387400D01*
X135955400Y-73387400D01*
X135955400Y-74352600D01*
G37*
X135955400Y-74352600D02*
X137174600Y-74352600D01*
X137174600Y-73387400D01*
X135955400Y-73387400D01*
X135955400Y-74352600D01*
G36*
X135955400Y-78162600D02*
G01*
X137174600Y-78162600D01*
X137174600Y-77197400D01*
X135955400Y-77197400D01*
X135955400Y-78162600D01*
G37*
X135955400Y-78162600D02*
X137174600Y-78162600D01*
X137174600Y-77197400D01*
X135955400Y-77197400D01*
X135955400Y-78162600D01*
G36*
X135955400Y-79432600D02*
G01*
X137174600Y-79432600D01*
X137174600Y-78467400D01*
X135955400Y-78467400D01*
X135955400Y-79432600D01*
G37*
X135955400Y-79432600D02*
X137174600Y-79432600D01*
X137174600Y-78467400D01*
X135955400Y-78467400D01*
X135955400Y-79432600D01*
G36*
X135955400Y-80702600D02*
G01*
X137174600Y-80702600D01*
X137174600Y-79737400D01*
X135955400Y-79737400D01*
X135955400Y-80702600D01*
G37*
X135955400Y-80702600D02*
X137174600Y-80702600D01*
X137174600Y-79737400D01*
X135955400Y-79737400D01*
X135955400Y-80702600D01*
G36*
X135955400Y-83242600D02*
G01*
X137174600Y-83242600D01*
X137174600Y-82277400D01*
X135955400Y-82277400D01*
X135955400Y-83242600D01*
G37*
X135955400Y-83242600D02*
X137174600Y-83242600D01*
X137174600Y-82277400D01*
X135955400Y-82277400D01*
X135955400Y-83242600D01*
G36*
X135955400Y-76892600D02*
G01*
X137174600Y-76892600D01*
X137174600Y-75927400D01*
X135955400Y-75927400D01*
X135955400Y-76892600D01*
G37*
X135955400Y-76892600D02*
X137174600Y-76892600D01*
X137174600Y-75927400D01*
X135955400Y-75927400D01*
X135955400Y-76892600D01*
G36*
X135955400Y-75622600D02*
G01*
X137174600Y-75622600D01*
X137174600Y-74657400D01*
X135955400Y-74657400D01*
X135955400Y-75622600D01*
G37*
X135955400Y-75622600D02*
X137174600Y-75622600D01*
X137174600Y-74657400D01*
X135955400Y-74657400D01*
X135955400Y-75622600D01*
G36*
X135955400Y-73082600D02*
G01*
X137174600Y-73082600D01*
X137174600Y-72117400D01*
X135955400Y-72117400D01*
X135955400Y-73082600D01*
G37*
X135955400Y-73082600D02*
X137174600Y-73082600D01*
X137174600Y-72117400D01*
X135955400Y-72117400D01*
X135955400Y-73082600D01*
G36*
X135955400Y-81972600D02*
G01*
X137174600Y-81972600D01*
X137174600Y-81007400D01*
X135955400Y-81007400D01*
X135955400Y-81972600D01*
G37*
X135955400Y-81972600D02*
X137174600Y-81972600D01*
X137174600Y-81007400D01*
X135955400Y-81007400D01*
X135955400Y-81972600D01*
G36*
X135955400Y-85782600D02*
G01*
X137174600Y-85782600D01*
X137174600Y-84817400D01*
X135955400Y-84817400D01*
X135955400Y-85782600D01*
G37*
X135955400Y-85782600D02*
X137174600Y-85782600D01*
X137174600Y-84817400D01*
X135955400Y-84817400D01*
X135955400Y-85782600D01*
G36*
X135955400Y-87052600D02*
G01*
X137174600Y-87052600D01*
X137174600Y-86087400D01*
X135955400Y-86087400D01*
X135955400Y-87052600D01*
G37*
X135955400Y-87052600D02*
X137174600Y-87052600D01*
X137174600Y-86087400D01*
X135955400Y-86087400D01*
X135955400Y-87052600D01*
G36*
X135955400Y-84512600D02*
G01*
X137174600Y-84512600D01*
X137174600Y-83547400D01*
X135955400Y-83547400D01*
X135955400Y-84512600D01*
G37*
X135955400Y-84512600D02*
X137174600Y-84512600D01*
X137174600Y-83547400D01*
X135955400Y-83547400D01*
X135955400Y-84512600D01*
%TO.C,J3*%
G36*
X155244600Y-84817400D02*
G01*
X154025400Y-84817400D01*
X154025400Y-85782600D01*
X155244600Y-85782600D01*
X155244600Y-84817400D01*
G37*
X155244600Y-84817400D02*
X154025400Y-84817400D01*
X154025400Y-85782600D01*
X155244600Y-85782600D01*
X155244600Y-84817400D01*
G36*
X155244600Y-81007400D02*
G01*
X154025400Y-81007400D01*
X154025400Y-81972600D01*
X155244600Y-81972600D01*
X155244600Y-81007400D01*
G37*
X155244600Y-81007400D02*
X154025400Y-81007400D01*
X154025400Y-81972600D01*
X155244600Y-81972600D01*
X155244600Y-81007400D01*
G36*
X155244600Y-79737400D02*
G01*
X154025400Y-79737400D01*
X154025400Y-80702600D01*
X155244600Y-80702600D01*
X155244600Y-79737400D01*
G37*
X155244600Y-79737400D02*
X154025400Y-79737400D01*
X154025400Y-80702600D01*
X155244600Y-80702600D01*
X155244600Y-79737400D01*
G36*
X155244600Y-78467400D02*
G01*
X154025400Y-78467400D01*
X154025400Y-79432600D01*
X155244600Y-79432600D01*
X155244600Y-78467400D01*
G37*
X155244600Y-78467400D02*
X154025400Y-78467400D01*
X154025400Y-79432600D01*
X155244600Y-79432600D01*
X155244600Y-78467400D01*
G36*
X155244600Y-75927400D02*
G01*
X154025400Y-75927400D01*
X154025400Y-76892600D01*
X155244600Y-76892600D01*
X155244600Y-75927400D01*
G37*
X155244600Y-75927400D02*
X154025400Y-75927400D01*
X154025400Y-76892600D01*
X155244600Y-76892600D01*
X155244600Y-75927400D01*
G36*
X155244600Y-82277400D02*
G01*
X154025400Y-82277400D01*
X154025400Y-83242600D01*
X155244600Y-83242600D01*
X155244600Y-82277400D01*
G37*
X155244600Y-82277400D02*
X154025400Y-82277400D01*
X154025400Y-83242600D01*
X155244600Y-83242600D01*
X155244600Y-82277400D01*
G36*
X155244600Y-83547400D02*
G01*
X154025400Y-83547400D01*
X154025400Y-84512600D01*
X155244600Y-84512600D01*
X155244600Y-83547400D01*
G37*
X155244600Y-83547400D02*
X154025400Y-83547400D01*
X154025400Y-84512600D01*
X155244600Y-84512600D01*
X155244600Y-83547400D01*
G36*
X155244600Y-86087400D02*
G01*
X154025400Y-86087400D01*
X154025400Y-87052600D01*
X155244600Y-87052600D01*
X155244600Y-86087400D01*
G37*
X155244600Y-86087400D02*
X154025400Y-86087400D01*
X154025400Y-87052600D01*
X155244600Y-87052600D01*
X155244600Y-86087400D01*
G36*
X155244600Y-77197400D02*
G01*
X154025400Y-77197400D01*
X154025400Y-78162600D01*
X155244600Y-78162600D01*
X155244600Y-77197400D01*
G37*
X155244600Y-77197400D02*
X154025400Y-77197400D01*
X154025400Y-78162600D01*
X155244600Y-78162600D01*
X155244600Y-77197400D01*
G36*
X155244600Y-73387400D02*
G01*
X154025400Y-73387400D01*
X154025400Y-74352600D01*
X155244600Y-74352600D01*
X155244600Y-73387400D01*
G37*
X155244600Y-73387400D02*
X154025400Y-73387400D01*
X154025400Y-74352600D01*
X155244600Y-74352600D01*
X155244600Y-73387400D01*
G36*
X155244600Y-72117400D02*
G01*
X154025400Y-72117400D01*
X154025400Y-73082600D01*
X155244600Y-73082600D01*
X155244600Y-72117400D01*
G37*
X155244600Y-72117400D02*
X154025400Y-72117400D01*
X154025400Y-73082600D01*
X155244600Y-73082600D01*
X155244600Y-72117400D01*
G36*
X155244600Y-74657400D02*
G01*
X154025400Y-74657400D01*
X154025400Y-75622600D01*
X155244600Y-75622600D01*
X155244600Y-74657400D01*
G37*
X155244600Y-74657400D02*
X154025400Y-74657400D01*
X154025400Y-75622600D01*
X155244600Y-75622600D01*
X155244600Y-74657400D01*
D11*
%TO.C,ANT1*%
G36*
X139928600Y-67081400D02*
G01*
X139928600Y-71145400D01*
X138811000Y-71145400D01*
X138811000Y-67081400D01*
X139115800Y-66065400D01*
X139115800Y-58953400D01*
X140766800Y-58953400D01*
X140766800Y-62763400D01*
X141401800Y-62763400D01*
X141401800Y-58953400D01*
X143052800Y-58953400D01*
X143052800Y-62763400D01*
X143687800Y-62763400D01*
X143687800Y-58953400D01*
X145338800Y-58953400D01*
X145338800Y-62763400D01*
X145973800Y-62763400D01*
X145973800Y-58953400D01*
X150164800Y-58953400D01*
X150164800Y-59461400D01*
X146481800Y-59461400D01*
X146481800Y-63271400D01*
X144830800Y-63271400D01*
X144830800Y-59461400D01*
X144195800Y-59461400D01*
X144195800Y-63271400D01*
X142544800Y-63271400D01*
X142544800Y-59461400D01*
X141909800Y-59461400D01*
X141909800Y-63271400D01*
X140258800Y-63271400D01*
X140258800Y-59461400D01*
X139623800Y-59461400D01*
X139623800Y-64795400D01*
X146558000Y-64795400D01*
X146558000Y-65303400D01*
X139623800Y-65303400D01*
X139623800Y-66065400D01*
X139928600Y-67081400D01*
G37*
%TD*%
D12*
%TO.P,J2,3*%
%TO.N,P07*%
X141140000Y-90700000D03*
%TO.P,J2,11*%
%TO.N,P15*%
X151300000Y-90700000D03*
%TO.P,J2,5*%
%TO.N,P09*%
X143680000Y-90700000D03*
%TO.P,J2,7*%
%TO.N,P11*%
X146220000Y-90700000D03*
%TO.P,J2,12*%
%TO.N,P16*%
X152570000Y-90700000D03*
%TO.P,J2,10*%
%TO.N,P14*%
X150030000Y-90700000D03*
%TO.P,J2,6*%
%TO.N,P10*%
X144950000Y-90700000D03*
D13*
%TO.P,J2,1*%
%TO.N,P05*%
X138600000Y-90700000D03*
D12*
%TO.P,J2,8*%
%TO.N,P12*%
X147490000Y-90700000D03*
%TO.P,J2,9*%
%TO.N,P13*%
X148760000Y-90700000D03*
%TO.P,J2,4*%
%TO.N,P08*%
X142410000Y-90700000D03*
%TO.P,J2,2*%
%TO.N,P06*%
X139870000Y-90700000D03*
%TO.P,J2,*%
%TO.N,*%
X138600000Y-91970000D03*
X151300000Y-91970000D03*
X148760000Y-91970000D03*
X147490000Y-91970000D03*
X143680000Y-91970000D03*
X150030000Y-91970000D03*
X141140000Y-91970000D03*
X144950000Y-91970000D03*
X152570000Y-91970000D03*
X146220000Y-91970000D03*
X139870000Y-91970000D03*
X142410000Y-91970000D03*
%TD*%
%TO.P,J1,3*%
%TO.N,P27*%
X137200000Y-75140000D03*
%TO.P,J1,11*%
%TO.N,P03*%
X137200000Y-85300000D03*
%TO.P,J1,5*%
%TO.N,P29*%
X137200000Y-77680000D03*
%TO.P,J1,7*%
%TO.N,P31*%
X137200000Y-80220000D03*
%TO.P,J1,12*%
%TO.N,P04*%
X137200000Y-86570000D03*
%TO.P,J1,10*%
%TO.N,P02*%
X137200000Y-84030000D03*
%TO.P,J1,6*%
%TO.N,P30*%
X137200000Y-78950000D03*
D13*
%TO.P,J1,1*%
%TO.N,P25*%
X137200000Y-72600000D03*
D12*
%TO.P,J1,8*%
%TO.N,P00*%
X137200000Y-81490000D03*
%TO.P,J1,9*%
%TO.N,P01*%
X137200000Y-82760000D03*
%TO.P,J1,4*%
%TO.N,P28*%
X137200000Y-76410000D03*
%TO.P,J1,2*%
%TO.N,P26*%
X137200000Y-73870000D03*
%TO.P,J1,*%
%TO.N,*%
X135930000Y-72600000D03*
X135930000Y-85300000D03*
X135930000Y-82760000D03*
X135930000Y-81490000D03*
X135930000Y-77680000D03*
X135930000Y-84030000D03*
X135930000Y-75140000D03*
X135930000Y-78950000D03*
X135930000Y-86570000D03*
X135930000Y-80220000D03*
X135930000Y-73870000D03*
X135930000Y-76410000D03*
%TD*%
%TO.P,J3,3*%
%TO.N,P19*%
X154000000Y-84030000D03*
%TO.P,J3,11*%
%TO.N,GNDPWR*%
X154000000Y-73870000D03*
%TO.P,J3,5*%
%TO.N,P21*%
X154000000Y-81490000D03*
%TO.P,J3,7*%
%TO.N,P23*%
X154000000Y-78950000D03*
%TO.P,J3,12*%
%TO.N,+30V*%
X154000000Y-72600000D03*
%TO.P,J3,10*%
%TO.N,nRF_SWCLK*%
X154000000Y-75140000D03*
%TO.P,J3,6*%
%TO.N,P22*%
X154000000Y-80220000D03*
D13*
%TO.P,J3,1*%
%TO.N,P17*%
X154000000Y-86570000D03*
D12*
%TO.P,J3,8*%
%TO.N,P24*%
X154000000Y-77680000D03*
%TO.P,J3,9*%
%TO.N,nRF_SWDIO*%
X154000000Y-76410000D03*
%TO.P,J3,4*%
%TO.N,P20*%
X154000000Y-82760000D03*
%TO.P,J3,2*%
%TO.N,P18*%
X154000000Y-85300000D03*
%TO.P,J3,*%
%TO.N,*%
X155270000Y-86570000D03*
X155270000Y-73870000D03*
X155270000Y-76410000D03*
X155270000Y-77680000D03*
X155270000Y-81490000D03*
X155270000Y-75140000D03*
X155270000Y-84030000D03*
X155270000Y-80220000D03*
X155270000Y-72600000D03*
X155270000Y-78950000D03*
X155270000Y-85300000D03*
X155270000Y-82760000D03*
%TD*%
%TA.AperFunction,ConnectorPad*%
D14*
%TO.P,ANT1,1*%
%TO.N,/Main/ANT*%
G36*
X138811000Y-71145400D02*
G01*
X138811000Y-69494400D01*
X139928600Y-69494400D01*
X139928600Y-71145400D01*
X138811000Y-71145400D01*
G37*
%TD.AperFunction*%
%TD*%
%TO.P,C4,2*%
%TO.N,GNDPWR*%
%TA.AperFunction,SMDPad,CuDef*%
G36*
G01*
X142000000Y-85630000D02*
X142000000Y-85970000D01*
G75*
G02*
X141860000Y-86110000I-140000J0D01*
G01*
X141580000Y-86110000D01*
G75*
G02*
X141440000Y-85970000I0J140000D01*
G01*
X141440000Y-85630000D01*
G75*
G02*
X141580000Y-85490000I140000J0D01*
G01*
X141860000Y-85490000D01*
G75*
G02*
X142000000Y-85630000I0J-140000D01*
G01*
G37*
%TD.AperFunction*%
%TO.P,C4,1*%
%TO.N,Net-(C4-Pad1)*%
%TA.AperFunction,SMDPad,CuDef*%
G36*
G01*
X142960000Y-85630000D02*
X142960000Y-85970000D01*
G75*
G02*
X142820000Y-86110000I-140000J0D01*
G01*
X142540000Y-86110000D01*
G75*
G02*
X142400000Y-85970000I0J140000D01*
G01*
X142400000Y-85630000D01*
G75*
G02*
X142540000Y-85490000I140000J0D01*
G01*
X142820000Y-85490000D01*
G75*
G02*
X142960000Y-85630000I0J-140000D01*
G01*
G37*
%TD.AperFunction*%
%TD*%
%TO.P,C1,2*%
%TO.N,GNDPWR*%
%TA.AperFunction,SMDPad,CuDef*%
G36*
G01*
X148530000Y-87620000D02*
X148870000Y-87620000D01*
G75*
G02*
X149010000Y-87760000I0J-140000D01*
G01*
X149010000Y-88040000D01*
G75*
G02*
X148870000Y-88180000I-140000J0D01*
G01*
X148530000Y-88180000D01*
G75*
G02*
X148390000Y-88040000I0J140000D01*
G01*
X148390000Y-87760000D01*
G75*
G02*
X148530000Y-87620000I140000J0D01*
G01*
G37*
%TD.AperFunction*%
%TO.P,C1,1*%
%TO.N,+30V*%
%TA.AperFunction,SMDPad,CuDef*%
G36*
G01*
X148530000Y-86660000D02*
X148870000Y-86660000D01*
G75*
G02*
X149010000Y-86800000I0J-140000D01*
G01*
X149010000Y-87080000D01*
G75*
G02*
X148870000Y-87220000I-140000J0D01*
G01*
X148530000Y-87220000D01*
G75*
G02*
X148390000Y-87080000I0J140000D01*
G01*
X148390000Y-86800000D01*
G75*
G02*
X148530000Y-86660000I140000J0D01*
G01*
G37*
%TD.AperFunction*%
%TD*%
D15*
%TO.P,Y1,1*%
%TO.N,Net-(C9-Pad1)*%
X144700000Y-73350000D03*
%TO.P,Y1,2*%
%TO.N,GNDPWR*%
X146100000Y-73350000D03*
%TO.P,Y1,3*%
%TO.N,Net-(C8-Pad1)*%
X146100000Y-72250000D03*
%TO.P,Y1,4*%
%TO.N,GNDPWR*%
X144700000Y-72250000D03*
%TD*%
%TO.P,U1,1*%
%TO.N,Net-(C4-Pad1)*%
%TA.AperFunction,SMDPad,CuDef*%
G36*
G01*
X143450000Y-84750000D02*
X143350000Y-84750000D01*
G75*
G02*
X143300000Y-84700000I0J50000D01*
G01*
X143300000Y-84000000D01*
G75*
G02*
X143350000Y-83950000I50000J0D01*
G01*
X143450000Y-83950000D01*
G75*
G02*
X143500000Y-84000000I0J-50000D01*
G01*
X143500000Y-84700000D01*
G75*
G02*
X143450000Y-84750000I-50000J0D01*
G01*
G37*
%TD.AperFunction*%
%TO.P,U1,2*%
%TO.N,P00*%
%TA.AperFunction,SMDPad,CuDef*%
G36*
G01*
X143850000Y-84750000D02*
X143750000Y-84750000D01*
G75*
G02*
X143700000Y-84700000I0J50000D01*
G01*
X143700000Y-84000000D01*
G75*
G02*
X143750000Y-83950000I50000J0D01*
G01*
X143850000Y-83950000D01*
G75*
G02*
X143900000Y-84000000I0J-50000D01*
G01*
X143900000Y-84700000D01*
G75*
G02*
X143850000Y-84750000I-50000J0D01*
G01*
G37*
%TD.AperFunction*%
%TO.P,U1,3*%
%TO.N,P01*%
%TA.AperFunction,SMDPad,CuDef*%
G36*
G01*
X144250000Y-84750000D02*
X144150000Y-84750000D01*
G75*
G02*
X144100000Y-84700000I0J50000D01*
G01*
X144100000Y-84000000D01*
G75*
G02*
X144150000Y-83950000I50000J0D01*
G01*
X144250000Y-83950000D01*
G75*
G02*
X144300000Y-84000000I0J-50000D01*
G01*
X144300000Y-84700000D01*
G75*
G02*
X144250000Y-84750000I-50000J0D01*
G01*
G37*
%TD.AperFunction*%
%TO.P,U1,4*%
%TO.N,P02*%
%TA.AperFunction,SMDPad,CuDef*%
G36*
G01*
X144650000Y-84750000D02*
X144550000Y-84750000D01*
G75*
G02*
X144500000Y-84700000I0J50000D01*
G01*
X144500000Y-84000000D01*
G75*
G02*
X144550000Y-83950000I50000J0D01*
G01*
X144650000Y-83950000D01*
G75*
G02*
X144700000Y-84000000I0J-50000D01*
G01*
X144700000Y-84700000D01*
G75*
G02*
X144650000Y-84750000I-50000J0D01*
G01*
G37*
%TD.AperFunction*%
%TO.P,U1,5*%
%TO.N,P03*%
%TA.AperFunction,SMDPad,CuDef*%
G36*
G01*
X145050000Y-84750000D02*
X144950000Y-84750000D01*
G75*
G02*
X144900000Y-84700000I0J50000D01*
G01*
X144900000Y-84000000D01*
G75*
G02*
X144950000Y-83950000I50000J0D01*
G01*
X145050000Y-83950000D01*
G75*
G02*
X145100000Y-84000000I0J-50000D01*
G01*
X145100000Y-84700000D01*
G75*
G02*
X145050000Y-84750000I-50000J0D01*
G01*
G37*
%TD.AperFunction*%
%TO.P,U1,6*%
%TO.N,P04*%
%TA.AperFunction,SMDPad,CuDef*%
G36*
G01*
X145450000Y-84750000D02*
X145350000Y-84750000D01*
G75*
G02*
X145300000Y-84700000I0J50000D01*
G01*
X145300000Y-84000000D01*
G75*
G02*
X145350000Y-83950000I50000J0D01*
G01*
X145450000Y-83950000D01*
G75*
G02*
X145500000Y-84000000I0J-50000D01*
G01*
X145500000Y-84700000D01*
G75*
G02*
X145450000Y-84750000I-50000J0D01*
G01*
G37*
%TD.AperFunction*%
%TO.P,U1,7*%
%TO.N,P05*%
%TA.AperFunction,SMDPad,CuDef*%
G36*
G01*
X145850000Y-84750000D02*
X145750000Y-84750000D01*
G75*
G02*
X145700000Y-84700000I0J50000D01*
G01*
X145700000Y-84000000D01*
G75*
G02*
X145750000Y-83950000I50000J0D01*
G01*
X145850000Y-83950000D01*
G75*
G02*
X145900000Y-84000000I0J-50000D01*
G01*
X145900000Y-84700000D01*
G75*
G02*
X145850000Y-84750000I-50000J0D01*
G01*
G37*
%TD.AperFunction*%
%TO.P,U1,8*%
%TO.N,P06*%
%TA.AperFunction,SMDPad,CuDef*%
G36*
G01*
X146250000Y-84750000D02*
X146150000Y-84750000D01*
G75*
G02*
X146100000Y-84700000I0J50000D01*
G01*
X146100000Y-84000000D01*
G75*
G02*
X146150000Y-83950000I50000J0D01*
G01*
X146250000Y-83950000D01*
G75*
G02*
X146300000Y-84000000I0J-50000D01*
G01*
X146300000Y-84700000D01*
G75*
G02*
X146250000Y-84750000I-50000J0D01*
G01*
G37*
%TD.AperFunction*%
%TO.P,U1,9*%
%TO.N,P07*%
%TA.AperFunction,SMDPad,CuDef*%
G36*
G01*
X146650000Y-84750000D02*
X146550000Y-84750000D01*
G75*
G02*
X146500000Y-84700000I0J50000D01*
G01*
X146500000Y-84000000D01*
G75*
G02*
X146550000Y-83950000I50000J0D01*
G01*
X146650000Y-83950000D01*
G75*
G02*
X146700000Y-84000000I0J-50000D01*
G01*
X146700000Y-84700000D01*
G75*
G02*
X146650000Y-84750000I-50000J0D01*
G01*
G37*
%TD.AperFunction*%
%TO.P,U1,10*%
%TO.N,P08*%
%TA.AperFunction,SMDPad,CuDef*%
G36*
G01*
X147050000Y-84750000D02*
X146950000Y-84750000D01*
G75*
G02*
X146900000Y-84700000I0J50000D01*
G01*
X146900000Y-84000000D01*
G75*
G02*
X146950000Y-83950000I50000J0D01*
G01*
X147050000Y-83950000D01*
G75*
G02*
X147100000Y-84000000I0J-50000D01*
G01*
X147100000Y-84700000D01*
G75*
G02*
X147050000Y-84750000I-50000J0D01*
G01*
G37*
%TD.AperFunction*%
%TO.P,U1,11*%
%TO.N,P09*%
%TA.AperFunction,SMDPad,CuDef*%
G36*
G01*
X147450000Y-84750000D02*
X147350000Y-84750000D01*
G75*
G02*
X147300000Y-84700000I0J50000D01*
G01*
X147300000Y-84000000D01*
G75*
G02*
X147350000Y-83950000I50000J0D01*
G01*
X147450000Y-83950000D01*
G75*
G02*
X147500000Y-84000000I0J-50000D01*
G01*
X147500000Y-84700000D01*
G75*
G02*
X147450000Y-84750000I-50000J0D01*
G01*
G37*
%TD.AperFunction*%
%TO.P,U1,12*%
%TO.N,P10*%
%TA.AperFunction,SMDPad,CuDef*%
G36*
G01*
X147850000Y-84750000D02*
X147750000Y-84750000D01*
G75*
G02*
X147700000Y-84700000I0J50000D01*
G01*
X147700000Y-84000000D01*
G75*
G02*
X147750000Y-83950000I50000J0D01*
G01*
X147850000Y-83950000D01*
G75*
G02*
X147900000Y-84000000I0J-50000D01*
G01*
X147900000Y-84700000D01*
G75*
G02*
X147850000Y-84750000I-50000J0D01*
G01*
G37*
%TD.AperFunction*%
%TO.P,U1,13*%
%TO.N,+30V*%
%TA.AperFunction,SMDPad,CuDef*%
G36*
G01*
X148900000Y-83700000D02*
X148200000Y-83700000D01*
G75*
G02*
X148150000Y-83650000I0J50000D01*
G01*
X148150000Y-83550000D01*
G75*
G02*
X148200000Y-83500000I50000J0D01*
G01*
X148900000Y-83500000D01*
G75*
G02*
X148950000Y-83550000I0J-50000D01*
G01*
X148950000Y-83650000D01*
G75*
G02*
X148900000Y-83700000I-50000J0D01*
G01*
G37*
%TD.AperFunction*%
%TO.P,U1,14*%
%TO.N,P11*%
%TA.AperFunction,SMDPad,CuDef*%
G36*
G01*
X148900000Y-83300000D02*
X148200000Y-83300000D01*
G75*
G02*
X148150000Y-83250000I0J50000D01*
G01*
X148150000Y-83150000D01*
G75*
G02*
X148200000Y-83100000I50000J0D01*
G01*
X148900000Y-83100000D01*
G75*
G02*
X148950000Y-83150000I0J-50000D01*
G01*
X148950000Y-83250000D01*
G75*
G02*
X148900000Y-83300000I-50000J0D01*
G01*
G37*
%TD.AperFunction*%
%TO.P,U1,15*%
%TO.N,P12*%
%TA.AperFunction,SMDPad,CuDef*%
G36*
G01*
X148900000Y-82900000D02*
X148200000Y-82900000D01*
G75*
G02*
X148150000Y-82850000I0J50000D01*
G01*
X148150000Y-82750000D01*
G75*
G02*
X148200000Y-82700000I50000J0D01*
G01*
X148900000Y-82700000D01*
G75*
G02*
X148950000Y-82750000I0J-50000D01*
G01*
X148950000Y-82850000D01*
G75*
G02*
X148900000Y-82900000I-50000J0D01*
G01*
G37*
%TD.AperFunction*%
%TO.P,U1,16*%
%TO.N,P13*%
%TA.AperFunction,SMDPad,CuDef*%
G36*
G01*
X148900000Y-82500000D02*
X148200000Y-82500000D01*
G75*
G02*
X148150000Y-82450000I0J50000D01*
G01*
X148150000Y-82350000D01*
G75*
G02*
X148200000Y-82300000I50000J0D01*
G01*
X148900000Y-82300000D01*
G75*
G02*
X148950000Y-82350000I0J-50000D01*
G01*
X148950000Y-82450000D01*
G75*
G02*
X148900000Y-82500000I-50000J0D01*
G01*
G37*
%TD.AperFunction*%
%TO.P,U1,17*%
%TO.N,P14*%
%TA.AperFunction,SMDPad,CuDef*%
G36*
G01*
X148900000Y-82100000D02*
X148200000Y-82100000D01*
G75*
G02*
X148150000Y-82050000I0J50000D01*
G01*
X148150000Y-81950000D01*
G75*
G02*
X148200000Y-81900000I50000J0D01*
G01*
X148900000Y-81900000D01*
G75*
G02*
X148950000Y-81950000I0J-50000D01*
G01*
X148950000Y-82050000D01*
G75*
G02*
X148900000Y-82100000I-50000J0D01*
G01*
G37*
%TD.AperFunction*%
%TO.P,U1,18*%
%TO.N,P15*%
%TA.AperFunction,SMDPad,CuDef*%
G36*
G01*
X148900000Y-81700000D02*
X148200000Y-81700000D01*
G75*
G02*
X148150000Y-81650000I0J50000D01*
G01*
X148150000Y-81550000D01*
G75*
G02*
X148200000Y-81500000I50000J0D01*
G01*
X148900000Y-81500000D01*
G75*
G02*
X148950000Y-81550000I0J-50000D01*
G01*
X148950000Y-81650000D01*
G75*
G02*
X148900000Y-81700000I-50000J0D01*
G01*
G37*
%TD.AperFunction*%
%TO.P,U1,19*%
%TO.N,P16*%
%TA.AperFunction,SMDPad,CuDef*%
G36*
G01*
X148900000Y-81300000D02*
X148200000Y-81300000D01*
G75*
G02*
X148150000Y-81250000I0J50000D01*
G01*
X148150000Y-81150000D01*
G75*
G02*
X148200000Y-81100000I50000J0D01*
G01*
X148900000Y-81100000D01*
G75*
G02*
X148950000Y-81150000I0J-50000D01*
G01*
X148950000Y-81250000D01*
G75*
G02*
X148900000Y-81300000I-50000J0D01*
G01*
G37*
%TD.AperFunction*%
%TO.P,U1,20*%
%TO.N,P17*%
%TA.AperFunction,SMDPad,CuDef*%
G36*
G01*
X148900000Y-80900000D02*
X148200000Y-80900000D01*
G75*
G02*
X148150000Y-80850000I0J50000D01*
G01*
X148150000Y-80750000D01*
G75*
G02*
X148200000Y-80700000I50000J0D01*
G01*
X148900000Y-80700000D01*
G75*
G02*
X148950000Y-80750000I0J-50000D01*
G01*
X148950000Y-80850000D01*
G75*
G02*
X148900000Y-80900000I-50000J0D01*
G01*
G37*
%TD.AperFunction*%
%TO.P,U1,21*%
%TO.N,P18*%
%TA.AperFunction,SMDPad,CuDef*%
G36*
G01*
X148900000Y-80500000D02*
X148200000Y-80500000D01*
G75*
G02*
X148150000Y-80450000I0J50000D01*
G01*
X148150000Y-80350000D01*
G75*
G02*
X148200000Y-80300000I50000J0D01*
G01*
X148900000Y-80300000D01*
G75*
G02*
X148950000Y-80350000I0J-50000D01*
G01*
X148950000Y-80450000D01*
G75*
G02*
X148900000Y-80500000I-50000J0D01*
G01*
G37*
%TD.AperFunction*%
%TO.P,U1,22*%
%TO.N,P19*%
%TA.AperFunction,SMDPad,CuDef*%
G36*
G01*
X148900000Y-80100000D02*
X148200000Y-80100000D01*
G75*
G02*
X148150000Y-80050000I0J50000D01*
G01*
X148150000Y-79950000D01*
G75*
G02*
X148200000Y-79900000I50000J0D01*
G01*
X148900000Y-79900000D01*
G75*
G02*
X148950000Y-79950000I0J-50000D01*
G01*
X148950000Y-80050000D01*
G75*
G02*
X148900000Y-80100000I-50000J0D01*
G01*
G37*
%TD.AperFunction*%
%TO.P,U1,23*%
%TO.N,P20*%
%TA.AperFunction,SMDPad,CuDef*%
G36*
G01*
X148900000Y-79700000D02*
X148200000Y-79700000D01*
G75*
G02*
X148150000Y-79650000I0J50000D01*
G01*
X148150000Y-79550000D01*
G75*
G02*
X148200000Y-79500000I50000J0D01*
G01*
X148900000Y-79500000D01*
G75*
G02*
X148950000Y-79550000I0J-50000D01*
G01*
X148950000Y-79650000D01*
G75*
G02*
X148900000Y-79700000I-50000J0D01*
G01*
G37*
%TD.AperFunction*%
%TO.P,U1,24*%
%TO.N,P21*%
%TA.AperFunction,SMDPad,CuDef*%
G36*
G01*
X148900000Y-79300000D02*
X148200000Y-79300000D01*
G75*
G02*
X148150000Y-79250000I0J50000D01*
G01*
X148150000Y-79150000D01*
G75*
G02*
X148200000Y-79100000I50000J0D01*
G01*
X148900000Y-79100000D01*
G75*
G02*
X148950000Y-79150000I0J-50000D01*
G01*
X148950000Y-79250000D01*
G75*
G02*
X148900000Y-79300000I-50000J0D01*
G01*
G37*
%TD.AperFunction*%
%TO.P,U1,25*%
%TO.N,nRF_SWCLK*%
%TA.AperFunction,SMDPad,CuDef*%
G36*
G01*
X147850000Y-78850000D02*
X147750000Y-78850000D01*
G75*
G02*
X147700000Y-78800000I0J50000D01*
G01*
X147700000Y-78100000D01*
G75*
G02*
X147750000Y-78050000I50000J0D01*
G01*
X147850000Y-78050000D01*
G75*
G02*
X147900000Y-78100000I0J-50000D01*
G01*
X147900000Y-78800000D01*
G75*
G02*
X147850000Y-78850000I-50000J0D01*
G01*
G37*
%TD.AperFunction*%
%TO.P,U1,26*%
%TO.N,nRF_SWDIO*%
%TA.AperFunction,SMDPad,CuDef*%
G36*
G01*
X147450000Y-78850000D02*
X147350000Y-78850000D01*
G75*
G02*
X147300000Y-78800000I0J50000D01*
G01*
X147300000Y-78100000D01*
G75*
G02*
X147350000Y-78050000I50000J0D01*
G01*
X147450000Y-78050000D01*
G75*
G02*
X147500000Y-78100000I0J-50000D01*
G01*
X147500000Y-78800000D01*
G75*
G02*
X147450000Y-78850000I-50000J0D01*
G01*
G37*
%TD.AperFunction*%
%TO.P,U1,27*%
%TO.N,P22*%
%TA.AperFunction,SMDPad,CuDef*%
G36*
G01*
X147050000Y-78850000D02*
X146950000Y-78850000D01*
G75*
G02*
X146900000Y-78800000I0J50000D01*
G01*
X146900000Y-78100000D01*
G75*
G02*
X146950000Y-78050000I50000J0D01*
G01*
X147050000Y-78050000D01*
G75*
G02*
X147100000Y-78100000I0J-50000D01*
G01*
X147100000Y-78800000D01*
G75*
G02*
X147050000Y-78850000I-50000J0D01*
G01*
G37*
%TD.AperFunction*%
%TO.P,U1,28*%
%TO.N,P23*%
%TA.AperFunction,SMDPad,CuDef*%
G36*
G01*
X146650000Y-78850000D02*
X146550000Y-78850000D01*
G75*
G02*
X146500000Y-78800000I0J50000D01*
G01*
X146500000Y-78100000D01*
G75*
G02*
X146550000Y-78050000I50000J0D01*
G01*
X146650000Y-78050000D01*
G75*
G02*
X146700000Y-78100000I0J-50000D01*
G01*
X146700000Y-78800000D01*
G75*
G02*
X146650000Y-78850000I-50000J0D01*
G01*
G37*
%TD.AperFunction*%
%TO.P,U1,29*%
%TO.N,P24*%
%TA.AperFunction,SMDPad,CuDef*%
G36*
G01*
X146250000Y-78850000D02*
X146150000Y-78850000D01*
G75*
G02*
X146100000Y-78800000I0J50000D01*
G01*
X146100000Y-78100000D01*
G75*
G02*
X146150000Y-78050000I50000J0D01*
G01*
X146250000Y-78050000D01*
G75*
G02*
X146300000Y-78100000I0J-50000D01*
G01*
X146300000Y-78800000D01*
G75*
G02*
X146250000Y-78850000I-50000J0D01*
G01*
G37*
%TD.AperFunction*%
%TO.P,U1,30*%
%TO.N,Net-(C10-Pad1)*%
%TA.AperFunction,SMDPad,CuDef*%
G36*
G01*
X145850000Y-78850000D02*
X145750000Y-78850000D01*
G75*
G02*
X145700000Y-78800000I0J50000D01*
G01*
X145700000Y-78100000D01*
G75*
G02*
X145750000Y-78050000I50000J0D01*
G01*
X145850000Y-78050000D01*
G75*
G02*
X145900000Y-78100000I0J-50000D01*
G01*
X145900000Y-78800000D01*
G75*
G02*
X145850000Y-78850000I-50000J0D01*
G01*
G37*
%TD.AperFunction*%
%TO.P,U1,31*%
%TO.N,GNDPWR*%
%TA.AperFunction,SMDPad,CuDef*%
G36*
G01*
X145450000Y-78850000D02*
X145350000Y-78850000D01*
G75*
G02*
X145300000Y-78800000I0J50000D01*
G01*
X145300000Y-78100000D01*
G75*
G02*
X145350000Y-78050000I50000J0D01*
G01*
X145450000Y-78050000D01*
G75*
G02*
X145500000Y-78100000I0J-50000D01*
G01*
X145500000Y-78800000D01*
G75*
G02*
X145450000Y-78850000I-50000J0D01*
G01*
G37*
%TD.AperFunction*%
%TO.P,U1,32*%
%TO.N,Net-(C5-Pad1)*%
%TA.AperFunction,SMDPad,CuDef*%
G36*
G01*
X145050000Y-78850000D02*
X144950000Y-78850000D01*
G75*
G02*
X144900000Y-78800000I0J50000D01*
G01*
X144900000Y-78100000D01*
G75*
G02*
X144950000Y-78050000I50000J0D01*
G01*
X145050000Y-78050000D01*
G75*
G02*
X145100000Y-78100000I0J-50000D01*
G01*
X145100000Y-78800000D01*
G75*
G02*
X145050000Y-78850000I-50000J0D01*
G01*
G37*
%TD.AperFunction*%
%TO.P,U1,33*%
%TO.N,Net-(C6-Pad1)*%
%TA.AperFunction,SMDPad,CuDef*%
G36*
G01*
X144650000Y-78850000D02*
X144550000Y-78850000D01*
G75*
G02*
X144500000Y-78800000I0J50000D01*
G01*
X144500000Y-78100000D01*
G75*
G02*
X144550000Y-78050000I50000J0D01*
G01*
X144650000Y-78050000D01*
G75*
G02*
X144700000Y-78100000I0J-50000D01*
G01*
X144700000Y-78800000D01*
G75*
G02*
X144650000Y-78850000I-50000J0D01*
G01*
G37*
%TD.AperFunction*%
%TO.P,U1,34*%
%TO.N,Net-(C8-Pad1)*%
%TA.AperFunction,SMDPad,CuDef*%
G36*
G01*
X144250000Y-78850000D02*
X144150000Y-78850000D01*
G75*
G02*
X144100000Y-78800000I0J50000D01*
G01*
X144100000Y-78100000D01*
G75*
G02*
X144150000Y-78050000I50000J0D01*
G01*
X144250000Y-78050000D01*
G75*
G02*
X144300000Y-78100000I0J-50000D01*
G01*
X144300000Y-78800000D01*
G75*
G02*
X144250000Y-78850000I-50000J0D01*
G01*
G37*
%TD.AperFunction*%
%TO.P,U1,35*%
%TO.N,Net-(C9-Pad1)*%
%TA.AperFunction,SMDPad,CuDef*%
G36*
G01*
X143850000Y-78850000D02*
X143750000Y-78850000D01*
G75*
G02*
X143700000Y-78800000I0J50000D01*
G01*
X143700000Y-78100000D01*
G75*
G02*
X143750000Y-78050000I50000J0D01*
G01*
X143850000Y-78050000D01*
G75*
G02*
X143900000Y-78100000I0J-50000D01*
G01*
X143900000Y-78800000D01*
G75*
G02*
X143850000Y-78850000I-50000J0D01*
G01*
G37*
%TD.AperFunction*%
%TO.P,U1,36*%
%TO.N,+30V*%
%TA.AperFunction,SMDPad,CuDef*%
G36*
G01*
X143450000Y-78850000D02*
X143350000Y-78850000D01*
G75*
G02*
X143300000Y-78800000I0J50000D01*
G01*
X143300000Y-78100000D01*
G75*
G02*
X143350000Y-78050000I50000J0D01*
G01*
X143450000Y-78050000D01*
G75*
G02*
X143500000Y-78100000I0J-50000D01*
G01*
X143500000Y-78800000D01*
G75*
G02*
X143450000Y-78850000I-50000J0D01*
G01*
G37*
%TD.AperFunction*%
%TO.P,U1,37*%
%TO.N,P25*%
%TA.AperFunction,SMDPad,CuDef*%
G36*
G01*
X143000000Y-79300000D02*
X142300000Y-79300000D01*
G75*
G02*
X142250000Y-79250000I0J50000D01*
G01*
X142250000Y-79150000D01*
G75*
G02*
X142300000Y-79100000I50000J0D01*
G01*
X143000000Y-79100000D01*
G75*
G02*
X143050000Y-79150000I0J-50000D01*
G01*
X143050000Y-79250000D01*
G75*
G02*
X143000000Y-79300000I-50000J0D01*
G01*
G37*
%TD.AperFunction*%
%TO.P,U1,38*%
%TO.N,P26*%
%TA.AperFunction,SMDPad,CuDef*%
G36*
G01*
X143000000Y-79700000D02*
X142300000Y-79700000D01*
G75*
G02*
X142250000Y-79650000I0J50000D01*
G01*
X142250000Y-79550000D01*
G75*
G02*
X142300000Y-79500000I50000J0D01*
G01*
X143000000Y-79500000D01*
G75*
G02*
X143050000Y-79550000I0J-50000D01*
G01*
X143050000Y-79650000D01*
G75*
G02*
X143000000Y-79700000I-50000J0D01*
G01*
G37*
%TD.AperFunction*%
%TO.P,U1,39*%
%TO.N,P27*%
%TA.AperFunction,SMDPad,CuDef*%
G36*
G01*
X143000000Y-80100000D02*
X142300000Y-80100000D01*
G75*
G02*
X142250000Y-80050000I0J50000D01*
G01*
X142250000Y-79950000D01*
G75*
G02*
X142300000Y-79900000I50000J0D01*
G01*
X143000000Y-79900000D01*
G75*
G02*
X143050000Y-79950000I0J-50000D01*
G01*
X143050000Y-80050000D01*
G75*
G02*
X143000000Y-80100000I-50000J0D01*
G01*
G37*
%TD.AperFunction*%
%TO.P,U1,40*%
%TO.N,P28*%
%TA.AperFunction,SMDPad,CuDef*%
G36*
G01*
X143000000Y-80500000D02*
X142300000Y-80500000D01*
G75*
G02*
X142250000Y-80450000I0J50000D01*
G01*
X142250000Y-80350000D01*
G75*
G02*
X142300000Y-80300000I50000J0D01*
G01*
X143000000Y-80300000D01*
G75*
G02*
X143050000Y-80350000I0J-50000D01*
G01*
X143050000Y-80450000D01*
G75*
G02*
X143000000Y-80500000I-50000J0D01*
G01*
G37*
%TD.AperFunction*%
%TO.P,U1,41*%
%TO.N,P29*%
%TA.AperFunction,SMDPad,CuDef*%
G36*
G01*
X143000000Y-80900000D02*
X142300000Y-80900000D01*
G75*
G02*
X142250000Y-80850000I0J50000D01*
G01*
X142250000Y-80750000D01*
G75*
G02*
X142300000Y-80700000I50000J0D01*
G01*
X143000000Y-80700000D01*
G75*
G02*
X143050000Y-80750000I0J-50000D01*
G01*
X143050000Y-80850000D01*
G75*
G02*
X143000000Y-80900000I-50000J0D01*
G01*
G37*
%TD.AperFunction*%
%TO.P,U1,42*%
%TO.N,P30*%
%TA.AperFunction,SMDPad,CuDef*%
G36*
G01*
X143000000Y-81300000D02*
X142300000Y-81300000D01*
G75*
G02*
X142250000Y-81250000I0J50000D01*
G01*
X142250000Y-81150000D01*
G75*
G02*
X142300000Y-81100000I50000J0D01*
G01*
X143000000Y-81100000D01*
G75*
G02*
X143050000Y-81150000I0J-50000D01*
G01*
X143050000Y-81250000D01*
G75*
G02*
X143000000Y-81300000I-50000J0D01*
G01*
G37*
%TD.AperFunction*%
%TO.P,U1,43*%
%TO.N,P31*%
%TA.AperFunction,SMDPad,CuDef*%
G36*
G01*
X143000000Y-81700000D02*
X142300000Y-81700000D01*
G75*
G02*
X142250000Y-81650000I0J50000D01*
G01*
X142250000Y-81550000D01*
G75*
G02*
X142300000Y-81500000I50000J0D01*
G01*
X143000000Y-81500000D01*
G75*
G02*
X143050000Y-81550000I0J-50000D01*
G01*
X143050000Y-81650000D01*
G75*
G02*
X143000000Y-81700000I-50000J0D01*
G01*
G37*
%TD.AperFunction*%
%TO.P,U1,44*%
%TO.N,N/C*%
%TA.AperFunction,SMDPad,CuDef*%
G36*
G01*
X143000000Y-82100000D02*
X142300000Y-82100000D01*
G75*
G02*
X142250000Y-82050000I0J50000D01*
G01*
X142250000Y-81950000D01*
G75*
G02*
X142300000Y-81900000I50000J0D01*
G01*
X143000000Y-81900000D01*
G75*
G02*
X143050000Y-81950000I0J-50000D01*
G01*
X143050000Y-82050000D01*
G75*
G02*
X143000000Y-82100000I-50000J0D01*
G01*
G37*
%TD.AperFunction*%
%TO.P,U1,45*%
%TO.N,GNDPWR*%
%TA.AperFunction,SMDPad,CuDef*%
G36*
G01*
X143000000Y-82500000D02*
X142300000Y-82500000D01*
G75*
G02*
X142250000Y-82450000I0J50000D01*
G01*
X142250000Y-82350000D01*
G75*
G02*
X142300000Y-82300000I50000J0D01*
G01*
X143000000Y-82300000D01*
G75*
G02*
X143050000Y-82350000I0J-50000D01*
G01*
X143050000Y-82450000D01*
G75*
G02*
X143000000Y-82500000I-50000J0D01*
G01*
G37*
%TD.AperFunction*%
%TO.P,U1,46*%
%TO.N,Net-(C7-Pad1)*%
%TA.AperFunction,SMDPad,CuDef*%
G36*
G01*
X143000000Y-82900000D02*
X142300000Y-82900000D01*
G75*
G02*
X142250000Y-82850000I0J50000D01*
G01*
X142250000Y-82750000D01*
G75*
G02*
X142300000Y-82700000I50000J0D01*
G01*
X143000000Y-82700000D01*
G75*
G02*
X143050000Y-82750000I0J-50000D01*
G01*
X143050000Y-82850000D01*
G75*
G02*
X143000000Y-82900000I-50000J0D01*
G01*
G37*
%TD.AperFunction*%
%TO.P,U1,47*%
%TO.N,Net-(L2-Pad2)*%
%TA.AperFunction,SMDPad,CuDef*%
G36*
G01*
X143000000Y-83300000D02*
X142300000Y-83300000D01*
G75*
G02*
X142250000Y-83250000I0J50000D01*
G01*
X142250000Y-83150000D01*
G75*
G02*
X142300000Y-83100000I50000J0D01*
G01*
X143000000Y-83100000D01*
G75*
G02*
X143050000Y-83150000I0J-50000D01*
G01*
X143050000Y-83250000D01*
G75*
G02*
X143000000Y-83300000I-50000J0D01*
G01*
G37*
%TD.AperFunction*%
%TO.P,U1,48*%
%TO.N,+30V*%
%TA.AperFunction,SMDPad,CuDef*%
G36*
G01*
X143000000Y-83700000D02*
X142300000Y-83700000D01*
G75*
G02*
X142250000Y-83650000I0J50000D01*
G01*
X142250000Y-83550000D01*
G75*
G02*
X142300000Y-83500000I50000J0D01*
G01*
X143000000Y-83500000D01*
G75*
G02*
X143050000Y-83550000I0J-50000D01*
G01*
X143050000Y-83650000D01*
G75*
G02*
X143000000Y-83700000I-50000J0D01*
G01*
G37*
%TD.AperFunction*%
D16*
%TO.P,U1,49*%
%TO.N,GNDPWR*%
X145600000Y-81400000D03*
%TD*%
%TO.P,L3,1*%
%TO.N,/Main/ANT*%
%TA.AperFunction,SMDPad,CuDef*%
G36*
G01*
X139227500Y-71620000D02*
X139572500Y-71620000D01*
G75*
G02*
X139720000Y-71767500I0J-147500D01*
G01*
X139720000Y-72062500D01*
G75*
G02*
X139572500Y-72210000I-147500J0D01*
G01*
X139227500Y-72210000D01*
G75*
G02*
X139080000Y-72062500I0J147500D01*
G01*
X139080000Y-71767500D01*
G75*
G02*
X139227500Y-71620000I147500J0D01*
G01*
G37*
%TD.AperFunction*%
%TO.P,L3,2*%
%TO.N,Net-(C10-Pad1)*%
%TA.AperFunction,SMDPad,CuDef*%
G36*
G01*
X139227500Y-72590000D02*
X139572500Y-72590000D01*
G75*
G02*
X139720000Y-72737500I0J-147500D01*
G01*
X139720000Y-73032500D01*
G75*
G02*
X139572500Y-73180000I-147500J0D01*
G01*
X139227500Y-73180000D01*
G75*
G02*
X139080000Y-73032500I0J147500D01*
G01*
X139080000Y-72737500D01*
G75*
G02*
X139227500Y-72590000I147500J0D01*
G01*
G37*
%TD.AperFunction*%
%TD*%
%TO.P,L2,1*%
%TO.N,Net-(L1-Pad2)*%
%TA.AperFunction,SMDPad,CuDef*%
G36*
G01*
X139743750Y-82975000D02*
X140256250Y-82975000D01*
G75*
G02*
X140475000Y-83193750I0J-218750D01*
G01*
X140475000Y-83631250D01*
G75*
G02*
X140256250Y-83850000I-218750J0D01*
G01*
X139743750Y-83850000D01*
G75*
G02*
X139525000Y-83631250I0J218750D01*
G01*
X139525000Y-83193750D01*
G75*
G02*
X139743750Y-82975000I218750J0D01*
G01*
G37*
%TD.AperFunction*%
%TO.P,L2,2*%
%TO.N,Net-(L2-Pad2)*%
%TA.AperFunction,SMDPad,CuDef*%
G36*
G01*
X139743750Y-84550000D02*
X140256250Y-84550000D01*
G75*
G02*
X140475000Y-84768750I0J-218750D01*
G01*
X140475000Y-85206250D01*
G75*
G02*
X140256250Y-85425000I-218750J0D01*
G01*
X139743750Y-85425000D01*
G75*
G02*
X139525000Y-85206250I0J218750D01*
G01*
X139525000Y-84768750D01*
G75*
G02*
X139743750Y-84550000I218750J0D01*
G01*
G37*
%TD.AperFunction*%
%TD*%
%TO.P,L1,1*%
%TO.N,Net-(C7-Pad1)*%
%TA.AperFunction,SMDPad,CuDef*%
G36*
G01*
X139627500Y-80420000D02*
X139972500Y-80420000D01*
G75*
G02*
X140120000Y-80567500I0J-147500D01*
G01*
X140120000Y-80862500D01*
G75*
G02*
X139972500Y-81010000I-147500J0D01*
G01*
X139627500Y-81010000D01*
G75*
G02*
X139480000Y-80862500I0J147500D01*
G01*
X139480000Y-80567500D01*
G75*
G02*
X139627500Y-80420000I147500J0D01*
G01*
G37*
%TD.AperFunction*%
%TO.P,L1,2*%
%TO.N,Net-(L1-Pad2)*%
%TA.AperFunction,SMDPad,CuDef*%
G36*
G01*
X139627500Y-81390000D02*
X139972500Y-81390000D01*
G75*
G02*
X140120000Y-81537500I0J-147500D01*
G01*
X140120000Y-81832500D01*
G75*
G02*
X139972500Y-81980000I-147500J0D01*
G01*
X139627500Y-81980000D01*
G75*
G02*
X139480000Y-81832500I0J147500D01*
G01*
X139480000Y-81537500D01*
G75*
G02*
X139627500Y-81390000I147500J0D01*
G01*
G37*
%TD.AperFunction*%
%TD*%
%TO.P,C10,2*%
%TO.N,GNDPWR*%
%TA.AperFunction,SMDPad,CuDef*%
G36*
G01*
X141370000Y-72200000D02*
X141030000Y-72200000D01*
G75*
G02*
X140890000Y-72060000I0J140000D01*
G01*
X140890000Y-71780000D01*
G75*
G02*
X141030000Y-71640000I140000J0D01*
G01*
X141370000Y-71640000D01*
G75*
G02*
X141510000Y-71780000I0J-140000D01*
G01*
X141510000Y-72060000D01*
G75*
G02*
X141370000Y-72200000I-140000J0D01*
G01*
G37*
%TD.AperFunction*%
%TO.P,C10,1*%
%TO.N,Net-(C10-Pad1)*%
%TA.AperFunction,SMDPad,CuDef*%
G36*
G01*
X141370000Y-73160000D02*
X141030000Y-73160000D01*
G75*
G02*
X140890000Y-73020000I0J140000D01*
G01*
X140890000Y-72740000D01*
G75*
G02*
X141030000Y-72600000I140000J0D01*
G01*
X141370000Y-72600000D01*
G75*
G02*
X141510000Y-72740000I0J-140000D01*
G01*
X141510000Y-73020000D01*
G75*
G02*
X141370000Y-73160000I-140000J0D01*
G01*
G37*
%TD.AperFunction*%
%TD*%
%TO.P,C9,2*%
%TO.N,GNDPWR*%
%TA.AperFunction,SMDPad,CuDef*%
G36*
G01*
X142970000Y-72200000D02*
X142630000Y-72200000D01*
G75*
G02*
X142490000Y-72060000I0J140000D01*
G01*
X142490000Y-71780000D01*
G75*
G02*
X142630000Y-71640000I140000J0D01*
G01*
X142970000Y-71640000D01*
G75*
G02*
X143110000Y-71780000I0J-140000D01*
G01*
X143110000Y-72060000D01*
G75*
G02*
X142970000Y-72200000I-140000J0D01*
G01*
G37*
%TD.AperFunction*%
%TO.P,C9,1*%
%TO.N,Net-(C9-Pad1)*%
%TA.AperFunction,SMDPad,CuDef*%
G36*
G01*
X142970000Y-73160000D02*
X142630000Y-73160000D01*
G75*
G02*
X142490000Y-73020000I0J140000D01*
G01*
X142490000Y-72740000D01*
G75*
G02*
X142630000Y-72600000I140000J0D01*
G01*
X142970000Y-72600000D01*
G75*
G02*
X143110000Y-72740000I0J-140000D01*
G01*
X143110000Y-73020000D01*
G75*
G02*
X142970000Y-73160000I-140000J0D01*
G01*
G37*
%TD.AperFunction*%
%TD*%
%TO.P,C8,2*%
%TO.N,GNDPWR*%
%TA.AperFunction,SMDPad,CuDef*%
G36*
G01*
X148170000Y-72200000D02*
X147830000Y-72200000D01*
G75*
G02*
X147690000Y-72060000I0J140000D01*
G01*
X147690000Y-71780000D01*
G75*
G02*
X147830000Y-71640000I140000J0D01*
G01*
X148170000Y-71640000D01*
G75*
G02*
X148310000Y-71780000I0J-140000D01*
G01*
X148310000Y-72060000D01*
G75*
G02*
X148170000Y-72200000I-140000J0D01*
G01*
G37*
%TD.AperFunction*%
%TO.P,C8,1*%
%TO.N,Net-(C8-Pad1)*%
%TA.AperFunction,SMDPad,CuDef*%
G36*
G01*
X148170000Y-73160000D02*
X147830000Y-73160000D01*
G75*
G02*
X147690000Y-73020000I0J140000D01*
G01*
X147690000Y-72740000D01*
G75*
G02*
X147830000Y-72600000I140000J0D01*
G01*
X148170000Y-72600000D01*
G75*
G02*
X148310000Y-72740000I0J-140000D01*
G01*
X148310000Y-73020000D01*
G75*
G02*
X148170000Y-73160000I-140000J0D01*
G01*
G37*
%TD.AperFunction*%
%TD*%
%TO.P,C7,2*%
%TO.N,GNDPWR*%
%TA.AperFunction,SMDPad,CuDef*%
G36*
G01*
X139970000Y-78600000D02*
X139630000Y-78600000D01*
G75*
G02*
X139490000Y-78460000I0J140000D01*
G01*
X139490000Y-78180000D01*
G75*
G02*
X139630000Y-78040000I140000J0D01*
G01*
X139970000Y-78040000D01*
G75*
G02*
X140110000Y-78180000I0J-140000D01*
G01*
X140110000Y-78460000D01*
G75*
G02*
X139970000Y-78600000I-140000J0D01*
G01*
G37*
%TD.AperFunction*%
%TO.P,C7,1*%
%TO.N,Net-(C7-Pad1)*%
%TA.AperFunction,SMDPad,CuDef*%
G36*
G01*
X139970000Y-79560000D02*
X139630000Y-79560000D01*
G75*
G02*
X139490000Y-79420000I0J140000D01*
G01*
X139490000Y-79140000D01*
G75*
G02*
X139630000Y-79000000I140000J0D01*
G01*
X139970000Y-79000000D01*
G75*
G02*
X140110000Y-79140000I0J-140000D01*
G01*
X140110000Y-79420000D01*
G75*
G02*
X139970000Y-79560000I-140000J0D01*
G01*
G37*
%TD.AperFunction*%
%TD*%
%TO.P,C6,2*%
%TO.N,GNDPWR*%
%TA.AperFunction,SMDPad,CuDef*%
G36*
G01*
X149770000Y-72200000D02*
X149430000Y-72200000D01*
G75*
G02*
X149290000Y-72060000I0J140000D01*
G01*
X149290000Y-71780000D01*
G75*
G02*
X149430000Y-71640000I140000J0D01*
G01*
X149770000Y-71640000D01*
G75*
G02*
X149910000Y-71780000I0J-140000D01*
G01*
X149910000Y-72060000D01*
G75*
G02*
X149770000Y-72200000I-140000J0D01*
G01*
G37*
%TD.AperFunction*%
%TO.P,C6,1*%
%TO.N,Net-(C6-Pad1)*%
%TA.AperFunction,SMDPad,CuDef*%
G36*
G01*
X149770000Y-73160000D02*
X149430000Y-73160000D01*
G75*
G02*
X149290000Y-73020000I0J140000D01*
G01*
X149290000Y-72740000D01*
G75*
G02*
X149430000Y-72600000I140000J0D01*
G01*
X149770000Y-72600000D01*
G75*
G02*
X149910000Y-72740000I0J-140000D01*
G01*
X149910000Y-73020000D01*
G75*
G02*
X149770000Y-73160000I-140000J0D01*
G01*
G37*
%TD.AperFunction*%
%TD*%
%TO.P,C5,2*%
%TO.N,GNDPWR*%
%TA.AperFunction,SMDPad,CuDef*%
G36*
G01*
X151370000Y-72200000D02*
X151030000Y-72200000D01*
G75*
G02*
X150890000Y-72060000I0J140000D01*
G01*
X150890000Y-71780000D01*
G75*
G02*
X151030000Y-71640000I140000J0D01*
G01*
X151370000Y-71640000D01*
G75*
G02*
X151510000Y-71780000I0J-140000D01*
G01*
X151510000Y-72060000D01*
G75*
G02*
X151370000Y-72200000I-140000J0D01*
G01*
G37*
%TD.AperFunction*%
%TO.P,C5,1*%
%TO.N,Net-(C5-Pad1)*%
%TA.AperFunction,SMDPad,CuDef*%
G36*
G01*
X151370000Y-73160000D02*
X151030000Y-73160000D01*
G75*
G02*
X150890000Y-73020000I0J140000D01*
G01*
X150890000Y-72740000D01*
G75*
G02*
X151030000Y-72600000I140000J0D01*
G01*
X151370000Y-72600000D01*
G75*
G02*
X151510000Y-72740000I0J-140000D01*
G01*
X151510000Y-73020000D01*
G75*
G02*
X151370000Y-73160000I-140000J0D01*
G01*
G37*
%TD.AperFunction*%
%TD*%
%TO.P,C3,2*%
%TO.N,GNDPWR*%
%TA.AperFunction,SMDPad,CuDef*%
G36*
G01*
X139800000Y-86430000D02*
X139800000Y-86770000D01*
G75*
G02*
X139660000Y-86910000I-140000J0D01*
G01*
X139380000Y-86910000D01*
G75*
G02*
X139240000Y-86770000I0J140000D01*
G01*
X139240000Y-86430000D01*
G75*
G02*
X139380000Y-86290000I140000J0D01*
G01*
X139660000Y-86290000D01*
G75*
G02*
X139800000Y-86430000I0J-140000D01*
G01*
G37*
%TD.AperFunction*%
%TO.P,C3,1*%
%TO.N,+30V*%
%TA.AperFunction,SMDPad,CuDef*%
G36*
G01*
X140760000Y-86430000D02*
X140760000Y-86770000D01*
G75*
G02*
X140620000Y-86910000I-140000J0D01*
G01*
X140340000Y-86910000D01*
G75*
G02*
X140200000Y-86770000I0J140000D01*
G01*
X140200000Y-86430000D01*
G75*
G02*
X140340000Y-86290000I140000J0D01*
G01*
X140620000Y-86290000D01*
G75*
G02*
X140760000Y-86430000I0J-140000D01*
G01*
G37*
%TD.AperFunction*%
%TD*%
%TO.P,C2,2*%
%TO.N,GNDPWR*%
%TA.AperFunction,SMDPad,CuDef*%
G36*
G01*
X140600000Y-74430000D02*
X140600000Y-74770000D01*
G75*
G02*
X140460000Y-74910000I-140000J0D01*
G01*
X140180000Y-74910000D01*
G75*
G02*
X140040000Y-74770000I0J140000D01*
G01*
X140040000Y-74430000D01*
G75*
G02*
X140180000Y-74290000I140000J0D01*
G01*
X140460000Y-74290000D01*
G75*
G02*
X140600000Y-74430000I0J-140000D01*
G01*
G37*
%TD.AperFunction*%
%TO.P,C2,1*%
%TO.N,+30V*%
%TA.AperFunction,SMDPad,CuDef*%
G36*
G01*
X141560000Y-74430000D02*
X141560000Y-74770000D01*
G75*
G02*
X141420000Y-74910000I-140000J0D01*
G01*
X141140000Y-74910000D01*
G75*
G02*
X141000000Y-74770000I0J140000D01*
G01*
X141000000Y-74430000D01*
G75*
G02*
X141140000Y-74290000I140000J0D01*
G01*
X141420000Y-74290000D01*
G75*
G02*
X141560000Y-74430000I0J-140000D01*
G01*
G37*
%TD.AperFunction*%
%TD*%
D17*
%TO.N,+30V*%
X141400000Y-75900000D03*
X141400000Y-84800000D03*
X148400000Y-85800000D03*
D18*
%TO.N,Net-(C5-Pad1)*%
X144746446Y-76153554D03*
X150400000Y-73300000D03*
%TO.N,Net-(C6-Pad1)*%
X144148839Y-76100000D03*
X148800000Y-73300000D03*
%TO.N,Net-(C8-Pad1)*%
X143548836Y-76100000D03*
X147100000Y-73300000D03*
%TO.N,Net-(C9-Pad1)*%
X142900000Y-74200000D03*
X142948833Y-76100000D03*
%TO.N,P29*%
X140869683Y-80342488D03*
%TO.N,P30*%
X140835310Y-81015222D03*
%TO.N,P31*%
X140920010Y-81689883D03*
%TO.N,P00*%
X143519801Y-86199919D03*
%TO.N,P01*%
X141704354Y-87299970D03*
%TO.N,nRF_SWDIO*%
X151284302Y-77722806D03*
%TO.N,nRF_SWCLK*%
X149900000Y-78400000D03*
%TO.N,GNDPWR*%
X153100000Y-73300000D03*
D19*
X146304000Y-65049400D03*
X137731500Y-68605400D03*
X137731500Y-70637400D03*
X136715500Y-68592700D03*
X137731500Y-67589400D03*
X137731500Y-66573400D03*
X137731500Y-69621400D03*
X136715500Y-67576700D03*
X136715500Y-69608700D03*
X136715500Y-70624700D03*
X136715500Y-66560700D03*
X144056100Y-70650100D03*
X143040100Y-70650100D03*
X146088100Y-70650100D03*
X145072100Y-70650100D03*
X148120100Y-70650100D03*
X147104100Y-70650100D03*
X150152100Y-70650100D03*
X149136100Y-70650100D03*
X152184100Y-70650100D03*
X151168100Y-70650100D03*
X154216100Y-70650100D03*
X153200100Y-70650100D03*
X149136100Y-69634100D03*
X150152100Y-69634100D03*
X145072100Y-69634100D03*
X148120100Y-69634100D03*
X154216100Y-69634100D03*
X153200100Y-69634100D03*
X147104100Y-69634100D03*
X146088100Y-69634100D03*
X143040100Y-69634100D03*
X151168100Y-69634100D03*
X144056100Y-69634100D03*
X152184100Y-69634100D03*
X149136100Y-68618100D03*
X150152100Y-68618100D03*
X145072100Y-68618100D03*
X148120100Y-68618100D03*
X154216100Y-68618100D03*
X153200100Y-68618100D03*
X147104100Y-68618100D03*
X146088100Y-68618100D03*
X143040100Y-68618100D03*
X151168100Y-68618100D03*
X144056100Y-68618100D03*
X152184100Y-68618100D03*
X149136100Y-67602100D03*
X150152100Y-67602100D03*
X145072100Y-67602100D03*
X148120100Y-67602100D03*
X154216100Y-67602100D03*
X153200100Y-67602100D03*
X147104100Y-67602100D03*
X146088100Y-67602100D03*
X143040100Y-67602100D03*
X151168100Y-67602100D03*
X144056100Y-67602100D03*
X152184100Y-67602100D03*
X149136100Y-66586100D03*
X150152100Y-66586100D03*
X145072100Y-66586100D03*
X148120100Y-66586100D03*
X154216100Y-66586100D03*
X153200100Y-66586100D03*
X147104100Y-66586100D03*
X146088100Y-66586100D03*
X143040100Y-66586100D03*
X151168100Y-66586100D03*
X144056100Y-66586100D03*
X152184100Y-66586100D03*
X142024100Y-68618100D03*
X142024100Y-67602100D03*
X142024100Y-69634100D03*
X142024100Y-70650100D03*
X142024100Y-66586100D03*
X141008100Y-70637400D03*
X141008100Y-67589400D03*
X141008100Y-68605400D03*
X141008100Y-69621400D03*
X141008100Y-66573400D03*
D18*
X139600000Y-85900000D03*
X153000000Y-88600000D03*
X139400000Y-73800000D03*
X138800000Y-77000000D03*
X138800000Y-79600000D03*
X138800000Y-82200000D03*
X137600000Y-88400000D03*
X148200000Y-76600000D03*
X149800000Y-76600000D03*
X151800000Y-78400000D03*
X141000000Y-82400000D03*
X145300000Y-76700000D03*
X145800000Y-75200000D03*
X148100000Y-88600000D03*
X152100000Y-88600000D03*
X152100000Y-87600000D03*
%TD*%
D20*
%TO.N,+30V*%
X141280000Y-74691167D02*
X142448832Y-75859999D01*
X141280000Y-74600000D02*
X141280000Y-74691167D01*
X142448832Y-75859999D02*
X142448832Y-76858734D01*
X143400000Y-77809902D02*
X143400000Y-78450000D01*
X142448832Y-76858734D02*
X143400000Y-77809902D01*
D21*
X141400000Y-74720000D02*
X141280000Y-74600000D01*
X141400000Y-75900000D02*
X141400000Y-74720000D01*
X140925010Y-86154990D02*
X140480000Y-86600000D01*
X140925010Y-85274990D02*
X140925010Y-86154990D01*
X141400000Y-84800000D02*
X140925010Y-85274990D01*
X148700000Y-86100000D02*
X148400000Y-85800000D01*
X148700000Y-86940000D02*
X148700000Y-86100000D01*
D20*
X148550000Y-83600000D02*
X149010000Y-84060000D01*
X149010000Y-85790000D02*
X148700000Y-86100000D01*
X149010000Y-84060000D02*
X149010000Y-85790000D01*
X142650000Y-83600000D02*
X142000000Y-83600000D01*
X140925010Y-84674990D02*
X140925010Y-85274990D01*
X142000000Y-83600000D02*
X140925010Y-84674990D01*
%TO.N,Net-(C4-Pad1)*%
X143400000Y-85080000D02*
X142680000Y-85800000D01*
X143400000Y-84350000D02*
X143400000Y-85080000D01*
%TO.N,Net-(C5-Pad1)*%
X144746446Y-76893556D02*
X144746446Y-76153554D01*
X145000000Y-77147110D02*
X144746446Y-76893556D01*
X145000000Y-78450000D02*
X145000000Y-77147110D01*
X150780000Y-73300000D02*
X151200000Y-72880000D01*
X150400000Y-73300000D02*
X150780000Y-73300000D01*
%TO.N,Net-(C6-Pad1)*%
X144148839Y-76861647D02*
X144148839Y-76100000D01*
X144600000Y-77312808D02*
X144148839Y-76861647D01*
X144600000Y-78450000D02*
X144600000Y-77312808D01*
X149180000Y-73300000D02*
X149600000Y-72880000D01*
X148800000Y-73300000D02*
X149180000Y-73300000D01*
%TO.N,Net-(C7-Pad1)*%
X139800000Y-79280000D02*
X139800000Y-80715000D01*
X139800000Y-80732124D02*
X139800000Y-80715000D01*
X140420010Y-81352134D02*
X139800000Y-80732124D01*
X140420010Y-82560012D02*
X140420010Y-81352134D01*
X141240001Y-82900001D02*
X140759999Y-82900001D01*
X141340002Y-82800000D02*
X141240001Y-82900001D01*
X140759999Y-82900001D02*
X140420010Y-82560012D01*
X142650000Y-82800000D02*
X141340002Y-82800000D01*
%TO.N,Net-(C8-Pad1)*%
X143548836Y-76827342D02*
X143548836Y-76100000D01*
X144200000Y-77478506D02*
X143548836Y-76827342D01*
X144200000Y-78450000D02*
X144200000Y-77478506D01*
X146750000Y-72250000D02*
X146100000Y-72250000D01*
X147100000Y-72600000D02*
X146750000Y-72250000D01*
X147120000Y-72880000D02*
X147100000Y-72900000D01*
X148000000Y-72880000D02*
X147120000Y-72880000D01*
X147100000Y-72900000D02*
X147100000Y-72600000D01*
X147100000Y-73300000D02*
X147100000Y-72900000D01*
%TO.N,Net-(C9-Pad1)*%
X143800000Y-77644204D02*
X142948833Y-76793037D01*
X143800000Y-78450000D02*
X143800000Y-77644204D01*
X143270000Y-73350000D02*
X142800000Y-72880000D01*
X143450000Y-73350000D02*
X143270000Y-73350000D01*
X144700000Y-73350000D02*
X143450000Y-73350000D01*
X142900000Y-74200000D02*
X143450000Y-73650000D01*
X143450000Y-73650000D02*
X143450000Y-73350000D01*
X142948833Y-76793037D02*
X142948833Y-76100000D01*
%TO.N,Net-(C10-Pad1)*%
X141195000Y-72885000D02*
X141200000Y-72880000D01*
X139400000Y-72885000D02*
X141195000Y-72885000D01*
X141200000Y-73240002D02*
X143159998Y-75200000D01*
X141200000Y-72880000D02*
X141200000Y-73240002D01*
X145800000Y-75940002D02*
X145800000Y-76900000D01*
X145059998Y-75200000D02*
X145800000Y-75940002D01*
X143159998Y-75200000D02*
X145059998Y-75200000D01*
X145800000Y-76900000D02*
X145800000Y-78450000D01*
%TO.N,P25*%
X137200000Y-72600000D02*
X142350000Y-77750000D01*
X142350000Y-78900000D02*
X142650000Y-79200000D01*
X142350000Y-77750000D02*
X142350000Y-78900000D01*
%TO.N,P26*%
X137200000Y-73870000D02*
X137870000Y-73870000D01*
X141949990Y-77949990D02*
X141949990Y-79394980D01*
X141949990Y-79394980D02*
X142155010Y-79600000D01*
X137870000Y-73870000D02*
X141949990Y-77949990D01*
X142155010Y-79600000D02*
X142650000Y-79600000D01*
%TO.N,P27*%
X141800000Y-80000000D02*
X142650000Y-80000000D01*
X141549980Y-79749980D02*
X141800000Y-80000000D01*
X141549980Y-78115678D02*
X141549980Y-79749980D01*
X138574302Y-75140000D02*
X141549980Y-78115678D01*
X137200000Y-75140000D02*
X138574302Y-75140000D01*
%TO.N,P28*%
X141634302Y-80400000D02*
X142650000Y-80400000D01*
X141149972Y-79915670D02*
X141634302Y-80400000D01*
X141149972Y-78549972D02*
X141149972Y-79915670D01*
X139010000Y-76410000D02*
X141149972Y-78549972D01*
X137200000Y-76410000D02*
X139010000Y-76410000D01*
%TO.N,P29*%
X141327195Y-80800000D02*
X140869683Y-80342488D01*
X142650000Y-80800000D02*
X141327195Y-80800000D01*
%TO.N,P30*%
X141020088Y-81200000D02*
X140835310Y-81015222D01*
X142650000Y-81200000D02*
X141020088Y-81200000D01*
%TO.N,P31*%
X141009893Y-81600000D02*
X140920010Y-81689883D01*
X142650000Y-81600000D02*
X141009893Y-81600000D01*
%TO.N,P00*%
X143800000Y-85919720D02*
X143519801Y-86199919D01*
X143800000Y-84350000D02*
X143800000Y-85919720D01*
%TO.N,P01*%
X144200000Y-84350000D02*
X144200000Y-86234302D01*
X142304405Y-86699919D02*
X141704354Y-87299970D01*
X143734383Y-86699919D02*
X142304405Y-86699919D01*
X144200000Y-86234302D02*
X143734383Y-86699919D01*
%TO.N,P02*%
X144600000Y-86400000D02*
X144600000Y-84350000D01*
X143900071Y-87099929D02*
X144600000Y-86400000D01*
X141915840Y-87799970D02*
X142615880Y-87099929D01*
X139599970Y-87799970D02*
X141915840Y-87799970D01*
X142615880Y-87099929D02*
X143900071Y-87099929D01*
X138400011Y-86600011D02*
X139599970Y-87799970D01*
X138400011Y-85934312D02*
X138400011Y-86600011D01*
X138000001Y-85534303D02*
X138400011Y-85934312D01*
X138000001Y-84830001D02*
X138000001Y-85534303D01*
X137200000Y-84030000D02*
X138000001Y-84830001D01*
%TO.N,P03*%
X138000001Y-86100001D02*
X137200000Y-85300000D01*
X139399980Y-88199980D02*
X138000001Y-86800001D01*
X142081530Y-88199980D02*
X139399980Y-88199980D01*
X142781569Y-87499939D02*
X142081530Y-88199980D01*
X144168665Y-87499939D02*
X142781569Y-87499939D01*
X145000000Y-86668604D02*
X144168665Y-87499939D01*
X138000001Y-86800001D02*
X138000001Y-86100001D01*
X145000000Y-84350000D02*
X145000000Y-86668604D01*
%TO.N,P04*%
X137800000Y-87170000D02*
X137200000Y-86570000D01*
X137800000Y-87399980D02*
X137800000Y-87170000D01*
X142247218Y-88599990D02*
X139000010Y-88599990D01*
X142947258Y-87899949D02*
X142247218Y-88599990D01*
X144334353Y-87899949D02*
X142947258Y-87899949D01*
X145400000Y-86834302D02*
X144334353Y-87899949D01*
X139000010Y-88599990D02*
X137800000Y-87399980D01*
X145400000Y-84350000D02*
X145400000Y-86834302D01*
%TO.N,P05*%
X145800000Y-84350000D02*
X145800000Y-87000000D01*
X145800000Y-87000000D02*
X144500041Y-88299959D01*
X143112947Y-88299959D02*
X144500041Y-88299959D01*
X142412906Y-89000000D02*
X143112947Y-88299959D01*
D22*
X138600000Y-90700000D02*
X138600000Y-89950000D01*
D20*
X139550000Y-89000000D02*
X139175000Y-89375000D01*
X142000000Y-89000000D02*
X139550000Y-89000000D01*
D22*
X139175000Y-89375000D02*
X139525000Y-89025000D01*
X138600000Y-89950000D02*
X139175000Y-89375000D01*
D20*
X142000000Y-89000000D02*
X142412906Y-89000000D01*
%TO.N,P06*%
X143278635Y-88699969D02*
X144687239Y-88699969D01*
X146200000Y-87187208D02*
X146200000Y-84350000D01*
X142578604Y-89400000D02*
X143278635Y-88699969D01*
X144687239Y-88699969D02*
X146200000Y-87187208D01*
X140300000Y-89400000D02*
X142578604Y-89400000D01*
X139870000Y-89830000D02*
X140300000Y-89400000D01*
X139870000Y-90700000D02*
X139870000Y-89830000D01*
%TO.N,P07*%
X144852927Y-89099979D02*
X146600000Y-87352906D01*
X143444323Y-89099979D02*
X144852927Y-89099979D01*
X146600000Y-87352906D02*
X146600000Y-84350000D01*
X141140000Y-89992894D02*
X141332894Y-89800000D01*
X141140000Y-90700000D02*
X141140000Y-89992894D01*
X142744302Y-89800000D02*
X143444323Y-89099979D01*
X141332894Y-89800000D02*
X142744302Y-89800000D01*
%TO.N,P08*%
X147000000Y-84350000D02*
X147000000Y-87518604D01*
X143610011Y-89499989D02*
X142410000Y-90700000D01*
X145018615Y-89499989D02*
X143610011Y-89499989D01*
X147000000Y-87518604D02*
X145018615Y-89499989D01*
%TO.N,P09*%
X147400000Y-84350000D02*
X147400000Y-87684302D01*
X144480001Y-89899999D02*
X143680000Y-90700000D01*
X145184303Y-89899999D02*
X144480001Y-89899999D01*
X147400000Y-87684302D02*
X145184303Y-89899999D01*
%TO.N,P10*%
X147800008Y-87849992D02*
X146425000Y-89225000D01*
X147800008Y-87400008D02*
X147800008Y-87849992D01*
X147800000Y-87400000D02*
X147800008Y-87400008D01*
X146425000Y-89225000D02*
X144950000Y-90700000D01*
X147800000Y-84350000D02*
X147800000Y-87400000D01*
%TO.N,P11*%
X147320000Y-89600000D02*
X146220000Y-90700000D01*
X149410010Y-88214292D02*
X148024302Y-89600000D01*
X149410010Y-83410010D02*
X149410010Y-88214292D01*
X148024302Y-89600000D02*
X147320000Y-89600000D01*
X149200000Y-83200000D02*
X149410010Y-83410010D01*
X148550000Y-83200000D02*
X149200000Y-83200000D01*
%TO.N,P12*%
X149365699Y-82800000D02*
X148550000Y-82800000D01*
X149810020Y-83244321D02*
X149365699Y-82800000D01*
X149810020Y-88379980D02*
X149810020Y-83244321D01*
X147490000Y-90700000D02*
X149810020Y-88379980D01*
%TO.N,P13*%
X150210030Y-83078632D02*
X150210030Y-88589970D01*
X149531397Y-82400000D02*
X150210030Y-83078632D01*
X148550000Y-82400000D02*
X149531397Y-82400000D01*
X148760000Y-90040000D02*
X148760000Y-90700000D01*
X150210030Y-88589970D02*
X148760000Y-90040000D01*
%TO.N,P14*%
X150030000Y-90700000D02*
X150030000Y-89370000D01*
X150610040Y-82912943D02*
X149697097Y-82000000D01*
X150610040Y-88789960D02*
X150610040Y-82912943D01*
X149697097Y-82000000D02*
X148550000Y-82000000D01*
X150030000Y-89370000D02*
X150610040Y-88789960D01*
%TO.N,P15*%
X151010050Y-90410050D02*
X151300000Y-90700000D01*
X151010050Y-82747254D02*
X151010050Y-90410050D01*
X149862796Y-81600000D02*
X151010050Y-82747254D01*
X148550000Y-81600000D02*
X149862796Y-81600000D01*
%TO.N,P16*%
X151835000Y-89965000D02*
X152570000Y-90700000D01*
X151410060Y-89540060D02*
X151835000Y-89965000D01*
X151410060Y-82581565D02*
X151410060Y-89540060D01*
X150028494Y-81200000D02*
X151410060Y-82581565D01*
X148550000Y-81200000D02*
X150028494Y-81200000D01*
%TO.N,P17*%
X150194194Y-80800000D02*
X148550000Y-80800000D01*
X151810070Y-82415876D02*
X150194194Y-80800000D01*
X151810070Y-84380070D02*
X151810070Y-82415876D01*
X154000000Y-86570000D02*
X151810070Y-84380070D01*
%TO.N,P18*%
X150359891Y-80400000D02*
X148550000Y-80400000D01*
X152400010Y-82440118D02*
X150359891Y-80400000D01*
X152400010Y-83700010D02*
X152400010Y-82440118D01*
X154000000Y-85300000D02*
X152400010Y-83700010D01*
%TO.N,P19*%
X150525591Y-80000000D02*
X148550000Y-80000000D01*
X152800020Y-82274429D02*
X150525591Y-80000000D01*
X152800020Y-82830020D02*
X152800020Y-82274429D01*
X154000000Y-84030000D02*
X152800020Y-82830020D01*
%TO.N,P20*%
X150840000Y-79600000D02*
X148550000Y-79600000D01*
X154000000Y-82760000D02*
X150840000Y-79600000D01*
%TO.N,P21*%
X153295699Y-81490000D02*
X154000000Y-81490000D01*
X151005689Y-79199990D02*
X153295699Y-81490000D01*
X148550000Y-79199990D02*
X151005689Y-79199990D01*
%TO.N,P22*%
X147831376Y-75500020D02*
X149768624Y-75500020D01*
X147000000Y-76331396D02*
X147831376Y-75500020D01*
X147000000Y-78450000D02*
X147000000Y-76331396D01*
X153034302Y-79254302D02*
X153034302Y-78765698D01*
X154000000Y-80220000D02*
X153034302Y-79254302D01*
X149768624Y-75500020D02*
X153034302Y-78765698D01*
%TO.N,P23*%
X153784302Y-78950000D02*
X154000000Y-78950000D01*
X149934312Y-75100010D02*
X153784302Y-78950000D01*
X147665688Y-75100010D02*
X149934312Y-75100010D01*
X146600000Y-76165698D02*
X147665688Y-75100010D01*
X146600000Y-78450000D02*
X146600000Y-76165698D01*
%TO.N,P24*%
X153080000Y-77680000D02*
X154000000Y-77680000D01*
X150100000Y-74700000D02*
X153080000Y-77680000D01*
X147500000Y-74700000D02*
X150100000Y-74700000D01*
X146200000Y-76000000D02*
X147500000Y-74700000D01*
X146200000Y-78450000D02*
X146200000Y-76000000D01*
%TO.N,nRF_SWDIO*%
X147400000Y-77900000D02*
X147577194Y-77722806D01*
X147577194Y-77722806D02*
X151284302Y-77722806D01*
X147400000Y-78450000D02*
X147400000Y-77900000D01*
%TO.N,nRF_SWCLK*%
X149850000Y-78450000D02*
X149900000Y-78400000D01*
X147800000Y-78450000D02*
X149850000Y-78450000D01*
%TO.N,Net-(L1-Pad2)*%
X139800000Y-83212500D02*
X140000000Y-83412500D01*
X139800000Y-81685000D02*
X139800000Y-83212500D01*
%TO.N,Net-(L2-Pad2)*%
X140000000Y-84987500D02*
X140046802Y-84987500D01*
X141834302Y-83200000D02*
X142650000Y-83200000D01*
X140046802Y-84987500D02*
X141834302Y-83200000D01*
%TO.N,/Main/ANT*%
X139400000Y-71915000D02*
X139400000Y-71600000D01*
X139369800Y-71569800D02*
X139400000Y-71600000D01*
D23*
X139369800Y-70319900D02*
X139369800Y-71569800D01*
D20*
%TO.N,GNDPWR*%
X145400000Y-81200000D02*
X145600000Y-81400000D01*
X145400000Y-78450000D02*
X145400000Y-81200000D01*
X141105718Y-82400000D02*
X141052859Y-82347141D01*
X142650000Y-82400000D02*
X141105718Y-82400000D01*
X139520000Y-85980000D02*
X139600000Y-85900000D01*
X139520000Y-86600000D02*
X139520000Y-85980000D01*
X140130010Y-87210010D02*
X139520000Y-86600000D01*
X140802260Y-87210010D02*
X140130010Y-87210010D01*
X141720000Y-86292270D02*
X140802260Y-87210010D01*
X141720000Y-85800000D02*
X141720000Y-86292270D01*
X145400000Y-78450000D02*
X145400000Y-76800000D01*
X145400000Y-76800000D02*
X145300000Y-76700000D01*
X148700000Y-88000000D02*
X148100000Y-88600000D01*
X148700000Y-87900000D02*
X148700000Y-88000000D01*
X153670000Y-73870000D02*
X153100000Y-73300000D01*
X154000000Y-73870000D02*
X153670000Y-73870000D01*
%TD*%
D24*
%TO.N,GNDPWR*%
X153171418Y-86345287D02*
X153171418Y-87070000D01*
X153177732Y-87134103D01*
X153196430Y-87195743D01*
X153226794Y-87252550D01*
X153267657Y-87302343D01*
X153317450Y-87343206D01*
X153374257Y-87373570D01*
X153435897Y-87392268D01*
X153500000Y-87398582D01*
X154500000Y-87398582D01*
X154515046Y-87397100D01*
X155073000Y-87397100D01*
X155073000Y-91773000D01*
X153397100Y-91773000D01*
X153397100Y-90725400D01*
X153397000Y-90724380D01*
X153397000Y-90618548D01*
X153365218Y-90458773D01*
X153302877Y-90308269D01*
X153212372Y-90172819D01*
X153097181Y-90057628D01*
X152961731Y-89967123D01*
X152811227Y-89904782D01*
X152651452Y-89873000D01*
X152488548Y-89873000D01*
X152370375Y-89896507D01*
X152151772Y-89677904D01*
X152151768Y-89677899D01*
X151837060Y-89363192D01*
X151837060Y-85010928D01*
X153171418Y-86345287D01*
%TA.AperFunction,Conductor*%
D25*
G36*
X153171418Y-86345287D02*
G01*
X153171418Y-87070000D01*
X153177732Y-87134103D01*
X153196430Y-87195743D01*
X153226794Y-87252550D01*
X153267657Y-87302343D01*
X153317450Y-87343206D01*
X153374257Y-87373570D01*
X153435897Y-87392268D01*
X153500000Y-87398582D01*
X154500000Y-87398582D01*
X154515046Y-87397100D01*
X155073000Y-87397100D01*
X155073000Y-91773000D01*
X153397100Y-91773000D01*
X153397100Y-90725400D01*
X153397000Y-90724380D01*
X153397000Y-90618548D01*
X153365218Y-90458773D01*
X153302877Y-90308269D01*
X153212372Y-90172819D01*
X153097181Y-90057628D01*
X152961731Y-89967123D01*
X152811227Y-89904782D01*
X152651452Y-89873000D01*
X152488548Y-89873000D01*
X152370375Y-89896507D01*
X152151772Y-89677904D01*
X152151768Y-89677899D01*
X151837060Y-89363192D01*
X151837060Y-85010928D01*
X153171418Y-86345287D01*
G37*
%TD.AperFunction*%
D24*
X137373000Y-87379013D02*
X137370935Y-87399980D01*
X137373000Y-87420947D01*
X137373000Y-87420957D01*
X137379178Y-87483686D01*
X137403595Y-87564175D01*
X137418084Y-87591282D01*
X137443245Y-87638356D01*
X137480952Y-87684302D01*
X137496605Y-87703375D01*
X137512900Y-87716748D01*
X138683246Y-88887095D01*
X138696615Y-88903385D01*
X138712905Y-88916754D01*
X138712908Y-88916757D01*
X138761633Y-88956745D01*
X138792045Y-88973000D01*
X138835814Y-88996395D01*
X138896095Y-89014682D01*
X138871094Y-89039683D01*
X138871089Y-89039687D01*
X138296096Y-89614681D01*
X138278842Y-89628841D01*
X138233815Y-89683707D01*
X138222358Y-89697667D01*
X138180386Y-89776191D01*
X138154540Y-89861393D01*
X138153553Y-89871418D01*
X138100000Y-89871418D01*
X138035897Y-89877732D01*
X137974257Y-89896430D01*
X137917450Y-89926794D01*
X137867657Y-89967657D01*
X137826794Y-90017450D01*
X137796430Y-90074257D01*
X137777732Y-90135897D01*
X137771418Y-90200000D01*
X137771418Y-91200000D01*
X137772900Y-91215046D01*
X137772900Y-91773000D01*
X136127000Y-91773000D01*
X136127000Y-87397100D01*
X137174600Y-87397100D01*
X137175620Y-87397000D01*
X137281452Y-87397000D01*
X137373000Y-87378790D01*
X137373000Y-87379013D01*
%TA.AperFunction,Conductor*%
D25*
G36*
X137373000Y-87379013D02*
G01*
X137370935Y-87399980D01*
X137373000Y-87420947D01*
X137373000Y-87420957D01*
X137379178Y-87483686D01*
X137403595Y-87564175D01*
X137418084Y-87591282D01*
X137443245Y-87638356D01*
X137480952Y-87684302D01*
X137496605Y-87703375D01*
X137512900Y-87716748D01*
X138683246Y-88887095D01*
X138696615Y-88903385D01*
X138712905Y-88916754D01*
X138712908Y-88916757D01*
X138761633Y-88956745D01*
X138792045Y-88973000D01*
X138835814Y-88996395D01*
X138896095Y-89014682D01*
X138871094Y-89039683D01*
X138871089Y-89039687D01*
X138296096Y-89614681D01*
X138278842Y-89628841D01*
X138233815Y-89683707D01*
X138222358Y-89697667D01*
X138180386Y-89776191D01*
X138154540Y-89861393D01*
X138153553Y-89871418D01*
X138100000Y-89871418D01*
X138035897Y-89877732D01*
X137974257Y-89896430D01*
X137917450Y-89926794D01*
X137867657Y-89967657D01*
X137826794Y-90017450D01*
X137796430Y-90074257D01*
X137777732Y-90135897D01*
X137771418Y-90200000D01*
X137771418Y-91200000D01*
X137772900Y-91215046D01*
X137772900Y-91773000D01*
X136127000Y-91773000D01*
X136127000Y-87397100D01*
X137174600Y-87397100D01*
X137175620Y-87397000D01*
X137281452Y-87397000D01*
X137373000Y-87378790D01*
X137373000Y-87379013D01*
G37*
%TD.AperFunction*%
D24*
X147861092Y-88536921D02*
X147940887Y-88633247D01*
X148037941Y-88712156D01*
X148148524Y-88770614D01*
X148226543Y-88793891D01*
X147847434Y-89173000D01*
X147340967Y-89173000D01*
X147320000Y-89170935D01*
X147299033Y-89173000D01*
X147299022Y-89173000D01*
X147236293Y-89179178D01*
X147155804Y-89203595D01*
X147126935Y-89219026D01*
X147081623Y-89243245D01*
X147032899Y-89283232D01*
X147032895Y-89283236D01*
X147016605Y-89296605D01*
X147003236Y-89312895D01*
X146419625Y-89896507D01*
X146367692Y-89886176D01*
X146741768Y-89512101D01*
X146741772Y-89512096D01*
X147810523Y-88443346D01*
X147861092Y-88536921D01*
%TA.AperFunction,Conductor*%
D25*
G36*
X147861092Y-88536921D02*
G01*
X147940887Y-88633247D01*
X148037941Y-88712156D01*
X148148524Y-88770614D01*
X148226543Y-88793891D01*
X147847434Y-89173000D01*
X147340967Y-89173000D01*
X147320000Y-89170935D01*
X147299033Y-89173000D01*
X147299022Y-89173000D01*
X147236293Y-89179178D01*
X147155804Y-89203595D01*
X147126935Y-89219026D01*
X147081623Y-89243245D01*
X147032899Y-89283232D01*
X147032895Y-89283236D01*
X147016605Y-89296605D01*
X147003236Y-89312895D01*
X146419625Y-89896507D01*
X146367692Y-89886176D01*
X146741768Y-89512101D01*
X146741772Y-89512096D01*
X147810523Y-88443346D01*
X147861092Y-88536921D01*
G37*
%TD.AperFunction*%
D24*
X148827000Y-87773000D02*
X148847000Y-87773000D01*
X148847000Y-88027000D01*
X148827000Y-88027000D01*
X148827000Y-88047000D01*
X148573000Y-88047000D01*
X148573000Y-88027000D01*
X148553000Y-88027000D01*
X148553000Y-87773000D01*
X148573000Y-87773000D01*
X148573000Y-87753000D01*
X148827000Y-87753000D01*
X148827000Y-87773000D01*
%TA.AperFunction,Conductor*%
D25*
G36*
X148827000Y-87773000D02*
G01*
X148847000Y-87773000D01*
X148847000Y-88027000D01*
X148827000Y-88027000D01*
X148827000Y-88047000D01*
X148573000Y-88047000D01*
X148573000Y-88027000D01*
X148553000Y-88027000D01*
X148553000Y-87773000D01*
X148573000Y-87773000D01*
X148573000Y-87753000D01*
X148827000Y-87753000D01*
X148827000Y-87773000D01*
G37*
%TD.AperFunction*%
D24*
X141592998Y-86745000D02*
X141655455Y-86745000D01*
X141621287Y-86779168D01*
X141550634Y-86793222D01*
X141454726Y-86832949D01*
X141368411Y-86890622D01*
X141295006Y-86964027D01*
X141237333Y-87050342D01*
X141197606Y-87146250D01*
X141177354Y-87248065D01*
X141177354Y-87351875D01*
X141181550Y-87372970D01*
X140236519Y-87372970D01*
X140253247Y-87359113D01*
X140332156Y-87262059D01*
X140344567Y-87238582D01*
X140620000Y-87238582D01*
X140711416Y-87229578D01*
X140799319Y-87202913D01*
X140880330Y-87159612D01*
X140951338Y-87101338D01*
X141009612Y-87030330D01*
X141052913Y-86949319D01*
X141079578Y-86861416D01*
X141084494Y-86811508D01*
X141196563Y-86699438D01*
X141312652Y-86735235D01*
X141434250Y-86745000D01*
X141592998Y-86586252D01*
X141592998Y-86745000D01*
%TA.AperFunction,Conductor*%
D25*
G36*
X141592998Y-86745000D02*
G01*
X141655455Y-86745000D01*
X141621287Y-86779168D01*
X141550634Y-86793222D01*
X141454726Y-86832949D01*
X141368411Y-86890622D01*
X141295006Y-86964027D01*
X141237333Y-87050342D01*
X141197606Y-87146250D01*
X141177354Y-87248065D01*
X141177354Y-87351875D01*
X141181550Y-87372970D01*
X140236519Y-87372970D01*
X140253247Y-87359113D01*
X140332156Y-87262059D01*
X140344567Y-87238582D01*
X140620000Y-87238582D01*
X140711416Y-87229578D01*
X140799319Y-87202913D01*
X140880330Y-87159612D01*
X140951338Y-87101338D01*
X141009612Y-87030330D01*
X141052913Y-86949319D01*
X141079578Y-86861416D01*
X141084494Y-86811508D01*
X141196563Y-86699438D01*
X141312652Y-86735235D01*
X141434250Y-86745000D01*
X141592998Y-86586252D01*
X141592998Y-86745000D01*
G37*
%TD.AperFunction*%
D24*
X139647000Y-86473000D02*
X139667000Y-86473000D01*
X139667000Y-86727000D01*
X139647000Y-86727000D01*
X139647000Y-86747000D01*
X139393000Y-86747000D01*
X139393000Y-86727000D01*
X139373000Y-86727000D01*
X139373000Y-86473000D01*
X139393000Y-86473000D01*
X139393000Y-86453000D01*
X139647000Y-86453000D01*
X139647000Y-86473000D01*
%TA.AperFunction,Conductor*%
D25*
G36*
X139647000Y-86473000D02*
G01*
X139667000Y-86473000D01*
X139667000Y-86727000D01*
X139647000Y-86727000D01*
X139647000Y-86747000D01*
X139393000Y-86747000D01*
X139393000Y-86727000D01*
X139373000Y-86727000D01*
X139373000Y-86473000D01*
X139393000Y-86473000D01*
X139393000Y-86453000D01*
X139647000Y-86453000D01*
X139647000Y-86473000D01*
G37*
%TD.AperFunction*%
D24*
X141847000Y-85673000D02*
X141867000Y-85673000D01*
X141867000Y-85927000D01*
X141847000Y-85927000D01*
X141847000Y-85947000D01*
X141593000Y-85947000D01*
X141593000Y-85927000D01*
X141573000Y-85927000D01*
X141573000Y-85673000D01*
X141593000Y-85673000D01*
X141593000Y-85653000D01*
X141847000Y-85653000D01*
X141847000Y-85673000D01*
%TA.AperFunction,Conductor*%
D25*
G36*
X141847000Y-85673000D02*
G01*
X141867000Y-85673000D01*
X141867000Y-85927000D01*
X141847000Y-85927000D01*
X141847000Y-85947000D01*
X141593000Y-85947000D01*
X141593000Y-85927000D01*
X141573000Y-85927000D01*
X141573000Y-85673000D01*
X141593000Y-85673000D01*
X141593000Y-85653000D01*
X141847000Y-85653000D01*
X141847000Y-85673000D01*
G37*
%TD.AperFunction*%
D24*
X139406207Y-77410075D02*
X139368387Y-77413625D01*
X139248524Y-77449386D01*
X139137941Y-77507844D01*
X139040887Y-77586753D01*
X138961092Y-77683079D01*
X138901623Y-77793122D01*
X138864765Y-77912652D01*
X138855000Y-78034250D01*
X139013750Y-78193000D01*
X139673000Y-78193000D01*
X139673000Y-78173000D01*
X139927000Y-78173000D01*
X139927000Y-78193000D01*
X139947000Y-78193000D01*
X139947000Y-78447000D01*
X139927000Y-78447000D01*
X139927000Y-78467000D01*
X139673000Y-78467000D01*
X139673000Y-78447000D01*
X139013750Y-78447000D01*
X138855000Y-78605750D01*
X138864765Y-78727348D01*
X138901623Y-78846878D01*
X138961092Y-78956921D01*
X139040887Y-79053247D01*
X139137941Y-79132156D01*
X139161418Y-79144567D01*
X139161418Y-79420000D01*
X139170422Y-79511416D01*
X139197087Y-79599319D01*
X139240388Y-79680330D01*
X139298662Y-79751338D01*
X139369670Y-79809612D01*
X139373000Y-79811392D01*
X139373001Y-80166308D01*
X139363003Y-80171652D01*
X139290859Y-80230859D01*
X139231652Y-80303003D01*
X139187658Y-80385311D01*
X139160566Y-80474621D01*
X139151418Y-80567500D01*
X139151418Y-80862500D01*
X139160566Y-80955379D01*
X139187658Y-81044689D01*
X139231652Y-81126997D01*
X139290859Y-81199141D01*
X139291906Y-81200000D01*
X139290859Y-81200859D01*
X139231652Y-81273003D01*
X139187658Y-81355311D01*
X139160566Y-81444621D01*
X139151418Y-81537500D01*
X139151418Y-81832500D01*
X139160566Y-81925379D01*
X139187658Y-82014689D01*
X139231652Y-82096997D01*
X139290859Y-82169141D01*
X139363003Y-82228348D01*
X139373000Y-82233692D01*
X139373001Y-82793373D01*
X139356728Y-82806728D01*
X139288660Y-82889669D01*
X139238081Y-82984295D01*
X139206935Y-83086971D01*
X139196418Y-83193750D01*
X139196418Y-83631250D01*
X139206935Y-83738029D01*
X139238081Y-83840705D01*
X139288660Y-83935331D01*
X139356728Y-84018272D01*
X139439669Y-84086340D01*
X139534295Y-84136919D01*
X139636971Y-84168065D01*
X139743750Y-84178582D01*
X140251852Y-84178582D01*
X140209016Y-84221418D01*
X139743750Y-84221418D01*
X139636971Y-84231935D01*
X139534295Y-84263081D01*
X139439669Y-84313660D01*
X139356728Y-84381728D01*
X139288660Y-84464669D01*
X139238081Y-84559295D01*
X139206935Y-84661971D01*
X139196418Y-84768750D01*
X139196418Y-85206250D01*
X139206935Y-85313029D01*
X139238081Y-85415705D01*
X139288660Y-85510331D01*
X139356728Y-85593272D01*
X139431944Y-85655000D01*
X139392998Y-85655000D01*
X139392998Y-85813748D01*
X139234250Y-85655000D01*
X139112652Y-85664765D01*
X138993122Y-85701623D01*
X138883079Y-85761092D01*
X138811633Y-85820277D01*
X138796416Y-85770116D01*
X138765309Y-85711919D01*
X138756766Y-85695935D01*
X138716779Y-85647210D01*
X138716770Y-85647201D01*
X138703406Y-85630917D01*
X138687122Y-85617553D01*
X138427001Y-85357434D01*
X138427001Y-84850965D01*
X138429066Y-84830000D01*
X138427001Y-84809035D01*
X138427001Y-84809023D01*
X138420823Y-84746294D01*
X138396406Y-84665805D01*
X138356757Y-84591626D01*
X138356756Y-84591624D01*
X138316769Y-84542899D01*
X138316760Y-84542890D01*
X138303396Y-84526606D01*
X138287113Y-84513243D01*
X138003494Y-84229624D01*
X138027000Y-84111452D01*
X138027000Y-83948548D01*
X137995218Y-83788773D01*
X137932877Y-83638269D01*
X137842372Y-83502819D01*
X137734553Y-83395000D01*
X137842372Y-83287181D01*
X137932877Y-83151731D01*
X137995218Y-83001227D01*
X138027000Y-82841452D01*
X138027000Y-82678548D01*
X137995218Y-82518773D01*
X137932877Y-82368269D01*
X137842372Y-82232819D01*
X137734553Y-82125000D01*
X137842372Y-82017181D01*
X137932877Y-81881731D01*
X137995218Y-81731227D01*
X138027000Y-81571452D01*
X138027000Y-81408548D01*
X137995218Y-81248773D01*
X137932877Y-81098269D01*
X137842372Y-80962819D01*
X137734553Y-80855000D01*
X137842372Y-80747181D01*
X137932877Y-80611731D01*
X137995218Y-80461227D01*
X138027000Y-80301452D01*
X138027000Y-80138548D01*
X137995218Y-79978773D01*
X137932877Y-79828269D01*
X137842372Y-79692819D01*
X137734553Y-79585000D01*
X137842372Y-79477181D01*
X137932877Y-79341731D01*
X137995218Y-79191227D01*
X138027000Y-79031452D01*
X138027000Y-78868548D01*
X137995218Y-78708773D01*
X137932877Y-78558269D01*
X137842372Y-78422819D01*
X137734553Y-78315000D01*
X137842372Y-78207181D01*
X137932877Y-78071731D01*
X137995218Y-77921227D01*
X138027000Y-77761452D01*
X138027000Y-77598548D01*
X137995218Y-77438773D01*
X137932877Y-77288269D01*
X137842372Y-77152819D01*
X137734553Y-77045000D01*
X137842372Y-76937181D01*
X137909311Y-76837000D01*
X138833132Y-76837000D01*
X139406207Y-77410075D01*
%TA.AperFunction,Conductor*%
D25*
G36*
X139406207Y-77410075D02*
G01*
X139368387Y-77413625D01*
X139248524Y-77449386D01*
X139137941Y-77507844D01*
X139040887Y-77586753D01*
X138961092Y-77683079D01*
X138901623Y-77793122D01*
X138864765Y-77912652D01*
X138855000Y-78034250D01*
X139013750Y-78193000D01*
X139673000Y-78193000D01*
X139673000Y-78173000D01*
X139927000Y-78173000D01*
X139927000Y-78193000D01*
X139947000Y-78193000D01*
X139947000Y-78447000D01*
X139927000Y-78447000D01*
X139927000Y-78467000D01*
X139673000Y-78467000D01*
X139673000Y-78447000D01*
X139013750Y-78447000D01*
X138855000Y-78605750D01*
X138864765Y-78727348D01*
X138901623Y-78846878D01*
X138961092Y-78956921D01*
X139040887Y-79053247D01*
X139137941Y-79132156D01*
X139161418Y-79144567D01*
X139161418Y-79420000D01*
X139170422Y-79511416D01*
X139197087Y-79599319D01*
X139240388Y-79680330D01*
X139298662Y-79751338D01*
X139369670Y-79809612D01*
X139373000Y-79811392D01*
X139373001Y-80166308D01*
X139363003Y-80171652D01*
X139290859Y-80230859D01*
X139231652Y-80303003D01*
X139187658Y-80385311D01*
X139160566Y-80474621D01*
X139151418Y-80567500D01*
X139151418Y-80862500D01*
X139160566Y-80955379D01*
X139187658Y-81044689D01*
X139231652Y-81126997D01*
X139290859Y-81199141D01*
X139291906Y-81200000D01*
X139290859Y-81200859D01*
X139231652Y-81273003D01*
X139187658Y-81355311D01*
X139160566Y-81444621D01*
X139151418Y-81537500D01*
X139151418Y-81832500D01*
X139160566Y-81925379D01*
X139187658Y-82014689D01*
X139231652Y-82096997D01*
X139290859Y-82169141D01*
X139363003Y-82228348D01*
X139373000Y-82233692D01*
X139373001Y-82793373D01*
X139356728Y-82806728D01*
X139288660Y-82889669D01*
X139238081Y-82984295D01*
X139206935Y-83086971D01*
X139196418Y-83193750D01*
X139196418Y-83631250D01*
X139206935Y-83738029D01*
X139238081Y-83840705D01*
X139288660Y-83935331D01*
X139356728Y-84018272D01*
X139439669Y-84086340D01*
X139534295Y-84136919D01*
X139636971Y-84168065D01*
X139743750Y-84178582D01*
X140251852Y-84178582D01*
X140209016Y-84221418D01*
X139743750Y-84221418D01*
X139636971Y-84231935D01*
X139534295Y-84263081D01*
X139439669Y-84313660D01*
X139356728Y-84381728D01*
X139288660Y-84464669D01*
X139238081Y-84559295D01*
X139206935Y-84661971D01*
X139196418Y-84768750D01*
X139196418Y-85206250D01*
X139206935Y-85313029D01*
X139238081Y-85415705D01*
X139288660Y-85510331D01*
X139356728Y-85593272D01*
X139431944Y-85655000D01*
X139392998Y-85655000D01*
X139392998Y-85813748D01*
X139234250Y-85655000D01*
X139112652Y-85664765D01*
X138993122Y-85701623D01*
X138883079Y-85761092D01*
X138811633Y-85820277D01*
X138796416Y-85770116D01*
X138765309Y-85711919D01*
X138756766Y-85695935D01*
X138716779Y-85647210D01*
X138716770Y-85647201D01*
X138703406Y-85630917D01*
X138687122Y-85617553D01*
X138427001Y-85357434D01*
X138427001Y-84850965D01*
X138429066Y-84830000D01*
X138427001Y-84809035D01*
X138427001Y-84809023D01*
X138420823Y-84746294D01*
X138396406Y-84665805D01*
X138356757Y-84591626D01*
X138356756Y-84591624D01*
X138316769Y-84542899D01*
X138316760Y-84542890D01*
X138303396Y-84526606D01*
X138287113Y-84513243D01*
X138003494Y-84229624D01*
X138027000Y-84111452D01*
X138027000Y-83948548D01*
X137995218Y-83788773D01*
X137932877Y-83638269D01*
X137842372Y-83502819D01*
X137734553Y-83395000D01*
X137842372Y-83287181D01*
X137932877Y-83151731D01*
X137995218Y-83001227D01*
X138027000Y-82841452D01*
X138027000Y-82678548D01*
X137995218Y-82518773D01*
X137932877Y-82368269D01*
X137842372Y-82232819D01*
X137734553Y-82125000D01*
X137842372Y-82017181D01*
X137932877Y-81881731D01*
X137995218Y-81731227D01*
X138027000Y-81571452D01*
X138027000Y-81408548D01*
X137995218Y-81248773D01*
X137932877Y-81098269D01*
X137842372Y-80962819D01*
X137734553Y-80855000D01*
X137842372Y-80747181D01*
X137932877Y-80611731D01*
X137995218Y-80461227D01*
X138027000Y-80301452D01*
X138027000Y-80138548D01*
X137995218Y-79978773D01*
X137932877Y-79828269D01*
X137842372Y-79692819D01*
X137734553Y-79585000D01*
X137842372Y-79477181D01*
X137932877Y-79341731D01*
X137995218Y-79191227D01*
X138027000Y-79031452D01*
X138027000Y-78868548D01*
X137995218Y-78708773D01*
X137932877Y-78558269D01*
X137842372Y-78422819D01*
X137734553Y-78315000D01*
X137842372Y-78207181D01*
X137932877Y-78071731D01*
X137995218Y-77921227D01*
X138027000Y-77761452D01*
X138027000Y-77598548D01*
X137995218Y-77438773D01*
X137932877Y-77288269D01*
X137842372Y-77152819D01*
X137734553Y-77045000D01*
X137842372Y-76937181D01*
X137909311Y-76837000D01*
X138833132Y-76837000D01*
X139406207Y-77410075D01*
G37*
%TD.AperFunction*%
D24*
X139710448Y-85750302D02*
X139647002Y-85813748D01*
X139647002Y-85744053D01*
X139710448Y-85750302D01*
%TA.AperFunction,Conductor*%
D25*
G36*
X139710448Y-85750302D02*
G01*
X139647002Y-85813748D01*
X139647002Y-85744053D01*
X139710448Y-85750302D01*
G37*
%TD.AperFunction*%
D24*
X141670980Y-82031910D02*
X141629804Y-82150023D01*
X141615000Y-82241250D01*
X141646748Y-82272998D01*
X141615000Y-82272998D01*
X141615000Y-82373000D01*
X141360969Y-82373000D01*
X141340002Y-82370935D01*
X141319035Y-82373000D01*
X141319024Y-82373000D01*
X141256295Y-82379178D01*
X141175806Y-82403595D01*
X141143577Y-82420822D01*
X141101626Y-82443244D01*
X141065368Y-82473001D01*
X140936868Y-82473001D01*
X140847010Y-82383144D01*
X140847010Y-82212687D01*
X140868105Y-82216883D01*
X140971915Y-82216883D01*
X141073730Y-82196631D01*
X141169638Y-82156904D01*
X141255953Y-82099231D01*
X141328184Y-82027000D01*
X141673869Y-82027000D01*
X141670980Y-82031910D01*
%TA.AperFunction,Conductor*%
D25*
G36*
X141670980Y-82031910D02*
G01*
X141629804Y-82150023D01*
X141615000Y-82241250D01*
X141646748Y-82272998D01*
X141615000Y-82272998D01*
X141615000Y-82373000D01*
X141360969Y-82373000D01*
X141340002Y-82370935D01*
X141319035Y-82373000D01*
X141319024Y-82373000D01*
X141256295Y-82379178D01*
X141175806Y-82403595D01*
X141143577Y-82420822D01*
X141101626Y-82443244D01*
X141065368Y-82473001D01*
X140936868Y-82473001D01*
X140847010Y-82383144D01*
X140847010Y-82212687D01*
X140868105Y-82216883D01*
X140971915Y-82216883D01*
X141073730Y-82196631D01*
X141169638Y-82156904D01*
X141255953Y-82099231D01*
X141328184Y-82027000D01*
X141673869Y-82027000D01*
X141670980Y-82031910D01*
G37*
%TD.AperFunction*%
D24*
X145727000Y-81273000D02*
X145747000Y-81273000D01*
X145747000Y-81527000D01*
X145727000Y-81527000D01*
X145727000Y-81547000D01*
X145473000Y-81547000D01*
X145473000Y-81527000D01*
X145453000Y-81527000D01*
X145453000Y-81273000D01*
X145473000Y-81273000D01*
X145473000Y-81253000D01*
X145727000Y-81253000D01*
X145727000Y-81273000D01*
%TA.AperFunction,Conductor*%
D25*
G36*
X145727000Y-81273000D02*
G01*
X145747000Y-81273000D01*
X145747000Y-81527000D01*
X145727000Y-81527000D01*
X145727000Y-81547000D01*
X145473000Y-81547000D01*
X145473000Y-81527000D01*
X145453000Y-81527000D01*
X145453000Y-81273000D01*
X145473000Y-81273000D01*
X145473000Y-81253000D01*
X145727000Y-81253000D01*
X145727000Y-81273000D01*
G37*
%TD.AperFunction*%
D24*
X152607303Y-78942568D02*
X152607302Y-79233334D01*
X152605237Y-79254302D01*
X152607302Y-79275269D01*
X152607302Y-79275279D01*
X152613480Y-79338008D01*
X152637897Y-79418497D01*
X152646721Y-79435005D01*
X152677547Y-79492678D01*
X152717534Y-79541402D01*
X152730907Y-79557697D01*
X152747202Y-79571070D01*
X153196507Y-80020376D01*
X153173000Y-80138548D01*
X153173000Y-80301452D01*
X153204782Y-80461227D01*
X153267123Y-80611731D01*
X153357628Y-80747181D01*
X153465447Y-80855000D01*
X153365008Y-80955439D01*
X151322457Y-78912890D01*
X151309084Y-78896595D01*
X151244065Y-78843235D01*
X151169885Y-78803585D01*
X151089396Y-78779168D01*
X151026667Y-78772990D01*
X151026656Y-78772990D01*
X151005689Y-78770925D01*
X150984722Y-78772990D01*
X150272301Y-78772990D01*
X150309348Y-78735943D01*
X150367021Y-78649628D01*
X150406748Y-78553720D01*
X150427000Y-78451905D01*
X150427000Y-78348095D01*
X150406748Y-78246280D01*
X150367021Y-78150372D01*
X150366643Y-78149806D01*
X150974777Y-78149806D01*
X151034674Y-78189827D01*
X151130582Y-78229554D01*
X151232397Y-78249806D01*
X151336207Y-78249806D01*
X151438022Y-78229554D01*
X151533930Y-78189827D01*
X151620245Y-78132154D01*
X151693650Y-78058749D01*
X151705600Y-78040865D01*
X152607303Y-78942568D01*
%TA.AperFunction,Conductor*%
D25*
G36*
X152607303Y-78942568D02*
G01*
X152607302Y-79233334D01*
X152605237Y-79254302D01*
X152607302Y-79275269D01*
X152607302Y-79275279D01*
X152613480Y-79338008D01*
X152637897Y-79418497D01*
X152646721Y-79435005D01*
X152677547Y-79492678D01*
X152717534Y-79541402D01*
X152730907Y-79557697D01*
X152747202Y-79571070D01*
X153196507Y-80020376D01*
X153173000Y-80138548D01*
X153173000Y-80301452D01*
X153204782Y-80461227D01*
X153267123Y-80611731D01*
X153357628Y-80747181D01*
X153465447Y-80855000D01*
X153365008Y-80955439D01*
X151322457Y-78912890D01*
X151309084Y-78896595D01*
X151244065Y-78843235D01*
X151169885Y-78803585D01*
X151089396Y-78779168D01*
X151026667Y-78772990D01*
X151026656Y-78772990D01*
X151005689Y-78770925D01*
X150984722Y-78772990D01*
X150272301Y-78772990D01*
X150309348Y-78735943D01*
X150367021Y-78649628D01*
X150406748Y-78553720D01*
X150427000Y-78451905D01*
X150427000Y-78348095D01*
X150406748Y-78246280D01*
X150367021Y-78150372D01*
X150366643Y-78149806D01*
X150974777Y-78149806D01*
X151034674Y-78189827D01*
X151130582Y-78229554D01*
X151232397Y-78249806D01*
X151336207Y-78249806D01*
X151438022Y-78229554D01*
X151533930Y-78189827D01*
X151620245Y-78132154D01*
X151693650Y-78058749D01*
X151705600Y-78040865D01*
X152607303Y-78942568D01*
G37*
%TD.AperFunction*%
D24*
X150960542Y-77295806D02*
X147598160Y-77295806D01*
X147577193Y-77293741D01*
X147556226Y-77295806D01*
X147556216Y-77295806D01*
X147493487Y-77301984D01*
X147427000Y-77322153D01*
X147427000Y-76508264D01*
X148008246Y-75927020D01*
X149591756Y-75927020D01*
X150960542Y-77295806D01*
%TA.AperFunction,Conductor*%
D25*
G36*
X150960542Y-77295806D02*
G01*
X147598160Y-77295806D01*
X147577193Y-77293741D01*
X147556226Y-77295806D01*
X147556216Y-77295806D01*
X147493487Y-77301984D01*
X147427000Y-77322153D01*
X147427000Y-76508264D01*
X148008246Y-75927020D01*
X149591756Y-75927020D01*
X150960542Y-77295806D01*
G37*
%TD.AperFunction*%
D24*
X155073000Y-71772900D02*
X154025400Y-71772900D01*
X154024380Y-71773000D01*
X153918548Y-71773000D01*
X153758773Y-71804782D01*
X153608269Y-71867123D01*
X153472819Y-71957628D01*
X153357628Y-72072819D01*
X153267123Y-72208269D01*
X153204782Y-72358773D01*
X153173000Y-72518548D01*
X153173000Y-72681452D01*
X153204782Y-72841227D01*
X153267123Y-72991731D01*
X153273859Y-73001812D01*
X153141135Y-73127980D01*
X153012877Y-73309794D01*
X152922554Y-73513136D01*
X152905881Y-73568126D01*
X153032046Y-73743000D01*
X153680900Y-73743000D01*
X153680900Y-73997000D01*
X153032046Y-73997000D01*
X152905881Y-74171874D01*
X152922554Y-74226864D01*
X153012877Y-74430206D01*
X153141135Y-74612020D01*
X153273859Y-74738188D01*
X153267123Y-74748269D01*
X153204782Y-74898773D01*
X153173000Y-75058548D01*
X153173000Y-75221452D01*
X153204782Y-75381227D01*
X153267123Y-75531731D01*
X153357628Y-75667181D01*
X153465447Y-75775000D01*
X153357628Y-75882819D01*
X153267123Y-76018269D01*
X153204782Y-76168773D01*
X153173000Y-76328548D01*
X153173000Y-76491452D01*
X153204782Y-76651227D01*
X153267123Y-76801731D01*
X153357628Y-76937181D01*
X153465447Y-77045000D01*
X153357628Y-77152819D01*
X153290689Y-77253000D01*
X153256869Y-77253000D01*
X150416768Y-74412900D01*
X150403395Y-74396605D01*
X150338376Y-74343245D01*
X150264196Y-74303595D01*
X150183707Y-74279178D01*
X150120978Y-74273000D01*
X150120967Y-74273000D01*
X150100000Y-74270935D01*
X150079033Y-74273000D01*
X147520967Y-74273000D01*
X147500000Y-74270935D01*
X147479033Y-74273000D01*
X147479022Y-74273000D01*
X147416293Y-74279178D01*
X147358846Y-74296605D01*
X147335803Y-74303595D01*
X147261623Y-74343244D01*
X147212899Y-74383232D01*
X147212895Y-74383236D01*
X147196605Y-74396605D01*
X147183236Y-74412895D01*
X146029999Y-75566133D01*
X145376765Y-74912899D01*
X145363393Y-74896605D01*
X145298374Y-74843245D01*
X145224194Y-74803595D01*
X145143705Y-74779178D01*
X145080976Y-74773000D01*
X145080965Y-74773000D01*
X145059998Y-74770935D01*
X145039031Y-74773000D01*
X143336867Y-74773000D01*
X143198340Y-74634473D01*
X143235943Y-74609348D01*
X143309348Y-74535943D01*
X143367021Y-74449628D01*
X143406748Y-74353720D01*
X143420802Y-74283067D01*
X143737106Y-73966763D01*
X143753395Y-73953395D01*
X143766764Y-73937105D01*
X143766767Y-73937102D01*
X143806755Y-73888377D01*
X143846404Y-73814197D01*
X143846405Y-73814196D01*
X143857689Y-73777000D01*
X143924077Y-73777000D01*
X143927732Y-73814103D01*
X143946430Y-73875743D01*
X143976794Y-73932550D01*
X144017657Y-73982343D01*
X144067450Y-74023206D01*
X144124257Y-74053570D01*
X144185897Y-74072268D01*
X144250000Y-74078582D01*
X145105613Y-74078582D01*
X145119463Y-74104494D01*
X145198815Y-74201185D01*
X145295506Y-74280537D01*
X145405820Y-74339502D01*
X145525518Y-74375812D01*
X145650000Y-74388072D01*
X145814250Y-74385000D01*
X145973000Y-74226250D01*
X145973000Y-73477000D01*
X145953000Y-73477000D01*
X145953000Y-73223000D01*
X145973000Y-73223000D01*
X145973000Y-73203000D01*
X146227000Y-73203000D01*
X146227000Y-73223000D01*
X146247000Y-73223000D01*
X146247000Y-73477000D01*
X146227000Y-73477000D01*
X146227000Y-74226250D01*
X146385750Y-74385000D01*
X146550000Y-74388072D01*
X146674482Y-74375812D01*
X146794180Y-74339502D01*
X146904494Y-74280537D01*
X147001185Y-74201185D01*
X147080537Y-74104494D01*
X147139502Y-73994180D01*
X147175812Y-73874482D01*
X147181060Y-73821201D01*
X147253720Y-73806748D01*
X147349628Y-73767021D01*
X147435943Y-73709348D01*
X147509348Y-73635943D01*
X147567021Y-73549628D01*
X147606748Y-73453720D01*
X147611115Y-73431765D01*
X147650681Y-73452913D01*
X147738584Y-73479578D01*
X147830000Y-73488582D01*
X148170000Y-73488582D01*
X148261416Y-73479578D01*
X148299214Y-73468112D01*
X148332979Y-73549628D01*
X148390652Y-73635943D01*
X148464057Y-73709348D01*
X148550372Y-73767021D01*
X148646280Y-73806748D01*
X148748095Y-73827000D01*
X148851905Y-73827000D01*
X148953720Y-73806748D01*
X149049628Y-73767021D01*
X149109525Y-73727000D01*
X149159033Y-73727000D01*
X149180000Y-73729065D01*
X149200967Y-73727000D01*
X149200978Y-73727000D01*
X149263707Y-73720822D01*
X149344196Y-73696405D01*
X149418376Y-73656755D01*
X149483395Y-73603395D01*
X149496768Y-73587100D01*
X149595286Y-73488582D01*
X149770000Y-73488582D01*
X149861416Y-73479578D01*
X149899214Y-73468112D01*
X149932979Y-73549628D01*
X149990652Y-73635943D01*
X150064057Y-73709348D01*
X150150372Y-73767021D01*
X150246280Y-73806748D01*
X150348095Y-73827000D01*
X150451905Y-73827000D01*
X150553720Y-73806748D01*
X150649628Y-73767021D01*
X150709525Y-73727000D01*
X150759033Y-73727000D01*
X150780000Y-73729065D01*
X150800967Y-73727000D01*
X150800978Y-73727000D01*
X150863707Y-73720822D01*
X150944196Y-73696405D01*
X151018376Y-73656755D01*
X151083395Y-73603395D01*
X151096768Y-73587100D01*
X151195286Y-73488582D01*
X151370000Y-73488582D01*
X151461416Y-73479578D01*
X151549319Y-73452913D01*
X151630330Y-73409612D01*
X151701338Y-73351338D01*
X151759612Y-73280330D01*
X151802913Y-73199319D01*
X151829578Y-73111416D01*
X151838582Y-73020000D01*
X151838582Y-72744567D01*
X151862059Y-72732156D01*
X151959113Y-72653247D01*
X152038908Y-72556921D01*
X152098377Y-72446878D01*
X152135235Y-72327348D01*
X152145000Y-72205750D01*
X151986250Y-72047000D01*
X151327000Y-72047000D01*
X151327000Y-72067000D01*
X151073000Y-72067000D01*
X151073000Y-72047000D01*
X150413750Y-72047000D01*
X150400000Y-72060750D01*
X150386250Y-72047000D01*
X149727000Y-72047000D01*
X149727000Y-72067000D01*
X149473000Y-72067000D01*
X149473000Y-72047000D01*
X148813750Y-72047000D01*
X148800000Y-72060750D01*
X148786250Y-72047000D01*
X148127000Y-72047000D01*
X148127000Y-72067000D01*
X147873000Y-72067000D01*
X147873000Y-72047000D01*
X147213750Y-72047000D01*
X147182309Y-72078441D01*
X147066768Y-71962900D01*
X147053395Y-71946605D01*
X146988376Y-71893245D01*
X146914196Y-71853595D01*
X146877850Y-71842569D01*
X146872268Y-71785897D01*
X146853570Y-71724257D01*
X146823206Y-71667450D01*
X146795961Y-71634250D01*
X147055000Y-71634250D01*
X147213750Y-71793000D01*
X147873000Y-71793000D01*
X147873000Y-71163750D01*
X148127000Y-71163750D01*
X148127000Y-71793000D01*
X148786250Y-71793000D01*
X148800000Y-71779250D01*
X148813750Y-71793000D01*
X149473000Y-71793000D01*
X149473000Y-71163750D01*
X149727000Y-71163750D01*
X149727000Y-71793000D01*
X150386250Y-71793000D01*
X150400000Y-71779250D01*
X150413750Y-71793000D01*
X151073000Y-71793000D01*
X151073000Y-71163750D01*
X151327000Y-71163750D01*
X151327000Y-71793000D01*
X151986250Y-71793000D01*
X152145000Y-71634250D01*
X152135235Y-71512652D01*
X152098377Y-71393122D01*
X152038908Y-71283079D01*
X151959113Y-71186753D01*
X151862059Y-71107844D01*
X151751476Y-71049386D01*
X151631613Y-71013625D01*
X151507077Y-71001935D01*
X151485750Y-71005000D01*
X151327000Y-71163750D01*
X151073000Y-71163750D01*
X150914250Y-71005000D01*
X150892923Y-71001935D01*
X150768387Y-71013625D01*
X150648524Y-71049386D01*
X150537941Y-71107844D01*
X150440887Y-71186753D01*
X150400000Y-71236110D01*
X150359113Y-71186753D01*
X150262059Y-71107844D01*
X150151476Y-71049386D01*
X150031613Y-71013625D01*
X149907077Y-71001935D01*
X149885750Y-71005000D01*
X149727000Y-71163750D01*
X149473000Y-71163750D01*
X149314250Y-71005000D01*
X149292923Y-71001935D01*
X149168387Y-71013625D01*
X149048524Y-71049386D01*
X148937941Y-71107844D01*
X148840887Y-71186753D01*
X148800000Y-71236110D01*
X148759113Y-71186753D01*
X148662059Y-71107844D01*
X148551476Y-71049386D01*
X148431613Y-71013625D01*
X148307077Y-71001935D01*
X148285750Y-71005000D01*
X148127000Y-71163750D01*
X147873000Y-71163750D01*
X147714250Y-71005000D01*
X147692923Y-71001935D01*
X147568387Y-71013625D01*
X147448524Y-71049386D01*
X147337941Y-71107844D01*
X147240887Y-71186753D01*
X147161092Y-71283079D01*
X147101623Y-71393122D01*
X147064765Y-71512652D01*
X147055000Y-71634250D01*
X146795961Y-71634250D01*
X146782343Y-71617657D01*
X146732550Y-71576794D01*
X146675743Y-71546430D01*
X146614103Y-71527732D01*
X146550000Y-71521418D01*
X145694387Y-71521418D01*
X145680537Y-71495506D01*
X145601185Y-71398815D01*
X145504494Y-71319463D01*
X145394180Y-71260498D01*
X145274482Y-71224188D01*
X145150000Y-71211928D01*
X144985750Y-71215000D01*
X144827000Y-71373750D01*
X144827000Y-72123000D01*
X144847000Y-72123000D01*
X144847000Y-72377000D01*
X144827000Y-72377000D01*
X144827000Y-72397000D01*
X144573000Y-72397000D01*
X144573000Y-72377000D01*
X144553000Y-72377000D01*
X144553000Y-72123000D01*
X144573000Y-72123000D01*
X144573000Y-71373750D01*
X144414250Y-71215000D01*
X144250000Y-71211928D01*
X144125518Y-71224188D01*
X144005820Y-71260498D01*
X143895506Y-71319463D01*
X143798815Y-71398815D01*
X143727084Y-71486219D01*
X143698377Y-71393122D01*
X143638908Y-71283079D01*
X143559113Y-71186753D01*
X143462059Y-71107844D01*
X143351476Y-71049386D01*
X143231613Y-71013625D01*
X143107077Y-71001935D01*
X143085750Y-71005000D01*
X142927000Y-71163750D01*
X142927000Y-71793000D01*
X142947000Y-71793000D01*
X142947000Y-72047000D01*
X142927000Y-72047000D01*
X142927000Y-72067000D01*
X142673000Y-72067000D01*
X142673000Y-72047000D01*
X142013750Y-72047000D01*
X142000000Y-72060750D01*
X141986250Y-72047000D01*
X141327000Y-72047000D01*
X141327000Y-72067000D01*
X141073000Y-72067000D01*
X141073000Y-72047000D01*
X140413750Y-72047000D01*
X140255000Y-72205750D01*
X140264765Y-72327348D01*
X140301623Y-72446878D01*
X140307634Y-72458000D01*
X139956035Y-72458000D01*
X139909141Y-72400859D01*
X139908094Y-72400000D01*
X139909141Y-72399141D01*
X139968348Y-72326997D01*
X140012342Y-72244689D01*
X140039434Y-72155379D01*
X140040020Y-72149429D01*
X140109879Y-72064305D01*
X140192132Y-71910421D01*
X140242783Y-71743447D01*
X140255600Y-71613316D01*
X140255600Y-71272400D01*
X140369938Y-71272400D01*
X140361092Y-71283079D01*
X140301623Y-71393122D01*
X140264765Y-71512652D01*
X140255000Y-71634250D01*
X140413750Y-71793000D01*
X141073000Y-71793000D01*
X141073000Y-71163750D01*
X141327000Y-71163750D01*
X141327000Y-71793000D01*
X141986250Y-71793000D01*
X142000000Y-71779250D01*
X142013750Y-71793000D01*
X142673000Y-71793000D01*
X142673000Y-71163750D01*
X142514250Y-71005000D01*
X142492923Y-71001935D01*
X142368387Y-71013625D01*
X142248524Y-71049386D01*
X142137941Y-71107844D01*
X142040887Y-71186753D01*
X142000000Y-71236110D01*
X141959113Y-71186753D01*
X141862059Y-71107844D01*
X141751476Y-71049386D01*
X141631613Y-71013625D01*
X141507077Y-71001935D01*
X141485750Y-71005000D01*
X141327000Y-71163750D01*
X141073000Y-71163750D01*
X140914250Y-71005000D01*
X140892923Y-71001935D01*
X140768387Y-71013625D01*
X140648524Y-71049386D01*
X140627100Y-71060711D01*
X140627100Y-66192400D01*
X154990800Y-66192400D01*
X155015576Y-66189960D01*
X155039401Y-66182733D01*
X155061357Y-66170997D01*
X155073000Y-66161442D01*
X155073000Y-71772900D01*
%TA.AperFunction,Conductor*%
D25*
G36*
X155073000Y-71772900D02*
G01*
X154025400Y-71772900D01*
X154024380Y-71773000D01*
X153918548Y-71773000D01*
X153758773Y-71804782D01*
X153608269Y-71867123D01*
X153472819Y-71957628D01*
X153357628Y-72072819D01*
X153267123Y-72208269D01*
X153204782Y-72358773D01*
X153173000Y-72518548D01*
X153173000Y-72681452D01*
X153204782Y-72841227D01*
X153267123Y-72991731D01*
X153273859Y-73001812D01*
X153141135Y-73127980D01*
X153012877Y-73309794D01*
X152922554Y-73513136D01*
X152905881Y-73568126D01*
X153032046Y-73743000D01*
X153680900Y-73743000D01*
X153680900Y-73997000D01*
X153032046Y-73997000D01*
X152905881Y-74171874D01*
X152922554Y-74226864D01*
X153012877Y-74430206D01*
X153141135Y-74612020D01*
X153273859Y-74738188D01*
X153267123Y-74748269D01*
X153204782Y-74898773D01*
X153173000Y-75058548D01*
X153173000Y-75221452D01*
X153204782Y-75381227D01*
X153267123Y-75531731D01*
X153357628Y-75667181D01*
X153465447Y-75775000D01*
X153357628Y-75882819D01*
X153267123Y-76018269D01*
X153204782Y-76168773D01*
X153173000Y-76328548D01*
X153173000Y-76491452D01*
X153204782Y-76651227D01*
X153267123Y-76801731D01*
X153357628Y-76937181D01*
X153465447Y-77045000D01*
X153357628Y-77152819D01*
X153290689Y-77253000D01*
X153256869Y-77253000D01*
X150416768Y-74412900D01*
X150403395Y-74396605D01*
X150338376Y-74343245D01*
X150264196Y-74303595D01*
X150183707Y-74279178D01*
X150120978Y-74273000D01*
X150120967Y-74273000D01*
X150100000Y-74270935D01*
X150079033Y-74273000D01*
X147520967Y-74273000D01*
X147500000Y-74270935D01*
X147479033Y-74273000D01*
X147479022Y-74273000D01*
X147416293Y-74279178D01*
X147358846Y-74296605D01*
X147335803Y-74303595D01*
X147261623Y-74343244D01*
X147212899Y-74383232D01*
X147212895Y-74383236D01*
X147196605Y-74396605D01*
X147183236Y-74412895D01*
X146029999Y-75566133D01*
X145376765Y-74912899D01*
X145363393Y-74896605D01*
X145298374Y-74843245D01*
X145224194Y-74803595D01*
X145143705Y-74779178D01*
X145080976Y-74773000D01*
X145080965Y-74773000D01*
X145059998Y-74770935D01*
X145039031Y-74773000D01*
X143336867Y-74773000D01*
X143198340Y-74634473D01*
X143235943Y-74609348D01*
X143309348Y-74535943D01*
X143367021Y-74449628D01*
X143406748Y-74353720D01*
X143420802Y-74283067D01*
X143737106Y-73966763D01*
X143753395Y-73953395D01*
X143766764Y-73937105D01*
X143766767Y-73937102D01*
X143806755Y-73888377D01*
X143846404Y-73814197D01*
X143846405Y-73814196D01*
X143857689Y-73777000D01*
X143924077Y-73777000D01*
X143927732Y-73814103D01*
X143946430Y-73875743D01*
X143976794Y-73932550D01*
X144017657Y-73982343D01*
X144067450Y-74023206D01*
X144124257Y-74053570D01*
X144185897Y-74072268D01*
X144250000Y-74078582D01*
X145105613Y-74078582D01*
X145119463Y-74104494D01*
X145198815Y-74201185D01*
X145295506Y-74280537D01*
X145405820Y-74339502D01*
X145525518Y-74375812D01*
X145650000Y-74388072D01*
X145814250Y-74385000D01*
X145973000Y-74226250D01*
X145973000Y-73477000D01*
X145953000Y-73477000D01*
X145953000Y-73223000D01*
X145973000Y-73223000D01*
X145973000Y-73203000D01*
X146227000Y-73203000D01*
X146227000Y-73223000D01*
X146247000Y-73223000D01*
X146247000Y-73477000D01*
X146227000Y-73477000D01*
X146227000Y-74226250D01*
X146385750Y-74385000D01*
X146550000Y-74388072D01*
X146674482Y-74375812D01*
X146794180Y-74339502D01*
X146904494Y-74280537D01*
X147001185Y-74201185D01*
X147080537Y-74104494D01*
X147139502Y-73994180D01*
X147175812Y-73874482D01*
X147181060Y-73821201D01*
X147253720Y-73806748D01*
X147349628Y-73767021D01*
X147435943Y-73709348D01*
X147509348Y-73635943D01*
X147567021Y-73549628D01*
X147606748Y-73453720D01*
X147611115Y-73431765D01*
X147650681Y-73452913D01*
X147738584Y-73479578D01*
X147830000Y-73488582D01*
X148170000Y-73488582D01*
X148261416Y-73479578D01*
X148299214Y-73468112D01*
X148332979Y-73549628D01*
X148390652Y-73635943D01*
X148464057Y-73709348D01*
X148550372Y-73767021D01*
X148646280Y-73806748D01*
X148748095Y-73827000D01*
X148851905Y-73827000D01*
X148953720Y-73806748D01*
X149049628Y-73767021D01*
X149109525Y-73727000D01*
X149159033Y-73727000D01*
X149180000Y-73729065D01*
X149200967Y-73727000D01*
X149200978Y-73727000D01*
X149263707Y-73720822D01*
X149344196Y-73696405D01*
X149418376Y-73656755D01*
X149483395Y-73603395D01*
X149496768Y-73587100D01*
X149595286Y-73488582D01*
X149770000Y-73488582D01*
X149861416Y-73479578D01*
X149899214Y-73468112D01*
X149932979Y-73549628D01*
X149990652Y-73635943D01*
X150064057Y-73709348D01*
X150150372Y-73767021D01*
X150246280Y-73806748D01*
X150348095Y-73827000D01*
X150451905Y-73827000D01*
X150553720Y-73806748D01*
X150649628Y-73767021D01*
X150709525Y-73727000D01*
X150759033Y-73727000D01*
X150780000Y-73729065D01*
X150800967Y-73727000D01*
X150800978Y-73727000D01*
X150863707Y-73720822D01*
X150944196Y-73696405D01*
X151018376Y-73656755D01*
X151083395Y-73603395D01*
X151096768Y-73587100D01*
X151195286Y-73488582D01*
X151370000Y-73488582D01*
X151461416Y-73479578D01*
X151549319Y-73452913D01*
X151630330Y-73409612D01*
X151701338Y-73351338D01*
X151759612Y-73280330D01*
X151802913Y-73199319D01*
X151829578Y-73111416D01*
X151838582Y-73020000D01*
X151838582Y-72744567D01*
X151862059Y-72732156D01*
X151959113Y-72653247D01*
X152038908Y-72556921D01*
X152098377Y-72446878D01*
X152135235Y-72327348D01*
X152145000Y-72205750D01*
X151986250Y-72047000D01*
X151327000Y-72047000D01*
X151327000Y-72067000D01*
X151073000Y-72067000D01*
X151073000Y-72047000D01*
X150413750Y-72047000D01*
X150400000Y-72060750D01*
X150386250Y-72047000D01*
X149727000Y-72047000D01*
X149727000Y-72067000D01*
X149473000Y-72067000D01*
X149473000Y-72047000D01*
X148813750Y-72047000D01*
X148800000Y-72060750D01*
X148786250Y-72047000D01*
X148127000Y-72047000D01*
X148127000Y-72067000D01*
X147873000Y-72067000D01*
X147873000Y-72047000D01*
X147213750Y-72047000D01*
X147182309Y-72078441D01*
X147066768Y-71962900D01*
X147053395Y-71946605D01*
X146988376Y-71893245D01*
X146914196Y-71853595D01*
X146877850Y-71842569D01*
X146872268Y-71785897D01*
X146853570Y-71724257D01*
X146823206Y-71667450D01*
X146795961Y-71634250D01*
X147055000Y-71634250D01*
X147213750Y-71793000D01*
X147873000Y-71793000D01*
X147873000Y-71163750D01*
X148127000Y-71163750D01*
X148127000Y-71793000D01*
X148786250Y-71793000D01*
X148800000Y-71779250D01*
X148813750Y-71793000D01*
X149473000Y-71793000D01*
X149473000Y-71163750D01*
X149727000Y-71163750D01*
X149727000Y-71793000D01*
X150386250Y-71793000D01*
X150400000Y-71779250D01*
X150413750Y-71793000D01*
X151073000Y-71793000D01*
X151073000Y-71163750D01*
X151327000Y-71163750D01*
X151327000Y-71793000D01*
X151986250Y-71793000D01*
X152145000Y-71634250D01*
X152135235Y-71512652D01*
X152098377Y-71393122D01*
X152038908Y-71283079D01*
X151959113Y-71186753D01*
X151862059Y-71107844D01*
X151751476Y-71049386D01*
X151631613Y-71013625D01*
X151507077Y-71001935D01*
X151485750Y-71005000D01*
X151327000Y-71163750D01*
X151073000Y-71163750D01*
X150914250Y-71005000D01*
X150892923Y-71001935D01*
X150768387Y-71013625D01*
X150648524Y-71049386D01*
X150537941Y-71107844D01*
X150440887Y-71186753D01*
X150400000Y-71236110D01*
X150359113Y-71186753D01*
X150262059Y-71107844D01*
X150151476Y-71049386D01*
X150031613Y-71013625D01*
X149907077Y-71001935D01*
X149885750Y-71005000D01*
X149727000Y-71163750D01*
X149473000Y-71163750D01*
X149314250Y-71005000D01*
X149292923Y-71001935D01*
X149168387Y-71013625D01*
X149048524Y-71049386D01*
X148937941Y-71107844D01*
X148840887Y-71186753D01*
X148800000Y-71236110D01*
X148759113Y-71186753D01*
X148662059Y-71107844D01*
X148551476Y-71049386D01*
X148431613Y-71013625D01*
X148307077Y-71001935D01*
X148285750Y-71005000D01*
X148127000Y-71163750D01*
X147873000Y-71163750D01*
X147714250Y-71005000D01*
X147692923Y-71001935D01*
X147568387Y-71013625D01*
X147448524Y-71049386D01*
X147337941Y-71107844D01*
X147240887Y-71186753D01*
X147161092Y-71283079D01*
X147101623Y-71393122D01*
X147064765Y-71512652D01*
X147055000Y-71634250D01*
X146795961Y-71634250D01*
X146782343Y-71617657D01*
X146732550Y-71576794D01*
X146675743Y-71546430D01*
X146614103Y-71527732D01*
X146550000Y-71521418D01*
X145694387Y-71521418D01*
X145680537Y-71495506D01*
X145601185Y-71398815D01*
X145504494Y-71319463D01*
X145394180Y-71260498D01*
X145274482Y-71224188D01*
X145150000Y-71211928D01*
X144985750Y-71215000D01*
X144827000Y-71373750D01*
X144827000Y-72123000D01*
X144847000Y-72123000D01*
X144847000Y-72377000D01*
X144827000Y-72377000D01*
X144827000Y-72397000D01*
X144573000Y-72397000D01*
X144573000Y-72377000D01*
X144553000Y-72377000D01*
X144553000Y-72123000D01*
X144573000Y-72123000D01*
X144573000Y-71373750D01*
X144414250Y-71215000D01*
X144250000Y-71211928D01*
X144125518Y-71224188D01*
X144005820Y-71260498D01*
X143895506Y-71319463D01*
X143798815Y-71398815D01*
X143727084Y-71486219D01*
X143698377Y-71393122D01*
X143638908Y-71283079D01*
X143559113Y-71186753D01*
X143462059Y-71107844D01*
X143351476Y-71049386D01*
X143231613Y-71013625D01*
X143107077Y-71001935D01*
X143085750Y-71005000D01*
X142927000Y-71163750D01*
X142927000Y-71793000D01*
X142947000Y-71793000D01*
X142947000Y-72047000D01*
X142927000Y-72047000D01*
X142927000Y-72067000D01*
X142673000Y-72067000D01*
X142673000Y-72047000D01*
X142013750Y-72047000D01*
X142000000Y-72060750D01*
X141986250Y-72047000D01*
X141327000Y-72047000D01*
X141327000Y-72067000D01*
X141073000Y-72067000D01*
X141073000Y-72047000D01*
X140413750Y-72047000D01*
X140255000Y-72205750D01*
X140264765Y-72327348D01*
X140301623Y-72446878D01*
X140307634Y-72458000D01*
X139956035Y-72458000D01*
X139909141Y-72400859D01*
X139908094Y-72400000D01*
X139909141Y-72399141D01*
X139968348Y-72326997D01*
X140012342Y-72244689D01*
X140039434Y-72155379D01*
X140040020Y-72149429D01*
X140109879Y-72064305D01*
X140192132Y-71910421D01*
X140242783Y-71743447D01*
X140255600Y-71613316D01*
X140255600Y-71272400D01*
X140369938Y-71272400D01*
X140361092Y-71283079D01*
X140301623Y-71393122D01*
X140264765Y-71512652D01*
X140255000Y-71634250D01*
X140413750Y-71793000D01*
X141073000Y-71793000D01*
X141073000Y-71163750D01*
X141327000Y-71163750D01*
X141327000Y-71793000D01*
X141986250Y-71793000D01*
X142000000Y-71779250D01*
X142013750Y-71793000D01*
X142673000Y-71793000D01*
X142673000Y-71163750D01*
X142514250Y-71005000D01*
X142492923Y-71001935D01*
X142368387Y-71013625D01*
X142248524Y-71049386D01*
X142137941Y-71107844D01*
X142040887Y-71186753D01*
X142000000Y-71236110D01*
X141959113Y-71186753D01*
X141862059Y-71107844D01*
X141751476Y-71049386D01*
X141631613Y-71013625D01*
X141507077Y-71001935D01*
X141485750Y-71005000D01*
X141327000Y-71163750D01*
X141073000Y-71163750D01*
X140914250Y-71005000D01*
X140892923Y-71001935D01*
X140768387Y-71013625D01*
X140648524Y-71049386D01*
X140627100Y-71060711D01*
X140627100Y-66192400D01*
X154990800Y-66192400D01*
X155015576Y-66189960D01*
X155039401Y-66182733D01*
X155061357Y-66170997D01*
X155073000Y-66161442D01*
X155073000Y-71772900D01*
G37*
%TD.AperFunction*%
D24*
X145373000Y-76116871D02*
X145373001Y-76879013D01*
X145373000Y-76879023D01*
X145373000Y-76939125D01*
X145356756Y-76908734D01*
X145316768Y-76860010D01*
X145303395Y-76843715D01*
X145287100Y-76830342D01*
X145173446Y-76716688D01*
X145173446Y-76463079D01*
X145213467Y-76403182D01*
X145253194Y-76307274D01*
X145273446Y-76205459D01*
X145273446Y-76101649D01*
X145253194Y-75999834D01*
X145251236Y-75995106D01*
X145373000Y-76116871D01*
%TA.AperFunction,Conductor*%
D25*
G36*
X145373000Y-76116871D02*
G01*
X145373001Y-76879013D01*
X145373000Y-76879023D01*
X145373000Y-76939125D01*
X145356756Y-76908734D01*
X145316768Y-76860010D01*
X145303395Y-76843715D01*
X145287100Y-76830342D01*
X145173446Y-76716688D01*
X145173446Y-76463079D01*
X145213467Y-76403182D01*
X145253194Y-76307274D01*
X145273446Y-76205459D01*
X145273446Y-76101649D01*
X145253194Y-75999834D01*
X145251236Y-75995106D01*
X145373000Y-76116871D01*
G37*
%TD.AperFunction*%
D24*
X136146199Y-66182733D02*
X136170024Y-66189960D01*
X136194800Y-66192400D01*
X138112500Y-66192400D01*
X138112500Y-71145400D01*
X138114940Y-71170176D01*
X138122167Y-71194001D01*
X138133903Y-71215957D01*
X138149697Y-71235203D01*
X138168943Y-71250997D01*
X138190899Y-71262733D01*
X138214724Y-71269960D01*
X138239500Y-71272400D01*
X138484001Y-71272400D01*
X138484001Y-71613316D01*
X138496818Y-71743447D01*
X138547469Y-71910421D01*
X138629722Y-72064305D01*
X138740415Y-72199186D01*
X138784939Y-72235726D01*
X138787658Y-72244689D01*
X138831652Y-72326997D01*
X138890859Y-72399141D01*
X138891906Y-72400000D01*
X138890859Y-72400859D01*
X138831652Y-72473003D01*
X138787658Y-72555311D01*
X138760566Y-72644621D01*
X138751418Y-72737500D01*
X138751418Y-73032500D01*
X138760566Y-73125379D01*
X138787658Y-73214689D01*
X138831652Y-73296997D01*
X138890859Y-73369141D01*
X138963003Y-73428348D01*
X139045311Y-73472342D01*
X139134621Y-73499434D01*
X139227500Y-73508582D01*
X139572500Y-73508582D01*
X139665379Y-73499434D01*
X139754689Y-73472342D01*
X139836997Y-73428348D01*
X139909141Y-73369141D01*
X139956035Y-73312000D01*
X140666379Y-73312000D01*
X140698662Y-73351338D01*
X140769670Y-73409612D01*
X140821216Y-73437164D01*
X140843245Y-73478378D01*
X140883232Y-73527102D01*
X140883237Y-73527107D01*
X140896606Y-73543397D01*
X140912896Y-73556766D01*
X141317548Y-73961418D01*
X141144567Y-73961418D01*
X141132156Y-73937941D01*
X141053247Y-73840887D01*
X140956921Y-73761092D01*
X140846878Y-73701623D01*
X140727348Y-73664765D01*
X140605750Y-73655000D01*
X140447000Y-73813750D01*
X140447000Y-74473000D01*
X140467000Y-74473000D01*
X140467000Y-74727000D01*
X140447000Y-74727000D01*
X140447000Y-74747000D01*
X140193000Y-74747000D01*
X140193000Y-74727000D01*
X140173000Y-74727000D01*
X140173000Y-74473000D01*
X140193000Y-74473000D01*
X140193000Y-73813750D01*
X140034250Y-73655000D01*
X139912652Y-73664765D01*
X139793122Y-73701623D01*
X139683079Y-73761092D01*
X139586753Y-73840887D01*
X139507844Y-73937941D01*
X139449386Y-74048524D01*
X139413625Y-74168387D01*
X139410075Y-74206207D01*
X138028582Y-72824714D01*
X138028582Y-72100000D01*
X138022268Y-72035897D01*
X138003570Y-71974257D01*
X137973206Y-71917450D01*
X137932343Y-71867657D01*
X137882550Y-71826794D01*
X137825743Y-71796430D01*
X137764103Y-71777732D01*
X137700000Y-71771418D01*
X136700000Y-71771418D01*
X136684954Y-71772900D01*
X136127000Y-71772900D01*
X136127000Y-66172471D01*
X136146199Y-66182733D01*
%TA.AperFunction,Conductor*%
D25*
G36*
X136146199Y-66182733D02*
G01*
X136170024Y-66189960D01*
X136194800Y-66192400D01*
X138112500Y-66192400D01*
X138112500Y-71145400D01*
X138114940Y-71170176D01*
X138122167Y-71194001D01*
X138133903Y-71215957D01*
X138149697Y-71235203D01*
X138168943Y-71250997D01*
X138190899Y-71262733D01*
X138214724Y-71269960D01*
X138239500Y-71272400D01*
X138484001Y-71272400D01*
X138484001Y-71613316D01*
X138496818Y-71743447D01*
X138547469Y-71910421D01*
X138629722Y-72064305D01*
X138740415Y-72199186D01*
X138784939Y-72235726D01*
X138787658Y-72244689D01*
X138831652Y-72326997D01*
X138890859Y-72399141D01*
X138891906Y-72400000D01*
X138890859Y-72400859D01*
X138831652Y-72473003D01*
X138787658Y-72555311D01*
X138760566Y-72644621D01*
X138751418Y-72737500D01*
X138751418Y-73032500D01*
X138760566Y-73125379D01*
X138787658Y-73214689D01*
X138831652Y-73296997D01*
X138890859Y-73369141D01*
X138963003Y-73428348D01*
X139045311Y-73472342D01*
X139134621Y-73499434D01*
X139227500Y-73508582D01*
X139572500Y-73508582D01*
X139665379Y-73499434D01*
X139754689Y-73472342D01*
X139836997Y-73428348D01*
X139909141Y-73369141D01*
X139956035Y-73312000D01*
X140666379Y-73312000D01*
X140698662Y-73351338D01*
X140769670Y-73409612D01*
X140821216Y-73437164D01*
X140843245Y-73478378D01*
X140883232Y-73527102D01*
X140883237Y-73527107D01*
X140896606Y-73543397D01*
X140912896Y-73556766D01*
X141317548Y-73961418D01*
X141144567Y-73961418D01*
X141132156Y-73937941D01*
X141053247Y-73840887D01*
X140956921Y-73761092D01*
X140846878Y-73701623D01*
X140727348Y-73664765D01*
X140605750Y-73655000D01*
X140447000Y-73813750D01*
X140447000Y-74473000D01*
X140467000Y-74473000D01*
X140467000Y-74727000D01*
X140447000Y-74727000D01*
X140447000Y-74747000D01*
X140193000Y-74747000D01*
X140193000Y-74727000D01*
X140173000Y-74727000D01*
X140173000Y-74473000D01*
X140193000Y-74473000D01*
X140193000Y-73813750D01*
X140034250Y-73655000D01*
X139912652Y-73664765D01*
X139793122Y-73701623D01*
X139683079Y-73761092D01*
X139586753Y-73840887D01*
X139507844Y-73937941D01*
X139449386Y-74048524D01*
X139413625Y-74168387D01*
X139410075Y-74206207D01*
X138028582Y-72824714D01*
X138028582Y-72100000D01*
X138022268Y-72035897D01*
X138003570Y-71974257D01*
X137973206Y-71917450D01*
X137932343Y-71867657D01*
X137882550Y-71826794D01*
X137825743Y-71796430D01*
X137764103Y-71777732D01*
X137700000Y-71771418D01*
X136700000Y-71771418D01*
X136684954Y-71772900D01*
X136127000Y-71772900D01*
X136127000Y-66172471D01*
X136146199Y-66182733D01*
G37*
%TD.AperFunction*%
%TD*%
M02*
