M48
; DRILL file {KiCad (5.1.10)-1} date 04/06/24 16:28:12
; FORMAT={-:-/ absolute / inch / decimal}
; #@! TF.CreationDate,2024-04-06T16:28:12+09:00
; #@! TF.GenerationSoftware,Kicad,Pcbnew,(5.1.10)-1
; #@! TF.FileFunction,Plated,1,2,PTH
FMAT,2
INCH
T1C0.0118
T2C0.0157
T3C0.0197
T4C0.0394
T5C0.0433
%
G90
G05
T1
X5.1772Y-3.8386
X5.2165Y-3.8386
X5.2913Y-3.1496
X5.2913Y-3.2283
X5.2913Y-3.3071
X5.2913Y-3.3858
X5.2913Y-3.4646
X5.2913Y-3.5433
X5.2913Y-3.622
X5.2913Y-3.7008
X5.8307Y-3.6299
X5.8819Y-3.6299
X5.9331Y-3.6299
X5.9803Y-3.6299
X6.0315Y-3.6299
X6.122Y-3.8593
X6.1811Y-3.6299
X6.2323Y-3.6299
X6.2835Y-3.6299
X6.2992Y-2.1063
X6.5157Y-2.8937
X6.5157Y-2.9449
X6.5157Y-2.9724
X6.5945Y-3.8386
X6.7087Y-3.7795
X6.7362Y-3.7795
X6.7677Y-3.7795
T2
X4.8622Y-2.7953
X4.9016Y-2.6772
X4.9213Y-1.9882
X5.0Y-3.1102
X5.0197Y-3.7598
X5.0394Y-1.9882
X5.1575Y-4.0551
X5.1575Y-4.5472
X5.1575Y-5.0197
X5.1575Y-5.4921
X5.315Y-2.9528
X5.4134Y-3.1102
X5.4134Y-3.7598
X5.4646Y-2.0394
X5.5709Y-2.6772
X5.6299Y-4.0551
X5.6299Y-4.5472
X5.6299Y-5.0197
X5.6299Y-5.4921
X5.6496Y-2.0669
X5.8268Y-1.9685
X5.9961Y-2.1732
X6.1024Y-4.0551
X6.1024Y-4.5472
X6.1024Y-5.0197
X6.1024Y-5.4921
X6.1614Y-2.0472
X6.378Y-3.6614
X6.5157Y-2.7953
X6.5157Y-2.8425
X6.5394Y-3.4724
X6.5551Y-1.811
X6.5748Y-1.9685
X6.5748Y-4.0551
X6.5748Y-4.5472
X6.5748Y-5.0197
X6.5748Y-5.4921
T4
X5.7283Y-1.811
X5.8283Y-1.811
X5.9283Y-1.811
X6.0283Y-1.811
X6.1283Y-1.811
X6.2283Y-1.811
X6.3283Y-1.811
X6.4283Y-1.811
X6.6323Y-2.126
X6.6323Y-2.226
X6.6323Y-2.326
X6.6323Y-2.426
X6.6323Y-2.526
X6.6323Y-2.626
X6.6323Y-2.726
X6.6323Y-2.826
X6.6323Y-2.926
X6.6323Y-3.026
X6.6323Y-3.126
X6.6323Y-3.226
X6.6323Y-3.326
X6.6323Y-3.426
X6.6323Y-3.526
X6.6323Y-3.626
X6.7323Y-2.126
X6.7323Y-2.226
X6.7323Y-2.326
X6.7323Y-2.426
X6.7323Y-2.526
X6.7323Y-2.626
X6.7323Y-2.726
X6.7323Y-2.826
X6.7323Y-2.926
X6.7323Y-3.026
X6.7323Y-3.126
X6.7323Y-3.226
X6.7323Y-3.326
X6.7323Y-3.426
X6.7323Y-3.526
X6.7323Y-3.626
T5
X5.0886Y-3.9272
X5.0886Y-4.1831
X5.0886Y-4.3996
X5.0886Y-4.6555
X5.0886Y-4.872
X5.0886Y-5.128
X5.0886Y-5.3445
X5.0886Y-5.6004
X5.2657Y-3.9272
X5.2657Y-4.1831
X5.2657Y-4.3996
X5.2657Y-4.6555
X5.2657Y-4.872
X5.2657Y-5.128
X5.2657Y-5.3445
X5.2657Y-5.6004
X5.561Y-3.9272
X5.561Y-4.1831
X5.561Y-4.3996
X5.561Y-4.6555
X5.561Y-4.872
X5.561Y-5.128
X5.561Y-5.3445
X5.561Y-5.6004
X5.7382Y-3.9272
X5.7382Y-4.1831
X5.7382Y-4.3996
X5.7382Y-4.6555
X5.7382Y-4.872
X5.7382Y-5.128
X5.7382Y-5.3445
X5.7382Y-5.6004
X6.0335Y-3.9272
X6.0335Y-4.1831
X6.0335Y-4.3996
X6.0335Y-4.6555
X6.0335Y-4.872
X6.0335Y-5.128
X6.0335Y-5.3445
X6.0335Y-5.6004
X6.2106Y-3.9272
X6.2106Y-4.1831
X6.2106Y-4.3996
X6.2106Y-4.6555
X6.2106Y-4.872
X6.2106Y-5.128
X6.2106Y-5.3445
X6.2106Y-5.6004
X6.5059Y-3.9272
X6.5059Y-4.1831
X6.5059Y-4.3996
X6.5059Y-4.6555
X6.5059Y-4.872
X6.5059Y-5.128
X6.5059Y-5.3445
X6.5059Y-5.6004
X6.6831Y-3.9272
X6.6831Y-4.1831
X6.6831Y-4.3996
X6.6831Y-4.6555
X6.6831Y-4.872
X6.6831Y-5.128
X6.6831Y-5.3445
X6.6831Y-5.6004
T3
G00X5.1449Y-1.7894
M15
G01X5.1449Y-1.7618
M16
G05
G00X5.1449Y-1.939
M15
G01X5.1449Y-1.9114
M16
G05
G00X5.485Y-1.7894
M15
G01X5.485Y-1.7618
M16
G05
G00X5.485Y-1.939
M15
G01X5.485Y-1.9114
M16
G05
T0
M30
