%TF.GenerationSoftware,KiCad,Pcbnew,(5.1.10)-1*%
%TF.CreationDate,2024-04-20T07:30:16+09:00*%
%TF.ProjectId,KiCAD_BLEModuleDevTestBoard,4b694341-445f-4424-9c45-4d6f64756c65,rev?*%
%TF.SameCoordinates,Original*%
%TF.FileFunction,Soldermask,Top*%
%TF.FilePolarity,Negative*%
%FSLAX46Y46*%
G04 Gerber Fmt 4.6, Leading zero omitted, Abs format (unit mm)*
G04 Created by KiCad (PCBNEW (5.1.10)-1) date 2024-04-20 07:30:16*
%MOMM*%
%LPD*%
G01*
G04 APERTURE LIST*
%ADD10C,2.000000*%
%ADD11O,1.700000X1.700000*%
%ADD12R,1.700000X1.700000*%
%ADD13R,3.800000X2.000000*%
%ADD14R,1.500000X2.000000*%
%ADD15R,2.500000X2.300000*%
%ADD16O,1.000000X1.700000*%
%ADD17R,0.900000X2.000000*%
%ADD18R,0.800000X2.000000*%
%ADD19R,0.700000X2.000000*%
%ADD20R,1.700000X2.500000*%
G04 APERTURE END LIST*
D10*
%TO.C,SW5*%
X133750000Y-130250000D03*
X129250000Y-130250000D03*
X133750000Y-123750000D03*
X129250000Y-123750000D03*
%TD*%
%TO.C,SW13*%
X133750000Y-106250000D03*
X129250000Y-106250000D03*
X133750000Y-99750000D03*
X129250000Y-99750000D03*
%TD*%
%TO.C,SW16*%
X169750000Y-106250000D03*
X165250000Y-106250000D03*
X169750000Y-99750000D03*
X165250000Y-99750000D03*
%TD*%
D11*
%TO.C,J1*%
X163280000Y-46000000D03*
X160740000Y-46000000D03*
X158200000Y-46000000D03*
X155660000Y-46000000D03*
X153120000Y-46000000D03*
X150580000Y-46000000D03*
X148040000Y-46000000D03*
D12*
X145500000Y-46000000D03*
%TD*%
%TO.C,R5*%
G36*
G01*
X153375000Y-51900000D02*
X152825000Y-51900000D01*
G75*
G02*
X152625000Y-51700000I0J200000D01*
G01*
X152625000Y-51300000D01*
G75*
G02*
X152825000Y-51100000I200000J0D01*
G01*
X153375000Y-51100000D01*
G75*
G02*
X153575000Y-51300000I0J-200000D01*
G01*
X153575000Y-51700000D01*
G75*
G02*
X153375000Y-51900000I-200000J0D01*
G01*
G37*
G36*
G01*
X153375000Y-50250000D02*
X152825000Y-50250000D01*
G75*
G02*
X152625000Y-50050000I0J200000D01*
G01*
X152625000Y-49650000D01*
G75*
G02*
X152825000Y-49450000I200000J0D01*
G01*
X153375000Y-49450000D01*
G75*
G02*
X153575000Y-49650000I0J-200000D01*
G01*
X153575000Y-50050000D01*
G75*
G02*
X153375000Y-50250000I-200000J0D01*
G01*
G37*
%TD*%
%TO.C,U1*%
G36*
G01*
X164099800Y-70532000D02*
X164099800Y-71468000D01*
G75*
G02*
X164047800Y-71520000I-52000J0D01*
G01*
X161851800Y-71520000D01*
G75*
G02*
X161799800Y-71468000I0J52000D01*
G01*
X161799800Y-70532000D01*
G75*
G02*
X161851800Y-70480000I52000J0D01*
G01*
X164047800Y-70480000D01*
G75*
G02*
X164099800Y-70532000I0J-52000D01*
G01*
G37*
G36*
G01*
X164099800Y-73072000D02*
X164099800Y-74008000D01*
G75*
G02*
X164047800Y-74060000I-52000J0D01*
G01*
X161851800Y-74060000D01*
G75*
G02*
X161799800Y-74008000I0J52000D01*
G01*
X161799800Y-73072000D01*
G75*
G02*
X161851800Y-73020000I52000J0D01*
G01*
X164047800Y-73020000D01*
G75*
G02*
X164099800Y-73072000I0J-52000D01*
G01*
G37*
G36*
G01*
X164099800Y-78152000D02*
X164099800Y-79088000D01*
G75*
G02*
X164047800Y-79140000I-52000J0D01*
G01*
X161851800Y-79140000D01*
G75*
G02*
X161799800Y-79088000I0J52000D01*
G01*
X161799800Y-78152000D01*
G75*
G02*
X161851800Y-78100000I52000J0D01*
G01*
X164047800Y-78100000D01*
G75*
G02*
X164099800Y-78152000I0J-52000D01*
G01*
G37*
G36*
G01*
X164099800Y-75612000D02*
X164099800Y-76548000D01*
G75*
G02*
X164047800Y-76600000I-52000J0D01*
G01*
X161851800Y-76600000D01*
G75*
G02*
X161799800Y-76548000I0J52000D01*
G01*
X161799800Y-75612000D01*
G75*
G02*
X161851800Y-75560000I52000J0D01*
G01*
X164047800Y-75560000D01*
G75*
G02*
X164099800Y-75612000I0J-52000D01*
G01*
G37*
G36*
G01*
X164099800Y-76882000D02*
X164099800Y-77818000D01*
G75*
G02*
X164047800Y-77870000I-52000J0D01*
G01*
X161851800Y-77870000D01*
G75*
G02*
X161799800Y-77818000I0J52000D01*
G01*
X161799800Y-76882000D01*
G75*
G02*
X161851800Y-76830000I52000J0D01*
G01*
X164047800Y-76830000D01*
G75*
G02*
X164099800Y-76882000I0J-52000D01*
G01*
G37*
G36*
G01*
X164099800Y-74342000D02*
X164099800Y-75278000D01*
G75*
G02*
X164047800Y-75330000I-52000J0D01*
G01*
X161851800Y-75330000D01*
G75*
G02*
X161799800Y-75278000I0J52000D01*
G01*
X161799800Y-74342000D01*
G75*
G02*
X161851800Y-74290000I52000J0D01*
G01*
X164047800Y-74290000D01*
G75*
G02*
X164099800Y-74342000I0J-52000D01*
G01*
G37*
G36*
G01*
X164099800Y-79422000D02*
X164099800Y-80358000D01*
G75*
G02*
X164047800Y-80410000I-52000J0D01*
G01*
X161851800Y-80410000D01*
G75*
G02*
X161799800Y-80358000I0J52000D01*
G01*
X161799800Y-79422000D01*
G75*
G02*
X161851800Y-79370000I52000J0D01*
G01*
X164047800Y-79370000D01*
G75*
G02*
X164099800Y-79422000I0J-52000D01*
G01*
G37*
G36*
G01*
X164099800Y-83232000D02*
X164099800Y-84168000D01*
G75*
G02*
X164047800Y-84220000I-52000J0D01*
G01*
X161851800Y-84220000D01*
G75*
G02*
X161799800Y-84168000I0J52000D01*
G01*
X161799800Y-83232000D01*
G75*
G02*
X161851800Y-83180000I52000J0D01*
G01*
X164047800Y-83180000D01*
G75*
G02*
X164099800Y-83232000I0J-52000D01*
G01*
G37*
G36*
G01*
X164099800Y-80692000D02*
X164099800Y-81628000D01*
G75*
G02*
X164047800Y-81680000I-52000J0D01*
G01*
X161851800Y-81680000D01*
G75*
G02*
X161799800Y-81628000I0J52000D01*
G01*
X161799800Y-80692000D01*
G75*
G02*
X161851800Y-80640000I52000J0D01*
G01*
X164047800Y-80640000D01*
G75*
G02*
X164099800Y-80692000I0J-52000D01*
G01*
G37*
G36*
G01*
X164099800Y-84502000D02*
X164099800Y-85438000D01*
G75*
G02*
X164047800Y-85490000I-52000J0D01*
G01*
X161851800Y-85490000D01*
G75*
G02*
X161799800Y-85438000I0J52000D01*
G01*
X161799800Y-84502000D01*
G75*
G02*
X161851800Y-84450000I52000J0D01*
G01*
X164047800Y-84450000D01*
G75*
G02*
X164099800Y-84502000I0J-52000D01*
G01*
G37*
G36*
G01*
X164099800Y-81962000D02*
X164099800Y-82898000D01*
G75*
G02*
X164047800Y-82950000I-52000J0D01*
G01*
X161851800Y-82950000D01*
G75*
G02*
X161799800Y-82898000I0J52000D01*
G01*
X161799800Y-81962000D01*
G75*
G02*
X161851800Y-81910000I52000J0D01*
G01*
X164047800Y-81910000D01*
G75*
G02*
X164099800Y-81962000I0J-52000D01*
G01*
G37*
G36*
G01*
X164099800Y-71802000D02*
X164099800Y-72738000D01*
G75*
G02*
X164047800Y-72790000I-52000J0D01*
G01*
X161851800Y-72790000D01*
G75*
G02*
X161799800Y-72738000I0J52000D01*
G01*
X161799800Y-71802000D01*
G75*
G02*
X161851800Y-71750000I52000J0D01*
G01*
X164047800Y-71750000D01*
G75*
G02*
X164099800Y-71802000I0J-52000D01*
G01*
G37*
G36*
G01*
X160068000Y-90885000D02*
X159132000Y-90885000D01*
G75*
G02*
X159080000Y-90833000I0J52000D01*
G01*
X159080000Y-88637000D01*
G75*
G02*
X159132000Y-88585000I52000J0D01*
G01*
X160068000Y-88585000D01*
G75*
G02*
X160120000Y-88637000I0J-52000D01*
G01*
X160120000Y-90833000D01*
G75*
G02*
X160068000Y-90885000I-52000J0D01*
G01*
G37*
G36*
G01*
X158798000Y-90885000D02*
X157862000Y-90885000D01*
G75*
G02*
X157810000Y-90833000I0J52000D01*
G01*
X157810000Y-88637000D01*
G75*
G02*
X157862000Y-88585000I52000J0D01*
G01*
X158798000Y-88585000D01*
G75*
G02*
X158850000Y-88637000I0J-52000D01*
G01*
X158850000Y-90833000D01*
G75*
G02*
X158798000Y-90885000I-52000J0D01*
G01*
G37*
G36*
G01*
X161338000Y-90885000D02*
X160402000Y-90885000D01*
G75*
G02*
X160350000Y-90833000I0J52000D01*
G01*
X160350000Y-88637000D01*
G75*
G02*
X160402000Y-88585000I52000J0D01*
G01*
X161338000Y-88585000D01*
G75*
G02*
X161390000Y-88637000I0J-52000D01*
G01*
X161390000Y-90833000D01*
G75*
G02*
X161338000Y-90885000I-52000J0D01*
G01*
G37*
G36*
G01*
X149908000Y-90885000D02*
X148972000Y-90885000D01*
G75*
G02*
X148920000Y-90833000I0J52000D01*
G01*
X148920000Y-88637000D01*
G75*
G02*
X148972000Y-88585000I52000J0D01*
G01*
X149908000Y-88585000D01*
G75*
G02*
X149960000Y-88637000I0J-52000D01*
G01*
X149960000Y-90833000D01*
G75*
G02*
X149908000Y-90885000I-52000J0D01*
G01*
G37*
G36*
G01*
X147368000Y-90885000D02*
X146432000Y-90885000D01*
G75*
G02*
X146380000Y-90833000I0J52000D01*
G01*
X146380000Y-88637000D01*
G75*
G02*
X146432000Y-88585000I52000J0D01*
G01*
X147368000Y-88585000D01*
G75*
G02*
X147420000Y-88637000I0J-52000D01*
G01*
X147420000Y-90833000D01*
G75*
G02*
X147368000Y-90885000I-52000J0D01*
G01*
G37*
G36*
G01*
X148638000Y-90885000D02*
X147702000Y-90885000D01*
G75*
G02*
X147650000Y-90833000I0J52000D01*
G01*
X147650000Y-88637000D01*
G75*
G02*
X147702000Y-88585000I52000J0D01*
G01*
X148638000Y-88585000D01*
G75*
G02*
X148690000Y-88637000I0J-52000D01*
G01*
X148690000Y-90833000D01*
G75*
G02*
X148638000Y-90885000I-52000J0D01*
G01*
G37*
G36*
G01*
X151178000Y-90885000D02*
X150242000Y-90885000D01*
G75*
G02*
X150190000Y-90833000I0J52000D01*
G01*
X150190000Y-88637000D01*
G75*
G02*
X150242000Y-88585000I52000J0D01*
G01*
X151178000Y-88585000D01*
G75*
G02*
X151230000Y-88637000I0J-52000D01*
G01*
X151230000Y-90833000D01*
G75*
G02*
X151178000Y-90885000I-52000J0D01*
G01*
G37*
G36*
G01*
X152448000Y-90885000D02*
X151512000Y-90885000D01*
G75*
G02*
X151460000Y-90833000I0J52000D01*
G01*
X151460000Y-88637000D01*
G75*
G02*
X151512000Y-88585000I52000J0D01*
G01*
X152448000Y-88585000D01*
G75*
G02*
X152500000Y-88637000I0J-52000D01*
G01*
X152500000Y-90833000D01*
G75*
G02*
X152448000Y-90885000I-52000J0D01*
G01*
G37*
G36*
G01*
X157528000Y-90885000D02*
X156592000Y-90885000D01*
G75*
G02*
X156540000Y-90833000I0J52000D01*
G01*
X156540000Y-88637000D01*
G75*
G02*
X156592000Y-88585000I52000J0D01*
G01*
X157528000Y-88585000D01*
G75*
G02*
X157580000Y-88637000I0J-52000D01*
G01*
X157580000Y-90833000D01*
G75*
G02*
X157528000Y-90885000I-52000J0D01*
G01*
G37*
G36*
G01*
X154988000Y-90885000D02*
X154052000Y-90885000D01*
G75*
G02*
X154000000Y-90833000I0J52000D01*
G01*
X154000000Y-88637000D01*
G75*
G02*
X154052000Y-88585000I52000J0D01*
G01*
X154988000Y-88585000D01*
G75*
G02*
X155040000Y-88637000I0J-52000D01*
G01*
X155040000Y-90833000D01*
G75*
G02*
X154988000Y-90885000I-52000J0D01*
G01*
G37*
G36*
G01*
X153718000Y-90885000D02*
X152782000Y-90885000D01*
G75*
G02*
X152730000Y-90833000I0J52000D01*
G01*
X152730000Y-88637000D01*
G75*
G02*
X152782000Y-88585000I52000J0D01*
G01*
X153718000Y-88585000D01*
G75*
G02*
X153770000Y-88637000I0J-52000D01*
G01*
X153770000Y-90833000D01*
G75*
G02*
X153718000Y-90885000I-52000J0D01*
G01*
G37*
G36*
G01*
X156258000Y-90885000D02*
X155322000Y-90885000D01*
G75*
G02*
X155270000Y-90833000I0J52000D01*
G01*
X155270000Y-88637000D01*
G75*
G02*
X155322000Y-88585000I52000J0D01*
G01*
X156258000Y-88585000D01*
G75*
G02*
X156310000Y-88637000I0J-52000D01*
G01*
X156310000Y-90833000D01*
G75*
G02*
X156258000Y-90885000I-52000J0D01*
G01*
G37*
G36*
G01*
X143715000Y-84168000D02*
X143715000Y-83232000D01*
G75*
G02*
X143767000Y-83180000I52000J0D01*
G01*
X145963000Y-83180000D01*
G75*
G02*
X146015000Y-83232000I0J-52000D01*
G01*
X146015000Y-84168000D01*
G75*
G02*
X145963000Y-84220000I-52000J0D01*
G01*
X143767000Y-84220000D01*
G75*
G02*
X143715000Y-84168000I0J52000D01*
G01*
G37*
G36*
G01*
X143715000Y-82898000D02*
X143715000Y-81962000D01*
G75*
G02*
X143767000Y-81910000I52000J0D01*
G01*
X145963000Y-81910000D01*
G75*
G02*
X146015000Y-81962000I0J-52000D01*
G01*
X146015000Y-82898000D01*
G75*
G02*
X145963000Y-82950000I-52000J0D01*
G01*
X143767000Y-82950000D01*
G75*
G02*
X143715000Y-82898000I0J52000D01*
G01*
G37*
G36*
G01*
X143715000Y-85438000D02*
X143715000Y-84502000D01*
G75*
G02*
X143767000Y-84450000I52000J0D01*
G01*
X145963000Y-84450000D01*
G75*
G02*
X146015000Y-84502000I0J-52000D01*
G01*
X146015000Y-85438000D01*
G75*
G02*
X145963000Y-85490000I-52000J0D01*
G01*
X143767000Y-85490000D01*
G75*
G02*
X143715000Y-85438000I0J52000D01*
G01*
G37*
G36*
G01*
X143715000Y-79088000D02*
X143715000Y-78152000D01*
G75*
G02*
X143767000Y-78100000I52000J0D01*
G01*
X145963000Y-78100000D01*
G75*
G02*
X146015000Y-78152000I0J-52000D01*
G01*
X146015000Y-79088000D01*
G75*
G02*
X145963000Y-79140000I-52000J0D01*
G01*
X143767000Y-79140000D01*
G75*
G02*
X143715000Y-79088000I0J52000D01*
G01*
G37*
G36*
G01*
X143715000Y-77818000D02*
X143715000Y-76882000D01*
G75*
G02*
X143767000Y-76830000I52000J0D01*
G01*
X145963000Y-76830000D01*
G75*
G02*
X146015000Y-76882000I0J-52000D01*
G01*
X146015000Y-77818000D01*
G75*
G02*
X145963000Y-77870000I-52000J0D01*
G01*
X143767000Y-77870000D01*
G75*
G02*
X143715000Y-77818000I0J52000D01*
G01*
G37*
G36*
G01*
X143715000Y-80358000D02*
X143715000Y-79422000D01*
G75*
G02*
X143767000Y-79370000I52000J0D01*
G01*
X145963000Y-79370000D01*
G75*
G02*
X146015000Y-79422000I0J-52000D01*
G01*
X146015000Y-80358000D01*
G75*
G02*
X145963000Y-80410000I-52000J0D01*
G01*
X143767000Y-80410000D01*
G75*
G02*
X143715000Y-80358000I0J52000D01*
G01*
G37*
G36*
G01*
X143715000Y-81628000D02*
X143715000Y-80692000D01*
G75*
G02*
X143767000Y-80640000I52000J0D01*
G01*
X145963000Y-80640000D01*
G75*
G02*
X146015000Y-80692000I0J-52000D01*
G01*
X146015000Y-81628000D01*
G75*
G02*
X145963000Y-81680000I-52000J0D01*
G01*
X143767000Y-81680000D01*
G75*
G02*
X143715000Y-81628000I0J52000D01*
G01*
G37*
G36*
G01*
X143715000Y-76548000D02*
X143715000Y-75612000D01*
G75*
G02*
X143767000Y-75560000I52000J0D01*
G01*
X145963000Y-75560000D01*
G75*
G02*
X146015000Y-75612000I0J-52000D01*
G01*
X146015000Y-76548000D01*
G75*
G02*
X145963000Y-76600000I-52000J0D01*
G01*
X143767000Y-76600000D01*
G75*
G02*
X143715000Y-76548000I0J52000D01*
G01*
G37*
G36*
G01*
X143715000Y-75278000D02*
X143715000Y-74342000D01*
G75*
G02*
X143767000Y-74290000I52000J0D01*
G01*
X145963000Y-74290000D01*
G75*
G02*
X146015000Y-74342000I0J-52000D01*
G01*
X146015000Y-75278000D01*
G75*
G02*
X145963000Y-75330000I-52000J0D01*
G01*
X143767000Y-75330000D01*
G75*
G02*
X143715000Y-75278000I0J52000D01*
G01*
G37*
G36*
G01*
X143715000Y-74008000D02*
X143715000Y-73072000D01*
G75*
G02*
X143767000Y-73020000I52000J0D01*
G01*
X145963000Y-73020000D01*
G75*
G02*
X146015000Y-73072000I0J-52000D01*
G01*
X146015000Y-74008000D01*
G75*
G02*
X145963000Y-74060000I-52000J0D01*
G01*
X143767000Y-74060000D01*
G75*
G02*
X143715000Y-74008000I0J52000D01*
G01*
G37*
G36*
G01*
X143715000Y-72738000D02*
X143715000Y-71802000D01*
G75*
G02*
X143767000Y-71750000I52000J0D01*
G01*
X145963000Y-71750000D01*
G75*
G02*
X146015000Y-71802000I0J-52000D01*
G01*
X146015000Y-72738000D01*
G75*
G02*
X145963000Y-72790000I-52000J0D01*
G01*
X143767000Y-72790000D01*
G75*
G02*
X143715000Y-72738000I0J52000D01*
G01*
G37*
G36*
G01*
X143715000Y-71468000D02*
X143715000Y-70532000D01*
G75*
G02*
X143767000Y-70480000I52000J0D01*
G01*
X145963000Y-70480000D01*
G75*
G02*
X146015000Y-70532000I0J-52000D01*
G01*
X146015000Y-71468000D01*
G75*
G02*
X145963000Y-71520000I-52000J0D01*
G01*
X143767000Y-71520000D01*
G75*
G02*
X143715000Y-71468000I0J52000D01*
G01*
G37*
%TD*%
%TO.C,R16*%
G36*
G01*
X133725000Y-93725000D02*
X133725000Y-94275000D01*
G75*
G02*
X133525000Y-94475000I-200000J0D01*
G01*
X133125000Y-94475000D01*
G75*
G02*
X132925000Y-94275000I0J200000D01*
G01*
X132925000Y-93725000D01*
G75*
G02*
X133125000Y-93525000I200000J0D01*
G01*
X133525000Y-93525000D01*
G75*
G02*
X133725000Y-93725000I0J-200000D01*
G01*
G37*
G36*
G01*
X132075000Y-93725000D02*
X132075000Y-94275000D01*
G75*
G02*
X131875000Y-94475000I-200000J0D01*
G01*
X131475000Y-94475000D01*
G75*
G02*
X131275000Y-94275000I0J200000D01*
G01*
X131275000Y-93725000D01*
G75*
G02*
X131475000Y-93525000I200000J0D01*
G01*
X131875000Y-93525000D01*
G75*
G02*
X132075000Y-93725000I0J-200000D01*
G01*
G37*
%TD*%
%TO.C,R15*%
G36*
G01*
X133725000Y-91725000D02*
X133725000Y-92275000D01*
G75*
G02*
X133525000Y-92475000I-200000J0D01*
G01*
X133125000Y-92475000D01*
G75*
G02*
X132925000Y-92275000I0J200000D01*
G01*
X132925000Y-91725000D01*
G75*
G02*
X133125000Y-91525000I200000J0D01*
G01*
X133525000Y-91525000D01*
G75*
G02*
X133725000Y-91725000I0J-200000D01*
G01*
G37*
G36*
G01*
X132075000Y-91725000D02*
X132075000Y-92275000D01*
G75*
G02*
X131875000Y-92475000I-200000J0D01*
G01*
X131475000Y-92475000D01*
G75*
G02*
X131275000Y-92275000I0J200000D01*
G01*
X131275000Y-91725000D01*
G75*
G02*
X131475000Y-91525000I200000J0D01*
G01*
X131875000Y-91525000D01*
G75*
G02*
X132075000Y-91725000I0J-200000D01*
G01*
G37*
%TD*%
%TO.C,R14*%
G36*
G01*
X133725000Y-89725000D02*
X133725000Y-90275000D01*
G75*
G02*
X133525000Y-90475000I-200000J0D01*
G01*
X133125000Y-90475000D01*
G75*
G02*
X132925000Y-90275000I0J200000D01*
G01*
X132925000Y-89725000D01*
G75*
G02*
X133125000Y-89525000I200000J0D01*
G01*
X133525000Y-89525000D01*
G75*
G02*
X133725000Y-89725000I0J-200000D01*
G01*
G37*
G36*
G01*
X132075000Y-89725000D02*
X132075000Y-90275000D01*
G75*
G02*
X131875000Y-90475000I-200000J0D01*
G01*
X131475000Y-90475000D01*
G75*
G02*
X131275000Y-90275000I0J200000D01*
G01*
X131275000Y-89725000D01*
G75*
G02*
X131475000Y-89525000I200000J0D01*
G01*
X131875000Y-89525000D01*
G75*
G02*
X132075000Y-89725000I0J-200000D01*
G01*
G37*
%TD*%
%TO.C,R13*%
G36*
G01*
X133725000Y-87725000D02*
X133725000Y-88275000D01*
G75*
G02*
X133525000Y-88475000I-200000J0D01*
G01*
X133125000Y-88475000D01*
G75*
G02*
X132925000Y-88275000I0J200000D01*
G01*
X132925000Y-87725000D01*
G75*
G02*
X133125000Y-87525000I200000J0D01*
G01*
X133525000Y-87525000D01*
G75*
G02*
X133725000Y-87725000I0J-200000D01*
G01*
G37*
G36*
G01*
X132075000Y-87725000D02*
X132075000Y-88275000D01*
G75*
G02*
X131875000Y-88475000I-200000J0D01*
G01*
X131475000Y-88475000D01*
G75*
G02*
X131275000Y-88275000I0J200000D01*
G01*
X131275000Y-87725000D01*
G75*
G02*
X131475000Y-87525000I200000J0D01*
G01*
X131875000Y-87525000D01*
G75*
G02*
X132075000Y-87725000I0J-200000D01*
G01*
G37*
%TD*%
%TO.C,R9*%
G36*
G01*
X133725000Y-79725000D02*
X133725000Y-80275000D01*
G75*
G02*
X133525000Y-80475000I-200000J0D01*
G01*
X133125000Y-80475000D01*
G75*
G02*
X132925000Y-80275000I0J200000D01*
G01*
X132925000Y-79725000D01*
G75*
G02*
X133125000Y-79525000I200000J0D01*
G01*
X133525000Y-79525000D01*
G75*
G02*
X133725000Y-79725000I0J-200000D01*
G01*
G37*
G36*
G01*
X132075000Y-79725000D02*
X132075000Y-80275000D01*
G75*
G02*
X131875000Y-80475000I-200000J0D01*
G01*
X131475000Y-80475000D01*
G75*
G02*
X131275000Y-80275000I0J200000D01*
G01*
X131275000Y-79725000D01*
G75*
G02*
X131475000Y-79525000I200000J0D01*
G01*
X131875000Y-79525000D01*
G75*
G02*
X132075000Y-79725000I0J-200000D01*
G01*
G37*
%TD*%
%TO.C,R10*%
G36*
G01*
X133725000Y-81725000D02*
X133725000Y-82275000D01*
G75*
G02*
X133525000Y-82475000I-200000J0D01*
G01*
X133125000Y-82475000D01*
G75*
G02*
X132925000Y-82275000I0J200000D01*
G01*
X132925000Y-81725000D01*
G75*
G02*
X133125000Y-81525000I200000J0D01*
G01*
X133525000Y-81525000D01*
G75*
G02*
X133725000Y-81725000I0J-200000D01*
G01*
G37*
G36*
G01*
X132075000Y-81725000D02*
X132075000Y-82275000D01*
G75*
G02*
X131875000Y-82475000I-200000J0D01*
G01*
X131475000Y-82475000D01*
G75*
G02*
X131275000Y-82275000I0J200000D01*
G01*
X131275000Y-81725000D01*
G75*
G02*
X131475000Y-81525000I200000J0D01*
G01*
X131875000Y-81525000D01*
G75*
G02*
X132075000Y-81725000I0J-200000D01*
G01*
G37*
%TD*%
%TO.C,R11*%
G36*
G01*
X133725000Y-83725000D02*
X133725000Y-84275000D01*
G75*
G02*
X133525000Y-84475000I-200000J0D01*
G01*
X133125000Y-84475000D01*
G75*
G02*
X132925000Y-84275000I0J200000D01*
G01*
X132925000Y-83725000D01*
G75*
G02*
X133125000Y-83525000I200000J0D01*
G01*
X133525000Y-83525000D01*
G75*
G02*
X133725000Y-83725000I0J-200000D01*
G01*
G37*
G36*
G01*
X132075000Y-83725000D02*
X132075000Y-84275000D01*
G75*
G02*
X131875000Y-84475000I-200000J0D01*
G01*
X131475000Y-84475000D01*
G75*
G02*
X131275000Y-84275000I0J200000D01*
G01*
X131275000Y-83725000D01*
G75*
G02*
X131475000Y-83525000I200000J0D01*
G01*
X131875000Y-83525000D01*
G75*
G02*
X132075000Y-83725000I0J-200000D01*
G01*
G37*
%TD*%
%TO.C,R12*%
G36*
G01*
X133725000Y-85725000D02*
X133725000Y-86275000D01*
G75*
G02*
X133525000Y-86475000I-200000J0D01*
G01*
X133125000Y-86475000D01*
G75*
G02*
X132925000Y-86275000I0J200000D01*
G01*
X132925000Y-85725000D01*
G75*
G02*
X133125000Y-85525000I200000J0D01*
G01*
X133525000Y-85525000D01*
G75*
G02*
X133725000Y-85725000I0J-200000D01*
G01*
G37*
G36*
G01*
X132075000Y-85725000D02*
X132075000Y-86275000D01*
G75*
G02*
X131875000Y-86475000I-200000J0D01*
G01*
X131475000Y-86475000D01*
G75*
G02*
X131275000Y-86275000I0J200000D01*
G01*
X131275000Y-85725000D01*
G75*
G02*
X131475000Y-85525000I200000J0D01*
G01*
X131875000Y-85525000D01*
G75*
G02*
X132075000Y-85725000I0J-200000D01*
G01*
G37*
%TD*%
%TO.C,R8*%
G36*
G01*
X161275000Y-53275000D02*
X161275000Y-52725000D01*
G75*
G02*
X161475000Y-52525000I200000J0D01*
G01*
X161875000Y-52525000D01*
G75*
G02*
X162075000Y-52725000I0J-200000D01*
G01*
X162075000Y-53275000D01*
G75*
G02*
X161875000Y-53475000I-200000J0D01*
G01*
X161475000Y-53475000D01*
G75*
G02*
X161275000Y-53275000I0J200000D01*
G01*
G37*
G36*
G01*
X162925000Y-53275000D02*
X162925000Y-52725000D01*
G75*
G02*
X163125000Y-52525000I200000J0D01*
G01*
X163525000Y-52525000D01*
G75*
G02*
X163725000Y-52725000I0J-200000D01*
G01*
X163725000Y-53275000D01*
G75*
G02*
X163525000Y-53475000I-200000J0D01*
G01*
X163125000Y-53475000D01*
G75*
G02*
X162925000Y-53275000I0J200000D01*
G01*
G37*
%TD*%
D13*
%TO.C,U2*%
X137000000Y-67150000D03*
D14*
X137000000Y-60850000D03*
X134700000Y-60850000D03*
X139300000Y-60850000D03*
%TD*%
D15*
%TO.C,TVS1*%
X134850000Y-56000000D03*
X139150000Y-56000000D03*
%TD*%
D10*
%TO.C,SW4*%
X169750000Y-142250000D03*
X165250000Y-142250000D03*
X169750000Y-135750000D03*
X165250000Y-135750000D03*
%TD*%
%TO.C,SW3*%
X157750000Y-142250000D03*
X153250000Y-142250000D03*
X157750000Y-135750000D03*
X153250000Y-135750000D03*
%TD*%
%TO.C,SW2*%
X145750000Y-142250000D03*
X141250000Y-142250000D03*
X145750000Y-135750000D03*
X141250000Y-135750000D03*
%TD*%
%TO.C,SW1*%
X133750000Y-142250000D03*
X129250000Y-142250000D03*
X133750000Y-135750000D03*
X129250000Y-135750000D03*
%TD*%
%TO.C,SW8*%
X169750000Y-130250000D03*
X165250000Y-130250000D03*
X169750000Y-123750000D03*
X165250000Y-123750000D03*
%TD*%
%TO.C,SW7*%
X157750000Y-130250000D03*
X153250000Y-130250000D03*
X157750000Y-123750000D03*
X153250000Y-123750000D03*
%TD*%
%TO.C,SW6*%
X145750000Y-130250000D03*
X141250000Y-130250000D03*
X145750000Y-123750000D03*
X141250000Y-123750000D03*
%TD*%
%TO.C,SW12*%
X169750000Y-118250000D03*
X165250000Y-118250000D03*
X169750000Y-111750000D03*
X165250000Y-111750000D03*
%TD*%
%TO.C,SW11*%
X157750000Y-118250000D03*
X153250000Y-118250000D03*
X157750000Y-111750000D03*
X153250000Y-111750000D03*
%TD*%
%TO.C,SW10*%
X145750000Y-118250000D03*
X141250000Y-118250000D03*
X145750000Y-111750000D03*
X141250000Y-111750000D03*
%TD*%
%TO.C,SW9*%
X133750000Y-118250000D03*
X129250000Y-118250000D03*
X133750000Y-111750000D03*
X129250000Y-111750000D03*
%TD*%
%TO.C,SW15*%
X157750000Y-106250000D03*
X153250000Y-106250000D03*
X157750000Y-99750000D03*
X153250000Y-99750000D03*
%TD*%
%TO.C,SW14*%
X145750000Y-106250000D03*
X141250000Y-106250000D03*
X145750000Y-99750000D03*
X141250000Y-99750000D03*
%TD*%
%TO.C,R7*%
G36*
G01*
X157275000Y-51275000D02*
X157275000Y-50725000D01*
G75*
G02*
X157475000Y-50525000I200000J0D01*
G01*
X157875000Y-50525000D01*
G75*
G02*
X158075000Y-50725000I0J-200000D01*
G01*
X158075000Y-51275000D01*
G75*
G02*
X157875000Y-51475000I-200000J0D01*
G01*
X157475000Y-51475000D01*
G75*
G02*
X157275000Y-51275000I0J200000D01*
G01*
G37*
G36*
G01*
X158925000Y-51275000D02*
X158925000Y-50725000D01*
G75*
G02*
X159125000Y-50525000I200000J0D01*
G01*
X159525000Y-50525000D01*
G75*
G02*
X159725000Y-50725000I0J-200000D01*
G01*
X159725000Y-51275000D01*
G75*
G02*
X159525000Y-51475000I-200000J0D01*
G01*
X159125000Y-51475000D01*
G75*
G02*
X158925000Y-51275000I0J200000D01*
G01*
G37*
%TD*%
%TO.C,R6*%
G36*
G01*
X157275000Y-49275000D02*
X157275000Y-48725000D01*
G75*
G02*
X157475000Y-48525000I200000J0D01*
G01*
X157875000Y-48525000D01*
G75*
G02*
X158075000Y-48725000I0J-200000D01*
G01*
X158075000Y-49275000D01*
G75*
G02*
X157875000Y-49475000I-200000J0D01*
G01*
X157475000Y-49475000D01*
G75*
G02*
X157275000Y-49275000I0J200000D01*
G01*
G37*
G36*
G01*
X158925000Y-49275000D02*
X158925000Y-48725000D01*
G75*
G02*
X159125000Y-48525000I200000J0D01*
G01*
X159525000Y-48525000D01*
G75*
G02*
X159725000Y-48725000I0J-200000D01*
G01*
X159725000Y-49275000D01*
G75*
G02*
X159525000Y-49475000I-200000J0D01*
G01*
X159125000Y-49475000D01*
G75*
G02*
X158925000Y-49275000I0J200000D01*
G01*
G37*
%TD*%
%TO.C,R4*%
G36*
G01*
X133725000Y-73725000D02*
X133725000Y-74275000D01*
G75*
G02*
X133525000Y-74475000I-200000J0D01*
G01*
X133125000Y-74475000D01*
G75*
G02*
X132925000Y-74275000I0J200000D01*
G01*
X132925000Y-73725000D01*
G75*
G02*
X133125000Y-73525000I200000J0D01*
G01*
X133525000Y-73525000D01*
G75*
G02*
X133725000Y-73725000I0J-200000D01*
G01*
G37*
G36*
G01*
X132075000Y-73725000D02*
X132075000Y-74275000D01*
G75*
G02*
X131875000Y-74475000I-200000J0D01*
G01*
X131475000Y-74475000D01*
G75*
G02*
X131275000Y-74275000I0J200000D01*
G01*
X131275000Y-73725000D01*
G75*
G02*
X131475000Y-73525000I200000J0D01*
G01*
X131875000Y-73525000D01*
G75*
G02*
X132075000Y-73725000I0J-200000D01*
G01*
G37*
%TD*%
%TO.C,R2*%
G36*
G01*
X124775000Y-74275000D02*
X124775000Y-73725000D01*
G75*
G02*
X124975000Y-73525000I200000J0D01*
G01*
X125375000Y-73525000D01*
G75*
G02*
X125575000Y-73725000I0J-200000D01*
G01*
X125575000Y-74275000D01*
G75*
G02*
X125375000Y-74475000I-200000J0D01*
G01*
X124975000Y-74475000D01*
G75*
G02*
X124775000Y-74275000I0J200000D01*
G01*
G37*
G36*
G01*
X126425000Y-74275000D02*
X126425000Y-73725000D01*
G75*
G02*
X126625000Y-73525000I200000J0D01*
G01*
X127025000Y-73525000D01*
G75*
G02*
X127225000Y-73725000I0J-200000D01*
G01*
X127225000Y-74275000D01*
G75*
G02*
X127025000Y-74475000I-200000J0D01*
G01*
X126625000Y-74475000D01*
G75*
G02*
X126425000Y-74275000I0J200000D01*
G01*
G37*
%TD*%
%TO.C,R3*%
G36*
G01*
X131275000Y-72275000D02*
X131275000Y-71725000D01*
G75*
G02*
X131475000Y-71525000I200000J0D01*
G01*
X131875000Y-71525000D01*
G75*
G02*
X132075000Y-71725000I0J-200000D01*
G01*
X132075000Y-72275000D01*
G75*
G02*
X131875000Y-72475000I-200000J0D01*
G01*
X131475000Y-72475000D01*
G75*
G02*
X131275000Y-72275000I0J200000D01*
G01*
G37*
G36*
G01*
X132925000Y-72275000D02*
X132925000Y-71725000D01*
G75*
G02*
X133125000Y-71525000I200000J0D01*
G01*
X133525000Y-71525000D01*
G75*
G02*
X133725000Y-71725000I0J-200000D01*
G01*
X133725000Y-72275000D01*
G75*
G02*
X133525000Y-72475000I-200000J0D01*
G01*
X133125000Y-72475000D01*
G75*
G02*
X132925000Y-72275000I0J200000D01*
G01*
G37*
%TD*%
%TO.C,R1*%
G36*
G01*
X124775000Y-72275000D02*
X124775000Y-71725000D01*
G75*
G02*
X124975000Y-71525000I200000J0D01*
G01*
X125375000Y-71525000D01*
G75*
G02*
X125575000Y-71725000I0J-200000D01*
G01*
X125575000Y-72275000D01*
G75*
G02*
X125375000Y-72475000I-200000J0D01*
G01*
X124975000Y-72475000D01*
G75*
G02*
X124775000Y-72275000I0J200000D01*
G01*
G37*
G36*
G01*
X126425000Y-72275000D02*
X126425000Y-71725000D01*
G75*
G02*
X126625000Y-71525000I200000J0D01*
G01*
X127025000Y-71525000D01*
G75*
G02*
X127225000Y-71725000I0J-200000D01*
G01*
X127225000Y-72275000D01*
G75*
G02*
X127025000Y-72475000I-200000J0D01*
G01*
X126625000Y-72475000D01*
G75*
G02*
X126425000Y-72275000I0J200000D01*
G01*
G37*
%TD*%
D16*
%TO.C,J3*%
X139320000Y-48900000D03*
X130680000Y-48900000D03*
X130680000Y-45100000D03*
X139320000Y-45100000D03*
D17*
X137750000Y-49450000D03*
D18*
X136520000Y-49450000D03*
D19*
X134500000Y-49450000D03*
D17*
X132250000Y-49450000D03*
D18*
X133480000Y-49450000D03*
D19*
X135500000Y-49450000D03*
%TD*%
D11*
%TO.C,J2*%
X168460000Y-92100000D03*
X171000000Y-92100000D03*
X168460000Y-89560000D03*
X171000000Y-89560000D03*
X168460000Y-87020000D03*
X171000000Y-87020000D03*
X168460000Y-84480000D03*
X171000000Y-84480000D03*
X168460000Y-81940000D03*
X171000000Y-81940000D03*
X168460000Y-79400000D03*
X171000000Y-79400000D03*
X168460000Y-76860000D03*
X171000000Y-76860000D03*
X168460000Y-74320000D03*
X171000000Y-74320000D03*
X168460000Y-71780000D03*
X171000000Y-71780000D03*
X168460000Y-69240000D03*
X171000000Y-69240000D03*
X168460000Y-66700000D03*
X171000000Y-66700000D03*
X168460000Y-64160000D03*
X171000000Y-64160000D03*
X168460000Y-61620000D03*
X171000000Y-61620000D03*
X168460000Y-59080000D03*
X171000000Y-59080000D03*
X168460000Y-56540000D03*
X171000000Y-56540000D03*
X168460000Y-54000000D03*
D12*
X171000000Y-54000000D03*
%TD*%
%TO.C,D18*%
G36*
G01*
X162150000Y-50743750D02*
X162150000Y-51256250D01*
G75*
G02*
X161931250Y-51475000I-218750J0D01*
G01*
X161493750Y-51475000D01*
G75*
G02*
X161275000Y-51256250I0J218750D01*
G01*
X161275000Y-50743750D01*
G75*
G02*
X161493750Y-50525000I218750J0D01*
G01*
X161931250Y-50525000D01*
G75*
G02*
X162150000Y-50743750I0J-218750D01*
G01*
G37*
G36*
G01*
X163725000Y-50743750D02*
X163725000Y-51256250D01*
G75*
G02*
X163506250Y-51475000I-218750J0D01*
G01*
X163068750Y-51475000D01*
G75*
G02*
X162850000Y-51256250I0J218750D01*
G01*
X162850000Y-50743750D01*
G75*
G02*
X163068750Y-50525000I218750J0D01*
G01*
X163506250Y-50525000D01*
G75*
G02*
X163725000Y-50743750I0J-218750D01*
G01*
G37*
%TD*%
%TO.C,D17*%
G36*
G01*
X162150000Y-48743750D02*
X162150000Y-49256250D01*
G75*
G02*
X161931250Y-49475000I-218750J0D01*
G01*
X161493750Y-49475000D01*
G75*
G02*
X161275000Y-49256250I0J218750D01*
G01*
X161275000Y-48743750D01*
G75*
G02*
X161493750Y-48525000I218750J0D01*
G01*
X161931250Y-48525000D01*
G75*
G02*
X162150000Y-48743750I0J-218750D01*
G01*
G37*
G36*
G01*
X163725000Y-48743750D02*
X163725000Y-49256250D01*
G75*
G02*
X163506250Y-49475000I-218750J0D01*
G01*
X163068750Y-49475000D01*
G75*
G02*
X162850000Y-49256250I0J218750D01*
G01*
X162850000Y-48743750D01*
G75*
G02*
X163068750Y-48525000I218750J0D01*
G01*
X163506250Y-48525000D01*
G75*
G02*
X163725000Y-48743750I0J-218750D01*
G01*
G37*
%TD*%
D20*
%TO.C,D4*%
X161500000Y-137000000D03*
X161500000Y-141000000D03*
%TD*%
%TO.C,D3*%
X149500000Y-137000000D03*
X149500000Y-141000000D03*
%TD*%
%TO.C,D2*%
X137500000Y-137000000D03*
X137500000Y-141000000D03*
%TD*%
%TO.C,D1*%
X125500000Y-137000000D03*
X125500000Y-141000000D03*
%TD*%
%TO.C,D8*%
X161500000Y-125000000D03*
X161500000Y-129000000D03*
%TD*%
%TO.C,D7*%
X149500000Y-125000000D03*
X149500000Y-129000000D03*
%TD*%
%TO.C,D6*%
X137500000Y-125000000D03*
X137500000Y-129000000D03*
%TD*%
%TO.C,D5*%
X125500000Y-125000000D03*
X125500000Y-129000000D03*
%TD*%
%TO.C,D12*%
X161500000Y-113000000D03*
X161500000Y-117000000D03*
%TD*%
%TO.C,D11*%
X149500000Y-113000000D03*
X149500000Y-117000000D03*
%TD*%
%TO.C,D10*%
X137500000Y-113000000D03*
X137500000Y-117000000D03*
%TD*%
%TO.C,D9*%
X125500000Y-113000000D03*
X125500000Y-117000000D03*
%TD*%
%TO.C,D16*%
X161500000Y-101000000D03*
X161500000Y-105000000D03*
%TD*%
%TO.C,D15*%
X149500000Y-101000000D03*
X149500000Y-105000000D03*
%TD*%
%TO.C,D14*%
X137500000Y-101000000D03*
X137500000Y-105000000D03*
%TD*%
%TO.C,D13*%
X125500000Y-101000000D03*
X125500000Y-105000000D03*
%TD*%
%TO.C,C4*%
G36*
G01*
X131275000Y-76250000D02*
X131275000Y-75750000D01*
G75*
G02*
X131500000Y-75525000I225000J0D01*
G01*
X131950000Y-75525000D01*
G75*
G02*
X132175000Y-75750000I0J-225000D01*
G01*
X132175000Y-76250000D01*
G75*
G02*
X131950000Y-76475000I-225000J0D01*
G01*
X131500000Y-76475000D01*
G75*
G02*
X131275000Y-76250000I0J225000D01*
G01*
G37*
G36*
G01*
X132825000Y-76250000D02*
X132825000Y-75750000D01*
G75*
G02*
X133050000Y-75525000I225000J0D01*
G01*
X133500000Y-75525000D01*
G75*
G02*
X133725000Y-75750000I0J-225000D01*
G01*
X133725000Y-76250000D01*
G75*
G02*
X133500000Y-76475000I-225000J0D01*
G01*
X133050000Y-76475000D01*
G75*
G02*
X132825000Y-76250000I0J225000D01*
G01*
G37*
%TD*%
%TO.C,C3*%
G36*
G01*
X127125000Y-62950000D02*
X127125000Y-64050000D01*
G75*
G02*
X126875000Y-64300000I-250000J0D01*
G01*
X124050000Y-64300000D01*
G75*
G02*
X123800000Y-64050000I0J250000D01*
G01*
X123800000Y-62950000D01*
G75*
G02*
X124050000Y-62700000I250000J0D01*
G01*
X126875000Y-62700000D01*
G75*
G02*
X127125000Y-62950000I0J-250000D01*
G01*
G37*
G36*
G01*
X132200000Y-62950000D02*
X132200000Y-64050000D01*
G75*
G02*
X131950000Y-64300000I-250000J0D01*
G01*
X129125000Y-64300000D01*
G75*
G02*
X128875000Y-64050000I0J250000D01*
G01*
X128875000Y-62950000D01*
G75*
G02*
X129125000Y-62700000I250000J0D01*
G01*
X131950000Y-62700000D01*
G75*
G02*
X132200000Y-62950000I0J-250000D01*
G01*
G37*
%TD*%
%TO.C,C2*%
G36*
G01*
X127225000Y-75750000D02*
X127225000Y-76250000D01*
G75*
G02*
X127000000Y-76475000I-225000J0D01*
G01*
X126550000Y-76475000D01*
G75*
G02*
X126325000Y-76250000I0J225000D01*
G01*
X126325000Y-75750000D01*
G75*
G02*
X126550000Y-75525000I225000J0D01*
G01*
X127000000Y-75525000D01*
G75*
G02*
X127225000Y-75750000I0J-225000D01*
G01*
G37*
G36*
G01*
X125675000Y-75750000D02*
X125675000Y-76250000D01*
G75*
G02*
X125450000Y-76475000I-225000J0D01*
G01*
X125000000Y-76475000D01*
G75*
G02*
X124775000Y-76250000I0J225000D01*
G01*
X124775000Y-75750000D01*
G75*
G02*
X125000000Y-75525000I225000J0D01*
G01*
X125450000Y-75525000D01*
G75*
G02*
X125675000Y-75750000I0J-225000D01*
G01*
G37*
%TD*%
%TO.C,C1*%
G36*
G01*
X127125000Y-55450000D02*
X127125000Y-56550000D01*
G75*
G02*
X126875000Y-56800000I-250000J0D01*
G01*
X124050000Y-56800000D01*
G75*
G02*
X123800000Y-56550000I0J250000D01*
G01*
X123800000Y-55450000D01*
G75*
G02*
X124050000Y-55200000I250000J0D01*
G01*
X126875000Y-55200000D01*
G75*
G02*
X127125000Y-55450000I0J-250000D01*
G01*
G37*
G36*
G01*
X132200000Y-55450000D02*
X132200000Y-56550000D01*
G75*
G02*
X131950000Y-56800000I-250000J0D01*
G01*
X129125000Y-56800000D01*
G75*
G02*
X128875000Y-56550000I0J250000D01*
G01*
X128875000Y-55450000D01*
G75*
G02*
X129125000Y-55200000I250000J0D01*
G01*
X131950000Y-55200000D01*
G75*
G02*
X132200000Y-55450000I0J-250000D01*
G01*
G37*
%TD*%
M02*
