%TF.GenerationSoftware,KiCad,Pcbnew,(5.1.10)-1*%
%TF.CreationDate,2024-04-20T07:30:15+09:00*%
%TF.ProjectId,KiCAD_BLEModuleDevTestBoard,4b694341-445f-4424-9c45-4d6f64756c65,rev?*%
%TF.SameCoordinates,Original*%
%TF.FileFunction,Legend,Top*%
%TF.FilePolarity,Positive*%
%FSLAX46Y46*%
G04 Gerber Fmt 4.6, Leading zero omitted, Abs format (unit mm)*
G04 Created by KiCad (PCBNEW (5.1.10)-1) date 2024-04-20 07:30:15*
%MOMM*%
%LPD*%
G01*
G04 APERTURE LIST*
%ADD10C,0.150000*%
%ADD11C,0.100000*%
%ADD12C,0.010000*%
%ADD13C,0.120000*%
%ADD14C,0.200000*%
G04 APERTURE END LIST*
D10*
X142621309Y-94635714D02*
X142383214Y-94635714D01*
X142383214Y-93207142D01*
X142621309Y-93207142D01*
X143335595Y-93778571D02*
X143478452Y-93826190D01*
X143526071Y-93873809D01*
X143573690Y-93969047D01*
X143573690Y-94111904D01*
X143526071Y-94207142D01*
X143478452Y-94254761D01*
X143383214Y-94302380D01*
X143002261Y-94302380D01*
X143002261Y-93302380D01*
X143335595Y-93302380D01*
X143430833Y-93350000D01*
X143478452Y-93397619D01*
X143526071Y-93492857D01*
X143526071Y-93588095D01*
X143478452Y-93683333D01*
X143430833Y-93730952D01*
X143335595Y-93778571D01*
X143002261Y-93778571D01*
X144478452Y-94302380D02*
X144002261Y-94302380D01*
X144002261Y-93302380D01*
X144811785Y-93778571D02*
X145145119Y-93778571D01*
X145287976Y-94302380D02*
X144811785Y-94302380D01*
X144811785Y-93302380D01*
X145287976Y-93302380D01*
X145716547Y-94302380D02*
X145716547Y-93302380D01*
X146049880Y-94016666D01*
X146383214Y-93302380D01*
X146383214Y-94302380D01*
X147002261Y-94302380D02*
X146907023Y-94254761D01*
X146859404Y-94207142D01*
X146811785Y-94111904D01*
X146811785Y-93826190D01*
X146859404Y-93730952D01*
X146907023Y-93683333D01*
X147002261Y-93635714D01*
X147145119Y-93635714D01*
X147240357Y-93683333D01*
X147287976Y-93730952D01*
X147335595Y-93826190D01*
X147335595Y-94111904D01*
X147287976Y-94207142D01*
X147240357Y-94254761D01*
X147145119Y-94302380D01*
X147002261Y-94302380D01*
X148192738Y-94302380D02*
X148192738Y-93302380D01*
X148192738Y-94254761D02*
X148097500Y-94302380D01*
X147907023Y-94302380D01*
X147811785Y-94254761D01*
X147764166Y-94207142D01*
X147716547Y-94111904D01*
X147716547Y-93826190D01*
X147764166Y-93730952D01*
X147811785Y-93683333D01*
X147907023Y-93635714D01*
X148097500Y-93635714D01*
X148192738Y-93683333D01*
X149097500Y-93635714D02*
X149097500Y-94302380D01*
X148668928Y-93635714D02*
X148668928Y-94159523D01*
X148716547Y-94254761D01*
X148811785Y-94302380D01*
X148954642Y-94302380D01*
X149049880Y-94254761D01*
X149097500Y-94207142D01*
X149716547Y-94302380D02*
X149621309Y-94254761D01*
X149573690Y-94159523D01*
X149573690Y-93302380D01*
X150478452Y-94254761D02*
X150383214Y-94302380D01*
X150192738Y-94302380D01*
X150097500Y-94254761D01*
X150049880Y-94159523D01*
X150049880Y-93778571D01*
X150097500Y-93683333D01*
X150192738Y-93635714D01*
X150383214Y-93635714D01*
X150478452Y-93683333D01*
X150526071Y-93778571D01*
X150526071Y-93873809D01*
X150049880Y-93969047D01*
X151716547Y-94302380D02*
X151716547Y-93302380D01*
X151954642Y-93302380D01*
X152097500Y-93350000D01*
X152192738Y-93445238D01*
X152240357Y-93540476D01*
X152287976Y-93730952D01*
X152287976Y-93873809D01*
X152240357Y-94064285D01*
X152192738Y-94159523D01*
X152097500Y-94254761D01*
X151954642Y-94302380D01*
X151716547Y-94302380D01*
X153097500Y-94254761D02*
X153002261Y-94302380D01*
X152811785Y-94302380D01*
X152716547Y-94254761D01*
X152668928Y-94159523D01*
X152668928Y-93778571D01*
X152716547Y-93683333D01*
X152811785Y-93635714D01*
X153002261Y-93635714D01*
X153097500Y-93683333D01*
X153145119Y-93778571D01*
X153145119Y-93873809D01*
X152668928Y-93969047D01*
X153478452Y-93635714D02*
X153716547Y-94302380D01*
X153954642Y-93635714D01*
X154954642Y-93302380D02*
X155526071Y-93302380D01*
X155240357Y-94302380D02*
X155240357Y-93302380D01*
X156240357Y-94254761D02*
X156145119Y-94302380D01*
X155954642Y-94302380D01*
X155859404Y-94254761D01*
X155811785Y-94159523D01*
X155811785Y-93778571D01*
X155859404Y-93683333D01*
X155954642Y-93635714D01*
X156145119Y-93635714D01*
X156240357Y-93683333D01*
X156287976Y-93778571D01*
X156287976Y-93873809D01*
X155811785Y-93969047D01*
X156668928Y-94254761D02*
X156764166Y-94302380D01*
X156954642Y-94302380D01*
X157049880Y-94254761D01*
X157097500Y-94159523D01*
X157097500Y-94111904D01*
X157049880Y-94016666D01*
X156954642Y-93969047D01*
X156811785Y-93969047D01*
X156716547Y-93921428D01*
X156668928Y-93826190D01*
X156668928Y-93778571D01*
X156716547Y-93683333D01*
X156811785Y-93635714D01*
X156954642Y-93635714D01*
X157049880Y-93683333D01*
X157383214Y-93635714D02*
X157764166Y-93635714D01*
X157526071Y-93302380D02*
X157526071Y-94159523D01*
X157573690Y-94254761D01*
X157668928Y-94302380D01*
X157764166Y-94302380D01*
X158430833Y-93778571D02*
X158573690Y-93826190D01*
X158621309Y-93873809D01*
X158668928Y-93969047D01*
X158668928Y-94111904D01*
X158621309Y-94207142D01*
X158573690Y-94254761D01*
X158478452Y-94302380D01*
X158097500Y-94302380D01*
X158097500Y-93302380D01*
X158430833Y-93302380D01*
X158526071Y-93350000D01*
X158573690Y-93397619D01*
X158621309Y-93492857D01*
X158621309Y-93588095D01*
X158573690Y-93683333D01*
X158526071Y-93730952D01*
X158430833Y-93778571D01*
X158097500Y-93778571D01*
X159240357Y-94302380D02*
X159145119Y-94254761D01*
X159097500Y-94207142D01*
X159049880Y-94111904D01*
X159049880Y-93826190D01*
X159097500Y-93730952D01*
X159145119Y-93683333D01*
X159240357Y-93635714D01*
X159383214Y-93635714D01*
X159478452Y-93683333D01*
X159526071Y-93730952D01*
X159573690Y-93826190D01*
X159573690Y-94111904D01*
X159526071Y-94207142D01*
X159478452Y-94254761D01*
X159383214Y-94302380D01*
X159240357Y-94302380D01*
X160430833Y-94302380D02*
X160430833Y-93778571D01*
X160383214Y-93683333D01*
X160287976Y-93635714D01*
X160097500Y-93635714D01*
X160002261Y-93683333D01*
X160430833Y-94254761D02*
X160335595Y-94302380D01*
X160097500Y-94302380D01*
X160002261Y-94254761D01*
X159954642Y-94159523D01*
X159954642Y-94064285D01*
X160002261Y-93969047D01*
X160097500Y-93921428D01*
X160335595Y-93921428D01*
X160430833Y-93873809D01*
X160907023Y-94302380D02*
X160907023Y-93635714D01*
X160907023Y-93826190D02*
X160954642Y-93730952D01*
X161002261Y-93683333D01*
X161097500Y-93635714D01*
X161192738Y-93635714D01*
X161954642Y-94302380D02*
X161954642Y-93302380D01*
X161954642Y-94254761D02*
X161859404Y-94302380D01*
X161668928Y-94302380D01*
X161573690Y-94254761D01*
X161526071Y-94207142D01*
X161478452Y-94111904D01*
X161478452Y-93826190D01*
X161526071Y-93730952D01*
X161573690Y-93683333D01*
X161668928Y-93635714D01*
X161859404Y-93635714D01*
X161954642Y-93683333D01*
X163097500Y-93635714D02*
X163335595Y-94302380D01*
X163573690Y-93635714D01*
X164478452Y-94302380D02*
X163907023Y-94302380D01*
X164192738Y-94302380D02*
X164192738Y-93302380D01*
X164097500Y-93445238D01*
X164002261Y-93540476D01*
X163907023Y-93588095D01*
X164907023Y-94207142D02*
X164954642Y-94254761D01*
X164907023Y-94302380D01*
X164859404Y-94254761D01*
X164907023Y-94207142D01*
X164907023Y-94302380D01*
X165907023Y-94302380D02*
X165335595Y-94302380D01*
X165621309Y-94302380D02*
X165621309Y-93302380D01*
X165526071Y-93445238D01*
X165430833Y-93540476D01*
X165335595Y-93588095D01*
X166240357Y-94635714D02*
X166478452Y-94635714D01*
X166478452Y-93207142D01*
X166240357Y-93207142D01*
X143097500Y-95952380D02*
X143097500Y-94952380D01*
X143097500Y-95333333D02*
X143192738Y-95285714D01*
X143383214Y-95285714D01*
X143478452Y-95333333D01*
X143526071Y-95380952D01*
X143573690Y-95476190D01*
X143573690Y-95761904D01*
X143526071Y-95857142D01*
X143478452Y-95904761D01*
X143383214Y-95952380D01*
X143192738Y-95952380D01*
X143097500Y-95904761D01*
X143907023Y-95285714D02*
X144145119Y-95952380D01*
X144383214Y-95285714D02*
X144145119Y-95952380D01*
X144049880Y-96190476D01*
X144002261Y-96238095D01*
X143907023Y-96285714D01*
X145526071Y-95952380D02*
X145526071Y-94952380D01*
X146097500Y-95952380D02*
X145668928Y-95380952D01*
X146097500Y-94952380D02*
X145526071Y-95523809D01*
X146954642Y-95952380D02*
X146954642Y-95428571D01*
X146907023Y-95333333D01*
X146811785Y-95285714D01*
X146621309Y-95285714D01*
X146526071Y-95333333D01*
X146954642Y-95904761D02*
X146859404Y-95952380D01*
X146621309Y-95952380D01*
X146526071Y-95904761D01*
X146478452Y-95809523D01*
X146478452Y-95714285D01*
X146526071Y-95619047D01*
X146621309Y-95571428D01*
X146859404Y-95571428D01*
X146954642Y-95523809D01*
X147430833Y-95285714D02*
X147430833Y-95952380D01*
X147430833Y-95380952D02*
X147478452Y-95333333D01*
X147573690Y-95285714D01*
X147716547Y-95285714D01*
X147811785Y-95333333D01*
X147859404Y-95428571D01*
X147859404Y-95952380D01*
X148764166Y-95285714D02*
X148764166Y-96095238D01*
X148716547Y-96190476D01*
X148668928Y-96238095D01*
X148573690Y-96285714D01*
X148430833Y-96285714D01*
X148335595Y-96238095D01*
X148764166Y-95904761D02*
X148668928Y-95952380D01*
X148478452Y-95952380D01*
X148383214Y-95904761D01*
X148335595Y-95857142D01*
X148287976Y-95761904D01*
X148287976Y-95476190D01*
X148335595Y-95380952D01*
X148383214Y-95333333D01*
X148478452Y-95285714D01*
X148668928Y-95285714D01*
X148764166Y-95333333D01*
X149954642Y-95904761D02*
X150097500Y-95952380D01*
X150335595Y-95952380D01*
X150430833Y-95904761D01*
X150478452Y-95857142D01*
X150526071Y-95761904D01*
X150526071Y-95666666D01*
X150478452Y-95571428D01*
X150430833Y-95523809D01*
X150335595Y-95476190D01*
X150145119Y-95428571D01*
X150049880Y-95380952D01*
X150002261Y-95333333D01*
X149954642Y-95238095D01*
X149954642Y-95142857D01*
X150002261Y-95047619D01*
X150049880Y-95000000D01*
X150145119Y-94952380D01*
X150383214Y-94952380D01*
X150526071Y-95000000D01*
X150954642Y-95952380D02*
X150954642Y-94952380D01*
X151383214Y-95952380D02*
X151383214Y-95428571D01*
X151335595Y-95333333D01*
X151240357Y-95285714D01*
X151097500Y-95285714D01*
X151002261Y-95333333D01*
X150954642Y-95380952D01*
X151859404Y-95952380D02*
X151859404Y-95285714D01*
X151859404Y-94952380D02*
X151811785Y-95000000D01*
X151859404Y-95047619D01*
X151907023Y-95000000D01*
X151859404Y-94952380D01*
X151859404Y-95047619D01*
X152335595Y-95285714D02*
X152335595Y-95952380D01*
X152335595Y-95380952D02*
X152383214Y-95333333D01*
X152478452Y-95285714D01*
X152621309Y-95285714D01*
X152716547Y-95333333D01*
X152764166Y-95428571D01*
X152764166Y-95952380D01*
X154526071Y-95000000D02*
X154430833Y-94952380D01*
X154287976Y-94952380D01*
X154145119Y-95000000D01*
X154049880Y-95095238D01*
X154002261Y-95190476D01*
X153954642Y-95380952D01*
X153954642Y-95523809D01*
X154002261Y-95714285D01*
X154049880Y-95809523D01*
X154145119Y-95904761D01*
X154287976Y-95952380D01*
X154383214Y-95952380D01*
X154526071Y-95904761D01*
X154573690Y-95857142D01*
X154573690Y-95523809D01*
X154383214Y-95523809D01*
X155430833Y-95285714D02*
X155430833Y-95952380D01*
X155002261Y-95285714D02*
X155002261Y-95809523D01*
X155049880Y-95904761D01*
X155145119Y-95952380D01*
X155287976Y-95952380D01*
X155383214Y-95904761D01*
X155430833Y-95857142D01*
X143049880Y-96697619D02*
X143097500Y-96650000D01*
X143192738Y-96602380D01*
X143430833Y-96602380D01*
X143526071Y-96650000D01*
X143573690Y-96697619D01*
X143621309Y-96792857D01*
X143621309Y-96888095D01*
X143573690Y-97030952D01*
X143002261Y-97602380D01*
X143621309Y-97602380D01*
X144240357Y-96602380D02*
X144335595Y-96602380D01*
X144430833Y-96650000D01*
X144478452Y-96697619D01*
X144526071Y-96792857D01*
X144573690Y-96983333D01*
X144573690Y-97221428D01*
X144526071Y-97411904D01*
X144478452Y-97507142D01*
X144430833Y-97554761D01*
X144335595Y-97602380D01*
X144240357Y-97602380D01*
X144145119Y-97554761D01*
X144097500Y-97507142D01*
X144049880Y-97411904D01*
X144002261Y-97221428D01*
X144002261Y-96983333D01*
X144049880Y-96792857D01*
X144097500Y-96697619D01*
X144145119Y-96650000D01*
X144240357Y-96602380D01*
X144954642Y-96697619D02*
X145002261Y-96650000D01*
X145097500Y-96602380D01*
X145335595Y-96602380D01*
X145430833Y-96650000D01*
X145478452Y-96697619D01*
X145526071Y-96792857D01*
X145526071Y-96888095D01*
X145478452Y-97030952D01*
X144907023Y-97602380D01*
X145526071Y-97602380D01*
X146383214Y-96935714D02*
X146383214Y-97602380D01*
X146145119Y-96554761D02*
X145907023Y-97269047D01*
X146526071Y-97269047D01*
X146907023Y-97507142D02*
X146954642Y-97554761D01*
X146907023Y-97602380D01*
X146859404Y-97554761D01*
X146907023Y-97507142D01*
X146907023Y-97602380D01*
X147573690Y-96602380D02*
X147668928Y-96602380D01*
X147764166Y-96650000D01*
X147811785Y-96697619D01*
X147859404Y-96792857D01*
X147907023Y-96983333D01*
X147907023Y-97221428D01*
X147859404Y-97411904D01*
X147811785Y-97507142D01*
X147764166Y-97554761D01*
X147668928Y-97602380D01*
X147573690Y-97602380D01*
X147478452Y-97554761D01*
X147430833Y-97507142D01*
X147383214Y-97411904D01*
X147335595Y-97221428D01*
X147335595Y-96983333D01*
X147383214Y-96792857D01*
X147430833Y-96697619D01*
X147478452Y-96650000D01*
X147573690Y-96602380D01*
X148764166Y-96935714D02*
X148764166Y-97602380D01*
X148526071Y-96554761D02*
X148287976Y-97269047D01*
X148907023Y-97269047D01*
X149287976Y-97507142D02*
X149335595Y-97554761D01*
X149287976Y-97602380D01*
X149240357Y-97554761D01*
X149287976Y-97507142D01*
X149287976Y-97602380D01*
X149716547Y-96697619D02*
X149764166Y-96650000D01*
X149859404Y-96602380D01*
X150097500Y-96602380D01*
X150192738Y-96650000D01*
X150240357Y-96697619D01*
X150287976Y-96792857D01*
X150287976Y-96888095D01*
X150240357Y-97030952D01*
X149668928Y-97602380D01*
X150287976Y-97602380D01*
X150907023Y-96602380D02*
X151002261Y-96602380D01*
X151097500Y-96650000D01*
X151145119Y-96697619D01*
X151192738Y-96792857D01*
X151240357Y-96983333D01*
X151240357Y-97221428D01*
X151192738Y-97411904D01*
X151145119Y-97507142D01*
X151097500Y-97554761D01*
X151002261Y-97602380D01*
X150907023Y-97602380D01*
X150811785Y-97554761D01*
X150764166Y-97507142D01*
X150716547Y-97411904D01*
X150668928Y-97221428D01*
X150668928Y-96983333D01*
X150716547Y-96792857D01*
X150764166Y-96697619D01*
X150811785Y-96650000D01*
X150907023Y-96602380D01*
D11*
X173216666Y-75170000D02*
X172516666Y-75170000D01*
X172516666Y-74903333D01*
X172550000Y-74836666D01*
X172583333Y-74803333D01*
X172650000Y-74770000D01*
X172750000Y-74770000D01*
X172816666Y-74803333D01*
X172850000Y-74836666D01*
X172883333Y-74903333D01*
X172883333Y-75170000D01*
X173216666Y-74103333D02*
X173216666Y-74503333D01*
X173216666Y-74303333D02*
X172516666Y-74303333D01*
X172616666Y-74370000D01*
X172683333Y-74436666D01*
X172716666Y-74503333D01*
X172516666Y-73503333D02*
X172516666Y-73636666D01*
X172550000Y-73703333D01*
X172583333Y-73736666D01*
X172683333Y-73803333D01*
X172816666Y-73836666D01*
X173083333Y-73836666D01*
X173150000Y-73803333D01*
X173183333Y-73770000D01*
X173216666Y-73703333D01*
X173216666Y-73570000D01*
X173183333Y-73503333D01*
X173150000Y-73470000D01*
X173083333Y-73436666D01*
X172916666Y-73436666D01*
X172850000Y-73470000D01*
X172816666Y-73503333D01*
X172783333Y-73570000D01*
X172783333Y-73703333D01*
X172816666Y-73770000D01*
X172850000Y-73803333D01*
X172916666Y-73836666D01*
X173216666Y-65010000D02*
X172516666Y-65010000D01*
X172516666Y-64743333D01*
X172550000Y-64676666D01*
X172583333Y-64643333D01*
X172650000Y-64610000D01*
X172750000Y-64610000D01*
X172816666Y-64643333D01*
X172850000Y-64676666D01*
X172883333Y-64743333D01*
X172883333Y-65010000D01*
X172516666Y-64176666D02*
X172516666Y-64110000D01*
X172550000Y-64043333D01*
X172583333Y-64010000D01*
X172650000Y-63976666D01*
X172783333Y-63943333D01*
X172950000Y-63943333D01*
X173083333Y-63976666D01*
X173150000Y-64010000D01*
X173183333Y-64043333D01*
X173216666Y-64110000D01*
X173216666Y-64176666D01*
X173183333Y-64243333D01*
X173150000Y-64276666D01*
X173083333Y-64310000D01*
X172950000Y-64343333D01*
X172783333Y-64343333D01*
X172650000Y-64310000D01*
X172583333Y-64276666D01*
X172550000Y-64243333D01*
X172516666Y-64176666D01*
X172816666Y-63543333D02*
X172783333Y-63610000D01*
X172750000Y-63643333D01*
X172683333Y-63676666D01*
X172650000Y-63676666D01*
X172583333Y-63643333D01*
X172550000Y-63610000D01*
X172516666Y-63543333D01*
X172516666Y-63410000D01*
X172550000Y-63343333D01*
X172583333Y-63310000D01*
X172650000Y-63276666D01*
X172683333Y-63276666D01*
X172750000Y-63310000D01*
X172783333Y-63343333D01*
X172816666Y-63410000D01*
X172816666Y-63543333D01*
X172850000Y-63610000D01*
X172883333Y-63643333D01*
X172950000Y-63676666D01*
X173083333Y-63676666D01*
X173150000Y-63643333D01*
X173183333Y-63610000D01*
X173216666Y-63543333D01*
X173216666Y-63410000D01*
X173183333Y-63343333D01*
X173150000Y-63310000D01*
X173083333Y-63276666D01*
X172950000Y-63276666D01*
X172883333Y-63310000D01*
X172850000Y-63343333D01*
X172816666Y-63410000D01*
X173216666Y-82790000D02*
X172516666Y-82790000D01*
X172516666Y-82523333D01*
X172550000Y-82456666D01*
X172583333Y-82423333D01*
X172650000Y-82390000D01*
X172750000Y-82390000D01*
X172816666Y-82423333D01*
X172850000Y-82456666D01*
X172883333Y-82523333D01*
X172883333Y-82790000D01*
X172583333Y-82123333D02*
X172550000Y-82090000D01*
X172516666Y-82023333D01*
X172516666Y-81856666D01*
X172550000Y-81790000D01*
X172583333Y-81756666D01*
X172650000Y-81723333D01*
X172716666Y-81723333D01*
X172816666Y-81756666D01*
X173216666Y-82156666D01*
X173216666Y-81723333D01*
X172583333Y-81456666D02*
X172550000Y-81423333D01*
X172516666Y-81356666D01*
X172516666Y-81190000D01*
X172550000Y-81123333D01*
X172583333Y-81090000D01*
X172650000Y-81056666D01*
X172716666Y-81056666D01*
X172816666Y-81090000D01*
X173216666Y-81490000D01*
X173216666Y-81056666D01*
X173216666Y-80250000D02*
X172516666Y-80250000D01*
X172516666Y-79983333D01*
X172550000Y-79916666D01*
X172583333Y-79883333D01*
X172650000Y-79850000D01*
X172750000Y-79850000D01*
X172816666Y-79883333D01*
X172850000Y-79916666D01*
X172883333Y-79983333D01*
X172883333Y-80250000D01*
X172583333Y-79583333D02*
X172550000Y-79550000D01*
X172516666Y-79483333D01*
X172516666Y-79316666D01*
X172550000Y-79250000D01*
X172583333Y-79216666D01*
X172650000Y-79183333D01*
X172716666Y-79183333D01*
X172816666Y-79216666D01*
X173216666Y-79616666D01*
X173216666Y-79183333D01*
X172516666Y-78750000D02*
X172516666Y-78683333D01*
X172550000Y-78616666D01*
X172583333Y-78583333D01*
X172650000Y-78550000D01*
X172783333Y-78516666D01*
X172950000Y-78516666D01*
X173083333Y-78550000D01*
X173150000Y-78583333D01*
X173183333Y-78616666D01*
X173216666Y-78683333D01*
X173216666Y-78750000D01*
X173183333Y-78816666D01*
X173150000Y-78850000D01*
X173083333Y-78883333D01*
X172950000Y-78916666D01*
X172783333Y-78916666D01*
X172650000Y-78883333D01*
X172583333Y-78850000D01*
X172550000Y-78816666D01*
X172516666Y-78750000D01*
X173216666Y-67550000D02*
X172516666Y-67550000D01*
X172516666Y-67283333D01*
X172550000Y-67216666D01*
X172583333Y-67183333D01*
X172650000Y-67150000D01*
X172750000Y-67150000D01*
X172816666Y-67183333D01*
X172850000Y-67216666D01*
X172883333Y-67283333D01*
X172883333Y-67550000D01*
X173216666Y-66483333D02*
X173216666Y-66883333D01*
X173216666Y-66683333D02*
X172516666Y-66683333D01*
X172616666Y-66750000D01*
X172683333Y-66816666D01*
X172716666Y-66883333D01*
X172516666Y-66050000D02*
X172516666Y-65983333D01*
X172550000Y-65916666D01*
X172583333Y-65883333D01*
X172650000Y-65850000D01*
X172783333Y-65816666D01*
X172950000Y-65816666D01*
X173083333Y-65850000D01*
X173150000Y-65883333D01*
X173183333Y-65916666D01*
X173216666Y-65983333D01*
X173216666Y-66050000D01*
X173183333Y-66116666D01*
X173150000Y-66150000D01*
X173083333Y-66183333D01*
X172950000Y-66216666D01*
X172783333Y-66216666D01*
X172650000Y-66183333D01*
X172583333Y-66150000D01*
X172550000Y-66116666D01*
X172516666Y-66050000D01*
X173216666Y-87870000D02*
X172516666Y-87870000D01*
X172516666Y-87603333D01*
X172550000Y-87536666D01*
X172583333Y-87503333D01*
X172650000Y-87470000D01*
X172750000Y-87470000D01*
X172816666Y-87503333D01*
X172850000Y-87536666D01*
X172883333Y-87603333D01*
X172883333Y-87870000D01*
X172583333Y-87203333D02*
X172550000Y-87170000D01*
X172516666Y-87103333D01*
X172516666Y-86936666D01*
X172550000Y-86870000D01*
X172583333Y-86836666D01*
X172650000Y-86803333D01*
X172716666Y-86803333D01*
X172816666Y-86836666D01*
X173216666Y-87236666D01*
X173216666Y-86803333D01*
X172516666Y-86203333D02*
X172516666Y-86336666D01*
X172550000Y-86403333D01*
X172583333Y-86436666D01*
X172683333Y-86503333D01*
X172816666Y-86536666D01*
X173083333Y-86536666D01*
X173150000Y-86503333D01*
X173183333Y-86470000D01*
X173216666Y-86403333D01*
X173216666Y-86270000D01*
X173183333Y-86203333D01*
X173150000Y-86170000D01*
X173083333Y-86136666D01*
X172916666Y-86136666D01*
X172850000Y-86170000D01*
X172816666Y-86203333D01*
X172783333Y-86270000D01*
X172783333Y-86403333D01*
X172816666Y-86470000D01*
X172850000Y-86503333D01*
X172916666Y-86536666D01*
X173216666Y-92950000D02*
X172516666Y-92950000D01*
X172516666Y-92683333D01*
X172550000Y-92616666D01*
X172583333Y-92583333D01*
X172650000Y-92550000D01*
X172750000Y-92550000D01*
X172816666Y-92583333D01*
X172850000Y-92616666D01*
X172883333Y-92683333D01*
X172883333Y-92950000D01*
X172516666Y-92316666D02*
X172516666Y-91883333D01*
X172783333Y-92116666D01*
X172783333Y-92016666D01*
X172816666Y-91950000D01*
X172850000Y-91916666D01*
X172916666Y-91883333D01*
X173083333Y-91883333D01*
X173150000Y-91916666D01*
X173183333Y-91950000D01*
X173216666Y-92016666D01*
X173216666Y-92216666D01*
X173183333Y-92283333D01*
X173150000Y-92316666D01*
X172516666Y-91450000D02*
X172516666Y-91383333D01*
X172550000Y-91316666D01*
X172583333Y-91283333D01*
X172650000Y-91250000D01*
X172783333Y-91216666D01*
X172950000Y-91216666D01*
X173083333Y-91250000D01*
X173150000Y-91283333D01*
X173183333Y-91316666D01*
X173216666Y-91383333D01*
X173216666Y-91450000D01*
X173183333Y-91516666D01*
X173150000Y-91550000D01*
X173083333Y-91583333D01*
X172950000Y-91616666D01*
X172783333Y-91616666D01*
X172650000Y-91583333D01*
X172583333Y-91550000D01*
X172550000Y-91516666D01*
X172516666Y-91450000D01*
X173216666Y-90410000D02*
X172516666Y-90410000D01*
X172516666Y-90143333D01*
X172550000Y-90076666D01*
X172583333Y-90043333D01*
X172650000Y-90010000D01*
X172750000Y-90010000D01*
X172816666Y-90043333D01*
X172850000Y-90076666D01*
X172883333Y-90143333D01*
X172883333Y-90410000D01*
X172583333Y-89743333D02*
X172550000Y-89710000D01*
X172516666Y-89643333D01*
X172516666Y-89476666D01*
X172550000Y-89410000D01*
X172583333Y-89376666D01*
X172650000Y-89343333D01*
X172716666Y-89343333D01*
X172816666Y-89376666D01*
X173216666Y-89776666D01*
X173216666Y-89343333D01*
X172816666Y-88943333D02*
X172783333Y-89010000D01*
X172750000Y-89043333D01*
X172683333Y-89076666D01*
X172650000Y-89076666D01*
X172583333Y-89043333D01*
X172550000Y-89010000D01*
X172516666Y-88943333D01*
X172516666Y-88810000D01*
X172550000Y-88743333D01*
X172583333Y-88710000D01*
X172650000Y-88676666D01*
X172683333Y-88676666D01*
X172750000Y-88710000D01*
X172783333Y-88743333D01*
X172816666Y-88810000D01*
X172816666Y-88943333D01*
X172850000Y-89010000D01*
X172883333Y-89043333D01*
X172950000Y-89076666D01*
X173083333Y-89076666D01*
X173150000Y-89043333D01*
X173183333Y-89010000D01*
X173216666Y-88943333D01*
X173216666Y-88810000D01*
X173183333Y-88743333D01*
X173150000Y-88710000D01*
X173083333Y-88676666D01*
X172950000Y-88676666D01*
X172883333Y-88710000D01*
X172850000Y-88743333D01*
X172816666Y-88810000D01*
X173216666Y-77710000D02*
X172516666Y-77710000D01*
X172516666Y-77443333D01*
X172550000Y-77376666D01*
X172583333Y-77343333D01*
X172650000Y-77310000D01*
X172750000Y-77310000D01*
X172816666Y-77343333D01*
X172850000Y-77376666D01*
X172883333Y-77443333D01*
X172883333Y-77710000D01*
X173216666Y-76643333D02*
X173216666Y-77043333D01*
X173216666Y-76843333D02*
X172516666Y-76843333D01*
X172616666Y-76910000D01*
X172683333Y-76976666D01*
X172716666Y-77043333D01*
X172816666Y-76243333D02*
X172783333Y-76310000D01*
X172750000Y-76343333D01*
X172683333Y-76376666D01*
X172650000Y-76376666D01*
X172583333Y-76343333D01*
X172550000Y-76310000D01*
X172516666Y-76243333D01*
X172516666Y-76110000D01*
X172550000Y-76043333D01*
X172583333Y-76010000D01*
X172650000Y-75976666D01*
X172683333Y-75976666D01*
X172750000Y-76010000D01*
X172783333Y-76043333D01*
X172816666Y-76110000D01*
X172816666Y-76243333D01*
X172850000Y-76310000D01*
X172883333Y-76343333D01*
X172950000Y-76376666D01*
X173083333Y-76376666D01*
X173150000Y-76343333D01*
X173183333Y-76310000D01*
X173216666Y-76243333D01*
X173216666Y-76110000D01*
X173183333Y-76043333D01*
X173150000Y-76010000D01*
X173083333Y-75976666D01*
X172950000Y-75976666D01*
X172883333Y-76010000D01*
X172850000Y-76043333D01*
X172816666Y-76110000D01*
X173216666Y-54850000D02*
X172516666Y-54850000D01*
X172516666Y-54583333D01*
X172550000Y-54516666D01*
X172583333Y-54483333D01*
X172650000Y-54450000D01*
X172750000Y-54450000D01*
X172816666Y-54483333D01*
X172850000Y-54516666D01*
X172883333Y-54583333D01*
X172883333Y-54850000D01*
X172516666Y-54016666D02*
X172516666Y-53950000D01*
X172550000Y-53883333D01*
X172583333Y-53850000D01*
X172650000Y-53816666D01*
X172783333Y-53783333D01*
X172950000Y-53783333D01*
X173083333Y-53816666D01*
X173150000Y-53850000D01*
X173183333Y-53883333D01*
X173216666Y-53950000D01*
X173216666Y-54016666D01*
X173183333Y-54083333D01*
X173150000Y-54116666D01*
X173083333Y-54150000D01*
X172950000Y-54183333D01*
X172783333Y-54183333D01*
X172650000Y-54150000D01*
X172583333Y-54116666D01*
X172550000Y-54083333D01*
X172516666Y-54016666D01*
X172516666Y-53350000D02*
X172516666Y-53283333D01*
X172550000Y-53216666D01*
X172583333Y-53183333D01*
X172650000Y-53150000D01*
X172783333Y-53116666D01*
X172950000Y-53116666D01*
X173083333Y-53150000D01*
X173150000Y-53183333D01*
X173183333Y-53216666D01*
X173216666Y-53283333D01*
X173216666Y-53350000D01*
X173183333Y-53416666D01*
X173150000Y-53450000D01*
X173083333Y-53483333D01*
X172950000Y-53516666D01*
X172783333Y-53516666D01*
X172650000Y-53483333D01*
X172583333Y-53450000D01*
X172550000Y-53416666D01*
X172516666Y-53350000D01*
X173216666Y-59930000D02*
X172516666Y-59930000D01*
X172516666Y-59663333D01*
X172550000Y-59596666D01*
X172583333Y-59563333D01*
X172650000Y-59530000D01*
X172750000Y-59530000D01*
X172816666Y-59563333D01*
X172850000Y-59596666D01*
X172883333Y-59663333D01*
X172883333Y-59930000D01*
X172516666Y-59096666D02*
X172516666Y-59030000D01*
X172550000Y-58963333D01*
X172583333Y-58930000D01*
X172650000Y-58896666D01*
X172783333Y-58863333D01*
X172950000Y-58863333D01*
X173083333Y-58896666D01*
X173150000Y-58930000D01*
X173183333Y-58963333D01*
X173216666Y-59030000D01*
X173216666Y-59096666D01*
X173183333Y-59163333D01*
X173150000Y-59196666D01*
X173083333Y-59230000D01*
X172950000Y-59263333D01*
X172783333Y-59263333D01*
X172650000Y-59230000D01*
X172583333Y-59196666D01*
X172550000Y-59163333D01*
X172516666Y-59096666D01*
X172750000Y-58263333D02*
X173216666Y-58263333D01*
X172483333Y-58430000D02*
X172983333Y-58596666D01*
X172983333Y-58163333D01*
X173216666Y-62470000D02*
X172516666Y-62470000D01*
X172516666Y-62203333D01*
X172550000Y-62136666D01*
X172583333Y-62103333D01*
X172650000Y-62070000D01*
X172750000Y-62070000D01*
X172816666Y-62103333D01*
X172850000Y-62136666D01*
X172883333Y-62203333D01*
X172883333Y-62470000D01*
X172516666Y-61636666D02*
X172516666Y-61570000D01*
X172550000Y-61503333D01*
X172583333Y-61470000D01*
X172650000Y-61436666D01*
X172783333Y-61403333D01*
X172950000Y-61403333D01*
X173083333Y-61436666D01*
X173150000Y-61470000D01*
X173183333Y-61503333D01*
X173216666Y-61570000D01*
X173216666Y-61636666D01*
X173183333Y-61703333D01*
X173150000Y-61736666D01*
X173083333Y-61770000D01*
X172950000Y-61803333D01*
X172783333Y-61803333D01*
X172650000Y-61770000D01*
X172583333Y-61736666D01*
X172550000Y-61703333D01*
X172516666Y-61636666D01*
X172516666Y-60803333D02*
X172516666Y-60936666D01*
X172550000Y-61003333D01*
X172583333Y-61036666D01*
X172683333Y-61103333D01*
X172816666Y-61136666D01*
X173083333Y-61136666D01*
X173150000Y-61103333D01*
X173183333Y-61070000D01*
X173216666Y-61003333D01*
X173216666Y-60870000D01*
X173183333Y-60803333D01*
X173150000Y-60770000D01*
X173083333Y-60736666D01*
X172916666Y-60736666D01*
X172850000Y-60770000D01*
X172816666Y-60803333D01*
X172783333Y-60870000D01*
X172783333Y-61003333D01*
X172816666Y-61070000D01*
X172850000Y-61103333D01*
X172916666Y-61136666D01*
X173216666Y-70090000D02*
X172516666Y-70090000D01*
X172516666Y-69823333D01*
X172550000Y-69756666D01*
X172583333Y-69723333D01*
X172650000Y-69690000D01*
X172750000Y-69690000D01*
X172816666Y-69723333D01*
X172850000Y-69756666D01*
X172883333Y-69823333D01*
X172883333Y-70090000D01*
X173216666Y-69023333D02*
X173216666Y-69423333D01*
X173216666Y-69223333D02*
X172516666Y-69223333D01*
X172616666Y-69290000D01*
X172683333Y-69356666D01*
X172716666Y-69423333D01*
X172583333Y-68756666D02*
X172550000Y-68723333D01*
X172516666Y-68656666D01*
X172516666Y-68490000D01*
X172550000Y-68423333D01*
X172583333Y-68390000D01*
X172650000Y-68356666D01*
X172716666Y-68356666D01*
X172816666Y-68390000D01*
X173216666Y-68790000D01*
X173216666Y-68356666D01*
X173216666Y-85330000D02*
X172516666Y-85330000D01*
X172516666Y-85063333D01*
X172550000Y-84996666D01*
X172583333Y-84963333D01*
X172650000Y-84930000D01*
X172750000Y-84930000D01*
X172816666Y-84963333D01*
X172850000Y-84996666D01*
X172883333Y-85063333D01*
X172883333Y-85330000D01*
X172583333Y-84663333D02*
X172550000Y-84630000D01*
X172516666Y-84563333D01*
X172516666Y-84396666D01*
X172550000Y-84330000D01*
X172583333Y-84296666D01*
X172650000Y-84263333D01*
X172716666Y-84263333D01*
X172816666Y-84296666D01*
X173216666Y-84696666D01*
X173216666Y-84263333D01*
X172750000Y-83663333D02*
X173216666Y-83663333D01*
X172483333Y-83830000D02*
X172983333Y-83996666D01*
X172983333Y-83563333D01*
X173216666Y-72630000D02*
X172516666Y-72630000D01*
X172516666Y-72363333D01*
X172550000Y-72296666D01*
X172583333Y-72263333D01*
X172650000Y-72230000D01*
X172750000Y-72230000D01*
X172816666Y-72263333D01*
X172850000Y-72296666D01*
X172883333Y-72363333D01*
X172883333Y-72630000D01*
X173216666Y-71563333D02*
X173216666Y-71963333D01*
X173216666Y-71763333D02*
X172516666Y-71763333D01*
X172616666Y-71830000D01*
X172683333Y-71896666D01*
X172716666Y-71963333D01*
X172750000Y-70963333D02*
X173216666Y-70963333D01*
X172483333Y-71130000D02*
X172983333Y-71296666D01*
X172983333Y-70863333D01*
X173216666Y-57390000D02*
X172516666Y-57390000D01*
X172516666Y-57123333D01*
X172550000Y-57056666D01*
X172583333Y-57023333D01*
X172650000Y-56990000D01*
X172750000Y-56990000D01*
X172816666Y-57023333D01*
X172850000Y-57056666D01*
X172883333Y-57123333D01*
X172883333Y-57390000D01*
X172516666Y-56556666D02*
X172516666Y-56490000D01*
X172550000Y-56423333D01*
X172583333Y-56390000D01*
X172650000Y-56356666D01*
X172783333Y-56323333D01*
X172950000Y-56323333D01*
X173083333Y-56356666D01*
X173150000Y-56390000D01*
X173183333Y-56423333D01*
X173216666Y-56490000D01*
X173216666Y-56556666D01*
X173183333Y-56623333D01*
X173150000Y-56656666D01*
X173083333Y-56690000D01*
X172950000Y-56723333D01*
X172783333Y-56723333D01*
X172650000Y-56690000D01*
X172583333Y-56656666D01*
X172550000Y-56623333D01*
X172516666Y-56556666D01*
X172583333Y-56056666D02*
X172550000Y-56023333D01*
X172516666Y-55956666D01*
X172516666Y-55790000D01*
X172550000Y-55723333D01*
X172583333Y-55690000D01*
X172650000Y-55656666D01*
X172716666Y-55656666D01*
X172816666Y-55690000D01*
X173216666Y-56090000D01*
X173216666Y-55656666D01*
X165150000Y-92516666D02*
X165150000Y-91816666D01*
X165416666Y-91816666D01*
X165483333Y-91850000D01*
X165516666Y-91883333D01*
X165550000Y-91950000D01*
X165550000Y-92050000D01*
X165516666Y-92116666D01*
X165483333Y-92150000D01*
X165416666Y-92183333D01*
X165150000Y-92183333D01*
X165783333Y-91816666D02*
X166216666Y-91816666D01*
X165983333Y-92083333D01*
X166083333Y-92083333D01*
X166150000Y-92116666D01*
X166183333Y-92150000D01*
X166216666Y-92216666D01*
X166216666Y-92383333D01*
X166183333Y-92450000D01*
X166150000Y-92483333D01*
X166083333Y-92516666D01*
X165883333Y-92516666D01*
X165816666Y-92483333D01*
X165783333Y-92450000D01*
X166883333Y-92516666D02*
X166483333Y-92516666D01*
X166683333Y-92516666D02*
X166683333Y-91816666D01*
X166616666Y-91916666D01*
X166550000Y-91983333D01*
X166483333Y-92016666D01*
X165150000Y-89976666D02*
X165150000Y-89276666D01*
X165416666Y-89276666D01*
X165483333Y-89310000D01*
X165516666Y-89343333D01*
X165550000Y-89410000D01*
X165550000Y-89510000D01*
X165516666Y-89576666D01*
X165483333Y-89610000D01*
X165416666Y-89643333D01*
X165150000Y-89643333D01*
X165816666Y-89343333D02*
X165850000Y-89310000D01*
X165916666Y-89276666D01*
X166083333Y-89276666D01*
X166150000Y-89310000D01*
X166183333Y-89343333D01*
X166216666Y-89410000D01*
X166216666Y-89476666D01*
X166183333Y-89576666D01*
X165783333Y-89976666D01*
X166216666Y-89976666D01*
X166550000Y-89976666D02*
X166683333Y-89976666D01*
X166750000Y-89943333D01*
X166783333Y-89910000D01*
X166850000Y-89810000D01*
X166883333Y-89676666D01*
X166883333Y-89410000D01*
X166850000Y-89343333D01*
X166816666Y-89310000D01*
X166750000Y-89276666D01*
X166616666Y-89276666D01*
X166550000Y-89310000D01*
X166516666Y-89343333D01*
X166483333Y-89410000D01*
X166483333Y-89576666D01*
X166516666Y-89643333D01*
X166550000Y-89676666D01*
X166616666Y-89710000D01*
X166750000Y-89710000D01*
X166816666Y-89676666D01*
X166850000Y-89643333D01*
X166883333Y-89576666D01*
X165150000Y-87436666D02*
X165150000Y-86736666D01*
X165416666Y-86736666D01*
X165483333Y-86770000D01*
X165516666Y-86803333D01*
X165550000Y-86870000D01*
X165550000Y-86970000D01*
X165516666Y-87036666D01*
X165483333Y-87070000D01*
X165416666Y-87103333D01*
X165150000Y-87103333D01*
X165816666Y-86803333D02*
X165850000Y-86770000D01*
X165916666Y-86736666D01*
X166083333Y-86736666D01*
X166150000Y-86770000D01*
X166183333Y-86803333D01*
X166216666Y-86870000D01*
X166216666Y-86936666D01*
X166183333Y-87036666D01*
X165783333Y-87436666D01*
X166216666Y-87436666D01*
X166450000Y-86736666D02*
X166916666Y-86736666D01*
X166616666Y-87436666D01*
X165150000Y-84896666D02*
X165150000Y-84196666D01*
X165416666Y-84196666D01*
X165483333Y-84230000D01*
X165516666Y-84263333D01*
X165550000Y-84330000D01*
X165550000Y-84430000D01*
X165516666Y-84496666D01*
X165483333Y-84530000D01*
X165416666Y-84563333D01*
X165150000Y-84563333D01*
X165816666Y-84263333D02*
X165850000Y-84230000D01*
X165916666Y-84196666D01*
X166083333Y-84196666D01*
X166150000Y-84230000D01*
X166183333Y-84263333D01*
X166216666Y-84330000D01*
X166216666Y-84396666D01*
X166183333Y-84496666D01*
X165783333Y-84896666D01*
X166216666Y-84896666D01*
X166850000Y-84196666D02*
X166516666Y-84196666D01*
X166483333Y-84530000D01*
X166516666Y-84496666D01*
X166583333Y-84463333D01*
X166750000Y-84463333D01*
X166816666Y-84496666D01*
X166850000Y-84530000D01*
X166883333Y-84596666D01*
X166883333Y-84763333D01*
X166850000Y-84830000D01*
X166816666Y-84863333D01*
X166750000Y-84896666D01*
X166583333Y-84896666D01*
X166516666Y-84863333D01*
X166483333Y-84830000D01*
X165150000Y-82356666D02*
X165150000Y-81656666D01*
X165416666Y-81656666D01*
X165483333Y-81690000D01*
X165516666Y-81723333D01*
X165550000Y-81790000D01*
X165550000Y-81890000D01*
X165516666Y-81956666D01*
X165483333Y-81990000D01*
X165416666Y-82023333D01*
X165150000Y-82023333D01*
X165816666Y-81723333D02*
X165850000Y-81690000D01*
X165916666Y-81656666D01*
X166083333Y-81656666D01*
X166150000Y-81690000D01*
X166183333Y-81723333D01*
X166216666Y-81790000D01*
X166216666Y-81856666D01*
X166183333Y-81956666D01*
X165783333Y-82356666D01*
X166216666Y-82356666D01*
X166450000Y-81656666D02*
X166883333Y-81656666D01*
X166650000Y-81923333D01*
X166750000Y-81923333D01*
X166816666Y-81956666D01*
X166850000Y-81990000D01*
X166883333Y-82056666D01*
X166883333Y-82223333D01*
X166850000Y-82290000D01*
X166816666Y-82323333D01*
X166750000Y-82356666D01*
X166550000Y-82356666D01*
X166483333Y-82323333D01*
X166450000Y-82290000D01*
X165150000Y-79816666D02*
X165150000Y-79116666D01*
X165416666Y-79116666D01*
X165483333Y-79150000D01*
X165516666Y-79183333D01*
X165550000Y-79250000D01*
X165550000Y-79350000D01*
X165516666Y-79416666D01*
X165483333Y-79450000D01*
X165416666Y-79483333D01*
X165150000Y-79483333D01*
X165816666Y-79183333D02*
X165850000Y-79150000D01*
X165916666Y-79116666D01*
X166083333Y-79116666D01*
X166150000Y-79150000D01*
X166183333Y-79183333D01*
X166216666Y-79250000D01*
X166216666Y-79316666D01*
X166183333Y-79416666D01*
X165783333Y-79816666D01*
X166216666Y-79816666D01*
X166883333Y-79816666D02*
X166483333Y-79816666D01*
X166683333Y-79816666D02*
X166683333Y-79116666D01*
X166616666Y-79216666D01*
X166550000Y-79283333D01*
X166483333Y-79316666D01*
X165150000Y-77276666D02*
X165150000Y-76576666D01*
X165416666Y-76576666D01*
X165483333Y-76610000D01*
X165516666Y-76643333D01*
X165550000Y-76710000D01*
X165550000Y-76810000D01*
X165516666Y-76876666D01*
X165483333Y-76910000D01*
X165416666Y-76943333D01*
X165150000Y-76943333D01*
X166216666Y-77276666D02*
X165816666Y-77276666D01*
X166016666Y-77276666D02*
X166016666Y-76576666D01*
X165950000Y-76676666D01*
X165883333Y-76743333D01*
X165816666Y-76776666D01*
X166550000Y-77276666D02*
X166683333Y-77276666D01*
X166750000Y-77243333D01*
X166783333Y-77210000D01*
X166850000Y-77110000D01*
X166883333Y-76976666D01*
X166883333Y-76710000D01*
X166850000Y-76643333D01*
X166816666Y-76610000D01*
X166750000Y-76576666D01*
X166616666Y-76576666D01*
X166550000Y-76610000D01*
X166516666Y-76643333D01*
X166483333Y-76710000D01*
X166483333Y-76876666D01*
X166516666Y-76943333D01*
X166550000Y-76976666D01*
X166616666Y-77010000D01*
X166750000Y-77010000D01*
X166816666Y-76976666D01*
X166850000Y-76943333D01*
X166883333Y-76876666D01*
X165150000Y-74736666D02*
X165150000Y-74036666D01*
X165416666Y-74036666D01*
X165483333Y-74070000D01*
X165516666Y-74103333D01*
X165550000Y-74170000D01*
X165550000Y-74270000D01*
X165516666Y-74336666D01*
X165483333Y-74370000D01*
X165416666Y-74403333D01*
X165150000Y-74403333D01*
X166216666Y-74736666D02*
X165816666Y-74736666D01*
X166016666Y-74736666D02*
X166016666Y-74036666D01*
X165950000Y-74136666D01*
X165883333Y-74203333D01*
X165816666Y-74236666D01*
X166616666Y-74336666D02*
X166550000Y-74303333D01*
X166516666Y-74270000D01*
X166483333Y-74203333D01*
X166483333Y-74170000D01*
X166516666Y-74103333D01*
X166550000Y-74070000D01*
X166616666Y-74036666D01*
X166750000Y-74036666D01*
X166816666Y-74070000D01*
X166850000Y-74103333D01*
X166883333Y-74170000D01*
X166883333Y-74203333D01*
X166850000Y-74270000D01*
X166816666Y-74303333D01*
X166750000Y-74336666D01*
X166616666Y-74336666D01*
X166550000Y-74370000D01*
X166516666Y-74403333D01*
X166483333Y-74470000D01*
X166483333Y-74603333D01*
X166516666Y-74670000D01*
X166550000Y-74703333D01*
X166616666Y-74736666D01*
X166750000Y-74736666D01*
X166816666Y-74703333D01*
X166850000Y-74670000D01*
X166883333Y-74603333D01*
X166883333Y-74470000D01*
X166850000Y-74403333D01*
X166816666Y-74370000D01*
X166750000Y-74336666D01*
X166183333Y-71030000D02*
X166883333Y-71030000D01*
X166883333Y-71296666D01*
X166850000Y-71363333D01*
X166816666Y-71396666D01*
X166750000Y-71430000D01*
X166650000Y-71430000D01*
X166583333Y-71396666D01*
X166550000Y-71363333D01*
X166516666Y-71296666D01*
X166516666Y-71030000D01*
X166183333Y-72096666D02*
X166183333Y-71696666D01*
X166183333Y-71896666D02*
X166883333Y-71896666D01*
X166783333Y-71830000D01*
X166716666Y-71763333D01*
X166683333Y-71696666D01*
X166883333Y-72696666D02*
X166883333Y-72563333D01*
X166850000Y-72496666D01*
X166816666Y-72463333D01*
X166716666Y-72396666D01*
X166583333Y-72363333D01*
X166316666Y-72363333D01*
X166250000Y-72396666D01*
X166216666Y-72430000D01*
X166183333Y-72496666D01*
X166183333Y-72630000D01*
X166216666Y-72696666D01*
X166250000Y-72730000D01*
X166316666Y-72763333D01*
X166483333Y-72763333D01*
X166550000Y-72730000D01*
X166583333Y-72696666D01*
X166616666Y-72630000D01*
X166616666Y-72496666D01*
X166583333Y-72430000D01*
X166550000Y-72396666D01*
X166483333Y-72363333D01*
X165150000Y-69656666D02*
X165150000Y-68956666D01*
X165416666Y-68956666D01*
X165483333Y-68990000D01*
X165516666Y-69023333D01*
X165550000Y-69090000D01*
X165550000Y-69190000D01*
X165516666Y-69256666D01*
X165483333Y-69290000D01*
X165416666Y-69323333D01*
X165150000Y-69323333D01*
X166216666Y-69656666D02*
X165816666Y-69656666D01*
X166016666Y-69656666D02*
X166016666Y-68956666D01*
X165950000Y-69056666D01*
X165883333Y-69123333D01*
X165816666Y-69156666D01*
X166450000Y-68956666D02*
X166883333Y-68956666D01*
X166650000Y-69223333D01*
X166750000Y-69223333D01*
X166816666Y-69256666D01*
X166850000Y-69290000D01*
X166883333Y-69356666D01*
X166883333Y-69523333D01*
X166850000Y-69590000D01*
X166816666Y-69623333D01*
X166750000Y-69656666D01*
X166550000Y-69656666D01*
X166483333Y-69623333D01*
X166450000Y-69590000D01*
X165150000Y-67116666D02*
X165150000Y-66416666D01*
X165416666Y-66416666D01*
X165483333Y-66450000D01*
X165516666Y-66483333D01*
X165550000Y-66550000D01*
X165550000Y-66650000D01*
X165516666Y-66716666D01*
X165483333Y-66750000D01*
X165416666Y-66783333D01*
X165150000Y-66783333D01*
X166216666Y-67116666D02*
X165816666Y-67116666D01*
X166016666Y-67116666D02*
X166016666Y-66416666D01*
X165950000Y-66516666D01*
X165883333Y-66583333D01*
X165816666Y-66616666D01*
X166883333Y-67116666D02*
X166483333Y-67116666D01*
X166683333Y-67116666D02*
X166683333Y-66416666D01*
X166616666Y-66516666D01*
X166550000Y-66583333D01*
X166483333Y-66616666D01*
X165150000Y-64576666D02*
X165150000Y-63876666D01*
X165416666Y-63876666D01*
X165483333Y-63910000D01*
X165516666Y-63943333D01*
X165550000Y-64010000D01*
X165550000Y-64110000D01*
X165516666Y-64176666D01*
X165483333Y-64210000D01*
X165416666Y-64243333D01*
X165150000Y-64243333D01*
X165983333Y-63876666D02*
X166050000Y-63876666D01*
X166116666Y-63910000D01*
X166150000Y-63943333D01*
X166183333Y-64010000D01*
X166216666Y-64143333D01*
X166216666Y-64310000D01*
X166183333Y-64443333D01*
X166150000Y-64510000D01*
X166116666Y-64543333D01*
X166050000Y-64576666D01*
X165983333Y-64576666D01*
X165916666Y-64543333D01*
X165883333Y-64510000D01*
X165850000Y-64443333D01*
X165816666Y-64310000D01*
X165816666Y-64143333D01*
X165850000Y-64010000D01*
X165883333Y-63943333D01*
X165916666Y-63910000D01*
X165983333Y-63876666D01*
X166550000Y-64576666D02*
X166683333Y-64576666D01*
X166750000Y-64543333D01*
X166783333Y-64510000D01*
X166850000Y-64410000D01*
X166883333Y-64276666D01*
X166883333Y-64010000D01*
X166850000Y-63943333D01*
X166816666Y-63910000D01*
X166750000Y-63876666D01*
X166616666Y-63876666D01*
X166550000Y-63910000D01*
X166516666Y-63943333D01*
X166483333Y-64010000D01*
X166483333Y-64176666D01*
X166516666Y-64243333D01*
X166550000Y-64276666D01*
X166616666Y-64310000D01*
X166750000Y-64310000D01*
X166816666Y-64276666D01*
X166850000Y-64243333D01*
X166883333Y-64176666D01*
X165150000Y-62036666D02*
X165150000Y-61336666D01*
X165416666Y-61336666D01*
X165483333Y-61370000D01*
X165516666Y-61403333D01*
X165550000Y-61470000D01*
X165550000Y-61570000D01*
X165516666Y-61636666D01*
X165483333Y-61670000D01*
X165416666Y-61703333D01*
X165150000Y-61703333D01*
X165983333Y-61336666D02*
X166050000Y-61336666D01*
X166116666Y-61370000D01*
X166150000Y-61403333D01*
X166183333Y-61470000D01*
X166216666Y-61603333D01*
X166216666Y-61770000D01*
X166183333Y-61903333D01*
X166150000Y-61970000D01*
X166116666Y-62003333D01*
X166050000Y-62036666D01*
X165983333Y-62036666D01*
X165916666Y-62003333D01*
X165883333Y-61970000D01*
X165850000Y-61903333D01*
X165816666Y-61770000D01*
X165816666Y-61603333D01*
X165850000Y-61470000D01*
X165883333Y-61403333D01*
X165916666Y-61370000D01*
X165983333Y-61336666D01*
X166450000Y-61336666D02*
X166916666Y-61336666D01*
X166616666Y-62036666D01*
X165150000Y-59496666D02*
X165150000Y-58796666D01*
X165416666Y-58796666D01*
X165483333Y-58830000D01*
X165516666Y-58863333D01*
X165550000Y-58930000D01*
X165550000Y-59030000D01*
X165516666Y-59096666D01*
X165483333Y-59130000D01*
X165416666Y-59163333D01*
X165150000Y-59163333D01*
X165983333Y-58796666D02*
X166050000Y-58796666D01*
X166116666Y-58830000D01*
X166150000Y-58863333D01*
X166183333Y-58930000D01*
X166216666Y-59063333D01*
X166216666Y-59230000D01*
X166183333Y-59363333D01*
X166150000Y-59430000D01*
X166116666Y-59463333D01*
X166050000Y-59496666D01*
X165983333Y-59496666D01*
X165916666Y-59463333D01*
X165883333Y-59430000D01*
X165850000Y-59363333D01*
X165816666Y-59230000D01*
X165816666Y-59063333D01*
X165850000Y-58930000D01*
X165883333Y-58863333D01*
X165916666Y-58830000D01*
X165983333Y-58796666D01*
X166850000Y-58796666D02*
X166516666Y-58796666D01*
X166483333Y-59130000D01*
X166516666Y-59096666D01*
X166583333Y-59063333D01*
X166750000Y-59063333D01*
X166816666Y-59096666D01*
X166850000Y-59130000D01*
X166883333Y-59196666D01*
X166883333Y-59363333D01*
X166850000Y-59430000D01*
X166816666Y-59463333D01*
X166750000Y-59496666D01*
X166583333Y-59496666D01*
X166516666Y-59463333D01*
X166483333Y-59430000D01*
X165150000Y-56956666D02*
X165150000Y-56256666D01*
X165416666Y-56256666D01*
X165483333Y-56290000D01*
X165516666Y-56323333D01*
X165550000Y-56390000D01*
X165550000Y-56490000D01*
X165516666Y-56556666D01*
X165483333Y-56590000D01*
X165416666Y-56623333D01*
X165150000Y-56623333D01*
X165983333Y-56256666D02*
X166050000Y-56256666D01*
X166116666Y-56290000D01*
X166150000Y-56323333D01*
X166183333Y-56390000D01*
X166216666Y-56523333D01*
X166216666Y-56690000D01*
X166183333Y-56823333D01*
X166150000Y-56890000D01*
X166116666Y-56923333D01*
X166050000Y-56956666D01*
X165983333Y-56956666D01*
X165916666Y-56923333D01*
X165883333Y-56890000D01*
X165850000Y-56823333D01*
X165816666Y-56690000D01*
X165816666Y-56523333D01*
X165850000Y-56390000D01*
X165883333Y-56323333D01*
X165916666Y-56290000D01*
X165983333Y-56256666D01*
X166450000Y-56256666D02*
X166883333Y-56256666D01*
X166650000Y-56523333D01*
X166750000Y-56523333D01*
X166816666Y-56556666D01*
X166850000Y-56590000D01*
X166883333Y-56656666D01*
X166883333Y-56823333D01*
X166850000Y-56890000D01*
X166816666Y-56923333D01*
X166750000Y-56956666D01*
X166550000Y-56956666D01*
X166483333Y-56923333D01*
X166450000Y-56890000D01*
X165150000Y-54416666D02*
X165150000Y-53716666D01*
X165416666Y-53716666D01*
X165483333Y-53750000D01*
X165516666Y-53783333D01*
X165550000Y-53850000D01*
X165550000Y-53950000D01*
X165516666Y-54016666D01*
X165483333Y-54050000D01*
X165416666Y-54083333D01*
X165150000Y-54083333D01*
X165983333Y-53716666D02*
X166050000Y-53716666D01*
X166116666Y-53750000D01*
X166150000Y-53783333D01*
X166183333Y-53850000D01*
X166216666Y-53983333D01*
X166216666Y-54150000D01*
X166183333Y-54283333D01*
X166150000Y-54350000D01*
X166116666Y-54383333D01*
X166050000Y-54416666D01*
X165983333Y-54416666D01*
X165916666Y-54383333D01*
X165883333Y-54350000D01*
X165850000Y-54283333D01*
X165816666Y-54150000D01*
X165816666Y-53983333D01*
X165850000Y-53850000D01*
X165883333Y-53783333D01*
X165916666Y-53750000D01*
X165983333Y-53716666D01*
X166883333Y-54416666D02*
X166483333Y-54416666D01*
X166683333Y-54416666D02*
X166683333Y-53716666D01*
X166616666Y-53816666D01*
X166550000Y-53883333D01*
X166483333Y-53916666D01*
X162950000Y-47750000D02*
X162950000Y-48216666D01*
X162650000Y-47750000D02*
X162650000Y-48116666D01*
X162683333Y-48183333D01*
X162750000Y-48216666D01*
X162850000Y-48216666D01*
X162916666Y-48183333D01*
X162950000Y-48150000D01*
X163183333Y-47516666D02*
X163583333Y-47516666D01*
X163383333Y-48216666D02*
X163383333Y-47516666D01*
X163750000Y-47516666D02*
X164216666Y-48216666D01*
X164216666Y-47516666D02*
X163750000Y-48216666D01*
X160166666Y-47750000D02*
X160166666Y-48216666D01*
X159866666Y-47750000D02*
X159866666Y-48116666D01*
X159900000Y-48183333D01*
X159966666Y-48216666D01*
X160066666Y-48216666D01*
X160133333Y-48183333D01*
X160166666Y-48150000D01*
X160900000Y-48216666D02*
X160666666Y-47883333D01*
X160500000Y-48216666D02*
X160500000Y-47516666D01*
X160766666Y-47516666D01*
X160833333Y-47550000D01*
X160866666Y-47583333D01*
X160900000Y-47650000D01*
X160900000Y-47750000D01*
X160866666Y-47816666D01*
X160833333Y-47850000D01*
X160766666Y-47883333D01*
X160500000Y-47883333D01*
X161133333Y-47516666D02*
X161600000Y-48216666D01*
X161600000Y-47516666D02*
X161133333Y-48216666D01*
X157883333Y-48150000D02*
X157850000Y-48183333D01*
X157750000Y-48216666D01*
X157683333Y-48216666D01*
X157583333Y-48183333D01*
X157516666Y-48116666D01*
X157483333Y-48050000D01*
X157450000Y-47916666D01*
X157450000Y-47816666D01*
X157483333Y-47683333D01*
X157516666Y-47616666D01*
X157583333Y-47550000D01*
X157683333Y-47516666D01*
X157750000Y-47516666D01*
X157850000Y-47550000D01*
X157883333Y-47583333D01*
X158516666Y-48216666D02*
X158183333Y-48216666D01*
X158183333Y-47516666D01*
X158750000Y-48216666D02*
X158750000Y-47516666D01*
X159150000Y-48216666D02*
X158850000Y-47816666D01*
X159150000Y-47516666D02*
X158750000Y-47916666D01*
X155333333Y-48216666D02*
X155333333Y-47516666D01*
X155800000Y-47516666D02*
X155933333Y-47516666D01*
X156000000Y-47550000D01*
X156066666Y-47616666D01*
X156100000Y-47750000D01*
X156100000Y-47983333D01*
X156066666Y-48116666D01*
X156000000Y-48183333D01*
X155933333Y-48216666D01*
X155800000Y-48216666D01*
X155733333Y-48183333D01*
X155666666Y-48116666D01*
X155633333Y-47983333D01*
X155633333Y-47750000D01*
X155666666Y-47616666D01*
X155733333Y-47550000D01*
X155800000Y-47516666D01*
X151683333Y-47466000D02*
X152416666Y-47466000D01*
X151850000Y-48416666D02*
X151850000Y-47716666D01*
X152250000Y-48416666D01*
X152250000Y-47716666D01*
X152416666Y-47466000D02*
X153116666Y-47466000D01*
X152983333Y-48416666D02*
X152750000Y-48083333D01*
X152583333Y-48416666D02*
X152583333Y-47716666D01*
X152850000Y-47716666D01*
X152916666Y-47750000D01*
X152950000Y-47783333D01*
X152983333Y-47850000D01*
X152983333Y-47950000D01*
X152950000Y-48016666D01*
X152916666Y-48050000D01*
X152850000Y-48083333D01*
X152583333Y-48083333D01*
X153116666Y-47466000D02*
X153783333Y-47466000D01*
X153250000Y-48383333D02*
X153350000Y-48416666D01*
X153516666Y-48416666D01*
X153583333Y-48383333D01*
X153616666Y-48350000D01*
X153650000Y-48283333D01*
X153650000Y-48216666D01*
X153616666Y-48150000D01*
X153583333Y-48116666D01*
X153516666Y-48083333D01*
X153383333Y-48050000D01*
X153316666Y-48016666D01*
X153283333Y-47983333D01*
X153250000Y-47916666D01*
X153250000Y-47850000D01*
X153283333Y-47783333D01*
X153316666Y-47750000D01*
X153383333Y-47716666D01*
X153550000Y-47716666D01*
X153650000Y-47750000D01*
X153783333Y-47466000D02*
X154316666Y-47466000D01*
X153850000Y-47716666D02*
X154250000Y-47716666D01*
X154050000Y-48416666D02*
X154050000Y-47716666D01*
X149466666Y-47516666D02*
X149900000Y-47516666D01*
X149666666Y-47783333D01*
X149766666Y-47783333D01*
X149833333Y-47816666D01*
X149866666Y-47850000D01*
X149900000Y-47916666D01*
X149900000Y-48083333D01*
X149866666Y-48150000D01*
X149833333Y-48183333D01*
X149766666Y-48216666D01*
X149566666Y-48216666D01*
X149500000Y-48183333D01*
X149466666Y-48150000D01*
X150200000Y-48150000D02*
X150233333Y-48183333D01*
X150200000Y-48216666D01*
X150166666Y-48183333D01*
X150200000Y-48150000D01*
X150200000Y-48216666D01*
X150833333Y-47516666D02*
X150700000Y-47516666D01*
X150633333Y-47550000D01*
X150600000Y-47583333D01*
X150533333Y-47683333D01*
X150500000Y-47816666D01*
X150500000Y-48083333D01*
X150533333Y-48150000D01*
X150566666Y-48183333D01*
X150633333Y-48216666D01*
X150766666Y-48216666D01*
X150833333Y-48183333D01*
X150866666Y-48150000D01*
X150900000Y-48083333D01*
X150900000Y-47916666D01*
X150866666Y-47850000D01*
X150833333Y-47816666D01*
X150766666Y-47783333D01*
X150633333Y-47783333D01*
X150566666Y-47816666D01*
X150533333Y-47850000D01*
X150500000Y-47916666D01*
X151100000Y-47516666D02*
X151333333Y-48216666D01*
X151566666Y-47516666D01*
X145366666Y-47516666D02*
X145033333Y-47516666D01*
X145000000Y-47850000D01*
X145033333Y-47816666D01*
X145100000Y-47783333D01*
X145266666Y-47783333D01*
X145333333Y-47816666D01*
X145366666Y-47850000D01*
X145400000Y-47916666D01*
X145400000Y-48083333D01*
X145366666Y-48150000D01*
X145333333Y-48183333D01*
X145266666Y-48216666D01*
X145100000Y-48216666D01*
X145033333Y-48183333D01*
X145000000Y-48150000D01*
X145600000Y-47516666D02*
X145833333Y-48216666D01*
X146066666Y-47516666D01*
X147466666Y-47550000D02*
X147400000Y-47516666D01*
X147300000Y-47516666D01*
X147200000Y-47550000D01*
X147133333Y-47616666D01*
X147100000Y-47683333D01*
X147066666Y-47816666D01*
X147066666Y-47916666D01*
X147100000Y-48050000D01*
X147133333Y-48116666D01*
X147200000Y-48183333D01*
X147300000Y-48216666D01*
X147366666Y-48216666D01*
X147466666Y-48183333D01*
X147500000Y-48150000D01*
X147500000Y-47916666D01*
X147366666Y-47916666D01*
X147800000Y-48216666D02*
X147800000Y-47516666D01*
X148200000Y-48216666D01*
X148200000Y-47516666D01*
X148533333Y-48216666D02*
X148533333Y-47516666D01*
X148700000Y-47516666D01*
X148800000Y-47550000D01*
X148866666Y-47616666D01*
X148900000Y-47683333D01*
X148933333Y-47816666D01*
X148933333Y-47916666D01*
X148900000Y-48050000D01*
X148866666Y-48116666D01*
X148800000Y-48183333D01*
X148700000Y-48216666D01*
X148533333Y-48216666D01*
D12*
%TO.C,REF\u002A\u002A*%
G36*
X139539501Y-88592439D02*
G01*
X139828403Y-88628318D01*
X140113531Y-88688590D01*
X140394354Y-88773053D01*
X140670344Y-88881508D01*
X140940973Y-89013755D01*
X141205709Y-89169595D01*
X141379446Y-89287053D01*
X141438642Y-89330283D01*
X141499841Y-89376831D01*
X141559809Y-89424027D01*
X141615314Y-89469202D01*
X141663122Y-89509686D01*
X141699999Y-89542810D01*
X141722712Y-89565905D01*
X141728515Y-89575238D01*
X141727776Y-89580560D01*
X141723513Y-89583167D01*
X141712662Y-89582184D01*
X141692155Y-89576736D01*
X141658926Y-89565951D01*
X141609909Y-89548953D01*
X141542039Y-89524868D01*
X141503079Y-89510968D01*
X141210453Y-89417889D01*
X140918521Y-89347538D01*
X140628390Y-89299885D01*
X140341167Y-89274901D01*
X140057959Y-89272556D01*
X139779872Y-89292819D01*
X139508013Y-89335662D01*
X139243489Y-89401054D01*
X138987408Y-89488965D01*
X138770556Y-89584618D01*
X138601096Y-89673659D01*
X138450024Y-89766652D01*
X138310927Y-89868083D01*
X138177396Y-89982442D01*
X138108632Y-90047915D01*
X137949471Y-90220971D01*
X137812184Y-90405680D01*
X137696809Y-90601924D01*
X137603388Y-90809585D01*
X137531960Y-91028543D01*
X137482564Y-91258681D01*
X137455242Y-91499880D01*
X137450033Y-91752020D01*
X137462249Y-91966411D01*
X137493862Y-92193823D01*
X137547067Y-92423575D01*
X137620041Y-92649824D01*
X137710963Y-92866725D01*
X137791880Y-93023381D01*
X137933613Y-93249925D01*
X138099028Y-93469417D01*
X138287971Y-93681654D01*
X138351691Y-93746336D01*
X138420639Y-93812814D01*
X138477529Y-93862732D01*
X138526140Y-93898622D01*
X138570249Y-93923017D01*
X138613635Y-93938448D01*
X138649439Y-93945897D01*
X138694290Y-93947406D01*
X138730832Y-93934081D01*
X138763178Y-93902989D01*
X138795440Y-93851195D01*
X138803191Y-93836226D01*
X138828104Y-93790555D01*
X138861570Y-93734101D01*
X138897876Y-93676374D01*
X138912927Y-93653544D01*
X138949442Y-93598456D01*
X138973575Y-93559581D01*
X138987141Y-93532793D01*
X138991959Y-93513969D01*
X138989845Y-93498982D01*
X138985415Y-93488955D01*
X138976273Y-93478064D01*
X138959194Y-93471885D01*
X138928794Y-93469533D01*
X138879688Y-93470121D01*
X138872369Y-93470344D01*
X138814611Y-93470723D01*
X138772706Y-93466649D01*
X138737906Y-93456827D01*
X138715757Y-93447135D01*
X138671096Y-93430086D01*
X138636176Y-93428383D01*
X138626591Y-93430559D01*
X138604528Y-93432761D01*
X138572291Y-93428302D01*
X138525992Y-93416309D01*
X138461740Y-93395906D01*
X138440569Y-93388761D01*
X138383305Y-93368326D01*
X138335175Y-93349392D01*
X138300776Y-93333894D01*
X138284703Y-93323770D01*
X138284158Y-93322835D01*
X138292240Y-93311357D01*
X138318651Y-93297021D01*
X138345144Y-93287024D01*
X138436671Y-93255155D01*
X138534505Y-93217756D01*
X138635840Y-93176199D01*
X138737868Y-93131855D01*
X138837784Y-93086096D01*
X138932780Y-93040294D01*
X139020049Y-92995819D01*
X139096785Y-92954043D01*
X139160181Y-92916338D01*
X139207430Y-92884074D01*
X139235725Y-92858623D01*
X139241890Y-92848877D01*
X139240514Y-92826543D01*
X139228820Y-92801166D01*
X139217737Y-92779721D01*
X139215429Y-92756686D01*
X139221534Y-92722624D01*
X139225230Y-92707759D01*
X139233843Y-92669852D01*
X139234684Y-92649386D01*
X139227675Y-92640221D01*
X139224378Y-92638871D01*
X139205787Y-92627674D01*
X139177249Y-92605405D01*
X139159592Y-92590062D01*
X139115625Y-92534779D01*
X139091083Y-92468930D01*
X139087323Y-92415063D01*
X139088152Y-92378511D01*
X139081821Y-92358058D01*
X139064281Y-92345195D01*
X139051368Y-92339498D01*
X139013215Y-92315930D01*
X138972123Y-92278969D01*
X138936306Y-92237046D01*
X138913980Y-92198591D01*
X138913922Y-92198435D01*
X138902058Y-92139527D01*
X138903497Y-92065874D01*
X138917817Y-91983397D01*
X138933030Y-91930267D01*
X138965280Y-91832690D01*
X138912741Y-91766369D01*
X138855707Y-91681152D01*
X138822848Y-91598903D01*
X138814009Y-91517764D01*
X138829035Y-91435880D01*
X138867770Y-91351393D01*
X138876744Y-91336571D01*
X138909446Y-91282987D01*
X138930100Y-91243195D01*
X138940362Y-91210312D01*
X138941887Y-91177454D01*
X138936332Y-91137738D01*
X138930984Y-91111081D01*
X138921574Y-91060820D01*
X138918582Y-91023616D01*
X138922069Y-90988550D01*
X138931888Y-90945510D01*
X138958694Y-90867647D01*
X138998764Y-90784660D01*
X139046607Y-90707658D01*
X139055543Y-90695395D01*
X139080177Y-90657316D01*
X139109556Y-90604378D01*
X139139524Y-90544876D01*
X139165925Y-90487103D01*
X139184602Y-90439353D01*
X139186026Y-90435009D01*
X139227554Y-90335529D01*
X139288883Y-90232491D01*
X139341162Y-90162158D01*
X139374053Y-90120655D01*
X139401719Y-90084332D01*
X139419766Y-90059014D01*
X139423297Y-90053290D01*
X139436933Y-90035336D01*
X139445122Y-90039731D01*
X139447502Y-90064547D01*
X139443714Y-90107855D01*
X139439073Y-90137697D01*
X139423771Y-90240734D01*
X139415280Y-90338969D01*
X139413526Y-90439242D01*
X139418436Y-90548395D01*
X139429936Y-90673270D01*
X139433035Y-90700860D01*
X139441666Y-90773400D01*
X139449782Y-90837126D01*
X139456835Y-90888065D01*
X139462274Y-90922247D01*
X139465528Y-90935678D01*
X139474637Y-90937191D01*
X139484918Y-90922604D01*
X139497262Y-90889681D01*
X139512556Y-90836187D01*
X139525741Y-90784300D01*
X139543311Y-90719707D01*
X139563759Y-90654863D01*
X139584005Y-90599141D01*
X139595023Y-90573461D01*
X139617408Y-90528846D01*
X139647551Y-90472387D01*
X139682024Y-90410126D01*
X139717399Y-90348107D01*
X139750250Y-90292376D01*
X139777149Y-90248974D01*
X139789027Y-90231336D01*
X139804652Y-90211561D01*
X139813275Y-90211076D01*
X139820278Y-90225135D01*
X139822809Y-90244156D01*
X139824425Y-90284005D01*
X139825094Y-90340722D01*
X139824783Y-90410347D01*
X139823461Y-90488919D01*
X139822646Y-90521826D01*
X139821825Y-90573426D01*
X139821571Y-90643322D01*
X139821835Y-90728749D01*
X139822564Y-90826939D01*
X139823707Y-90935127D01*
X139825213Y-91050545D01*
X139827030Y-91170426D01*
X139829108Y-91292005D01*
X139831394Y-91412515D01*
X139833837Y-91529189D01*
X139836386Y-91639260D01*
X139838990Y-91739962D01*
X139841597Y-91828528D01*
X139844156Y-91902192D01*
X139846615Y-91958187D01*
X139848923Y-91993747D01*
X139850170Y-92003906D01*
X139852197Y-92025333D01*
X139853881Y-92063137D01*
X139854812Y-92106225D01*
X139856744Y-92148160D01*
X139860906Y-92178193D01*
X139866404Y-92189936D01*
X139866515Y-92189941D01*
X139878976Y-92180442D01*
X139898915Y-92156189D01*
X139911727Y-92137872D01*
X139957292Y-92076979D01*
X140010740Y-92017900D01*
X140065397Y-91967434D01*
X140112098Y-91933813D01*
X140168326Y-91908158D01*
X140229422Y-91895959D01*
X140300024Y-91897071D01*
X140384771Y-91911349D01*
X140435111Y-91923700D01*
X140512492Y-91947176D01*
X140571245Y-91973578D01*
X140617495Y-92007426D01*
X140657366Y-92053241D01*
X140696982Y-92115543D01*
X140698419Y-92118042D01*
X140727066Y-92178683D01*
X140735749Y-92228908D01*
X140724391Y-92273122D01*
X140695092Y-92313441D01*
X140669846Y-92348352D01*
X140642496Y-92398748D01*
X140616202Y-92457090D01*
X140594126Y-92515835D01*
X140579428Y-92567442D01*
X140575097Y-92599725D01*
X140566345Y-92633900D01*
X140540991Y-92657251D01*
X140511996Y-92678012D01*
X140475409Y-92707534D01*
X140454451Y-92725750D01*
X140409008Y-92758832D01*
X140364707Y-92771994D01*
X140315017Y-92765984D01*
X140265814Y-92747339D01*
X140230318Y-92733860D01*
X140202579Y-92727936D01*
X140194500Y-92728619D01*
X140180338Y-92746079D01*
X140181631Y-92779318D01*
X140198120Y-92824927D01*
X140202565Y-92833958D01*
X140217735Y-92872529D01*
X140231892Y-92923145D01*
X140239864Y-92962773D01*
X140255014Y-93024548D01*
X140281564Y-93098237D01*
X140309743Y-93161613D01*
X140336647Y-93219570D01*
X140352769Y-93261015D01*
X140359674Y-93290949D01*
X140358930Y-93314372D01*
X140358403Y-93316975D01*
X140344748Y-93353948D01*
X140323289Y-93387943D01*
X140299586Y-93411480D01*
X140283474Y-93417773D01*
X140263598Y-93424398D01*
X140260034Y-93428239D01*
X140258320Y-93448417D01*
X140264921Y-93479175D01*
X140276434Y-93509853D01*
X140289456Y-93529791D01*
X140293186Y-93532098D01*
X140310169Y-93532923D01*
X140347391Y-93531900D01*
X140400370Y-93529242D01*
X140464626Y-93525163D01*
X140513085Y-93521639D01*
X140595467Y-93515861D01*
X140682125Y-93510657D01*
X140764442Y-93506488D01*
X140833800Y-93503819D01*
X140854150Y-93503310D01*
X140915412Y-93502519D01*
X140959964Y-93503945D01*
X140995885Y-93508997D01*
X141031256Y-93519082D01*
X141074158Y-93535608D01*
X141099241Y-93546008D01*
X141147748Y-93565726D01*
X141188106Y-93581120D01*
X141214550Y-93590039D01*
X141221009Y-93591406D01*
X141223430Y-93582830D01*
X141212751Y-93561643D01*
X141208918Y-93556027D01*
X141180928Y-93529525D01*
X141134099Y-93504090D01*
X141090252Y-93486556D01*
X141046738Y-93469453D01*
X141014018Y-93454246D01*
X140997664Y-93443601D01*
X140996777Y-93441813D01*
X141006706Y-93430819D01*
X141032934Y-93411561D01*
X141070123Y-93387906D01*
X141076414Y-93384160D01*
X141118108Y-93357920D01*
X141145244Y-93334018D01*
X141160926Y-93306144D01*
X141168258Y-93267982D01*
X141170343Y-93213221D01*
X141170410Y-93192980D01*
X141171846Y-93154218D01*
X141175573Y-93127833D01*
X141179711Y-93120227D01*
X141192948Y-93127814D01*
X141219529Y-93147793D01*
X141254186Y-93176161D01*
X141261331Y-93182239D01*
X141298752Y-93212023D01*
X141331318Y-93233962D01*
X141352802Y-93243931D01*
X141354784Y-93244140D01*
X141376383Y-93240424D01*
X141413829Y-93230619D01*
X141459528Y-93216738D01*
X141465664Y-93214744D01*
X141509056Y-93201841D01*
X141542524Y-93194345D01*
X141559944Y-93193570D01*
X141560956Y-93194324D01*
X141559094Y-93209267D01*
X141549087Y-93240520D01*
X141532997Y-93281784D01*
X141530022Y-93288832D01*
X141512173Y-93333215D01*
X141499069Y-93370615D01*
X141493285Y-93393616D01*
X141493206Y-93394932D01*
X141500495Y-93414323D01*
X141519962Y-93445734D01*
X141547461Y-93482510D01*
X141548681Y-93484012D01*
X141576176Y-93518857D01*
X141596106Y-93546196D01*
X141604446Y-93560484D01*
X141604492Y-93560880D01*
X141593070Y-93563675D01*
X141562498Y-93564115D01*
X141518318Y-93562217D01*
X141494658Y-93560541D01*
X141384823Y-93551848D01*
X141345829Y-93615222D01*
X141325142Y-93649617D01*
X141311003Y-93674608D01*
X141306835Y-93683648D01*
X141317317Y-93690391D01*
X141343224Y-93700644D01*
X141350244Y-93703027D01*
X141383210Y-93720007D01*
X141393652Y-93739467D01*
X141391508Y-93749561D01*
X141382084Y-93755620D01*
X141360889Y-93758261D01*
X141323433Y-93758104D01*
X141272729Y-93756107D01*
X141199152Y-93751504D01*
X141142298Y-93743803D01*
X141094096Y-93730674D01*
X141046474Y-93709786D01*
X140991362Y-93678809D01*
X140978767Y-93671219D01*
X140944784Y-93651627D01*
X141151005Y-93651627D01*
X141151806Y-93653417D01*
X141167951Y-93660947D01*
X141199091Y-93664808D01*
X141211449Y-93664948D01*
X141241459Y-93663403D01*
X141248957Y-93659540D01*
X141238623Y-93653417D01*
X141210253Y-93645178D01*
X141180887Y-93642133D01*
X141158485Y-93644283D01*
X141151005Y-93651627D01*
X140944784Y-93651627D01*
X140933601Y-93645180D01*
X140892679Y-93623965D01*
X140863506Y-93611413D01*
X140859405Y-93610193D01*
X140825619Y-93608585D01*
X140768765Y-93614760D01*
X140689301Y-93628635D01*
X140587685Y-93650127D01*
X140464373Y-93679150D01*
X140407666Y-93693203D01*
X140209228Y-93743005D01*
X140142679Y-93720513D01*
X140104674Y-93708216D01*
X140082845Y-93704213D01*
X140069937Y-93708652D01*
X140058697Y-93721679D01*
X140058292Y-93722228D01*
X140042161Y-93747866D01*
X140020907Y-93786565D01*
X139997546Y-93832165D01*
X139975093Y-93878504D01*
X139956561Y-93919423D01*
X139944967Y-93948759D01*
X139942578Y-93958711D01*
X139942238Y-93965145D01*
X139943336Y-93969924D01*
X139949047Y-93973267D01*
X139962547Y-93975397D01*
X139987011Y-93976533D01*
X140025615Y-93976896D01*
X140081534Y-93976706D01*
X140157943Y-93976183D01*
X140190941Y-93975958D01*
X140312551Y-93976728D01*
X140412615Y-93981055D01*
X140494188Y-93989303D01*
X140560322Y-94001835D01*
X140614070Y-94019016D01*
X140636464Y-94029070D01*
X140690802Y-94064204D01*
X140725038Y-94106746D01*
X140739438Y-94158560D01*
X140734267Y-94221511D01*
X140709790Y-94297463D01*
X140682965Y-94356066D01*
X140653782Y-94417017D01*
X140620898Y-94489632D01*
X140589462Y-94562401D01*
X140575155Y-94597078D01*
X140522147Y-94728385D01*
X140567100Y-94993953D01*
X140591660Y-95141427D01*
X140611825Y-95268843D01*
X140628024Y-95380476D01*
X140640686Y-95480599D01*
X140650242Y-95573485D01*
X140657121Y-95663408D01*
X140661753Y-95754641D01*
X140664567Y-95851458D01*
X140665994Y-95958133D01*
X140666137Y-95978857D01*
X140666799Y-96076661D01*
X140667620Y-96152833D01*
X140668872Y-96210547D01*
X140670826Y-96252974D01*
X140673752Y-96283288D01*
X140677922Y-96304662D01*
X140683607Y-96320267D01*
X140691079Y-96333278D01*
X140697176Y-96342063D01*
X140715033Y-96371132D01*
X140717450Y-96390013D01*
X140711160Y-96400974D01*
X140683107Y-96416543D01*
X140642558Y-96415236D01*
X140594851Y-96397413D01*
X140585959Y-96392504D01*
X140549164Y-96363599D01*
X140521621Y-96322794D01*
X140500908Y-96265494D01*
X140487932Y-96206367D01*
X140462767Y-96113081D01*
X140420470Y-96022905D01*
X140358124Y-95929627D01*
X140357836Y-95929248D01*
X140323134Y-95879289D01*
X140306883Y-95841444D01*
X140309692Y-95810598D01*
X140332170Y-95781634D01*
X140374924Y-95749437D01*
X140379579Y-95746342D01*
X140425840Y-95711832D01*
X140451896Y-95679422D01*
X140460651Y-95642199D01*
X140455010Y-95593249D01*
X140451130Y-95576014D01*
X140433569Y-95526595D01*
X140404746Y-95469104D01*
X140369933Y-95412497D01*
X140334403Y-95365732D01*
X140316664Y-95347625D01*
X140290084Y-95324108D01*
X140248815Y-95415838D01*
X140227044Y-95465320D01*
X140199739Y-95528965D01*
X140170661Y-95597942D01*
X140147717Y-95653295D01*
X140122245Y-95712243D01*
X140099685Y-95758579D01*
X140081931Y-95788702D01*
X140071122Y-95799023D01*
X140051151Y-95788359D01*
X140026783Y-95760445D01*
X140001947Y-95721395D01*
X139980571Y-95677326D01*
X139967280Y-95637368D01*
X139960558Y-95605780D01*
X139959304Y-95580759D01*
X139964967Y-95554715D01*
X139979000Y-95520056D01*
X139997104Y-95481280D01*
X140021747Y-95427159D01*
X140035634Y-95387463D01*
X140039638Y-95354709D01*
X140034632Y-95321413D01*
X140021489Y-95280091D01*
X140020804Y-95278158D01*
X140008964Y-95241572D01*
X140006383Y-95218548D01*
X140012924Y-95199691D01*
X140019509Y-95188989D01*
X140043731Y-95166067D01*
X140079768Y-95146041D01*
X140090756Y-95141913D01*
X140133309Y-95120786D01*
X140172096Y-95090525D01*
X140177833Y-95084437D01*
X140206062Y-95038376D01*
X140226869Y-94977207D01*
X140237794Y-94910126D01*
X140237911Y-94860122D01*
X140230453Y-94827402D01*
X140212170Y-94804086D01*
X140179807Y-94788787D01*
X140130106Y-94780114D01*
X140059809Y-94776679D01*
X140041796Y-94776491D01*
X139943005Y-94781599D01*
X139861517Y-94799142D01*
X139792376Y-94830613D01*
X139743054Y-94866453D01*
X139709762Y-94899035D01*
X139696828Y-94925738D01*
X139702935Y-94952751D01*
X139719509Y-94977305D01*
X139736836Y-95003886D01*
X139734457Y-95016029D01*
X139711724Y-95015173D01*
X139703325Y-95013233D01*
X139662620Y-94995549D01*
X139629178Y-94967910D01*
X139609916Y-94936788D01*
X139607714Y-94923758D01*
X139602984Y-94898618D01*
X139588691Y-94896363D01*
X139572107Y-94909155D01*
X139557572Y-94916408D01*
X139541009Y-94905285D01*
X139532513Y-94895493D01*
X139516045Y-94878337D01*
X139498485Y-94872086D01*
X139470731Y-94874971D01*
X139449677Y-94879400D01*
X139406606Y-94888085D01*
X139351239Y-94898109D01*
X139297656Y-94906967D01*
X139211593Y-94925256D01*
X139147964Y-94950492D01*
X139105048Y-94983975D01*
X139081126Y-95027001D01*
X139074414Y-95075513D01*
X139071291Y-95109998D01*
X139063477Y-95133131D01*
X139060130Y-95136660D01*
X139042400Y-95136068D01*
X139026425Y-95116437D01*
X139015435Y-95083491D01*
X139012402Y-95052114D01*
X139016172Y-95004903D01*
X139029297Y-94963650D01*
X139054496Y-94924975D01*
X139094492Y-94885499D01*
X139152004Y-94841843D01*
X139215779Y-94799509D01*
X139258177Y-94770758D01*
X139279094Y-94752493D01*
X139278213Y-94745005D01*
X139275704Y-94744824D01*
X139239597Y-94749607D01*
X139216007Y-94761867D01*
X139210839Y-94772689D01*
X139201075Y-94790585D01*
X139179011Y-94808776D01*
X139155487Y-94818626D01*
X139152890Y-94818843D01*
X139139818Y-94808530D01*
X139126407Y-94782636D01*
X139124358Y-94776844D01*
X139115778Y-94754743D01*
X139103997Y-94740856D01*
X139082890Y-94731818D01*
X139046337Y-94724269D01*
X139021077Y-94720117D01*
X138846467Y-94684531D01*
X138660683Y-94632817D01*
X138469397Y-94567054D01*
X138278281Y-94489320D01*
X138093007Y-94401693D01*
X137966690Y-94333800D01*
X137731705Y-94189284D01*
X137598365Y-94093864D01*
X138797985Y-94093864D01*
X138798743Y-94109917D01*
X138805742Y-94125364D01*
X138822198Y-94143411D01*
X138851325Y-94167267D01*
X138896339Y-94200136D01*
X138924456Y-94220002D01*
X138974408Y-94254360D01*
X139017726Y-94282750D01*
X139050071Y-94302430D01*
X139067108Y-94310654D01*
X139067862Y-94310742D01*
X139077114Y-94299637D01*
X139091298Y-94269515D01*
X139108377Y-94225165D01*
X139123948Y-94178914D01*
X139160289Y-94073225D01*
X139197772Y-93980919D01*
X139234643Y-93906026D01*
X139261323Y-93863029D01*
X139284189Y-93838851D01*
X139320945Y-93808165D01*
X139364149Y-93777121D01*
X139369742Y-93773451D01*
X139423342Y-93736161D01*
X139475733Y-93695296D01*
X139523019Y-93654407D01*
X139561304Y-93617045D01*
X139586690Y-93586763D01*
X139595312Y-93567837D01*
X139585446Y-93538222D01*
X139555321Y-93521474D01*
X139512570Y-93516992D01*
X139445028Y-93527847D01*
X139369664Y-93559395D01*
X139289683Y-93610109D01*
X139248046Y-93642947D01*
X139196701Y-93684630D01*
X139139085Y-93729107D01*
X139087538Y-93766858D01*
X139086816Y-93767365D01*
X139020206Y-93818421D01*
X138956814Y-93874915D01*
X138899867Y-93933201D01*
X138852590Y-93989633D01*
X138818209Y-94040563D01*
X138799951Y-94082346D01*
X138797985Y-94093864D01*
X137598365Y-94093864D01*
X137510312Y-94030853D01*
X137303996Y-93860094D01*
X137114241Y-93678594D01*
X136942534Y-93487940D01*
X136790357Y-93289717D01*
X136659197Y-93085513D01*
X136550538Y-92876915D01*
X136505460Y-92772335D01*
X136422849Y-92538926D01*
X136360929Y-92300929D01*
X136319095Y-92055080D01*
X136296746Y-91798119D01*
X136292374Y-91619433D01*
X136303445Y-91335365D01*
X136337424Y-91060536D01*
X136394251Y-90795126D01*
X136473864Y-90539316D01*
X136576204Y-90293284D01*
X136701211Y-90057213D01*
X136848823Y-89831280D01*
X136926257Y-89728309D01*
X137044785Y-89590863D01*
X137183282Y-89453572D01*
X137337162Y-89320102D01*
X137501841Y-89194119D01*
X137672733Y-89079287D01*
X137845251Y-88979272D01*
X137896738Y-88952655D01*
X138162089Y-88831151D01*
X138425695Y-88733769D01*
X138687200Y-88660585D01*
X138946250Y-88611679D01*
X139202489Y-88587127D01*
X139455563Y-88587008D01*
X139539501Y-88592439D01*
G37*
X139539501Y-88592439D02*
X139828403Y-88628318D01*
X140113531Y-88688590D01*
X140394354Y-88773053D01*
X140670344Y-88881508D01*
X140940973Y-89013755D01*
X141205709Y-89169595D01*
X141379446Y-89287053D01*
X141438642Y-89330283D01*
X141499841Y-89376831D01*
X141559809Y-89424027D01*
X141615314Y-89469202D01*
X141663122Y-89509686D01*
X141699999Y-89542810D01*
X141722712Y-89565905D01*
X141728515Y-89575238D01*
X141727776Y-89580560D01*
X141723513Y-89583167D01*
X141712662Y-89582184D01*
X141692155Y-89576736D01*
X141658926Y-89565951D01*
X141609909Y-89548953D01*
X141542039Y-89524868D01*
X141503079Y-89510968D01*
X141210453Y-89417889D01*
X140918521Y-89347538D01*
X140628390Y-89299885D01*
X140341167Y-89274901D01*
X140057959Y-89272556D01*
X139779872Y-89292819D01*
X139508013Y-89335662D01*
X139243489Y-89401054D01*
X138987408Y-89488965D01*
X138770556Y-89584618D01*
X138601096Y-89673659D01*
X138450024Y-89766652D01*
X138310927Y-89868083D01*
X138177396Y-89982442D01*
X138108632Y-90047915D01*
X137949471Y-90220971D01*
X137812184Y-90405680D01*
X137696809Y-90601924D01*
X137603388Y-90809585D01*
X137531960Y-91028543D01*
X137482564Y-91258681D01*
X137455242Y-91499880D01*
X137450033Y-91752020D01*
X137462249Y-91966411D01*
X137493862Y-92193823D01*
X137547067Y-92423575D01*
X137620041Y-92649824D01*
X137710963Y-92866725D01*
X137791880Y-93023381D01*
X137933613Y-93249925D01*
X138099028Y-93469417D01*
X138287971Y-93681654D01*
X138351691Y-93746336D01*
X138420639Y-93812814D01*
X138477529Y-93862732D01*
X138526140Y-93898622D01*
X138570249Y-93923017D01*
X138613635Y-93938448D01*
X138649439Y-93945897D01*
X138694290Y-93947406D01*
X138730832Y-93934081D01*
X138763178Y-93902989D01*
X138795440Y-93851195D01*
X138803191Y-93836226D01*
X138828104Y-93790555D01*
X138861570Y-93734101D01*
X138897876Y-93676374D01*
X138912927Y-93653544D01*
X138949442Y-93598456D01*
X138973575Y-93559581D01*
X138987141Y-93532793D01*
X138991959Y-93513969D01*
X138989845Y-93498982D01*
X138985415Y-93488955D01*
X138976273Y-93478064D01*
X138959194Y-93471885D01*
X138928794Y-93469533D01*
X138879688Y-93470121D01*
X138872369Y-93470344D01*
X138814611Y-93470723D01*
X138772706Y-93466649D01*
X138737906Y-93456827D01*
X138715757Y-93447135D01*
X138671096Y-93430086D01*
X138636176Y-93428383D01*
X138626591Y-93430559D01*
X138604528Y-93432761D01*
X138572291Y-93428302D01*
X138525992Y-93416309D01*
X138461740Y-93395906D01*
X138440569Y-93388761D01*
X138383305Y-93368326D01*
X138335175Y-93349392D01*
X138300776Y-93333894D01*
X138284703Y-93323770D01*
X138284158Y-93322835D01*
X138292240Y-93311357D01*
X138318651Y-93297021D01*
X138345144Y-93287024D01*
X138436671Y-93255155D01*
X138534505Y-93217756D01*
X138635840Y-93176199D01*
X138737868Y-93131855D01*
X138837784Y-93086096D01*
X138932780Y-93040294D01*
X139020049Y-92995819D01*
X139096785Y-92954043D01*
X139160181Y-92916338D01*
X139207430Y-92884074D01*
X139235725Y-92858623D01*
X139241890Y-92848877D01*
X139240514Y-92826543D01*
X139228820Y-92801166D01*
X139217737Y-92779721D01*
X139215429Y-92756686D01*
X139221534Y-92722624D01*
X139225230Y-92707759D01*
X139233843Y-92669852D01*
X139234684Y-92649386D01*
X139227675Y-92640221D01*
X139224378Y-92638871D01*
X139205787Y-92627674D01*
X139177249Y-92605405D01*
X139159592Y-92590062D01*
X139115625Y-92534779D01*
X139091083Y-92468930D01*
X139087323Y-92415063D01*
X139088152Y-92378511D01*
X139081821Y-92358058D01*
X139064281Y-92345195D01*
X139051368Y-92339498D01*
X139013215Y-92315930D01*
X138972123Y-92278969D01*
X138936306Y-92237046D01*
X138913980Y-92198591D01*
X138913922Y-92198435D01*
X138902058Y-92139527D01*
X138903497Y-92065874D01*
X138917817Y-91983397D01*
X138933030Y-91930267D01*
X138965280Y-91832690D01*
X138912741Y-91766369D01*
X138855707Y-91681152D01*
X138822848Y-91598903D01*
X138814009Y-91517764D01*
X138829035Y-91435880D01*
X138867770Y-91351393D01*
X138876744Y-91336571D01*
X138909446Y-91282987D01*
X138930100Y-91243195D01*
X138940362Y-91210312D01*
X138941887Y-91177454D01*
X138936332Y-91137738D01*
X138930984Y-91111081D01*
X138921574Y-91060820D01*
X138918582Y-91023616D01*
X138922069Y-90988550D01*
X138931888Y-90945510D01*
X138958694Y-90867647D01*
X138998764Y-90784660D01*
X139046607Y-90707658D01*
X139055543Y-90695395D01*
X139080177Y-90657316D01*
X139109556Y-90604378D01*
X139139524Y-90544876D01*
X139165925Y-90487103D01*
X139184602Y-90439353D01*
X139186026Y-90435009D01*
X139227554Y-90335529D01*
X139288883Y-90232491D01*
X139341162Y-90162158D01*
X139374053Y-90120655D01*
X139401719Y-90084332D01*
X139419766Y-90059014D01*
X139423297Y-90053290D01*
X139436933Y-90035336D01*
X139445122Y-90039731D01*
X139447502Y-90064547D01*
X139443714Y-90107855D01*
X139439073Y-90137697D01*
X139423771Y-90240734D01*
X139415280Y-90338969D01*
X139413526Y-90439242D01*
X139418436Y-90548395D01*
X139429936Y-90673270D01*
X139433035Y-90700860D01*
X139441666Y-90773400D01*
X139449782Y-90837126D01*
X139456835Y-90888065D01*
X139462274Y-90922247D01*
X139465528Y-90935678D01*
X139474637Y-90937191D01*
X139484918Y-90922604D01*
X139497262Y-90889681D01*
X139512556Y-90836187D01*
X139525741Y-90784300D01*
X139543311Y-90719707D01*
X139563759Y-90654863D01*
X139584005Y-90599141D01*
X139595023Y-90573461D01*
X139617408Y-90528846D01*
X139647551Y-90472387D01*
X139682024Y-90410126D01*
X139717399Y-90348107D01*
X139750250Y-90292376D01*
X139777149Y-90248974D01*
X139789027Y-90231336D01*
X139804652Y-90211561D01*
X139813275Y-90211076D01*
X139820278Y-90225135D01*
X139822809Y-90244156D01*
X139824425Y-90284005D01*
X139825094Y-90340722D01*
X139824783Y-90410347D01*
X139823461Y-90488919D01*
X139822646Y-90521826D01*
X139821825Y-90573426D01*
X139821571Y-90643322D01*
X139821835Y-90728749D01*
X139822564Y-90826939D01*
X139823707Y-90935127D01*
X139825213Y-91050545D01*
X139827030Y-91170426D01*
X139829108Y-91292005D01*
X139831394Y-91412515D01*
X139833837Y-91529189D01*
X139836386Y-91639260D01*
X139838990Y-91739962D01*
X139841597Y-91828528D01*
X139844156Y-91902192D01*
X139846615Y-91958187D01*
X139848923Y-91993747D01*
X139850170Y-92003906D01*
X139852197Y-92025333D01*
X139853881Y-92063137D01*
X139854812Y-92106225D01*
X139856744Y-92148160D01*
X139860906Y-92178193D01*
X139866404Y-92189936D01*
X139866515Y-92189941D01*
X139878976Y-92180442D01*
X139898915Y-92156189D01*
X139911727Y-92137872D01*
X139957292Y-92076979D01*
X140010740Y-92017900D01*
X140065397Y-91967434D01*
X140112098Y-91933813D01*
X140168326Y-91908158D01*
X140229422Y-91895959D01*
X140300024Y-91897071D01*
X140384771Y-91911349D01*
X140435111Y-91923700D01*
X140512492Y-91947176D01*
X140571245Y-91973578D01*
X140617495Y-92007426D01*
X140657366Y-92053241D01*
X140696982Y-92115543D01*
X140698419Y-92118042D01*
X140727066Y-92178683D01*
X140735749Y-92228908D01*
X140724391Y-92273122D01*
X140695092Y-92313441D01*
X140669846Y-92348352D01*
X140642496Y-92398748D01*
X140616202Y-92457090D01*
X140594126Y-92515835D01*
X140579428Y-92567442D01*
X140575097Y-92599725D01*
X140566345Y-92633900D01*
X140540991Y-92657251D01*
X140511996Y-92678012D01*
X140475409Y-92707534D01*
X140454451Y-92725750D01*
X140409008Y-92758832D01*
X140364707Y-92771994D01*
X140315017Y-92765984D01*
X140265814Y-92747339D01*
X140230318Y-92733860D01*
X140202579Y-92727936D01*
X140194500Y-92728619D01*
X140180338Y-92746079D01*
X140181631Y-92779318D01*
X140198120Y-92824927D01*
X140202565Y-92833958D01*
X140217735Y-92872529D01*
X140231892Y-92923145D01*
X140239864Y-92962773D01*
X140255014Y-93024548D01*
X140281564Y-93098237D01*
X140309743Y-93161613D01*
X140336647Y-93219570D01*
X140352769Y-93261015D01*
X140359674Y-93290949D01*
X140358930Y-93314372D01*
X140358403Y-93316975D01*
X140344748Y-93353948D01*
X140323289Y-93387943D01*
X140299586Y-93411480D01*
X140283474Y-93417773D01*
X140263598Y-93424398D01*
X140260034Y-93428239D01*
X140258320Y-93448417D01*
X140264921Y-93479175D01*
X140276434Y-93509853D01*
X140289456Y-93529791D01*
X140293186Y-93532098D01*
X140310169Y-93532923D01*
X140347391Y-93531900D01*
X140400370Y-93529242D01*
X140464626Y-93525163D01*
X140513085Y-93521639D01*
X140595467Y-93515861D01*
X140682125Y-93510657D01*
X140764442Y-93506488D01*
X140833800Y-93503819D01*
X140854150Y-93503310D01*
X140915412Y-93502519D01*
X140959964Y-93503945D01*
X140995885Y-93508997D01*
X141031256Y-93519082D01*
X141074158Y-93535608D01*
X141099241Y-93546008D01*
X141147748Y-93565726D01*
X141188106Y-93581120D01*
X141214550Y-93590039D01*
X141221009Y-93591406D01*
X141223430Y-93582830D01*
X141212751Y-93561643D01*
X141208918Y-93556027D01*
X141180928Y-93529525D01*
X141134099Y-93504090D01*
X141090252Y-93486556D01*
X141046738Y-93469453D01*
X141014018Y-93454246D01*
X140997664Y-93443601D01*
X140996777Y-93441813D01*
X141006706Y-93430819D01*
X141032934Y-93411561D01*
X141070123Y-93387906D01*
X141076414Y-93384160D01*
X141118108Y-93357920D01*
X141145244Y-93334018D01*
X141160926Y-93306144D01*
X141168258Y-93267982D01*
X141170343Y-93213221D01*
X141170410Y-93192980D01*
X141171846Y-93154218D01*
X141175573Y-93127833D01*
X141179711Y-93120227D01*
X141192948Y-93127814D01*
X141219529Y-93147793D01*
X141254186Y-93176161D01*
X141261331Y-93182239D01*
X141298752Y-93212023D01*
X141331318Y-93233962D01*
X141352802Y-93243931D01*
X141354784Y-93244140D01*
X141376383Y-93240424D01*
X141413829Y-93230619D01*
X141459528Y-93216738D01*
X141465664Y-93214744D01*
X141509056Y-93201841D01*
X141542524Y-93194345D01*
X141559944Y-93193570D01*
X141560956Y-93194324D01*
X141559094Y-93209267D01*
X141549087Y-93240520D01*
X141532997Y-93281784D01*
X141530022Y-93288832D01*
X141512173Y-93333215D01*
X141499069Y-93370615D01*
X141493285Y-93393616D01*
X141493206Y-93394932D01*
X141500495Y-93414323D01*
X141519962Y-93445734D01*
X141547461Y-93482510D01*
X141548681Y-93484012D01*
X141576176Y-93518857D01*
X141596106Y-93546196D01*
X141604446Y-93560484D01*
X141604492Y-93560880D01*
X141593070Y-93563675D01*
X141562498Y-93564115D01*
X141518318Y-93562217D01*
X141494658Y-93560541D01*
X141384823Y-93551848D01*
X141345829Y-93615222D01*
X141325142Y-93649617D01*
X141311003Y-93674608D01*
X141306835Y-93683648D01*
X141317317Y-93690391D01*
X141343224Y-93700644D01*
X141350244Y-93703027D01*
X141383210Y-93720007D01*
X141393652Y-93739467D01*
X141391508Y-93749561D01*
X141382084Y-93755620D01*
X141360889Y-93758261D01*
X141323433Y-93758104D01*
X141272729Y-93756107D01*
X141199152Y-93751504D01*
X141142298Y-93743803D01*
X141094096Y-93730674D01*
X141046474Y-93709786D01*
X140991362Y-93678809D01*
X140978767Y-93671219D01*
X140944784Y-93651627D01*
X141151005Y-93651627D01*
X141151806Y-93653417D01*
X141167951Y-93660947D01*
X141199091Y-93664808D01*
X141211449Y-93664948D01*
X141241459Y-93663403D01*
X141248957Y-93659540D01*
X141238623Y-93653417D01*
X141210253Y-93645178D01*
X141180887Y-93642133D01*
X141158485Y-93644283D01*
X141151005Y-93651627D01*
X140944784Y-93651627D01*
X140933601Y-93645180D01*
X140892679Y-93623965D01*
X140863506Y-93611413D01*
X140859405Y-93610193D01*
X140825619Y-93608585D01*
X140768765Y-93614760D01*
X140689301Y-93628635D01*
X140587685Y-93650127D01*
X140464373Y-93679150D01*
X140407666Y-93693203D01*
X140209228Y-93743005D01*
X140142679Y-93720513D01*
X140104674Y-93708216D01*
X140082845Y-93704213D01*
X140069937Y-93708652D01*
X140058697Y-93721679D01*
X140058292Y-93722228D01*
X140042161Y-93747866D01*
X140020907Y-93786565D01*
X139997546Y-93832165D01*
X139975093Y-93878504D01*
X139956561Y-93919423D01*
X139944967Y-93948759D01*
X139942578Y-93958711D01*
X139942238Y-93965145D01*
X139943336Y-93969924D01*
X139949047Y-93973267D01*
X139962547Y-93975397D01*
X139987011Y-93976533D01*
X140025615Y-93976896D01*
X140081534Y-93976706D01*
X140157943Y-93976183D01*
X140190941Y-93975958D01*
X140312551Y-93976728D01*
X140412615Y-93981055D01*
X140494188Y-93989303D01*
X140560322Y-94001835D01*
X140614070Y-94019016D01*
X140636464Y-94029070D01*
X140690802Y-94064204D01*
X140725038Y-94106746D01*
X140739438Y-94158560D01*
X140734267Y-94221511D01*
X140709790Y-94297463D01*
X140682965Y-94356066D01*
X140653782Y-94417017D01*
X140620898Y-94489632D01*
X140589462Y-94562401D01*
X140575155Y-94597078D01*
X140522147Y-94728385D01*
X140567100Y-94993953D01*
X140591660Y-95141427D01*
X140611825Y-95268843D01*
X140628024Y-95380476D01*
X140640686Y-95480599D01*
X140650242Y-95573485D01*
X140657121Y-95663408D01*
X140661753Y-95754641D01*
X140664567Y-95851458D01*
X140665994Y-95958133D01*
X140666137Y-95978857D01*
X140666799Y-96076661D01*
X140667620Y-96152833D01*
X140668872Y-96210547D01*
X140670826Y-96252974D01*
X140673752Y-96283288D01*
X140677922Y-96304662D01*
X140683607Y-96320267D01*
X140691079Y-96333278D01*
X140697176Y-96342063D01*
X140715033Y-96371132D01*
X140717450Y-96390013D01*
X140711160Y-96400974D01*
X140683107Y-96416543D01*
X140642558Y-96415236D01*
X140594851Y-96397413D01*
X140585959Y-96392504D01*
X140549164Y-96363599D01*
X140521621Y-96322794D01*
X140500908Y-96265494D01*
X140487932Y-96206367D01*
X140462767Y-96113081D01*
X140420470Y-96022905D01*
X140358124Y-95929627D01*
X140357836Y-95929248D01*
X140323134Y-95879289D01*
X140306883Y-95841444D01*
X140309692Y-95810598D01*
X140332170Y-95781634D01*
X140374924Y-95749437D01*
X140379579Y-95746342D01*
X140425840Y-95711832D01*
X140451896Y-95679422D01*
X140460651Y-95642199D01*
X140455010Y-95593249D01*
X140451130Y-95576014D01*
X140433569Y-95526595D01*
X140404746Y-95469104D01*
X140369933Y-95412497D01*
X140334403Y-95365732D01*
X140316664Y-95347625D01*
X140290084Y-95324108D01*
X140248815Y-95415838D01*
X140227044Y-95465320D01*
X140199739Y-95528965D01*
X140170661Y-95597942D01*
X140147717Y-95653295D01*
X140122245Y-95712243D01*
X140099685Y-95758579D01*
X140081931Y-95788702D01*
X140071122Y-95799023D01*
X140051151Y-95788359D01*
X140026783Y-95760445D01*
X140001947Y-95721395D01*
X139980571Y-95677326D01*
X139967280Y-95637368D01*
X139960558Y-95605780D01*
X139959304Y-95580759D01*
X139964967Y-95554715D01*
X139979000Y-95520056D01*
X139997104Y-95481280D01*
X140021747Y-95427159D01*
X140035634Y-95387463D01*
X140039638Y-95354709D01*
X140034632Y-95321413D01*
X140021489Y-95280091D01*
X140020804Y-95278158D01*
X140008964Y-95241572D01*
X140006383Y-95218548D01*
X140012924Y-95199691D01*
X140019509Y-95188989D01*
X140043731Y-95166067D01*
X140079768Y-95146041D01*
X140090756Y-95141913D01*
X140133309Y-95120786D01*
X140172096Y-95090525D01*
X140177833Y-95084437D01*
X140206062Y-95038376D01*
X140226869Y-94977207D01*
X140237794Y-94910126D01*
X140237911Y-94860122D01*
X140230453Y-94827402D01*
X140212170Y-94804086D01*
X140179807Y-94788787D01*
X140130106Y-94780114D01*
X140059809Y-94776679D01*
X140041796Y-94776491D01*
X139943005Y-94781599D01*
X139861517Y-94799142D01*
X139792376Y-94830613D01*
X139743054Y-94866453D01*
X139709762Y-94899035D01*
X139696828Y-94925738D01*
X139702935Y-94952751D01*
X139719509Y-94977305D01*
X139736836Y-95003886D01*
X139734457Y-95016029D01*
X139711724Y-95015173D01*
X139703325Y-95013233D01*
X139662620Y-94995549D01*
X139629178Y-94967910D01*
X139609916Y-94936788D01*
X139607714Y-94923758D01*
X139602984Y-94898618D01*
X139588691Y-94896363D01*
X139572107Y-94909155D01*
X139557572Y-94916408D01*
X139541009Y-94905285D01*
X139532513Y-94895493D01*
X139516045Y-94878337D01*
X139498485Y-94872086D01*
X139470731Y-94874971D01*
X139449677Y-94879400D01*
X139406606Y-94888085D01*
X139351239Y-94898109D01*
X139297656Y-94906967D01*
X139211593Y-94925256D01*
X139147964Y-94950492D01*
X139105048Y-94983975D01*
X139081126Y-95027001D01*
X139074414Y-95075513D01*
X139071291Y-95109998D01*
X139063477Y-95133131D01*
X139060130Y-95136660D01*
X139042400Y-95136068D01*
X139026425Y-95116437D01*
X139015435Y-95083491D01*
X139012402Y-95052114D01*
X139016172Y-95004903D01*
X139029297Y-94963650D01*
X139054496Y-94924975D01*
X139094492Y-94885499D01*
X139152004Y-94841843D01*
X139215779Y-94799509D01*
X139258177Y-94770758D01*
X139279094Y-94752493D01*
X139278213Y-94745005D01*
X139275704Y-94744824D01*
X139239597Y-94749607D01*
X139216007Y-94761867D01*
X139210839Y-94772689D01*
X139201075Y-94790585D01*
X139179011Y-94808776D01*
X139155487Y-94818626D01*
X139152890Y-94818843D01*
X139139818Y-94808530D01*
X139126407Y-94782636D01*
X139124358Y-94776844D01*
X139115778Y-94754743D01*
X139103997Y-94740856D01*
X139082890Y-94731818D01*
X139046337Y-94724269D01*
X139021077Y-94720117D01*
X138846467Y-94684531D01*
X138660683Y-94632817D01*
X138469397Y-94567054D01*
X138278281Y-94489320D01*
X138093007Y-94401693D01*
X137966690Y-94333800D01*
X137731705Y-94189284D01*
X137598365Y-94093864D01*
X138797985Y-94093864D01*
X138798743Y-94109917D01*
X138805742Y-94125364D01*
X138822198Y-94143411D01*
X138851325Y-94167267D01*
X138896339Y-94200136D01*
X138924456Y-94220002D01*
X138974408Y-94254360D01*
X139017726Y-94282750D01*
X139050071Y-94302430D01*
X139067108Y-94310654D01*
X139067862Y-94310742D01*
X139077114Y-94299637D01*
X139091298Y-94269515D01*
X139108377Y-94225165D01*
X139123948Y-94178914D01*
X139160289Y-94073225D01*
X139197772Y-93980919D01*
X139234643Y-93906026D01*
X139261323Y-93863029D01*
X139284189Y-93838851D01*
X139320945Y-93808165D01*
X139364149Y-93777121D01*
X139369742Y-93773451D01*
X139423342Y-93736161D01*
X139475733Y-93695296D01*
X139523019Y-93654407D01*
X139561304Y-93617045D01*
X139586690Y-93586763D01*
X139595312Y-93567837D01*
X139585446Y-93538222D01*
X139555321Y-93521474D01*
X139512570Y-93516992D01*
X139445028Y-93527847D01*
X139369664Y-93559395D01*
X139289683Y-93610109D01*
X139248046Y-93642947D01*
X139196701Y-93684630D01*
X139139085Y-93729107D01*
X139087538Y-93766858D01*
X139086816Y-93767365D01*
X139020206Y-93818421D01*
X138956814Y-93874915D01*
X138899867Y-93933201D01*
X138852590Y-93989633D01*
X138818209Y-94040563D01*
X138799951Y-94082346D01*
X138797985Y-94093864D01*
X137598365Y-94093864D01*
X137510312Y-94030853D01*
X137303996Y-93860094D01*
X137114241Y-93678594D01*
X136942534Y-93487940D01*
X136790357Y-93289717D01*
X136659197Y-93085513D01*
X136550538Y-92876915D01*
X136505460Y-92772335D01*
X136422849Y-92538926D01*
X136360929Y-92300929D01*
X136319095Y-92055080D01*
X136296746Y-91798119D01*
X136292374Y-91619433D01*
X136303445Y-91335365D01*
X136337424Y-91060536D01*
X136394251Y-90795126D01*
X136473864Y-90539316D01*
X136576204Y-90293284D01*
X136701211Y-90057213D01*
X136848823Y-89831280D01*
X136926257Y-89728309D01*
X137044785Y-89590863D01*
X137183282Y-89453572D01*
X137337162Y-89320102D01*
X137501841Y-89194119D01*
X137672733Y-89079287D01*
X137845251Y-88979272D01*
X137896738Y-88952655D01*
X138162089Y-88831151D01*
X138425695Y-88733769D01*
X138687200Y-88660585D01*
X138946250Y-88611679D01*
X139202489Y-88587127D01*
X139455563Y-88587008D01*
X139539501Y-88592439D01*
D13*
%TO.C,SW5*%
X134750000Y-129250000D02*
X134750000Y-124750000D01*
X130750000Y-130500000D02*
X132250000Y-130500000D01*
X128250000Y-124750000D02*
X128250000Y-129250000D01*
X132250000Y-123500000D02*
X130750000Y-123500000D01*
%TO.C,SW13*%
X134750000Y-105250000D02*
X134750000Y-100750000D01*
X130750000Y-106500000D02*
X132250000Y-106500000D01*
X128250000Y-100750000D02*
X128250000Y-105250000D01*
X132250000Y-99500000D02*
X130750000Y-99500000D01*
%TO.C,SW16*%
X170750000Y-105250000D02*
X170750000Y-100750000D01*
X166750000Y-106500000D02*
X168250000Y-106500000D01*
X164250000Y-100750000D02*
X164250000Y-105250000D01*
X168250000Y-99500000D02*
X166750000Y-99500000D01*
%TO.C,J1*%
X164610000Y-47330000D02*
X164610000Y-44670000D01*
X146770000Y-47330000D02*
X164610000Y-47330000D01*
X146770000Y-44670000D02*
X164610000Y-44670000D01*
X146770000Y-47330000D02*
X146770000Y-44670000D01*
X145500000Y-47330000D02*
X144170000Y-47330000D01*
X144170000Y-47330000D02*
X144170000Y-46000000D01*
%TO.C,R5*%
X153622500Y-50912258D02*
X153622500Y-50437742D01*
X152577500Y-50912258D02*
X152577500Y-50437742D01*
D11*
%TO.C,U1*%
X163650000Y-85681200D02*
X163650000Y-90402400D01*
X163600000Y-56749801D02*
X163602000Y-56750001D01*
X163598000Y-56750001D02*
X163600000Y-56749801D01*
X144202000Y-56750001D02*
X163598000Y-56750001D01*
X144200001Y-56749801D02*
X144202000Y-56750001D01*
X144198001Y-56750001D02*
X144200001Y-56749801D01*
X144190000Y-56750701D02*
X144198001Y-56750001D01*
X144181001Y-56753601D02*
X144190000Y-56750701D01*
X144172001Y-56758201D02*
X144181001Y-56753601D01*
X144164001Y-56764501D02*
X144172001Y-56758201D01*
X144158001Y-56772101D02*
X144164001Y-56764501D01*
X144154001Y-56780801D02*
X144158001Y-56772101D01*
X144151001Y-56790201D02*
X144154001Y-56780801D01*
X144150001Y-56800001D02*
X144151001Y-56790201D01*
X144150001Y-56802501D02*
X144150001Y-56800001D01*
X144150001Y-70288800D02*
X144150001Y-56802501D01*
X144150001Y-90400000D02*
X144150001Y-90397600D01*
X144151001Y-90409800D02*
X144150001Y-90400000D01*
X144154001Y-90419200D02*
X144151001Y-90409800D01*
X144158001Y-90427900D02*
X144154001Y-90419200D01*
X144164001Y-90435500D02*
X144158001Y-90427900D01*
X144172001Y-90441800D02*
X144164001Y-90435500D01*
X144181001Y-90446400D02*
X144172001Y-90441800D01*
X144190000Y-90449300D02*
X144181001Y-90446400D01*
X144200001Y-90450200D02*
X144190000Y-90449300D01*
X144202000Y-90450000D02*
X144200001Y-90450200D01*
X146160400Y-90450000D02*
X144202000Y-90450000D01*
X163600000Y-90450200D02*
X163598000Y-90450000D01*
X163610000Y-90449300D02*
X163600000Y-90450200D01*
X163619000Y-90446400D02*
X163610000Y-90449300D01*
X163628000Y-90441800D02*
X163619000Y-90446400D01*
X163636000Y-90435500D02*
X163628000Y-90441800D01*
X163642000Y-90427900D02*
X163636000Y-90435500D01*
X163646000Y-90419200D02*
X163642000Y-90427900D01*
X163649000Y-90409800D02*
X163646000Y-90419200D01*
X163650000Y-90402400D02*
X163649000Y-90409800D01*
X163650000Y-90402400D02*
X163650000Y-90402400D01*
X163650000Y-90400000D02*
X163650000Y-90402400D01*
X163650000Y-90397600D02*
X163650000Y-90400000D01*
X163650000Y-56802401D02*
X163650000Y-70288800D01*
X163650000Y-56800001D02*
X163650000Y-56802401D01*
X163649000Y-56790201D02*
X163650000Y-56800001D01*
X163646000Y-56780801D02*
X163649000Y-56790201D01*
X163642000Y-56772101D02*
X163646000Y-56780801D01*
X163636000Y-56764501D02*
X163642000Y-56772101D01*
X163628000Y-56758201D02*
X163636000Y-56764501D01*
X163619000Y-56753601D02*
X163628000Y-56758201D01*
X163610000Y-56750701D02*
X163619000Y-56753601D01*
X163602000Y-56750001D02*
X163610000Y-56750701D01*
D13*
X161184800Y-84970000D02*
X161184800Y-85730000D01*
X161184800Y-84210000D02*
X161629000Y-84210000D01*
X164714800Y-85665000D02*
X164714800Y-70305000D01*
X161184800Y-70305000D02*
X162007270Y-70305000D01*
X161184800Y-84210000D02*
X161184800Y-70305000D01*
X163892330Y-85665000D02*
X164714800Y-85665000D01*
X163074800Y-85665000D02*
X163277270Y-85665000D01*
X161184800Y-85730000D02*
X162314800Y-85730000D01*
X163892330Y-70305000D02*
X164714800Y-70305000D01*
X162622330Y-70305000D02*
X163277270Y-70305000D01*
X146900000Y-87970000D02*
X146140000Y-87970000D01*
X147660000Y-87970000D02*
X147660000Y-88399000D01*
X146205000Y-91500000D02*
X161565000Y-91500000D01*
X161565000Y-87970000D02*
X161565000Y-88792470D01*
X147660000Y-87970000D02*
X161565000Y-87970000D01*
X146205000Y-90677530D02*
X146205000Y-91500000D01*
X146205000Y-89860000D02*
X146205000Y-90062470D01*
X146140000Y-87970000D02*
X146140000Y-89100000D01*
X161565000Y-90677530D02*
X161565000Y-91500000D01*
X161565000Y-89407530D02*
X161565000Y-90062470D01*
X146630000Y-85665000D02*
X145807530Y-85665000D01*
X146630000Y-71760000D02*
X146135000Y-71760000D01*
X144740000Y-70305000D02*
X144537530Y-70305000D01*
X146630000Y-71760000D02*
X146630000Y-85665000D01*
X143100000Y-70305000D02*
X143100000Y-85665000D01*
X146630000Y-71000000D02*
X146630000Y-70240000D01*
X145192470Y-85665000D02*
X144537530Y-85665000D01*
X143922470Y-85665000D02*
X143100000Y-85665000D01*
X143922470Y-70305000D02*
X143100000Y-70305000D01*
X146630000Y-70240000D02*
X145500000Y-70240000D01*
D11*
X144150001Y-90397600D02*
X144150001Y-85681200D01*
X163596001Y-90450200D02*
X161603600Y-90450200D01*
D13*
%TO.C,R16*%
X132737258Y-94522500D02*
X132262742Y-94522500D01*
X132737258Y-93477500D02*
X132262742Y-93477500D01*
%TO.C,R15*%
X132737258Y-92522500D02*
X132262742Y-92522500D01*
X132737258Y-91477500D02*
X132262742Y-91477500D01*
%TO.C,R14*%
X132737258Y-90522500D02*
X132262742Y-90522500D01*
X132737258Y-89477500D02*
X132262742Y-89477500D01*
%TO.C,R13*%
X132737258Y-88522500D02*
X132262742Y-88522500D01*
X132737258Y-87477500D02*
X132262742Y-87477500D01*
%TO.C,R9*%
X132737258Y-80522500D02*
X132262742Y-80522500D01*
X132737258Y-79477500D02*
X132262742Y-79477500D01*
%TO.C,R10*%
X132737258Y-82522500D02*
X132262742Y-82522500D01*
X132737258Y-81477500D02*
X132262742Y-81477500D01*
%TO.C,R11*%
X132737258Y-84522500D02*
X132262742Y-84522500D01*
X132737258Y-83477500D02*
X132262742Y-83477500D01*
%TO.C,R12*%
X132737258Y-86522500D02*
X132262742Y-86522500D01*
X132737258Y-85477500D02*
X132262742Y-85477500D01*
%TO.C,R8*%
X162262742Y-52477500D02*
X162737258Y-52477500D01*
X162262742Y-53522500D02*
X162737258Y-53522500D01*
%TO.C,U2*%
X133590000Y-65910000D02*
X134850000Y-65910000D01*
X140410000Y-65910000D02*
X139150000Y-65910000D01*
X133590000Y-62150000D02*
X133590000Y-65910000D01*
X140410000Y-59900000D02*
X140410000Y-65910000D01*
%TO.C,TVS1*%
X139500000Y-57300000D02*
X139500000Y-58100000D01*
X134500000Y-57300000D02*
X134500000Y-58100000D01*
X139500000Y-53850000D02*
X139500000Y-54700000D01*
X134500000Y-53850000D02*
X134500000Y-54700000D01*
X134500000Y-58100000D02*
X139500000Y-58100000D01*
X134500000Y-53850000D02*
X139500000Y-53850000D01*
D14*
X134250000Y-54250000D02*
G75*
G03*
X134250000Y-54250000I-250000J0D01*
G01*
D13*
%TO.C,SW4*%
X170750000Y-141250000D02*
X170750000Y-136750000D01*
X166750000Y-142500000D02*
X168250000Y-142500000D01*
X164250000Y-136750000D02*
X164250000Y-141250000D01*
X168250000Y-135500000D02*
X166750000Y-135500000D01*
%TO.C,SW3*%
X158750000Y-141250000D02*
X158750000Y-136750000D01*
X154750000Y-142500000D02*
X156250000Y-142500000D01*
X152250000Y-136750000D02*
X152250000Y-141250000D01*
X156250000Y-135500000D02*
X154750000Y-135500000D01*
%TO.C,SW2*%
X146750000Y-141250000D02*
X146750000Y-136750000D01*
X142750000Y-142500000D02*
X144250000Y-142500000D01*
X140250000Y-136750000D02*
X140250000Y-141250000D01*
X144250000Y-135500000D02*
X142750000Y-135500000D01*
%TO.C,SW1*%
X134750000Y-141250000D02*
X134750000Y-136750000D01*
X130750000Y-142500000D02*
X132250000Y-142500000D01*
X128250000Y-136750000D02*
X128250000Y-141250000D01*
X132250000Y-135500000D02*
X130750000Y-135500000D01*
%TO.C,SW8*%
X170750000Y-129250000D02*
X170750000Y-124750000D01*
X166750000Y-130500000D02*
X168250000Y-130500000D01*
X164250000Y-124750000D02*
X164250000Y-129250000D01*
X168250000Y-123500000D02*
X166750000Y-123500000D01*
%TO.C,SW7*%
X158750000Y-129250000D02*
X158750000Y-124750000D01*
X154750000Y-130500000D02*
X156250000Y-130500000D01*
X152250000Y-124750000D02*
X152250000Y-129250000D01*
X156250000Y-123500000D02*
X154750000Y-123500000D01*
%TO.C,SW6*%
X146750000Y-129250000D02*
X146750000Y-124750000D01*
X142750000Y-130500000D02*
X144250000Y-130500000D01*
X140250000Y-124750000D02*
X140250000Y-129250000D01*
X144250000Y-123500000D02*
X142750000Y-123500000D01*
%TO.C,SW12*%
X170750000Y-117250000D02*
X170750000Y-112750000D01*
X166750000Y-118500000D02*
X168250000Y-118500000D01*
X164250000Y-112750000D02*
X164250000Y-117250000D01*
X168250000Y-111500000D02*
X166750000Y-111500000D01*
%TO.C,SW11*%
X158750000Y-117250000D02*
X158750000Y-112750000D01*
X154750000Y-118500000D02*
X156250000Y-118500000D01*
X152250000Y-112750000D02*
X152250000Y-117250000D01*
X156250000Y-111500000D02*
X154750000Y-111500000D01*
%TO.C,SW10*%
X146750000Y-117250000D02*
X146750000Y-112750000D01*
X142750000Y-118500000D02*
X144250000Y-118500000D01*
X140250000Y-112750000D02*
X140250000Y-117250000D01*
X144250000Y-111500000D02*
X142750000Y-111500000D01*
%TO.C,SW9*%
X134750000Y-117250000D02*
X134750000Y-112750000D01*
X130750000Y-118500000D02*
X132250000Y-118500000D01*
X128250000Y-112750000D02*
X128250000Y-117250000D01*
X132250000Y-111500000D02*
X130750000Y-111500000D01*
%TO.C,SW15*%
X158750000Y-105250000D02*
X158750000Y-100750000D01*
X154750000Y-106500000D02*
X156250000Y-106500000D01*
X152250000Y-100750000D02*
X152250000Y-105250000D01*
X156250000Y-99500000D02*
X154750000Y-99500000D01*
%TO.C,SW14*%
X146750000Y-105250000D02*
X146750000Y-100750000D01*
X142750000Y-106500000D02*
X144250000Y-106500000D01*
X140250000Y-100750000D02*
X140250000Y-105250000D01*
X144250000Y-99500000D02*
X142750000Y-99500000D01*
%TO.C,R7*%
X158262742Y-51522500D02*
X158737258Y-51522500D01*
X158262742Y-50477500D02*
X158737258Y-50477500D01*
%TO.C,R6*%
X158262742Y-49522500D02*
X158737258Y-49522500D01*
X158262742Y-48477500D02*
X158737258Y-48477500D01*
%TO.C,R4*%
X132737258Y-73477500D02*
X132262742Y-73477500D01*
X132737258Y-74522500D02*
X132262742Y-74522500D01*
%TO.C,R2*%
X125762742Y-74522500D02*
X126237258Y-74522500D01*
X125762742Y-73477500D02*
X126237258Y-73477500D01*
%TO.C,R3*%
X132262742Y-72522500D02*
X132737258Y-72522500D01*
X132262742Y-71477500D02*
X132737258Y-71477500D01*
%TO.C,R1*%
X125762742Y-72522500D02*
X126237258Y-72522500D01*
X125762742Y-71477500D02*
X126237258Y-71477500D01*
%TO.C,J2*%
X167130000Y-52670000D02*
X169730000Y-52670000D01*
X167130000Y-52670000D02*
X167130000Y-93430000D01*
X167130000Y-93430000D02*
X172330000Y-93430000D01*
X172330000Y-55270000D02*
X172330000Y-93430000D01*
X169730000Y-55270000D02*
X172330000Y-55270000D01*
X169730000Y-52670000D02*
X169730000Y-55270000D01*
X172330000Y-52670000D02*
X172330000Y-54000000D01*
X171000000Y-52670000D02*
X172330000Y-52670000D01*
%TO.C,D18*%
X161700000Y-51735000D02*
X163985000Y-51735000D01*
X163985000Y-51735000D02*
X163985000Y-50265000D01*
X163985000Y-50265000D02*
X161700000Y-50265000D01*
%TO.C,D17*%
X161700000Y-49735000D02*
X163985000Y-49735000D01*
X163985000Y-49735000D02*
X163985000Y-48265000D01*
X163985000Y-48265000D02*
X161700000Y-48265000D01*
D11*
%TO.C,D4*%
X160097920Y-137559820D02*
X160557660Y-137559820D01*
X160557660Y-137559820D02*
X160557660Y-137636020D01*
X160557660Y-137636020D02*
X160097920Y-137636020D01*
X160097920Y-137636020D02*
X160097920Y-137559820D01*
X162899540Y-137559820D02*
X162434720Y-137559820D01*
X162434720Y-137559820D02*
X162434720Y-137636020D01*
X162434720Y-137636020D02*
X162899540Y-137636020D01*
X162899540Y-137636020D02*
X162899540Y-137559820D01*
X160100000Y-141250000D02*
X160100000Y-140850000D01*
X160100000Y-141250000D02*
X160500000Y-141250000D01*
X160100000Y-136750000D02*
X160100000Y-137150000D01*
X160100000Y-136750000D02*
X160500000Y-136750000D01*
X162900000Y-136750000D02*
X162500000Y-136750000D01*
X162900000Y-136750000D02*
X162900000Y-137150000D01*
X162900000Y-141250000D02*
X162900000Y-140850000D01*
X162900000Y-141250000D02*
X162500000Y-141250000D01*
%TO.C,D3*%
X148097920Y-137559820D02*
X148557660Y-137559820D01*
X148557660Y-137559820D02*
X148557660Y-137636020D01*
X148557660Y-137636020D02*
X148097920Y-137636020D01*
X148097920Y-137636020D02*
X148097920Y-137559820D01*
X150899540Y-137559820D02*
X150434720Y-137559820D01*
X150434720Y-137559820D02*
X150434720Y-137636020D01*
X150434720Y-137636020D02*
X150899540Y-137636020D01*
X150899540Y-137636020D02*
X150899540Y-137559820D01*
X148100000Y-141250000D02*
X148100000Y-140850000D01*
X148100000Y-141250000D02*
X148500000Y-141250000D01*
X148100000Y-136750000D02*
X148100000Y-137150000D01*
X148100000Y-136750000D02*
X148500000Y-136750000D01*
X150900000Y-136750000D02*
X150500000Y-136750000D01*
X150900000Y-136750000D02*
X150900000Y-137150000D01*
X150900000Y-141250000D02*
X150900000Y-140850000D01*
X150900000Y-141250000D02*
X150500000Y-141250000D01*
%TO.C,D2*%
X136097920Y-137559820D02*
X136557660Y-137559820D01*
X136557660Y-137559820D02*
X136557660Y-137636020D01*
X136557660Y-137636020D02*
X136097920Y-137636020D01*
X136097920Y-137636020D02*
X136097920Y-137559820D01*
X138899540Y-137559820D02*
X138434720Y-137559820D01*
X138434720Y-137559820D02*
X138434720Y-137636020D01*
X138434720Y-137636020D02*
X138899540Y-137636020D01*
X138899540Y-137636020D02*
X138899540Y-137559820D01*
X136100000Y-141250000D02*
X136100000Y-140850000D01*
X136100000Y-141250000D02*
X136500000Y-141250000D01*
X136100000Y-136750000D02*
X136100000Y-137150000D01*
X136100000Y-136750000D02*
X136500000Y-136750000D01*
X138900000Y-136750000D02*
X138500000Y-136750000D01*
X138900000Y-136750000D02*
X138900000Y-137150000D01*
X138900000Y-141250000D02*
X138900000Y-140850000D01*
X138900000Y-141250000D02*
X138500000Y-141250000D01*
%TO.C,D1*%
X124097920Y-137559820D02*
X124557660Y-137559820D01*
X124557660Y-137559820D02*
X124557660Y-137636020D01*
X124557660Y-137636020D02*
X124097920Y-137636020D01*
X124097920Y-137636020D02*
X124097920Y-137559820D01*
X126899540Y-137559820D02*
X126434720Y-137559820D01*
X126434720Y-137559820D02*
X126434720Y-137636020D01*
X126434720Y-137636020D02*
X126899540Y-137636020D01*
X126899540Y-137636020D02*
X126899540Y-137559820D01*
X124100000Y-141250000D02*
X124100000Y-140850000D01*
X124100000Y-141250000D02*
X124500000Y-141250000D01*
X124100000Y-136750000D02*
X124100000Y-137150000D01*
X124100000Y-136750000D02*
X124500000Y-136750000D01*
X126900000Y-136750000D02*
X126500000Y-136750000D01*
X126900000Y-136750000D02*
X126900000Y-137150000D01*
X126900000Y-141250000D02*
X126900000Y-140850000D01*
X126900000Y-141250000D02*
X126500000Y-141250000D01*
%TO.C,D8*%
X160097920Y-125559820D02*
X160557660Y-125559820D01*
X160557660Y-125559820D02*
X160557660Y-125636020D01*
X160557660Y-125636020D02*
X160097920Y-125636020D01*
X160097920Y-125636020D02*
X160097920Y-125559820D01*
X162899540Y-125559820D02*
X162434720Y-125559820D01*
X162434720Y-125559820D02*
X162434720Y-125636020D01*
X162434720Y-125636020D02*
X162899540Y-125636020D01*
X162899540Y-125636020D02*
X162899540Y-125559820D01*
X160100000Y-129250000D02*
X160100000Y-128850000D01*
X160100000Y-129250000D02*
X160500000Y-129250000D01*
X160100000Y-124750000D02*
X160100000Y-125150000D01*
X160100000Y-124750000D02*
X160500000Y-124750000D01*
X162900000Y-124750000D02*
X162500000Y-124750000D01*
X162900000Y-124750000D02*
X162900000Y-125150000D01*
X162900000Y-129250000D02*
X162900000Y-128850000D01*
X162900000Y-129250000D02*
X162500000Y-129250000D01*
%TO.C,D7*%
X148097920Y-125559820D02*
X148557660Y-125559820D01*
X148557660Y-125559820D02*
X148557660Y-125636020D01*
X148557660Y-125636020D02*
X148097920Y-125636020D01*
X148097920Y-125636020D02*
X148097920Y-125559820D01*
X150899540Y-125559820D02*
X150434720Y-125559820D01*
X150434720Y-125559820D02*
X150434720Y-125636020D01*
X150434720Y-125636020D02*
X150899540Y-125636020D01*
X150899540Y-125636020D02*
X150899540Y-125559820D01*
X148100000Y-129250000D02*
X148100000Y-128850000D01*
X148100000Y-129250000D02*
X148500000Y-129250000D01*
X148100000Y-124750000D02*
X148100000Y-125150000D01*
X148100000Y-124750000D02*
X148500000Y-124750000D01*
X150900000Y-124750000D02*
X150500000Y-124750000D01*
X150900000Y-124750000D02*
X150900000Y-125150000D01*
X150900000Y-129250000D02*
X150900000Y-128850000D01*
X150900000Y-129250000D02*
X150500000Y-129250000D01*
%TO.C,D6*%
X136097920Y-125559820D02*
X136557660Y-125559820D01*
X136557660Y-125559820D02*
X136557660Y-125636020D01*
X136557660Y-125636020D02*
X136097920Y-125636020D01*
X136097920Y-125636020D02*
X136097920Y-125559820D01*
X138899540Y-125559820D02*
X138434720Y-125559820D01*
X138434720Y-125559820D02*
X138434720Y-125636020D01*
X138434720Y-125636020D02*
X138899540Y-125636020D01*
X138899540Y-125636020D02*
X138899540Y-125559820D01*
X136100000Y-129250000D02*
X136100000Y-128850000D01*
X136100000Y-129250000D02*
X136500000Y-129250000D01*
X136100000Y-124750000D02*
X136100000Y-125150000D01*
X136100000Y-124750000D02*
X136500000Y-124750000D01*
X138900000Y-124750000D02*
X138500000Y-124750000D01*
X138900000Y-124750000D02*
X138900000Y-125150000D01*
X138900000Y-129250000D02*
X138900000Y-128850000D01*
X138900000Y-129250000D02*
X138500000Y-129250000D01*
%TO.C,D5*%
X124097920Y-125559820D02*
X124557660Y-125559820D01*
X124557660Y-125559820D02*
X124557660Y-125636020D01*
X124557660Y-125636020D02*
X124097920Y-125636020D01*
X124097920Y-125636020D02*
X124097920Y-125559820D01*
X126899540Y-125559820D02*
X126434720Y-125559820D01*
X126434720Y-125559820D02*
X126434720Y-125636020D01*
X126434720Y-125636020D02*
X126899540Y-125636020D01*
X126899540Y-125636020D02*
X126899540Y-125559820D01*
X124100000Y-129250000D02*
X124100000Y-128850000D01*
X124100000Y-129250000D02*
X124500000Y-129250000D01*
X124100000Y-124750000D02*
X124100000Y-125150000D01*
X124100000Y-124750000D02*
X124500000Y-124750000D01*
X126900000Y-124750000D02*
X126500000Y-124750000D01*
X126900000Y-124750000D02*
X126900000Y-125150000D01*
X126900000Y-129250000D02*
X126900000Y-128850000D01*
X126900000Y-129250000D02*
X126500000Y-129250000D01*
%TO.C,D12*%
X160097920Y-113559820D02*
X160557660Y-113559820D01*
X160557660Y-113559820D02*
X160557660Y-113636020D01*
X160557660Y-113636020D02*
X160097920Y-113636020D01*
X160097920Y-113636020D02*
X160097920Y-113559820D01*
X162899540Y-113559820D02*
X162434720Y-113559820D01*
X162434720Y-113559820D02*
X162434720Y-113636020D01*
X162434720Y-113636020D02*
X162899540Y-113636020D01*
X162899540Y-113636020D02*
X162899540Y-113559820D01*
X160100000Y-117250000D02*
X160100000Y-116850000D01*
X160100000Y-117250000D02*
X160500000Y-117250000D01*
X160100000Y-112750000D02*
X160100000Y-113150000D01*
X160100000Y-112750000D02*
X160500000Y-112750000D01*
X162900000Y-112750000D02*
X162500000Y-112750000D01*
X162900000Y-112750000D02*
X162900000Y-113150000D01*
X162900000Y-117250000D02*
X162900000Y-116850000D01*
X162900000Y-117250000D02*
X162500000Y-117250000D01*
%TO.C,D11*%
X148097920Y-113559820D02*
X148557660Y-113559820D01*
X148557660Y-113559820D02*
X148557660Y-113636020D01*
X148557660Y-113636020D02*
X148097920Y-113636020D01*
X148097920Y-113636020D02*
X148097920Y-113559820D01*
X150899540Y-113559820D02*
X150434720Y-113559820D01*
X150434720Y-113559820D02*
X150434720Y-113636020D01*
X150434720Y-113636020D02*
X150899540Y-113636020D01*
X150899540Y-113636020D02*
X150899540Y-113559820D01*
X148100000Y-117250000D02*
X148100000Y-116850000D01*
X148100000Y-117250000D02*
X148500000Y-117250000D01*
X148100000Y-112750000D02*
X148100000Y-113150000D01*
X148100000Y-112750000D02*
X148500000Y-112750000D01*
X150900000Y-112750000D02*
X150500000Y-112750000D01*
X150900000Y-112750000D02*
X150900000Y-113150000D01*
X150900000Y-117250000D02*
X150900000Y-116850000D01*
X150900000Y-117250000D02*
X150500000Y-117250000D01*
%TO.C,D10*%
X136097920Y-113559820D02*
X136557660Y-113559820D01*
X136557660Y-113559820D02*
X136557660Y-113636020D01*
X136557660Y-113636020D02*
X136097920Y-113636020D01*
X136097920Y-113636020D02*
X136097920Y-113559820D01*
X138899540Y-113559820D02*
X138434720Y-113559820D01*
X138434720Y-113559820D02*
X138434720Y-113636020D01*
X138434720Y-113636020D02*
X138899540Y-113636020D01*
X138899540Y-113636020D02*
X138899540Y-113559820D01*
X136100000Y-117250000D02*
X136100000Y-116850000D01*
X136100000Y-117250000D02*
X136500000Y-117250000D01*
X136100000Y-112750000D02*
X136100000Y-113150000D01*
X136100000Y-112750000D02*
X136500000Y-112750000D01*
X138900000Y-112750000D02*
X138500000Y-112750000D01*
X138900000Y-112750000D02*
X138900000Y-113150000D01*
X138900000Y-117250000D02*
X138900000Y-116850000D01*
X138900000Y-117250000D02*
X138500000Y-117250000D01*
%TO.C,D9*%
X124097920Y-113559820D02*
X124557660Y-113559820D01*
X124557660Y-113559820D02*
X124557660Y-113636020D01*
X124557660Y-113636020D02*
X124097920Y-113636020D01*
X124097920Y-113636020D02*
X124097920Y-113559820D01*
X126899540Y-113559820D02*
X126434720Y-113559820D01*
X126434720Y-113559820D02*
X126434720Y-113636020D01*
X126434720Y-113636020D02*
X126899540Y-113636020D01*
X126899540Y-113636020D02*
X126899540Y-113559820D01*
X124100000Y-117250000D02*
X124100000Y-116850000D01*
X124100000Y-117250000D02*
X124500000Y-117250000D01*
X124100000Y-112750000D02*
X124100000Y-113150000D01*
X124100000Y-112750000D02*
X124500000Y-112750000D01*
X126900000Y-112750000D02*
X126500000Y-112750000D01*
X126900000Y-112750000D02*
X126900000Y-113150000D01*
X126900000Y-117250000D02*
X126900000Y-116850000D01*
X126900000Y-117250000D02*
X126500000Y-117250000D01*
%TO.C,D16*%
X160097920Y-101559820D02*
X160557660Y-101559820D01*
X160557660Y-101559820D02*
X160557660Y-101636020D01*
X160557660Y-101636020D02*
X160097920Y-101636020D01*
X160097920Y-101636020D02*
X160097920Y-101559820D01*
X162899540Y-101559820D02*
X162434720Y-101559820D01*
X162434720Y-101559820D02*
X162434720Y-101636020D01*
X162434720Y-101636020D02*
X162899540Y-101636020D01*
X162899540Y-101636020D02*
X162899540Y-101559820D01*
X160100000Y-105250000D02*
X160100000Y-104850000D01*
X160100000Y-105250000D02*
X160500000Y-105250000D01*
X160100000Y-100750000D02*
X160100000Y-101150000D01*
X160100000Y-100750000D02*
X160500000Y-100750000D01*
X162900000Y-100750000D02*
X162500000Y-100750000D01*
X162900000Y-100750000D02*
X162900000Y-101150000D01*
X162900000Y-105250000D02*
X162900000Y-104850000D01*
X162900000Y-105250000D02*
X162500000Y-105250000D01*
%TO.C,D15*%
X148097920Y-101559820D02*
X148557660Y-101559820D01*
X148557660Y-101559820D02*
X148557660Y-101636020D01*
X148557660Y-101636020D02*
X148097920Y-101636020D01*
X148097920Y-101636020D02*
X148097920Y-101559820D01*
X150899540Y-101559820D02*
X150434720Y-101559820D01*
X150434720Y-101559820D02*
X150434720Y-101636020D01*
X150434720Y-101636020D02*
X150899540Y-101636020D01*
X150899540Y-101636020D02*
X150899540Y-101559820D01*
X148100000Y-105250000D02*
X148100000Y-104850000D01*
X148100000Y-105250000D02*
X148500000Y-105250000D01*
X148100000Y-100750000D02*
X148100000Y-101150000D01*
X148100000Y-100750000D02*
X148500000Y-100750000D01*
X150900000Y-100750000D02*
X150500000Y-100750000D01*
X150900000Y-100750000D02*
X150900000Y-101150000D01*
X150900000Y-105250000D02*
X150900000Y-104850000D01*
X150900000Y-105250000D02*
X150500000Y-105250000D01*
%TO.C,D14*%
X136097920Y-101559820D02*
X136557660Y-101559820D01*
X136557660Y-101559820D02*
X136557660Y-101636020D01*
X136557660Y-101636020D02*
X136097920Y-101636020D01*
X136097920Y-101636020D02*
X136097920Y-101559820D01*
X138899540Y-101559820D02*
X138434720Y-101559820D01*
X138434720Y-101559820D02*
X138434720Y-101636020D01*
X138434720Y-101636020D02*
X138899540Y-101636020D01*
X138899540Y-101636020D02*
X138899540Y-101559820D01*
X136100000Y-105250000D02*
X136100000Y-104850000D01*
X136100000Y-105250000D02*
X136500000Y-105250000D01*
X136100000Y-100750000D02*
X136100000Y-101150000D01*
X136100000Y-100750000D02*
X136500000Y-100750000D01*
X138900000Y-100750000D02*
X138500000Y-100750000D01*
X138900000Y-100750000D02*
X138900000Y-101150000D01*
X138900000Y-105250000D02*
X138900000Y-104850000D01*
X138900000Y-105250000D02*
X138500000Y-105250000D01*
%TO.C,D13*%
X124097920Y-101559820D02*
X124557660Y-101559820D01*
X124557660Y-101559820D02*
X124557660Y-101636020D01*
X124557660Y-101636020D02*
X124097920Y-101636020D01*
X124097920Y-101636020D02*
X124097920Y-101559820D01*
X126899540Y-101559820D02*
X126434720Y-101559820D01*
X126434720Y-101559820D02*
X126434720Y-101636020D01*
X126434720Y-101636020D02*
X126899540Y-101636020D01*
X126899540Y-101636020D02*
X126899540Y-101559820D01*
X124100000Y-105250000D02*
X124100000Y-104850000D01*
X124100000Y-105250000D02*
X124500000Y-105250000D01*
X124100000Y-100750000D02*
X124100000Y-101150000D01*
X124100000Y-100750000D02*
X124500000Y-100750000D01*
X126900000Y-100750000D02*
X126500000Y-100750000D01*
X126900000Y-100750000D02*
X126900000Y-101150000D01*
X126900000Y-105250000D02*
X126900000Y-104850000D01*
X126900000Y-105250000D02*
X126500000Y-105250000D01*
D13*
%TO.C,C4*%
X132359420Y-76510000D02*
X132640580Y-76510000D01*
X132359420Y-75490000D02*
X132640580Y-75490000D01*
%TO.C,C3*%
X124590000Y-60090000D02*
X124590000Y-62440000D01*
X124590000Y-66910000D02*
X124590000Y-64560000D01*
X130345563Y-66910000D02*
X124590000Y-66910000D01*
X130345563Y-60090000D02*
X124590000Y-60090000D01*
X131410000Y-61154437D02*
X131410000Y-62440000D01*
X131410000Y-65845563D02*
X131410000Y-64560000D01*
X131410000Y-65845563D02*
X130345563Y-66910000D01*
X131410000Y-61154437D02*
X130345563Y-60090000D01*
%TO.C,C2*%
X126140580Y-75490000D02*
X125859420Y-75490000D01*
X126140580Y-76510000D02*
X125859420Y-76510000D01*
%TO.C,C1*%
X124590000Y-52590000D02*
X124590000Y-54940000D01*
X124590000Y-59410000D02*
X124590000Y-57060000D01*
X130345563Y-59410000D02*
X124590000Y-59410000D01*
X130345563Y-52590000D02*
X124590000Y-52590000D01*
X131410000Y-53654437D02*
X131410000Y-54940000D01*
X131410000Y-58345563D02*
X131410000Y-57060000D01*
X131410000Y-58345563D02*
X130345563Y-59410000D01*
X131410000Y-53654437D02*
X130345563Y-52590000D01*
%TO.C,SW5*%
D10*
X130166666Y-132904761D02*
X130309523Y-132952380D01*
X130547619Y-132952380D01*
X130642857Y-132904761D01*
X130690476Y-132857142D01*
X130738095Y-132761904D01*
X130738095Y-132666666D01*
X130690476Y-132571428D01*
X130642857Y-132523809D01*
X130547619Y-132476190D01*
X130357142Y-132428571D01*
X130261904Y-132380952D01*
X130214285Y-132333333D01*
X130166666Y-132238095D01*
X130166666Y-132142857D01*
X130214285Y-132047619D01*
X130261904Y-132000000D01*
X130357142Y-131952380D01*
X130595238Y-131952380D01*
X130738095Y-132000000D01*
X131071428Y-131952380D02*
X131309523Y-132952380D01*
X131500000Y-132238095D01*
X131690476Y-132952380D01*
X131928571Y-131952380D01*
X132785714Y-131952380D02*
X132309523Y-131952380D01*
X132261904Y-132428571D01*
X132309523Y-132380952D01*
X132404761Y-132333333D01*
X132642857Y-132333333D01*
X132738095Y-132380952D01*
X132785714Y-132428571D01*
X132833333Y-132523809D01*
X132833333Y-132761904D01*
X132785714Y-132857142D01*
X132738095Y-132904761D01*
X132642857Y-132952380D01*
X132404761Y-132952380D01*
X132309523Y-132904761D01*
X132261904Y-132857142D01*
%TO.C,SW13*%
X129690476Y-108904761D02*
X129833333Y-108952380D01*
X130071428Y-108952380D01*
X130166666Y-108904761D01*
X130214285Y-108857142D01*
X130261904Y-108761904D01*
X130261904Y-108666666D01*
X130214285Y-108571428D01*
X130166666Y-108523809D01*
X130071428Y-108476190D01*
X129880952Y-108428571D01*
X129785714Y-108380952D01*
X129738095Y-108333333D01*
X129690476Y-108238095D01*
X129690476Y-108142857D01*
X129738095Y-108047619D01*
X129785714Y-108000000D01*
X129880952Y-107952380D01*
X130119047Y-107952380D01*
X130261904Y-108000000D01*
X130595238Y-107952380D02*
X130833333Y-108952380D01*
X131023809Y-108238095D01*
X131214285Y-108952380D01*
X131452380Y-107952380D01*
X132357142Y-108952380D02*
X131785714Y-108952380D01*
X132071428Y-108952380D02*
X132071428Y-107952380D01*
X131976190Y-108095238D01*
X131880952Y-108190476D01*
X131785714Y-108238095D01*
X132690476Y-107952380D02*
X133309523Y-107952380D01*
X132976190Y-108333333D01*
X133119047Y-108333333D01*
X133214285Y-108380952D01*
X133261904Y-108428571D01*
X133309523Y-108523809D01*
X133309523Y-108761904D01*
X133261904Y-108857142D01*
X133214285Y-108904761D01*
X133119047Y-108952380D01*
X132833333Y-108952380D01*
X132738095Y-108904761D01*
X132690476Y-108857142D01*
%TO.C,SW16*%
X165690476Y-108404761D02*
X165833333Y-108452380D01*
X166071428Y-108452380D01*
X166166666Y-108404761D01*
X166214285Y-108357142D01*
X166261904Y-108261904D01*
X166261904Y-108166666D01*
X166214285Y-108071428D01*
X166166666Y-108023809D01*
X166071428Y-107976190D01*
X165880952Y-107928571D01*
X165785714Y-107880952D01*
X165738095Y-107833333D01*
X165690476Y-107738095D01*
X165690476Y-107642857D01*
X165738095Y-107547619D01*
X165785714Y-107500000D01*
X165880952Y-107452380D01*
X166119047Y-107452380D01*
X166261904Y-107500000D01*
X166595238Y-107452380D02*
X166833333Y-108452380D01*
X167023809Y-107738095D01*
X167214285Y-108452380D01*
X167452380Y-107452380D01*
X168357142Y-108452380D02*
X167785714Y-108452380D01*
X168071428Y-108452380D02*
X168071428Y-107452380D01*
X167976190Y-107595238D01*
X167880952Y-107690476D01*
X167785714Y-107738095D01*
X169214285Y-107452380D02*
X169023809Y-107452380D01*
X168928571Y-107500000D01*
X168880952Y-107547619D01*
X168785714Y-107690476D01*
X168738095Y-107880952D01*
X168738095Y-108261904D01*
X168785714Y-108357142D01*
X168833333Y-108404761D01*
X168928571Y-108452380D01*
X169119047Y-108452380D01*
X169214285Y-108404761D01*
X169261904Y-108357142D01*
X169309523Y-108261904D01*
X169309523Y-108023809D01*
X169261904Y-107928571D01*
X169214285Y-107880952D01*
X169119047Y-107833333D01*
X168928571Y-107833333D01*
X168833333Y-107880952D01*
X168785714Y-107928571D01*
X168738095Y-108023809D01*
%TO.C,J1*%
X142836666Y-45452380D02*
X142836666Y-46166666D01*
X142789047Y-46309523D01*
X142693809Y-46404761D01*
X142550952Y-46452380D01*
X142455714Y-46452380D01*
X143836666Y-46452380D02*
X143265238Y-46452380D01*
X143550952Y-46452380D02*
X143550952Y-45452380D01*
X143455714Y-45595238D01*
X143360476Y-45690476D01*
X143265238Y-45738095D01*
%TO.C,R5*%
X151952380Y-50741666D02*
X151476190Y-51075000D01*
X151952380Y-51313095D02*
X150952380Y-51313095D01*
X150952380Y-50932142D01*
X151000000Y-50836904D01*
X151047619Y-50789285D01*
X151142857Y-50741666D01*
X151285714Y-50741666D01*
X151380952Y-50789285D01*
X151428571Y-50836904D01*
X151476190Y-50932142D01*
X151476190Y-51313095D01*
X150952380Y-49836904D02*
X150952380Y-50313095D01*
X151428571Y-50360714D01*
X151380952Y-50313095D01*
X151333333Y-50217857D01*
X151333333Y-49979761D01*
X151380952Y-49884523D01*
X151428571Y-49836904D01*
X151523809Y-49789285D01*
X151761904Y-49789285D01*
X151857142Y-49836904D01*
X151904761Y-49884523D01*
X151952380Y-49979761D01*
X151952380Y-50217857D01*
X151904761Y-50313095D01*
X151857142Y-50360714D01*
%TO.C,U1*%
X144230095Y-55466380D02*
X144230095Y-56275904D01*
X144277714Y-56371142D01*
X144325333Y-56418761D01*
X144420571Y-56466380D01*
X144611047Y-56466380D01*
X144706285Y-56418761D01*
X144753904Y-56371142D01*
X144801523Y-56275904D01*
X144801523Y-55466380D01*
X145801523Y-56466380D02*
X145230095Y-56466380D01*
X145515809Y-56466380D02*
X145515809Y-55466380D01*
X145420571Y-55609238D01*
X145325333Y-55704476D01*
X145230095Y-55752095D01*
%TO.C,R16*%
X128857142Y-94452380D02*
X128523809Y-93976190D01*
X128285714Y-94452380D02*
X128285714Y-93452380D01*
X128666666Y-93452380D01*
X128761904Y-93500000D01*
X128809523Y-93547619D01*
X128857142Y-93642857D01*
X128857142Y-93785714D01*
X128809523Y-93880952D01*
X128761904Y-93928571D01*
X128666666Y-93976190D01*
X128285714Y-93976190D01*
X129809523Y-94452380D02*
X129238095Y-94452380D01*
X129523809Y-94452380D02*
X129523809Y-93452380D01*
X129428571Y-93595238D01*
X129333333Y-93690476D01*
X129238095Y-93738095D01*
X130666666Y-93452380D02*
X130476190Y-93452380D01*
X130380952Y-93500000D01*
X130333333Y-93547619D01*
X130238095Y-93690476D01*
X130190476Y-93880952D01*
X130190476Y-94261904D01*
X130238095Y-94357142D01*
X130285714Y-94404761D01*
X130380952Y-94452380D01*
X130571428Y-94452380D01*
X130666666Y-94404761D01*
X130714285Y-94357142D01*
X130761904Y-94261904D01*
X130761904Y-94023809D01*
X130714285Y-93928571D01*
X130666666Y-93880952D01*
X130571428Y-93833333D01*
X130380952Y-93833333D01*
X130285714Y-93880952D01*
X130238095Y-93928571D01*
X130190476Y-94023809D01*
%TO.C,R15*%
X128857142Y-92452380D02*
X128523809Y-91976190D01*
X128285714Y-92452380D02*
X128285714Y-91452380D01*
X128666666Y-91452380D01*
X128761904Y-91500000D01*
X128809523Y-91547619D01*
X128857142Y-91642857D01*
X128857142Y-91785714D01*
X128809523Y-91880952D01*
X128761904Y-91928571D01*
X128666666Y-91976190D01*
X128285714Y-91976190D01*
X129809523Y-92452380D02*
X129238095Y-92452380D01*
X129523809Y-92452380D02*
X129523809Y-91452380D01*
X129428571Y-91595238D01*
X129333333Y-91690476D01*
X129238095Y-91738095D01*
X130714285Y-91452380D02*
X130238095Y-91452380D01*
X130190476Y-91928571D01*
X130238095Y-91880952D01*
X130333333Y-91833333D01*
X130571428Y-91833333D01*
X130666666Y-91880952D01*
X130714285Y-91928571D01*
X130761904Y-92023809D01*
X130761904Y-92261904D01*
X130714285Y-92357142D01*
X130666666Y-92404761D01*
X130571428Y-92452380D01*
X130333333Y-92452380D01*
X130238095Y-92404761D01*
X130190476Y-92357142D01*
%TO.C,R14*%
X128857142Y-90452380D02*
X128523809Y-89976190D01*
X128285714Y-90452380D02*
X128285714Y-89452380D01*
X128666666Y-89452380D01*
X128761904Y-89500000D01*
X128809523Y-89547619D01*
X128857142Y-89642857D01*
X128857142Y-89785714D01*
X128809523Y-89880952D01*
X128761904Y-89928571D01*
X128666666Y-89976190D01*
X128285714Y-89976190D01*
X129809523Y-90452380D02*
X129238095Y-90452380D01*
X129523809Y-90452380D02*
X129523809Y-89452380D01*
X129428571Y-89595238D01*
X129333333Y-89690476D01*
X129238095Y-89738095D01*
X130666666Y-89785714D02*
X130666666Y-90452380D01*
X130428571Y-89404761D02*
X130190476Y-90119047D01*
X130809523Y-90119047D01*
%TO.C,R13*%
X128857142Y-88452380D02*
X128523809Y-87976190D01*
X128285714Y-88452380D02*
X128285714Y-87452380D01*
X128666666Y-87452380D01*
X128761904Y-87500000D01*
X128809523Y-87547619D01*
X128857142Y-87642857D01*
X128857142Y-87785714D01*
X128809523Y-87880952D01*
X128761904Y-87928571D01*
X128666666Y-87976190D01*
X128285714Y-87976190D01*
X129809523Y-88452380D02*
X129238095Y-88452380D01*
X129523809Y-88452380D02*
X129523809Y-87452380D01*
X129428571Y-87595238D01*
X129333333Y-87690476D01*
X129238095Y-87738095D01*
X130142857Y-87452380D02*
X130761904Y-87452380D01*
X130428571Y-87833333D01*
X130571428Y-87833333D01*
X130666666Y-87880952D01*
X130714285Y-87928571D01*
X130761904Y-88023809D01*
X130761904Y-88261904D01*
X130714285Y-88357142D01*
X130666666Y-88404761D01*
X130571428Y-88452380D01*
X130285714Y-88452380D01*
X130190476Y-88404761D01*
X130142857Y-88357142D01*
%TO.C,R9*%
X128833333Y-80452380D02*
X128500000Y-79976190D01*
X128261904Y-80452380D02*
X128261904Y-79452380D01*
X128642857Y-79452380D01*
X128738095Y-79500000D01*
X128785714Y-79547619D01*
X128833333Y-79642857D01*
X128833333Y-79785714D01*
X128785714Y-79880952D01*
X128738095Y-79928571D01*
X128642857Y-79976190D01*
X128261904Y-79976190D01*
X129309523Y-80452380D02*
X129500000Y-80452380D01*
X129595238Y-80404761D01*
X129642857Y-80357142D01*
X129738095Y-80214285D01*
X129785714Y-80023809D01*
X129785714Y-79642857D01*
X129738095Y-79547619D01*
X129690476Y-79500000D01*
X129595238Y-79452380D01*
X129404761Y-79452380D01*
X129309523Y-79500000D01*
X129261904Y-79547619D01*
X129214285Y-79642857D01*
X129214285Y-79880952D01*
X129261904Y-79976190D01*
X129309523Y-80023809D01*
X129404761Y-80071428D01*
X129595238Y-80071428D01*
X129690476Y-80023809D01*
X129738095Y-79976190D01*
X129785714Y-79880952D01*
%TO.C,R10*%
X128857142Y-82452380D02*
X128523809Y-81976190D01*
X128285714Y-82452380D02*
X128285714Y-81452380D01*
X128666666Y-81452380D01*
X128761904Y-81500000D01*
X128809523Y-81547619D01*
X128857142Y-81642857D01*
X128857142Y-81785714D01*
X128809523Y-81880952D01*
X128761904Y-81928571D01*
X128666666Y-81976190D01*
X128285714Y-81976190D01*
X129809523Y-82452380D02*
X129238095Y-82452380D01*
X129523809Y-82452380D02*
X129523809Y-81452380D01*
X129428571Y-81595238D01*
X129333333Y-81690476D01*
X129238095Y-81738095D01*
X130428571Y-81452380D02*
X130523809Y-81452380D01*
X130619047Y-81500000D01*
X130666666Y-81547619D01*
X130714285Y-81642857D01*
X130761904Y-81833333D01*
X130761904Y-82071428D01*
X130714285Y-82261904D01*
X130666666Y-82357142D01*
X130619047Y-82404761D01*
X130523809Y-82452380D01*
X130428571Y-82452380D01*
X130333333Y-82404761D01*
X130285714Y-82357142D01*
X130238095Y-82261904D01*
X130190476Y-82071428D01*
X130190476Y-81833333D01*
X130238095Y-81642857D01*
X130285714Y-81547619D01*
X130333333Y-81500000D01*
X130428571Y-81452380D01*
%TO.C,R11*%
X128857142Y-84452380D02*
X128523809Y-83976190D01*
X128285714Y-84452380D02*
X128285714Y-83452380D01*
X128666666Y-83452380D01*
X128761904Y-83500000D01*
X128809523Y-83547619D01*
X128857142Y-83642857D01*
X128857142Y-83785714D01*
X128809523Y-83880952D01*
X128761904Y-83928571D01*
X128666666Y-83976190D01*
X128285714Y-83976190D01*
X129809523Y-84452380D02*
X129238095Y-84452380D01*
X129523809Y-84452380D02*
X129523809Y-83452380D01*
X129428571Y-83595238D01*
X129333333Y-83690476D01*
X129238095Y-83738095D01*
X130761904Y-84452380D02*
X130190476Y-84452380D01*
X130476190Y-84452380D02*
X130476190Y-83452380D01*
X130380952Y-83595238D01*
X130285714Y-83690476D01*
X130190476Y-83738095D01*
%TO.C,R12*%
X128857142Y-86452380D02*
X128523809Y-85976190D01*
X128285714Y-86452380D02*
X128285714Y-85452380D01*
X128666666Y-85452380D01*
X128761904Y-85500000D01*
X128809523Y-85547619D01*
X128857142Y-85642857D01*
X128857142Y-85785714D01*
X128809523Y-85880952D01*
X128761904Y-85928571D01*
X128666666Y-85976190D01*
X128285714Y-85976190D01*
X129809523Y-86452380D02*
X129238095Y-86452380D01*
X129523809Y-86452380D02*
X129523809Y-85452380D01*
X129428571Y-85595238D01*
X129333333Y-85690476D01*
X129238095Y-85738095D01*
X130190476Y-85547619D02*
X130238095Y-85500000D01*
X130333333Y-85452380D01*
X130571428Y-85452380D01*
X130666666Y-85500000D01*
X130714285Y-85547619D01*
X130761904Y-85642857D01*
X130761904Y-85738095D01*
X130714285Y-85880952D01*
X130142857Y-86452380D01*
X130761904Y-86452380D01*
%TO.C,R8*%
X164933333Y-53452380D02*
X164600000Y-52976190D01*
X164361904Y-53452380D02*
X164361904Y-52452380D01*
X164742857Y-52452380D01*
X164838095Y-52500000D01*
X164885714Y-52547619D01*
X164933333Y-52642857D01*
X164933333Y-52785714D01*
X164885714Y-52880952D01*
X164838095Y-52928571D01*
X164742857Y-52976190D01*
X164361904Y-52976190D01*
X165504761Y-52880952D02*
X165409523Y-52833333D01*
X165361904Y-52785714D01*
X165314285Y-52690476D01*
X165314285Y-52642857D01*
X165361904Y-52547619D01*
X165409523Y-52500000D01*
X165504761Y-52452380D01*
X165695238Y-52452380D01*
X165790476Y-52500000D01*
X165838095Y-52547619D01*
X165885714Y-52642857D01*
X165885714Y-52690476D01*
X165838095Y-52785714D01*
X165790476Y-52833333D01*
X165695238Y-52880952D01*
X165504761Y-52880952D01*
X165409523Y-52928571D01*
X165361904Y-52976190D01*
X165314285Y-53071428D01*
X165314285Y-53261904D01*
X165361904Y-53357142D01*
X165409523Y-53404761D01*
X165504761Y-53452380D01*
X165695238Y-53452380D01*
X165790476Y-53404761D01*
X165838095Y-53357142D01*
X165885714Y-53261904D01*
X165885714Y-53071428D01*
X165838095Y-52976190D01*
X165790476Y-52928571D01*
X165695238Y-52880952D01*
%TO.C,U2*%
X139738095Y-66452380D02*
X139738095Y-67261904D01*
X139785714Y-67357142D01*
X139833333Y-67404761D01*
X139928571Y-67452380D01*
X140119047Y-67452380D01*
X140214285Y-67404761D01*
X140261904Y-67357142D01*
X140309523Y-67261904D01*
X140309523Y-66452380D01*
X140738095Y-66547619D02*
X140785714Y-66500000D01*
X140880952Y-66452380D01*
X141119047Y-66452380D01*
X141214285Y-66500000D01*
X141261904Y-66547619D01*
X141309523Y-66642857D01*
X141309523Y-66738095D01*
X141261904Y-66880952D01*
X140690476Y-67452380D01*
X141309523Y-67452380D01*
%TO.C,TVS1*%
X135333333Y-52452380D02*
X135904761Y-52452380D01*
X135619047Y-53452380D02*
X135619047Y-52452380D01*
X136095238Y-52452380D02*
X136428571Y-53452380D01*
X136761904Y-52452380D01*
X137047619Y-53404761D02*
X137190476Y-53452380D01*
X137428571Y-53452380D01*
X137523809Y-53404761D01*
X137571428Y-53357142D01*
X137619047Y-53261904D01*
X137619047Y-53166666D01*
X137571428Y-53071428D01*
X137523809Y-53023809D01*
X137428571Y-52976190D01*
X137238095Y-52928571D01*
X137142857Y-52880952D01*
X137095238Y-52833333D01*
X137047619Y-52738095D01*
X137047619Y-52642857D01*
X137095238Y-52547619D01*
X137142857Y-52500000D01*
X137238095Y-52452380D01*
X137476190Y-52452380D01*
X137619047Y-52500000D01*
X138571428Y-53452380D02*
X138000000Y-53452380D01*
X138285714Y-53452380D02*
X138285714Y-52452380D01*
X138190476Y-52595238D01*
X138095238Y-52690476D01*
X138000000Y-52738095D01*
%TO.C,SW4*%
X166166666Y-144904761D02*
X166309523Y-144952380D01*
X166547619Y-144952380D01*
X166642857Y-144904761D01*
X166690476Y-144857142D01*
X166738095Y-144761904D01*
X166738095Y-144666666D01*
X166690476Y-144571428D01*
X166642857Y-144523809D01*
X166547619Y-144476190D01*
X166357142Y-144428571D01*
X166261904Y-144380952D01*
X166214285Y-144333333D01*
X166166666Y-144238095D01*
X166166666Y-144142857D01*
X166214285Y-144047619D01*
X166261904Y-144000000D01*
X166357142Y-143952380D01*
X166595238Y-143952380D01*
X166738095Y-144000000D01*
X167071428Y-143952380D02*
X167309523Y-144952380D01*
X167500000Y-144238095D01*
X167690476Y-144952380D01*
X167928571Y-143952380D01*
X168738095Y-144285714D02*
X168738095Y-144952380D01*
X168500000Y-143904761D02*
X168261904Y-144619047D01*
X168880952Y-144619047D01*
%TO.C,SW3*%
X154166666Y-144904761D02*
X154309523Y-144952380D01*
X154547619Y-144952380D01*
X154642857Y-144904761D01*
X154690476Y-144857142D01*
X154738095Y-144761904D01*
X154738095Y-144666666D01*
X154690476Y-144571428D01*
X154642857Y-144523809D01*
X154547619Y-144476190D01*
X154357142Y-144428571D01*
X154261904Y-144380952D01*
X154214285Y-144333333D01*
X154166666Y-144238095D01*
X154166666Y-144142857D01*
X154214285Y-144047619D01*
X154261904Y-144000000D01*
X154357142Y-143952380D01*
X154595238Y-143952380D01*
X154738095Y-144000000D01*
X155071428Y-143952380D02*
X155309523Y-144952380D01*
X155500000Y-144238095D01*
X155690476Y-144952380D01*
X155928571Y-143952380D01*
X156214285Y-143952380D02*
X156833333Y-143952380D01*
X156500000Y-144333333D01*
X156642857Y-144333333D01*
X156738095Y-144380952D01*
X156785714Y-144428571D01*
X156833333Y-144523809D01*
X156833333Y-144761904D01*
X156785714Y-144857142D01*
X156738095Y-144904761D01*
X156642857Y-144952380D01*
X156357142Y-144952380D01*
X156261904Y-144904761D01*
X156214285Y-144857142D01*
%TO.C,SW2*%
X142166666Y-144904761D02*
X142309523Y-144952380D01*
X142547619Y-144952380D01*
X142642857Y-144904761D01*
X142690476Y-144857142D01*
X142738095Y-144761904D01*
X142738095Y-144666666D01*
X142690476Y-144571428D01*
X142642857Y-144523809D01*
X142547619Y-144476190D01*
X142357142Y-144428571D01*
X142261904Y-144380952D01*
X142214285Y-144333333D01*
X142166666Y-144238095D01*
X142166666Y-144142857D01*
X142214285Y-144047619D01*
X142261904Y-144000000D01*
X142357142Y-143952380D01*
X142595238Y-143952380D01*
X142738095Y-144000000D01*
X143071428Y-143952380D02*
X143309523Y-144952380D01*
X143500000Y-144238095D01*
X143690476Y-144952380D01*
X143928571Y-143952380D01*
X144261904Y-144047619D02*
X144309523Y-144000000D01*
X144404761Y-143952380D01*
X144642857Y-143952380D01*
X144738095Y-144000000D01*
X144785714Y-144047619D01*
X144833333Y-144142857D01*
X144833333Y-144238095D01*
X144785714Y-144380952D01*
X144214285Y-144952380D01*
X144833333Y-144952380D01*
%TO.C,SW1*%
X130166666Y-144904761D02*
X130309523Y-144952380D01*
X130547619Y-144952380D01*
X130642857Y-144904761D01*
X130690476Y-144857142D01*
X130738095Y-144761904D01*
X130738095Y-144666666D01*
X130690476Y-144571428D01*
X130642857Y-144523809D01*
X130547619Y-144476190D01*
X130357142Y-144428571D01*
X130261904Y-144380952D01*
X130214285Y-144333333D01*
X130166666Y-144238095D01*
X130166666Y-144142857D01*
X130214285Y-144047619D01*
X130261904Y-144000000D01*
X130357142Y-143952380D01*
X130595238Y-143952380D01*
X130738095Y-144000000D01*
X131071428Y-143952380D02*
X131309523Y-144952380D01*
X131500000Y-144238095D01*
X131690476Y-144952380D01*
X131928571Y-143952380D01*
X132833333Y-144952380D02*
X132261904Y-144952380D01*
X132547619Y-144952380D02*
X132547619Y-143952380D01*
X132452380Y-144095238D01*
X132357142Y-144190476D01*
X132261904Y-144238095D01*
%TO.C,SW8*%
X166166666Y-132904761D02*
X166309523Y-132952380D01*
X166547619Y-132952380D01*
X166642857Y-132904761D01*
X166690476Y-132857142D01*
X166738095Y-132761904D01*
X166738095Y-132666666D01*
X166690476Y-132571428D01*
X166642857Y-132523809D01*
X166547619Y-132476190D01*
X166357142Y-132428571D01*
X166261904Y-132380952D01*
X166214285Y-132333333D01*
X166166666Y-132238095D01*
X166166666Y-132142857D01*
X166214285Y-132047619D01*
X166261904Y-132000000D01*
X166357142Y-131952380D01*
X166595238Y-131952380D01*
X166738095Y-132000000D01*
X167071428Y-131952380D02*
X167309523Y-132952380D01*
X167500000Y-132238095D01*
X167690476Y-132952380D01*
X167928571Y-131952380D01*
X168452380Y-132380952D02*
X168357142Y-132333333D01*
X168309523Y-132285714D01*
X168261904Y-132190476D01*
X168261904Y-132142857D01*
X168309523Y-132047619D01*
X168357142Y-132000000D01*
X168452380Y-131952380D01*
X168642857Y-131952380D01*
X168738095Y-132000000D01*
X168785714Y-132047619D01*
X168833333Y-132142857D01*
X168833333Y-132190476D01*
X168785714Y-132285714D01*
X168738095Y-132333333D01*
X168642857Y-132380952D01*
X168452380Y-132380952D01*
X168357142Y-132428571D01*
X168309523Y-132476190D01*
X168261904Y-132571428D01*
X168261904Y-132761904D01*
X168309523Y-132857142D01*
X168357142Y-132904761D01*
X168452380Y-132952380D01*
X168642857Y-132952380D01*
X168738095Y-132904761D01*
X168785714Y-132857142D01*
X168833333Y-132761904D01*
X168833333Y-132571428D01*
X168785714Y-132476190D01*
X168738095Y-132428571D01*
X168642857Y-132380952D01*
%TO.C,SW7*%
X154166666Y-132904761D02*
X154309523Y-132952380D01*
X154547619Y-132952380D01*
X154642857Y-132904761D01*
X154690476Y-132857142D01*
X154738095Y-132761904D01*
X154738095Y-132666666D01*
X154690476Y-132571428D01*
X154642857Y-132523809D01*
X154547619Y-132476190D01*
X154357142Y-132428571D01*
X154261904Y-132380952D01*
X154214285Y-132333333D01*
X154166666Y-132238095D01*
X154166666Y-132142857D01*
X154214285Y-132047619D01*
X154261904Y-132000000D01*
X154357142Y-131952380D01*
X154595238Y-131952380D01*
X154738095Y-132000000D01*
X155071428Y-131952380D02*
X155309523Y-132952380D01*
X155500000Y-132238095D01*
X155690476Y-132952380D01*
X155928571Y-131952380D01*
X156214285Y-131952380D02*
X156880952Y-131952380D01*
X156452380Y-132952380D01*
%TO.C,SW6*%
X142166666Y-132904761D02*
X142309523Y-132952380D01*
X142547619Y-132952380D01*
X142642857Y-132904761D01*
X142690476Y-132857142D01*
X142738095Y-132761904D01*
X142738095Y-132666666D01*
X142690476Y-132571428D01*
X142642857Y-132523809D01*
X142547619Y-132476190D01*
X142357142Y-132428571D01*
X142261904Y-132380952D01*
X142214285Y-132333333D01*
X142166666Y-132238095D01*
X142166666Y-132142857D01*
X142214285Y-132047619D01*
X142261904Y-132000000D01*
X142357142Y-131952380D01*
X142595238Y-131952380D01*
X142738095Y-132000000D01*
X143071428Y-131952380D02*
X143309523Y-132952380D01*
X143500000Y-132238095D01*
X143690476Y-132952380D01*
X143928571Y-131952380D01*
X144738095Y-131952380D02*
X144547619Y-131952380D01*
X144452380Y-132000000D01*
X144404761Y-132047619D01*
X144309523Y-132190476D01*
X144261904Y-132380952D01*
X144261904Y-132761904D01*
X144309523Y-132857142D01*
X144357142Y-132904761D01*
X144452380Y-132952380D01*
X144642857Y-132952380D01*
X144738095Y-132904761D01*
X144785714Y-132857142D01*
X144833333Y-132761904D01*
X144833333Y-132523809D01*
X144785714Y-132428571D01*
X144738095Y-132380952D01*
X144642857Y-132333333D01*
X144452380Y-132333333D01*
X144357142Y-132380952D01*
X144309523Y-132428571D01*
X144261904Y-132523809D01*
%TO.C,SW12*%
X165690476Y-120404761D02*
X165833333Y-120452380D01*
X166071428Y-120452380D01*
X166166666Y-120404761D01*
X166214285Y-120357142D01*
X166261904Y-120261904D01*
X166261904Y-120166666D01*
X166214285Y-120071428D01*
X166166666Y-120023809D01*
X166071428Y-119976190D01*
X165880952Y-119928571D01*
X165785714Y-119880952D01*
X165738095Y-119833333D01*
X165690476Y-119738095D01*
X165690476Y-119642857D01*
X165738095Y-119547619D01*
X165785714Y-119500000D01*
X165880952Y-119452380D01*
X166119047Y-119452380D01*
X166261904Y-119500000D01*
X166595238Y-119452380D02*
X166833333Y-120452380D01*
X167023809Y-119738095D01*
X167214285Y-120452380D01*
X167452380Y-119452380D01*
X168357142Y-120452380D02*
X167785714Y-120452380D01*
X168071428Y-120452380D02*
X168071428Y-119452380D01*
X167976190Y-119595238D01*
X167880952Y-119690476D01*
X167785714Y-119738095D01*
X168738095Y-119547619D02*
X168785714Y-119500000D01*
X168880952Y-119452380D01*
X169119047Y-119452380D01*
X169214285Y-119500000D01*
X169261904Y-119547619D01*
X169309523Y-119642857D01*
X169309523Y-119738095D01*
X169261904Y-119880952D01*
X168690476Y-120452380D01*
X169309523Y-120452380D01*
%TO.C,SW11*%
X153690476Y-120404761D02*
X153833333Y-120452380D01*
X154071428Y-120452380D01*
X154166666Y-120404761D01*
X154214285Y-120357142D01*
X154261904Y-120261904D01*
X154261904Y-120166666D01*
X154214285Y-120071428D01*
X154166666Y-120023809D01*
X154071428Y-119976190D01*
X153880952Y-119928571D01*
X153785714Y-119880952D01*
X153738095Y-119833333D01*
X153690476Y-119738095D01*
X153690476Y-119642857D01*
X153738095Y-119547619D01*
X153785714Y-119500000D01*
X153880952Y-119452380D01*
X154119047Y-119452380D01*
X154261904Y-119500000D01*
X154595238Y-119452380D02*
X154833333Y-120452380D01*
X155023809Y-119738095D01*
X155214285Y-120452380D01*
X155452380Y-119452380D01*
X156357142Y-120452380D02*
X155785714Y-120452380D01*
X156071428Y-120452380D02*
X156071428Y-119452380D01*
X155976190Y-119595238D01*
X155880952Y-119690476D01*
X155785714Y-119738095D01*
X157309523Y-120452380D02*
X156738095Y-120452380D01*
X157023809Y-120452380D02*
X157023809Y-119452380D01*
X156928571Y-119595238D01*
X156833333Y-119690476D01*
X156738095Y-119738095D01*
%TO.C,SW10*%
X141690476Y-120404761D02*
X141833333Y-120452380D01*
X142071428Y-120452380D01*
X142166666Y-120404761D01*
X142214285Y-120357142D01*
X142261904Y-120261904D01*
X142261904Y-120166666D01*
X142214285Y-120071428D01*
X142166666Y-120023809D01*
X142071428Y-119976190D01*
X141880952Y-119928571D01*
X141785714Y-119880952D01*
X141738095Y-119833333D01*
X141690476Y-119738095D01*
X141690476Y-119642857D01*
X141738095Y-119547619D01*
X141785714Y-119500000D01*
X141880952Y-119452380D01*
X142119047Y-119452380D01*
X142261904Y-119500000D01*
X142595238Y-119452380D02*
X142833333Y-120452380D01*
X143023809Y-119738095D01*
X143214285Y-120452380D01*
X143452380Y-119452380D01*
X144357142Y-120452380D02*
X143785714Y-120452380D01*
X144071428Y-120452380D02*
X144071428Y-119452380D01*
X143976190Y-119595238D01*
X143880952Y-119690476D01*
X143785714Y-119738095D01*
X144976190Y-119452380D02*
X145071428Y-119452380D01*
X145166666Y-119500000D01*
X145214285Y-119547619D01*
X145261904Y-119642857D01*
X145309523Y-119833333D01*
X145309523Y-120071428D01*
X145261904Y-120261904D01*
X145214285Y-120357142D01*
X145166666Y-120404761D01*
X145071428Y-120452380D01*
X144976190Y-120452380D01*
X144880952Y-120404761D01*
X144833333Y-120357142D01*
X144785714Y-120261904D01*
X144738095Y-120071428D01*
X144738095Y-119833333D01*
X144785714Y-119642857D01*
X144833333Y-119547619D01*
X144880952Y-119500000D01*
X144976190Y-119452380D01*
%TO.C,SW9*%
X130166666Y-120404761D02*
X130309523Y-120452380D01*
X130547619Y-120452380D01*
X130642857Y-120404761D01*
X130690476Y-120357142D01*
X130738095Y-120261904D01*
X130738095Y-120166666D01*
X130690476Y-120071428D01*
X130642857Y-120023809D01*
X130547619Y-119976190D01*
X130357142Y-119928571D01*
X130261904Y-119880952D01*
X130214285Y-119833333D01*
X130166666Y-119738095D01*
X130166666Y-119642857D01*
X130214285Y-119547619D01*
X130261904Y-119500000D01*
X130357142Y-119452380D01*
X130595238Y-119452380D01*
X130738095Y-119500000D01*
X131071428Y-119452380D02*
X131309523Y-120452380D01*
X131500000Y-119738095D01*
X131690476Y-120452380D01*
X131928571Y-119452380D01*
X132357142Y-120452380D02*
X132547619Y-120452380D01*
X132642857Y-120404761D01*
X132690476Y-120357142D01*
X132785714Y-120214285D01*
X132833333Y-120023809D01*
X132833333Y-119642857D01*
X132785714Y-119547619D01*
X132738095Y-119500000D01*
X132642857Y-119452380D01*
X132452380Y-119452380D01*
X132357142Y-119500000D01*
X132309523Y-119547619D01*
X132261904Y-119642857D01*
X132261904Y-119880952D01*
X132309523Y-119976190D01*
X132357142Y-120023809D01*
X132452380Y-120071428D01*
X132642857Y-120071428D01*
X132738095Y-120023809D01*
X132785714Y-119976190D01*
X132833333Y-119880952D01*
%TO.C,SW15*%
X153690476Y-108904761D02*
X153833333Y-108952380D01*
X154071428Y-108952380D01*
X154166666Y-108904761D01*
X154214285Y-108857142D01*
X154261904Y-108761904D01*
X154261904Y-108666666D01*
X154214285Y-108571428D01*
X154166666Y-108523809D01*
X154071428Y-108476190D01*
X153880952Y-108428571D01*
X153785714Y-108380952D01*
X153738095Y-108333333D01*
X153690476Y-108238095D01*
X153690476Y-108142857D01*
X153738095Y-108047619D01*
X153785714Y-108000000D01*
X153880952Y-107952380D01*
X154119047Y-107952380D01*
X154261904Y-108000000D01*
X154595238Y-107952380D02*
X154833333Y-108952380D01*
X155023809Y-108238095D01*
X155214285Y-108952380D01*
X155452380Y-107952380D01*
X156357142Y-108952380D02*
X155785714Y-108952380D01*
X156071428Y-108952380D02*
X156071428Y-107952380D01*
X155976190Y-108095238D01*
X155880952Y-108190476D01*
X155785714Y-108238095D01*
X157261904Y-107952380D02*
X156785714Y-107952380D01*
X156738095Y-108428571D01*
X156785714Y-108380952D01*
X156880952Y-108333333D01*
X157119047Y-108333333D01*
X157214285Y-108380952D01*
X157261904Y-108428571D01*
X157309523Y-108523809D01*
X157309523Y-108761904D01*
X157261904Y-108857142D01*
X157214285Y-108904761D01*
X157119047Y-108952380D01*
X156880952Y-108952380D01*
X156785714Y-108904761D01*
X156738095Y-108857142D01*
%TO.C,SW14*%
X141690476Y-108904761D02*
X141833333Y-108952380D01*
X142071428Y-108952380D01*
X142166666Y-108904761D01*
X142214285Y-108857142D01*
X142261904Y-108761904D01*
X142261904Y-108666666D01*
X142214285Y-108571428D01*
X142166666Y-108523809D01*
X142071428Y-108476190D01*
X141880952Y-108428571D01*
X141785714Y-108380952D01*
X141738095Y-108333333D01*
X141690476Y-108238095D01*
X141690476Y-108142857D01*
X141738095Y-108047619D01*
X141785714Y-108000000D01*
X141880952Y-107952380D01*
X142119047Y-107952380D01*
X142261904Y-108000000D01*
X142595238Y-107952380D02*
X142833333Y-108952380D01*
X143023809Y-108238095D01*
X143214285Y-108952380D01*
X143452380Y-107952380D01*
X144357142Y-108952380D02*
X143785714Y-108952380D01*
X144071428Y-108952380D02*
X144071428Y-107952380D01*
X143976190Y-108095238D01*
X143880952Y-108190476D01*
X143785714Y-108238095D01*
X145214285Y-108285714D02*
X145214285Y-108952380D01*
X144976190Y-107904761D02*
X144738095Y-108619047D01*
X145357142Y-108619047D01*
%TO.C,R7*%
X158333333Y-52952380D02*
X158000000Y-52476190D01*
X157761904Y-52952380D02*
X157761904Y-51952380D01*
X158142857Y-51952380D01*
X158238095Y-52000000D01*
X158285714Y-52047619D01*
X158333333Y-52142857D01*
X158333333Y-52285714D01*
X158285714Y-52380952D01*
X158238095Y-52428571D01*
X158142857Y-52476190D01*
X157761904Y-52476190D01*
X158666666Y-51952380D02*
X159333333Y-51952380D01*
X158904761Y-52952380D01*
%TO.C,R6*%
X155833333Y-49452380D02*
X155500000Y-48976190D01*
X155261904Y-49452380D02*
X155261904Y-48452380D01*
X155642857Y-48452380D01*
X155738095Y-48500000D01*
X155785714Y-48547619D01*
X155833333Y-48642857D01*
X155833333Y-48785714D01*
X155785714Y-48880952D01*
X155738095Y-48928571D01*
X155642857Y-48976190D01*
X155261904Y-48976190D01*
X156690476Y-48452380D02*
X156500000Y-48452380D01*
X156404761Y-48500000D01*
X156357142Y-48547619D01*
X156261904Y-48690476D01*
X156214285Y-48880952D01*
X156214285Y-49261904D01*
X156261904Y-49357142D01*
X156309523Y-49404761D01*
X156404761Y-49452380D01*
X156595238Y-49452380D01*
X156690476Y-49404761D01*
X156738095Y-49357142D01*
X156785714Y-49261904D01*
X156785714Y-49023809D01*
X156738095Y-48928571D01*
X156690476Y-48880952D01*
X156595238Y-48833333D01*
X156404761Y-48833333D01*
X156309523Y-48880952D01*
X156261904Y-48928571D01*
X156214285Y-49023809D01*
%TO.C,R4*%
X134833333Y-76452380D02*
X134500000Y-75976190D01*
X134261904Y-76452380D02*
X134261904Y-75452380D01*
X134642857Y-75452380D01*
X134738095Y-75500000D01*
X134785714Y-75547619D01*
X134833333Y-75642857D01*
X134833333Y-75785714D01*
X134785714Y-75880952D01*
X134738095Y-75928571D01*
X134642857Y-75976190D01*
X134261904Y-75976190D01*
X135690476Y-75785714D02*
X135690476Y-76452380D01*
X135452380Y-75404761D02*
X135214285Y-76119047D01*
X135833333Y-76119047D01*
%TO.C,R2*%
X128333333Y-74452380D02*
X128000000Y-73976190D01*
X127761904Y-74452380D02*
X127761904Y-73452380D01*
X128142857Y-73452380D01*
X128238095Y-73500000D01*
X128285714Y-73547619D01*
X128333333Y-73642857D01*
X128333333Y-73785714D01*
X128285714Y-73880952D01*
X128238095Y-73928571D01*
X128142857Y-73976190D01*
X127761904Y-73976190D01*
X128714285Y-73547619D02*
X128761904Y-73500000D01*
X128857142Y-73452380D01*
X129095238Y-73452380D01*
X129190476Y-73500000D01*
X129238095Y-73547619D01*
X129285714Y-73642857D01*
X129285714Y-73738095D01*
X129238095Y-73880952D01*
X128666666Y-74452380D01*
X129285714Y-74452380D01*
%TO.C,R3*%
X134833333Y-72452380D02*
X134500000Y-71976190D01*
X134261904Y-72452380D02*
X134261904Y-71452380D01*
X134642857Y-71452380D01*
X134738095Y-71500000D01*
X134785714Y-71547619D01*
X134833333Y-71642857D01*
X134833333Y-71785714D01*
X134785714Y-71880952D01*
X134738095Y-71928571D01*
X134642857Y-71976190D01*
X134261904Y-71976190D01*
X135166666Y-71452380D02*
X135785714Y-71452380D01*
X135452380Y-71833333D01*
X135595238Y-71833333D01*
X135690476Y-71880952D01*
X135738095Y-71928571D01*
X135785714Y-72023809D01*
X135785714Y-72261904D01*
X135738095Y-72357142D01*
X135690476Y-72404761D01*
X135595238Y-72452380D01*
X135309523Y-72452380D01*
X135214285Y-72404761D01*
X135166666Y-72357142D01*
%TO.C,R1*%
X128333333Y-72452380D02*
X128000000Y-71976190D01*
X127761904Y-72452380D02*
X127761904Y-71452380D01*
X128142857Y-71452380D01*
X128238095Y-71500000D01*
X128285714Y-71547619D01*
X128333333Y-71642857D01*
X128333333Y-71785714D01*
X128285714Y-71880952D01*
X128238095Y-71928571D01*
X128142857Y-71976190D01*
X127761904Y-71976190D01*
X129285714Y-72452380D02*
X128714285Y-72452380D01*
X129000000Y-72452380D02*
X129000000Y-71452380D01*
X128904761Y-71595238D01*
X128809523Y-71690476D01*
X128714285Y-71738095D01*
%TO.C,J3*%
X134666666Y-50952380D02*
X134666666Y-51666666D01*
X134619047Y-51809523D01*
X134523809Y-51904761D01*
X134380952Y-51952380D01*
X134285714Y-51952380D01*
X135047619Y-50952380D02*
X135666666Y-50952380D01*
X135333333Y-51333333D01*
X135476190Y-51333333D01*
X135571428Y-51380952D01*
X135619047Y-51428571D01*
X135666666Y-51523809D01*
X135666666Y-51761904D01*
X135619047Y-51857142D01*
X135571428Y-51904761D01*
X135476190Y-51952380D01*
X135190476Y-51952380D01*
X135095238Y-51904761D01*
X135047619Y-51857142D01*
%TO.C,J2*%
X169396666Y-50682380D02*
X169396666Y-51396666D01*
X169349047Y-51539523D01*
X169253809Y-51634761D01*
X169110952Y-51682380D01*
X169015714Y-51682380D01*
X169825238Y-50777619D02*
X169872857Y-50730000D01*
X169968095Y-50682380D01*
X170206190Y-50682380D01*
X170301428Y-50730000D01*
X170349047Y-50777619D01*
X170396666Y-50872857D01*
X170396666Y-50968095D01*
X170349047Y-51110952D01*
X169777619Y-51682380D01*
X170396666Y-51682380D01*
%TO.C,D18*%
X164285714Y-51452380D02*
X164285714Y-50452380D01*
X164523809Y-50452380D01*
X164666666Y-50500000D01*
X164761904Y-50595238D01*
X164809523Y-50690476D01*
X164857142Y-50880952D01*
X164857142Y-51023809D01*
X164809523Y-51214285D01*
X164761904Y-51309523D01*
X164666666Y-51404761D01*
X164523809Y-51452380D01*
X164285714Y-51452380D01*
X165809523Y-51452380D02*
X165238095Y-51452380D01*
X165523809Y-51452380D02*
X165523809Y-50452380D01*
X165428571Y-50595238D01*
X165333333Y-50690476D01*
X165238095Y-50738095D01*
X166380952Y-50880952D02*
X166285714Y-50833333D01*
X166238095Y-50785714D01*
X166190476Y-50690476D01*
X166190476Y-50642857D01*
X166238095Y-50547619D01*
X166285714Y-50500000D01*
X166380952Y-50452380D01*
X166571428Y-50452380D01*
X166666666Y-50500000D01*
X166714285Y-50547619D01*
X166761904Y-50642857D01*
X166761904Y-50690476D01*
X166714285Y-50785714D01*
X166666666Y-50833333D01*
X166571428Y-50880952D01*
X166380952Y-50880952D01*
X166285714Y-50928571D01*
X166238095Y-50976190D01*
X166190476Y-51071428D01*
X166190476Y-51261904D01*
X166238095Y-51357142D01*
X166285714Y-51404761D01*
X166380952Y-51452380D01*
X166571428Y-51452380D01*
X166666666Y-51404761D01*
X166714285Y-51357142D01*
X166761904Y-51261904D01*
X166761904Y-51071428D01*
X166714285Y-50976190D01*
X166666666Y-50928571D01*
X166571428Y-50880952D01*
%TO.C,D17*%
X164285714Y-49452380D02*
X164285714Y-48452380D01*
X164523809Y-48452380D01*
X164666666Y-48500000D01*
X164761904Y-48595238D01*
X164809523Y-48690476D01*
X164857142Y-48880952D01*
X164857142Y-49023809D01*
X164809523Y-49214285D01*
X164761904Y-49309523D01*
X164666666Y-49404761D01*
X164523809Y-49452380D01*
X164285714Y-49452380D01*
X165809523Y-49452380D02*
X165238095Y-49452380D01*
X165523809Y-49452380D02*
X165523809Y-48452380D01*
X165428571Y-48595238D01*
X165333333Y-48690476D01*
X165238095Y-48738095D01*
X166142857Y-48452380D02*
X166809523Y-48452380D01*
X166380952Y-49452380D01*
%TO.C,D4*%
X160761904Y-143952380D02*
X160761904Y-142952380D01*
X161000000Y-142952380D01*
X161142857Y-143000000D01*
X161238095Y-143095238D01*
X161285714Y-143190476D01*
X161333333Y-143380952D01*
X161333333Y-143523809D01*
X161285714Y-143714285D01*
X161238095Y-143809523D01*
X161142857Y-143904761D01*
X161000000Y-143952380D01*
X160761904Y-143952380D01*
X162190476Y-143285714D02*
X162190476Y-143952380D01*
X161952380Y-142904761D02*
X161714285Y-143619047D01*
X162333333Y-143619047D01*
%TO.C,D3*%
X148761904Y-143952380D02*
X148761904Y-142952380D01*
X149000000Y-142952380D01*
X149142857Y-143000000D01*
X149238095Y-143095238D01*
X149285714Y-143190476D01*
X149333333Y-143380952D01*
X149333333Y-143523809D01*
X149285714Y-143714285D01*
X149238095Y-143809523D01*
X149142857Y-143904761D01*
X149000000Y-143952380D01*
X148761904Y-143952380D01*
X149666666Y-142952380D02*
X150285714Y-142952380D01*
X149952380Y-143333333D01*
X150095238Y-143333333D01*
X150190476Y-143380952D01*
X150238095Y-143428571D01*
X150285714Y-143523809D01*
X150285714Y-143761904D01*
X150238095Y-143857142D01*
X150190476Y-143904761D01*
X150095238Y-143952380D01*
X149809523Y-143952380D01*
X149714285Y-143904761D01*
X149666666Y-143857142D01*
%TO.C,D2*%
X136761904Y-143952380D02*
X136761904Y-142952380D01*
X137000000Y-142952380D01*
X137142857Y-143000000D01*
X137238095Y-143095238D01*
X137285714Y-143190476D01*
X137333333Y-143380952D01*
X137333333Y-143523809D01*
X137285714Y-143714285D01*
X137238095Y-143809523D01*
X137142857Y-143904761D01*
X137000000Y-143952380D01*
X136761904Y-143952380D01*
X137714285Y-143047619D02*
X137761904Y-143000000D01*
X137857142Y-142952380D01*
X138095238Y-142952380D01*
X138190476Y-143000000D01*
X138238095Y-143047619D01*
X138285714Y-143142857D01*
X138285714Y-143238095D01*
X138238095Y-143380952D01*
X137666666Y-143952380D01*
X138285714Y-143952380D01*
%TO.C,D1*%
X124761904Y-143952380D02*
X124761904Y-142952380D01*
X125000000Y-142952380D01*
X125142857Y-143000000D01*
X125238095Y-143095238D01*
X125285714Y-143190476D01*
X125333333Y-143380952D01*
X125333333Y-143523809D01*
X125285714Y-143714285D01*
X125238095Y-143809523D01*
X125142857Y-143904761D01*
X125000000Y-143952380D01*
X124761904Y-143952380D01*
X126285714Y-143952380D02*
X125714285Y-143952380D01*
X126000000Y-143952380D02*
X126000000Y-142952380D01*
X125904761Y-143095238D01*
X125809523Y-143190476D01*
X125714285Y-143238095D01*
%TO.C,D8*%
X160761904Y-131952380D02*
X160761904Y-130952380D01*
X161000000Y-130952380D01*
X161142857Y-131000000D01*
X161238095Y-131095238D01*
X161285714Y-131190476D01*
X161333333Y-131380952D01*
X161333333Y-131523809D01*
X161285714Y-131714285D01*
X161238095Y-131809523D01*
X161142857Y-131904761D01*
X161000000Y-131952380D01*
X160761904Y-131952380D01*
X161904761Y-131380952D02*
X161809523Y-131333333D01*
X161761904Y-131285714D01*
X161714285Y-131190476D01*
X161714285Y-131142857D01*
X161761904Y-131047619D01*
X161809523Y-131000000D01*
X161904761Y-130952380D01*
X162095238Y-130952380D01*
X162190476Y-131000000D01*
X162238095Y-131047619D01*
X162285714Y-131142857D01*
X162285714Y-131190476D01*
X162238095Y-131285714D01*
X162190476Y-131333333D01*
X162095238Y-131380952D01*
X161904761Y-131380952D01*
X161809523Y-131428571D01*
X161761904Y-131476190D01*
X161714285Y-131571428D01*
X161714285Y-131761904D01*
X161761904Y-131857142D01*
X161809523Y-131904761D01*
X161904761Y-131952380D01*
X162095238Y-131952380D01*
X162190476Y-131904761D01*
X162238095Y-131857142D01*
X162285714Y-131761904D01*
X162285714Y-131571428D01*
X162238095Y-131476190D01*
X162190476Y-131428571D01*
X162095238Y-131380952D01*
%TO.C,D7*%
X148761904Y-131952380D02*
X148761904Y-130952380D01*
X149000000Y-130952380D01*
X149142857Y-131000000D01*
X149238095Y-131095238D01*
X149285714Y-131190476D01*
X149333333Y-131380952D01*
X149333333Y-131523809D01*
X149285714Y-131714285D01*
X149238095Y-131809523D01*
X149142857Y-131904761D01*
X149000000Y-131952380D01*
X148761904Y-131952380D01*
X149666666Y-130952380D02*
X150333333Y-130952380D01*
X149904761Y-131952380D01*
%TO.C,D6*%
X136761904Y-131952380D02*
X136761904Y-130952380D01*
X137000000Y-130952380D01*
X137142857Y-131000000D01*
X137238095Y-131095238D01*
X137285714Y-131190476D01*
X137333333Y-131380952D01*
X137333333Y-131523809D01*
X137285714Y-131714285D01*
X137238095Y-131809523D01*
X137142857Y-131904761D01*
X137000000Y-131952380D01*
X136761904Y-131952380D01*
X138190476Y-130952380D02*
X138000000Y-130952380D01*
X137904761Y-131000000D01*
X137857142Y-131047619D01*
X137761904Y-131190476D01*
X137714285Y-131380952D01*
X137714285Y-131761904D01*
X137761904Y-131857142D01*
X137809523Y-131904761D01*
X137904761Y-131952380D01*
X138095238Y-131952380D01*
X138190476Y-131904761D01*
X138238095Y-131857142D01*
X138285714Y-131761904D01*
X138285714Y-131523809D01*
X138238095Y-131428571D01*
X138190476Y-131380952D01*
X138095238Y-131333333D01*
X137904761Y-131333333D01*
X137809523Y-131380952D01*
X137761904Y-131428571D01*
X137714285Y-131523809D01*
%TO.C,D5*%
X124761904Y-131952380D02*
X124761904Y-130952380D01*
X125000000Y-130952380D01*
X125142857Y-131000000D01*
X125238095Y-131095238D01*
X125285714Y-131190476D01*
X125333333Y-131380952D01*
X125333333Y-131523809D01*
X125285714Y-131714285D01*
X125238095Y-131809523D01*
X125142857Y-131904761D01*
X125000000Y-131952380D01*
X124761904Y-131952380D01*
X126238095Y-130952380D02*
X125761904Y-130952380D01*
X125714285Y-131428571D01*
X125761904Y-131380952D01*
X125857142Y-131333333D01*
X126095238Y-131333333D01*
X126190476Y-131380952D01*
X126238095Y-131428571D01*
X126285714Y-131523809D01*
X126285714Y-131761904D01*
X126238095Y-131857142D01*
X126190476Y-131904761D01*
X126095238Y-131952380D01*
X125857142Y-131952380D01*
X125761904Y-131904761D01*
X125714285Y-131857142D01*
%TO.C,D12*%
X160285714Y-119952380D02*
X160285714Y-118952380D01*
X160523809Y-118952380D01*
X160666666Y-119000000D01*
X160761904Y-119095238D01*
X160809523Y-119190476D01*
X160857142Y-119380952D01*
X160857142Y-119523809D01*
X160809523Y-119714285D01*
X160761904Y-119809523D01*
X160666666Y-119904761D01*
X160523809Y-119952380D01*
X160285714Y-119952380D01*
X161809523Y-119952380D02*
X161238095Y-119952380D01*
X161523809Y-119952380D02*
X161523809Y-118952380D01*
X161428571Y-119095238D01*
X161333333Y-119190476D01*
X161238095Y-119238095D01*
X162190476Y-119047619D02*
X162238095Y-119000000D01*
X162333333Y-118952380D01*
X162571428Y-118952380D01*
X162666666Y-119000000D01*
X162714285Y-119047619D01*
X162761904Y-119142857D01*
X162761904Y-119238095D01*
X162714285Y-119380952D01*
X162142857Y-119952380D01*
X162761904Y-119952380D01*
%TO.C,D11*%
X148285714Y-119952380D02*
X148285714Y-118952380D01*
X148523809Y-118952380D01*
X148666666Y-119000000D01*
X148761904Y-119095238D01*
X148809523Y-119190476D01*
X148857142Y-119380952D01*
X148857142Y-119523809D01*
X148809523Y-119714285D01*
X148761904Y-119809523D01*
X148666666Y-119904761D01*
X148523809Y-119952380D01*
X148285714Y-119952380D01*
X149809523Y-119952380D02*
X149238095Y-119952380D01*
X149523809Y-119952380D02*
X149523809Y-118952380D01*
X149428571Y-119095238D01*
X149333333Y-119190476D01*
X149238095Y-119238095D01*
X150761904Y-119952380D02*
X150190476Y-119952380D01*
X150476190Y-119952380D02*
X150476190Y-118952380D01*
X150380952Y-119095238D01*
X150285714Y-119190476D01*
X150190476Y-119238095D01*
%TO.C,D10*%
X136285714Y-119952380D02*
X136285714Y-118952380D01*
X136523809Y-118952380D01*
X136666666Y-119000000D01*
X136761904Y-119095238D01*
X136809523Y-119190476D01*
X136857142Y-119380952D01*
X136857142Y-119523809D01*
X136809523Y-119714285D01*
X136761904Y-119809523D01*
X136666666Y-119904761D01*
X136523809Y-119952380D01*
X136285714Y-119952380D01*
X137809523Y-119952380D02*
X137238095Y-119952380D01*
X137523809Y-119952380D02*
X137523809Y-118952380D01*
X137428571Y-119095238D01*
X137333333Y-119190476D01*
X137238095Y-119238095D01*
X138428571Y-118952380D02*
X138523809Y-118952380D01*
X138619047Y-119000000D01*
X138666666Y-119047619D01*
X138714285Y-119142857D01*
X138761904Y-119333333D01*
X138761904Y-119571428D01*
X138714285Y-119761904D01*
X138666666Y-119857142D01*
X138619047Y-119904761D01*
X138523809Y-119952380D01*
X138428571Y-119952380D01*
X138333333Y-119904761D01*
X138285714Y-119857142D01*
X138238095Y-119761904D01*
X138190476Y-119571428D01*
X138190476Y-119333333D01*
X138238095Y-119142857D01*
X138285714Y-119047619D01*
X138333333Y-119000000D01*
X138428571Y-118952380D01*
%TO.C,D9*%
X124761904Y-119952380D02*
X124761904Y-118952380D01*
X125000000Y-118952380D01*
X125142857Y-119000000D01*
X125238095Y-119095238D01*
X125285714Y-119190476D01*
X125333333Y-119380952D01*
X125333333Y-119523809D01*
X125285714Y-119714285D01*
X125238095Y-119809523D01*
X125142857Y-119904761D01*
X125000000Y-119952380D01*
X124761904Y-119952380D01*
X125809523Y-119952380D02*
X126000000Y-119952380D01*
X126095238Y-119904761D01*
X126142857Y-119857142D01*
X126238095Y-119714285D01*
X126285714Y-119523809D01*
X126285714Y-119142857D01*
X126238095Y-119047619D01*
X126190476Y-119000000D01*
X126095238Y-118952380D01*
X125904761Y-118952380D01*
X125809523Y-119000000D01*
X125761904Y-119047619D01*
X125714285Y-119142857D01*
X125714285Y-119380952D01*
X125761904Y-119476190D01*
X125809523Y-119523809D01*
X125904761Y-119571428D01*
X126095238Y-119571428D01*
X126190476Y-119523809D01*
X126238095Y-119476190D01*
X126285714Y-119380952D01*
%TO.C,D16*%
X160285714Y-107952380D02*
X160285714Y-106952380D01*
X160523809Y-106952380D01*
X160666666Y-107000000D01*
X160761904Y-107095238D01*
X160809523Y-107190476D01*
X160857142Y-107380952D01*
X160857142Y-107523809D01*
X160809523Y-107714285D01*
X160761904Y-107809523D01*
X160666666Y-107904761D01*
X160523809Y-107952380D01*
X160285714Y-107952380D01*
X161809523Y-107952380D02*
X161238095Y-107952380D01*
X161523809Y-107952380D02*
X161523809Y-106952380D01*
X161428571Y-107095238D01*
X161333333Y-107190476D01*
X161238095Y-107238095D01*
X162666666Y-106952380D02*
X162476190Y-106952380D01*
X162380952Y-107000000D01*
X162333333Y-107047619D01*
X162238095Y-107190476D01*
X162190476Y-107380952D01*
X162190476Y-107761904D01*
X162238095Y-107857142D01*
X162285714Y-107904761D01*
X162380952Y-107952380D01*
X162571428Y-107952380D01*
X162666666Y-107904761D01*
X162714285Y-107857142D01*
X162761904Y-107761904D01*
X162761904Y-107523809D01*
X162714285Y-107428571D01*
X162666666Y-107380952D01*
X162571428Y-107333333D01*
X162380952Y-107333333D01*
X162285714Y-107380952D01*
X162238095Y-107428571D01*
X162190476Y-107523809D01*
%TO.C,D15*%
X148285714Y-107952380D02*
X148285714Y-106952380D01*
X148523809Y-106952380D01*
X148666666Y-107000000D01*
X148761904Y-107095238D01*
X148809523Y-107190476D01*
X148857142Y-107380952D01*
X148857142Y-107523809D01*
X148809523Y-107714285D01*
X148761904Y-107809523D01*
X148666666Y-107904761D01*
X148523809Y-107952380D01*
X148285714Y-107952380D01*
X149809523Y-107952380D02*
X149238095Y-107952380D01*
X149523809Y-107952380D02*
X149523809Y-106952380D01*
X149428571Y-107095238D01*
X149333333Y-107190476D01*
X149238095Y-107238095D01*
X150714285Y-106952380D02*
X150238095Y-106952380D01*
X150190476Y-107428571D01*
X150238095Y-107380952D01*
X150333333Y-107333333D01*
X150571428Y-107333333D01*
X150666666Y-107380952D01*
X150714285Y-107428571D01*
X150761904Y-107523809D01*
X150761904Y-107761904D01*
X150714285Y-107857142D01*
X150666666Y-107904761D01*
X150571428Y-107952380D01*
X150333333Y-107952380D01*
X150238095Y-107904761D01*
X150190476Y-107857142D01*
%TO.C,D14*%
X136285714Y-107952380D02*
X136285714Y-106952380D01*
X136523809Y-106952380D01*
X136666666Y-107000000D01*
X136761904Y-107095238D01*
X136809523Y-107190476D01*
X136857142Y-107380952D01*
X136857142Y-107523809D01*
X136809523Y-107714285D01*
X136761904Y-107809523D01*
X136666666Y-107904761D01*
X136523809Y-107952380D01*
X136285714Y-107952380D01*
X137809523Y-107952380D02*
X137238095Y-107952380D01*
X137523809Y-107952380D02*
X137523809Y-106952380D01*
X137428571Y-107095238D01*
X137333333Y-107190476D01*
X137238095Y-107238095D01*
X138666666Y-107285714D02*
X138666666Y-107952380D01*
X138428571Y-106904761D02*
X138190476Y-107619047D01*
X138809523Y-107619047D01*
%TO.C,D13*%
X124285714Y-107952380D02*
X124285714Y-106952380D01*
X124523809Y-106952380D01*
X124666666Y-107000000D01*
X124761904Y-107095238D01*
X124809523Y-107190476D01*
X124857142Y-107380952D01*
X124857142Y-107523809D01*
X124809523Y-107714285D01*
X124761904Y-107809523D01*
X124666666Y-107904761D01*
X124523809Y-107952380D01*
X124285714Y-107952380D01*
X125809523Y-107952380D02*
X125238095Y-107952380D01*
X125523809Y-107952380D02*
X125523809Y-106952380D01*
X125428571Y-107095238D01*
X125333333Y-107190476D01*
X125238095Y-107238095D01*
X126142857Y-106952380D02*
X126761904Y-106952380D01*
X126428571Y-107333333D01*
X126571428Y-107333333D01*
X126666666Y-107380952D01*
X126714285Y-107428571D01*
X126761904Y-107523809D01*
X126761904Y-107761904D01*
X126714285Y-107857142D01*
X126666666Y-107904761D01*
X126571428Y-107952380D01*
X126285714Y-107952380D01*
X126190476Y-107904761D01*
X126142857Y-107857142D01*
%TO.C,C4*%
X134833333Y-74357142D02*
X134785714Y-74404761D01*
X134642857Y-74452380D01*
X134547619Y-74452380D01*
X134404761Y-74404761D01*
X134309523Y-74309523D01*
X134261904Y-74214285D01*
X134214285Y-74023809D01*
X134214285Y-73880952D01*
X134261904Y-73690476D01*
X134309523Y-73595238D01*
X134404761Y-73500000D01*
X134547619Y-73452380D01*
X134642857Y-73452380D01*
X134785714Y-73500000D01*
X134833333Y-73547619D01*
X135690476Y-73785714D02*
X135690476Y-74452380D01*
X135452380Y-73404761D02*
X135214285Y-74119047D01*
X135833333Y-74119047D01*
%TO.C,C3*%
X131333333Y-67357142D02*
X131285714Y-67404761D01*
X131142857Y-67452380D01*
X131047619Y-67452380D01*
X130904761Y-67404761D01*
X130809523Y-67309523D01*
X130761904Y-67214285D01*
X130714285Y-67023809D01*
X130714285Y-66880952D01*
X130761904Y-66690476D01*
X130809523Y-66595238D01*
X130904761Y-66500000D01*
X131047619Y-66452380D01*
X131142857Y-66452380D01*
X131285714Y-66500000D01*
X131333333Y-66547619D01*
X131666666Y-66452380D02*
X132285714Y-66452380D01*
X131952380Y-66833333D01*
X132095238Y-66833333D01*
X132190476Y-66880952D01*
X132238095Y-66928571D01*
X132285714Y-67023809D01*
X132285714Y-67261904D01*
X132238095Y-67357142D01*
X132190476Y-67404761D01*
X132095238Y-67452380D01*
X131809523Y-67452380D01*
X131714285Y-67404761D01*
X131666666Y-67357142D01*
%TO.C,C2*%
X128333333Y-76357142D02*
X128285714Y-76404761D01*
X128142857Y-76452380D01*
X128047619Y-76452380D01*
X127904761Y-76404761D01*
X127809523Y-76309523D01*
X127761904Y-76214285D01*
X127714285Y-76023809D01*
X127714285Y-75880952D01*
X127761904Y-75690476D01*
X127809523Y-75595238D01*
X127904761Y-75500000D01*
X128047619Y-75452380D01*
X128142857Y-75452380D01*
X128285714Y-75500000D01*
X128333333Y-75547619D01*
X128714285Y-75547619D02*
X128761904Y-75500000D01*
X128857142Y-75452380D01*
X129095238Y-75452380D01*
X129190476Y-75500000D01*
X129238095Y-75547619D01*
X129285714Y-75642857D01*
X129285714Y-75738095D01*
X129238095Y-75880952D01*
X128666666Y-76452380D01*
X129285714Y-76452380D01*
%TO.C,C1*%
X131333333Y-59857142D02*
X131285714Y-59904761D01*
X131142857Y-59952380D01*
X131047619Y-59952380D01*
X130904761Y-59904761D01*
X130809523Y-59809523D01*
X130761904Y-59714285D01*
X130714285Y-59523809D01*
X130714285Y-59380952D01*
X130761904Y-59190476D01*
X130809523Y-59095238D01*
X130904761Y-59000000D01*
X131047619Y-58952380D01*
X131142857Y-58952380D01*
X131285714Y-59000000D01*
X131333333Y-59047619D01*
X132285714Y-59952380D02*
X131714285Y-59952380D01*
X132000000Y-59952380D02*
X132000000Y-58952380D01*
X131904761Y-59095238D01*
X131809523Y-59190476D01*
X131714285Y-59238095D01*
%TD*%
M02*
