%TF.GenerationSoftware,KiCad,Pcbnew,(5.1.10)-1*%
%TF.CreationDate,2024-04-20T07:26:56+09:00*%
%TF.ProjectId,BLEModule,424c454d-6f64-4756-9c65-2e6b69636164,rev?*%
%TF.SameCoordinates,Original*%
%TF.FileFunction,Copper,L2,Bot*%
%TF.FilePolarity,Positive*%
%FSLAX46Y46*%
G04 Gerber Fmt 4.6, Leading zero omitted, Abs format (unit mm)*
G04 Created by KiCad (PCBNEW (5.1.10)-1) date 2024-04-20 07:26:56*
%MOMM*%
%LPD*%
G01*
G04 APERTURE LIST*
%TA.AperFunction,EtchedComponent*%
%ADD10C,0.035000*%
%TD*%
%TA.AperFunction,ComponentPad*%
%ADD11O,1.000000X1.000000*%
%TD*%
%TA.AperFunction,ComponentPad*%
%ADD12R,1.000000X1.000000*%
%TD*%
%TA.AperFunction,ViaPad*%
%ADD13C,0.500000*%
%TD*%
%TA.AperFunction,ViaPad*%
%ADD14C,0.400000*%
%TD*%
%TA.AperFunction,ViaPad*%
%ADD15C,0.635000*%
%TD*%
%TA.AperFunction,Conductor*%
%ADD16C,0.500000*%
%TD*%
%TA.AperFunction,Conductor*%
%ADD17C,0.200000*%
%TD*%
%TA.AperFunction,Conductor*%
%ADD18C,0.254000*%
%TD*%
%TA.AperFunction,Conductor*%
%ADD19C,0.100000*%
%TD*%
G04 APERTURE END LIST*
D10*
%TO.C,J2*%
G36*
X139082600Y-91944600D02*
G01*
X139082600Y-90725400D01*
X138117400Y-90725400D01*
X138117400Y-91944600D01*
X139082600Y-91944600D01*
G37*
X139082600Y-91944600D02*
X139082600Y-90725400D01*
X138117400Y-90725400D01*
X138117400Y-91944600D01*
X139082600Y-91944600D01*
G36*
X141622600Y-91944600D02*
G01*
X141622600Y-90725400D01*
X140657400Y-90725400D01*
X140657400Y-91944600D01*
X141622600Y-91944600D01*
G37*
X141622600Y-91944600D02*
X141622600Y-90725400D01*
X140657400Y-90725400D01*
X140657400Y-91944600D01*
X141622600Y-91944600D01*
G36*
X145432600Y-91944600D02*
G01*
X145432600Y-90725400D01*
X144467400Y-90725400D01*
X144467400Y-91944600D01*
X145432600Y-91944600D01*
G37*
X145432600Y-91944600D02*
X145432600Y-90725400D01*
X144467400Y-90725400D01*
X144467400Y-91944600D01*
X145432600Y-91944600D01*
G36*
X142892600Y-91944600D02*
G01*
X142892600Y-90725400D01*
X141927400Y-90725400D01*
X141927400Y-91944600D01*
X142892600Y-91944600D01*
G37*
X142892600Y-91944600D02*
X142892600Y-90725400D01*
X141927400Y-90725400D01*
X141927400Y-91944600D01*
X142892600Y-91944600D01*
G36*
X146702600Y-91944600D02*
G01*
X146702600Y-90725400D01*
X145737400Y-90725400D01*
X145737400Y-91944600D01*
X146702600Y-91944600D01*
G37*
X146702600Y-91944600D02*
X146702600Y-90725400D01*
X145737400Y-90725400D01*
X145737400Y-91944600D01*
X146702600Y-91944600D01*
G36*
X149242600Y-91944600D02*
G01*
X149242600Y-90725400D01*
X148277400Y-90725400D01*
X148277400Y-91944600D01*
X149242600Y-91944600D01*
G37*
X149242600Y-91944600D02*
X149242600Y-90725400D01*
X148277400Y-90725400D01*
X148277400Y-91944600D01*
X149242600Y-91944600D01*
G36*
X140352600Y-91944600D02*
G01*
X140352600Y-90725400D01*
X139387400Y-90725400D01*
X139387400Y-91944600D01*
X140352600Y-91944600D01*
G37*
X140352600Y-91944600D02*
X140352600Y-90725400D01*
X139387400Y-90725400D01*
X139387400Y-91944600D01*
X140352600Y-91944600D01*
G36*
X144162600Y-91944600D02*
G01*
X144162600Y-90725400D01*
X143197400Y-90725400D01*
X143197400Y-91944600D01*
X144162600Y-91944600D01*
G37*
X144162600Y-91944600D02*
X144162600Y-90725400D01*
X143197400Y-90725400D01*
X143197400Y-91944600D01*
X144162600Y-91944600D01*
G36*
X147972600Y-91944600D02*
G01*
X147972600Y-90725400D01*
X147007400Y-90725400D01*
X147007400Y-91944600D01*
X147972600Y-91944600D01*
G37*
X147972600Y-91944600D02*
X147972600Y-90725400D01*
X147007400Y-90725400D01*
X147007400Y-91944600D01*
X147972600Y-91944600D01*
G36*
X153052600Y-91944600D02*
G01*
X153052600Y-90725400D01*
X152087400Y-90725400D01*
X152087400Y-91944600D01*
X153052600Y-91944600D01*
G37*
X153052600Y-91944600D02*
X153052600Y-90725400D01*
X152087400Y-90725400D01*
X152087400Y-91944600D01*
X153052600Y-91944600D01*
G36*
X150512600Y-91944600D02*
G01*
X150512600Y-90725400D01*
X149547400Y-90725400D01*
X149547400Y-91944600D01*
X150512600Y-91944600D01*
G37*
X150512600Y-91944600D02*
X150512600Y-90725400D01*
X149547400Y-90725400D01*
X149547400Y-91944600D01*
X150512600Y-91944600D01*
G36*
X151782600Y-91944600D02*
G01*
X151782600Y-90725400D01*
X150817400Y-90725400D01*
X150817400Y-91944600D01*
X151782600Y-91944600D01*
G37*
X151782600Y-91944600D02*
X151782600Y-90725400D01*
X150817400Y-90725400D01*
X150817400Y-91944600D01*
X151782600Y-91944600D01*
%TO.C,J1*%
G36*
X135955400Y-73082600D02*
G01*
X137174600Y-73082600D01*
X137174600Y-72117400D01*
X135955400Y-72117400D01*
X135955400Y-73082600D01*
G37*
X135955400Y-73082600D02*
X137174600Y-73082600D01*
X137174600Y-72117400D01*
X135955400Y-72117400D01*
X135955400Y-73082600D01*
G36*
X135955400Y-75622600D02*
G01*
X137174600Y-75622600D01*
X137174600Y-74657400D01*
X135955400Y-74657400D01*
X135955400Y-75622600D01*
G37*
X135955400Y-75622600D02*
X137174600Y-75622600D01*
X137174600Y-74657400D01*
X135955400Y-74657400D01*
X135955400Y-75622600D01*
G36*
X135955400Y-79432600D02*
G01*
X137174600Y-79432600D01*
X137174600Y-78467400D01*
X135955400Y-78467400D01*
X135955400Y-79432600D01*
G37*
X135955400Y-79432600D02*
X137174600Y-79432600D01*
X137174600Y-78467400D01*
X135955400Y-78467400D01*
X135955400Y-79432600D01*
G36*
X135955400Y-76892600D02*
G01*
X137174600Y-76892600D01*
X137174600Y-75927400D01*
X135955400Y-75927400D01*
X135955400Y-76892600D01*
G37*
X135955400Y-76892600D02*
X137174600Y-76892600D01*
X137174600Y-75927400D01*
X135955400Y-75927400D01*
X135955400Y-76892600D01*
G36*
X135955400Y-80702600D02*
G01*
X137174600Y-80702600D01*
X137174600Y-79737400D01*
X135955400Y-79737400D01*
X135955400Y-80702600D01*
G37*
X135955400Y-80702600D02*
X137174600Y-80702600D01*
X137174600Y-79737400D01*
X135955400Y-79737400D01*
X135955400Y-80702600D01*
G36*
X135955400Y-83242600D02*
G01*
X137174600Y-83242600D01*
X137174600Y-82277400D01*
X135955400Y-82277400D01*
X135955400Y-83242600D01*
G37*
X135955400Y-83242600D02*
X137174600Y-83242600D01*
X137174600Y-82277400D01*
X135955400Y-82277400D01*
X135955400Y-83242600D01*
G36*
X135955400Y-74352600D02*
G01*
X137174600Y-74352600D01*
X137174600Y-73387400D01*
X135955400Y-73387400D01*
X135955400Y-74352600D01*
G37*
X135955400Y-74352600D02*
X137174600Y-74352600D01*
X137174600Y-73387400D01*
X135955400Y-73387400D01*
X135955400Y-74352600D01*
G36*
X135955400Y-78162600D02*
G01*
X137174600Y-78162600D01*
X137174600Y-77197400D01*
X135955400Y-77197400D01*
X135955400Y-78162600D01*
G37*
X135955400Y-78162600D02*
X137174600Y-78162600D01*
X137174600Y-77197400D01*
X135955400Y-77197400D01*
X135955400Y-78162600D01*
G36*
X135955400Y-81972600D02*
G01*
X137174600Y-81972600D01*
X137174600Y-81007400D01*
X135955400Y-81007400D01*
X135955400Y-81972600D01*
G37*
X135955400Y-81972600D02*
X137174600Y-81972600D01*
X137174600Y-81007400D01*
X135955400Y-81007400D01*
X135955400Y-81972600D01*
G36*
X135955400Y-87052600D02*
G01*
X137174600Y-87052600D01*
X137174600Y-86087400D01*
X135955400Y-86087400D01*
X135955400Y-87052600D01*
G37*
X135955400Y-87052600D02*
X137174600Y-87052600D01*
X137174600Y-86087400D01*
X135955400Y-86087400D01*
X135955400Y-87052600D01*
G36*
X135955400Y-84512600D02*
G01*
X137174600Y-84512600D01*
X137174600Y-83547400D01*
X135955400Y-83547400D01*
X135955400Y-84512600D01*
G37*
X135955400Y-84512600D02*
X137174600Y-84512600D01*
X137174600Y-83547400D01*
X135955400Y-83547400D01*
X135955400Y-84512600D01*
G36*
X135955400Y-85782600D02*
G01*
X137174600Y-85782600D01*
X137174600Y-84817400D01*
X135955400Y-84817400D01*
X135955400Y-85782600D01*
G37*
X135955400Y-85782600D02*
X137174600Y-85782600D01*
X137174600Y-84817400D01*
X135955400Y-84817400D01*
X135955400Y-85782600D01*
%TO.C,J3*%
G36*
X155244600Y-86087400D02*
G01*
X154025400Y-86087400D01*
X154025400Y-87052600D01*
X155244600Y-87052600D01*
X155244600Y-86087400D01*
G37*
X155244600Y-86087400D02*
X154025400Y-86087400D01*
X154025400Y-87052600D01*
X155244600Y-87052600D01*
X155244600Y-86087400D01*
G36*
X155244600Y-83547400D02*
G01*
X154025400Y-83547400D01*
X154025400Y-84512600D01*
X155244600Y-84512600D01*
X155244600Y-83547400D01*
G37*
X155244600Y-83547400D02*
X154025400Y-83547400D01*
X154025400Y-84512600D01*
X155244600Y-84512600D01*
X155244600Y-83547400D01*
G36*
X155244600Y-79737400D02*
G01*
X154025400Y-79737400D01*
X154025400Y-80702600D01*
X155244600Y-80702600D01*
X155244600Y-79737400D01*
G37*
X155244600Y-79737400D02*
X154025400Y-79737400D01*
X154025400Y-80702600D01*
X155244600Y-80702600D01*
X155244600Y-79737400D01*
G36*
X155244600Y-82277400D02*
G01*
X154025400Y-82277400D01*
X154025400Y-83242600D01*
X155244600Y-83242600D01*
X155244600Y-82277400D01*
G37*
X155244600Y-82277400D02*
X154025400Y-82277400D01*
X154025400Y-83242600D01*
X155244600Y-83242600D01*
X155244600Y-82277400D01*
G36*
X155244600Y-78467400D02*
G01*
X154025400Y-78467400D01*
X154025400Y-79432600D01*
X155244600Y-79432600D01*
X155244600Y-78467400D01*
G37*
X155244600Y-78467400D02*
X154025400Y-78467400D01*
X154025400Y-79432600D01*
X155244600Y-79432600D01*
X155244600Y-78467400D01*
G36*
X155244600Y-75927400D02*
G01*
X154025400Y-75927400D01*
X154025400Y-76892600D01*
X155244600Y-76892600D01*
X155244600Y-75927400D01*
G37*
X155244600Y-75927400D02*
X154025400Y-75927400D01*
X154025400Y-76892600D01*
X155244600Y-76892600D01*
X155244600Y-75927400D01*
G36*
X155244600Y-84817400D02*
G01*
X154025400Y-84817400D01*
X154025400Y-85782600D01*
X155244600Y-85782600D01*
X155244600Y-84817400D01*
G37*
X155244600Y-84817400D02*
X154025400Y-84817400D01*
X154025400Y-85782600D01*
X155244600Y-85782600D01*
X155244600Y-84817400D01*
G36*
X155244600Y-81007400D02*
G01*
X154025400Y-81007400D01*
X154025400Y-81972600D01*
X155244600Y-81972600D01*
X155244600Y-81007400D01*
G37*
X155244600Y-81007400D02*
X154025400Y-81007400D01*
X154025400Y-81972600D01*
X155244600Y-81972600D01*
X155244600Y-81007400D01*
G36*
X155244600Y-77197400D02*
G01*
X154025400Y-77197400D01*
X154025400Y-78162600D01*
X155244600Y-78162600D01*
X155244600Y-77197400D01*
G37*
X155244600Y-77197400D02*
X154025400Y-77197400D01*
X154025400Y-78162600D01*
X155244600Y-78162600D01*
X155244600Y-77197400D01*
G36*
X155244600Y-72117400D02*
G01*
X154025400Y-72117400D01*
X154025400Y-73082600D01*
X155244600Y-73082600D01*
X155244600Y-72117400D01*
G37*
X155244600Y-72117400D02*
X154025400Y-72117400D01*
X154025400Y-73082600D01*
X155244600Y-73082600D01*
X155244600Y-72117400D01*
G36*
X155244600Y-74657400D02*
G01*
X154025400Y-74657400D01*
X154025400Y-75622600D01*
X155244600Y-75622600D01*
X155244600Y-74657400D01*
G37*
X155244600Y-74657400D02*
X154025400Y-74657400D01*
X154025400Y-75622600D01*
X155244600Y-75622600D01*
X155244600Y-74657400D01*
G36*
X155244600Y-73387400D02*
G01*
X154025400Y-73387400D01*
X154025400Y-74352600D01*
X155244600Y-74352600D01*
X155244600Y-73387400D01*
G37*
X155244600Y-73387400D02*
X154025400Y-73387400D01*
X154025400Y-74352600D01*
X155244600Y-74352600D01*
X155244600Y-73387400D01*
%TD*%
D11*
%TO.P,J2,3*%
%TO.N,P07*%
X141140000Y-90700000D03*
%TO.P,J2,11*%
%TO.N,P15*%
X151300000Y-90700000D03*
%TO.P,J2,5*%
%TO.N,P09*%
X143680000Y-90700000D03*
%TO.P,J2,7*%
%TO.N,P11*%
X146220000Y-90700000D03*
%TO.P,J2,12*%
%TO.N,P16*%
X152570000Y-90700000D03*
%TO.P,J2,10*%
%TO.N,P14*%
X150030000Y-90700000D03*
%TO.P,J2,6*%
%TO.N,P10*%
X144950000Y-90700000D03*
D12*
%TO.P,J2,1*%
%TO.N,P05*%
X138600000Y-90700000D03*
D11*
%TO.P,J2,8*%
%TO.N,P12*%
X147490000Y-90700000D03*
%TO.P,J2,9*%
%TO.N,P13*%
X148760000Y-90700000D03*
%TO.P,J2,4*%
%TO.N,P08*%
X142410000Y-90700000D03*
%TO.P,J2,2*%
%TO.N,P06*%
X139870000Y-90700000D03*
%TO.P,J2,*%
%TO.N,*%
X138600000Y-91970000D03*
X151300000Y-91970000D03*
X148760000Y-91970000D03*
X147490000Y-91970000D03*
X143680000Y-91970000D03*
X150030000Y-91970000D03*
X141140000Y-91970000D03*
X144950000Y-91970000D03*
X152570000Y-91970000D03*
X146220000Y-91970000D03*
X139870000Y-91970000D03*
X142410000Y-91970000D03*
%TD*%
%TO.P,J1,3*%
%TO.N,P27*%
X137200000Y-75140000D03*
%TO.P,J1,11*%
%TO.N,P03*%
X137200000Y-85300000D03*
%TO.P,J1,5*%
%TO.N,P29*%
X137200000Y-77680000D03*
%TO.P,J1,7*%
%TO.N,P31*%
X137200000Y-80220000D03*
%TO.P,J1,12*%
%TO.N,P04*%
X137200000Y-86570000D03*
%TO.P,J1,10*%
%TO.N,P02*%
X137200000Y-84030000D03*
%TO.P,J1,6*%
%TO.N,P30*%
X137200000Y-78950000D03*
D12*
%TO.P,J1,1*%
%TO.N,P25*%
X137200000Y-72600000D03*
D11*
%TO.P,J1,8*%
%TO.N,P00*%
X137200000Y-81490000D03*
%TO.P,J1,9*%
%TO.N,P01*%
X137200000Y-82760000D03*
%TO.P,J1,4*%
%TO.N,P28*%
X137200000Y-76410000D03*
%TO.P,J1,2*%
%TO.N,P26*%
X137200000Y-73870000D03*
%TO.P,J1,*%
%TO.N,*%
X135930000Y-72600000D03*
X135930000Y-85300000D03*
X135930000Y-82760000D03*
X135930000Y-81490000D03*
X135930000Y-77680000D03*
X135930000Y-84030000D03*
X135930000Y-75140000D03*
X135930000Y-78950000D03*
X135930000Y-86570000D03*
X135930000Y-80220000D03*
X135930000Y-73870000D03*
X135930000Y-76410000D03*
%TD*%
%TO.P,J3,3*%
%TO.N,P19*%
X154000000Y-84030000D03*
%TO.P,J3,11*%
%TO.N,GNDPWR*%
X154000000Y-73870000D03*
%TO.P,J3,5*%
%TO.N,P21*%
X154000000Y-81490000D03*
%TO.P,J3,7*%
%TO.N,P23*%
X154000000Y-78950000D03*
%TO.P,J3,12*%
%TO.N,+30V*%
X154000000Y-72600000D03*
%TO.P,J3,10*%
%TO.N,nRF_SWCLK*%
X154000000Y-75140000D03*
%TO.P,J3,6*%
%TO.N,P22*%
X154000000Y-80220000D03*
D12*
%TO.P,J3,1*%
%TO.N,P17*%
X154000000Y-86570000D03*
D11*
%TO.P,J3,8*%
%TO.N,P24*%
X154000000Y-77680000D03*
%TO.P,J3,9*%
%TO.N,nRF_SWDIO*%
X154000000Y-76410000D03*
%TO.P,J3,4*%
%TO.N,P20*%
X154000000Y-82760000D03*
%TO.P,J3,2*%
%TO.N,P18*%
X154000000Y-85300000D03*
%TO.P,J3,*%
%TO.N,*%
X155270000Y-86570000D03*
X155270000Y-73870000D03*
X155270000Y-76410000D03*
X155270000Y-77680000D03*
X155270000Y-81490000D03*
X155270000Y-75140000D03*
X155270000Y-84030000D03*
X155270000Y-80220000D03*
X155270000Y-72600000D03*
X155270000Y-78950000D03*
X155270000Y-85300000D03*
X155270000Y-82760000D03*
%TD*%
D13*
%TO.N,+30V*%
X141400000Y-75900000D03*
X141400000Y-84800000D03*
X148400000Y-85800000D03*
D14*
%TO.N,Net-(C5-Pad1)*%
X144746446Y-76153554D03*
X150400000Y-73300000D03*
%TO.N,Net-(C6-Pad1)*%
X144148839Y-76100000D03*
X148800000Y-73300000D03*
%TO.N,Net-(C8-Pad1)*%
X143548836Y-76100000D03*
X147100000Y-73300000D03*
%TO.N,Net-(C9-Pad1)*%
X142900000Y-74200000D03*
X142948833Y-76100000D03*
%TO.N,P29*%
X140869683Y-80342488D03*
%TO.N,P30*%
X140835310Y-81015222D03*
%TO.N,P31*%
X140920010Y-81689883D03*
%TO.N,P00*%
X143519801Y-86199919D03*
%TO.N,P01*%
X141704354Y-87299970D03*
%TO.N,nRF_SWDIO*%
X151284302Y-77722806D03*
%TO.N,nRF_SWCLK*%
X149900000Y-78400000D03*
%TO.N,GNDPWR*%
X153100000Y-73300000D03*
D15*
X146304000Y-65049400D03*
X137731500Y-68605400D03*
X137731500Y-70637400D03*
X136715500Y-68592700D03*
X137731500Y-67589400D03*
X137731500Y-66573400D03*
X137731500Y-69621400D03*
X136715500Y-67576700D03*
X136715500Y-69608700D03*
X136715500Y-70624700D03*
X136715500Y-66560700D03*
X144056100Y-70650100D03*
X143040100Y-70650100D03*
X146088100Y-70650100D03*
X145072100Y-70650100D03*
X148120100Y-70650100D03*
X147104100Y-70650100D03*
X150152100Y-70650100D03*
X149136100Y-70650100D03*
X152184100Y-70650100D03*
X151168100Y-70650100D03*
X154216100Y-70650100D03*
X153200100Y-70650100D03*
X149136100Y-69634100D03*
X150152100Y-69634100D03*
X145072100Y-69634100D03*
X148120100Y-69634100D03*
X154216100Y-69634100D03*
X153200100Y-69634100D03*
X147104100Y-69634100D03*
X146088100Y-69634100D03*
X143040100Y-69634100D03*
X151168100Y-69634100D03*
X144056100Y-69634100D03*
X152184100Y-69634100D03*
X149136100Y-68618100D03*
X150152100Y-68618100D03*
X145072100Y-68618100D03*
X148120100Y-68618100D03*
X154216100Y-68618100D03*
X153200100Y-68618100D03*
X147104100Y-68618100D03*
X146088100Y-68618100D03*
X143040100Y-68618100D03*
X151168100Y-68618100D03*
X144056100Y-68618100D03*
X152184100Y-68618100D03*
X149136100Y-67602100D03*
X150152100Y-67602100D03*
X145072100Y-67602100D03*
X148120100Y-67602100D03*
X154216100Y-67602100D03*
X153200100Y-67602100D03*
X147104100Y-67602100D03*
X146088100Y-67602100D03*
X143040100Y-67602100D03*
X151168100Y-67602100D03*
X144056100Y-67602100D03*
X152184100Y-67602100D03*
X149136100Y-66586100D03*
X150152100Y-66586100D03*
X145072100Y-66586100D03*
X148120100Y-66586100D03*
X154216100Y-66586100D03*
X153200100Y-66586100D03*
X147104100Y-66586100D03*
X146088100Y-66586100D03*
X143040100Y-66586100D03*
X151168100Y-66586100D03*
X144056100Y-66586100D03*
X152184100Y-66586100D03*
X142024100Y-68618100D03*
X142024100Y-67602100D03*
X142024100Y-69634100D03*
X142024100Y-70650100D03*
X142024100Y-66586100D03*
X141008100Y-70637400D03*
X141008100Y-67589400D03*
X141008100Y-68605400D03*
X141008100Y-69621400D03*
X141008100Y-66573400D03*
D14*
X139600000Y-85900000D03*
X153000000Y-88600000D03*
X139400000Y-73800000D03*
X138800000Y-77000000D03*
X138800000Y-79600000D03*
X138800000Y-82200000D03*
X137600000Y-88400000D03*
X148200000Y-76600000D03*
X149800000Y-76600000D03*
X151800000Y-78400000D03*
X141000000Y-82400000D03*
X145300000Y-76700000D03*
X145800000Y-75200000D03*
X148100000Y-88600000D03*
X152100000Y-88600000D03*
X152100000Y-87600000D03*
%TD*%
D16*
%TO.N,+30V*%
X141400000Y-75900000D02*
X142853555Y-77353555D01*
X142853555Y-77353555D02*
X141846445Y-77353555D01*
X141846445Y-84353555D02*
X141400000Y-84800000D01*
X141846445Y-77353555D02*
X141846445Y-84053555D01*
X141846445Y-84053555D02*
X141846445Y-84353555D01*
X147400000Y-84800000D02*
X148400000Y-85800000D01*
X141400000Y-84800000D02*
X147400000Y-84800000D01*
X152062002Y-72600000D02*
X154000000Y-72600000D01*
X149762002Y-74900000D02*
X152062002Y-72600000D01*
X148062002Y-74900000D02*
X149762002Y-74900000D01*
X145608447Y-77353555D02*
X148062002Y-74900000D01*
X142853555Y-77353555D02*
X145608447Y-77353555D01*
D17*
%TO.N,Net-(C5-Pad1)*%
X149480748Y-74219252D02*
X150400000Y-73300000D01*
X144746446Y-74453554D02*
X144980748Y-74219252D01*
X144980748Y-74219252D02*
X149480748Y-74219252D01*
X144746446Y-76153554D02*
X144746446Y-74453554D01*
%TO.N,Net-(C6-Pad1)*%
X144148839Y-75251161D02*
X144148839Y-76100000D01*
X144148839Y-74485462D02*
X144148839Y-75251161D01*
X144834300Y-73800001D02*
X144148839Y-74485462D01*
X148299999Y-73800001D02*
X144834300Y-73800001D01*
X148800000Y-73300000D02*
X148299999Y-73800001D01*
%TO.N,Net-(C8-Pad1)*%
X143548836Y-76100000D02*
X143600000Y-76100000D01*
X143548836Y-74519766D02*
X143548836Y-75148836D01*
X143548836Y-75148836D02*
X143548836Y-76100000D01*
X144768602Y-73300000D02*
X143548836Y-74519766D01*
X147100000Y-73300000D02*
X144768602Y-73300000D01*
%TO.N,Net-(C9-Pad1)*%
X142948833Y-76100000D02*
X142948833Y-74248833D01*
X142948833Y-74248833D02*
X142900000Y-74200000D01*
%TO.N,P29*%
X138207195Y-77680000D02*
X137200000Y-77680000D01*
X140869683Y-80342488D02*
X138207195Y-77680000D01*
%TO.N,P30*%
X137409998Y-78950000D02*
X137200000Y-78950000D01*
X139475220Y-81015222D02*
X137409998Y-78950000D01*
X140835310Y-81015222D02*
X139475220Y-81015222D01*
%TO.N,P31*%
X138669883Y-81689883D02*
X137200000Y-80220000D01*
X140920010Y-81689883D02*
X138669883Y-81689883D01*
%TO.N,P00*%
X143519801Y-86199919D02*
X142919751Y-86799969D01*
X141400000Y-86800000D02*
X138965698Y-86800000D01*
X141400031Y-86799969D02*
X141400000Y-86800000D01*
X142919751Y-86799969D02*
X141400031Y-86799969D01*
X137200000Y-81575998D02*
X137200000Y-81490000D01*
X138965698Y-83341696D02*
X137200000Y-81575998D01*
X138965698Y-86800000D02*
X138965698Y-83341696D01*
%TO.N,P01*%
X141704354Y-87299970D02*
X138899970Y-87299970D01*
X138899970Y-87299970D02*
X138200000Y-86600000D01*
X138200000Y-83760000D02*
X137200000Y-82760000D01*
X138200000Y-86600000D02*
X138200000Y-83760000D01*
%TO.N,nRF_SWDIO*%
X154000000Y-76410000D02*
X152597108Y-76410000D01*
X152597108Y-76410000D02*
X151284302Y-77722806D01*
%TO.N,nRF_SWCLK*%
X153160000Y-75140000D02*
X154000000Y-75140000D01*
X149900000Y-78400000D02*
X153160000Y-75140000D01*
%TD*%
D18*
%TO.N,GNDPWR*%
X153012877Y-73309794D02*
X152922554Y-73513136D01*
X152905881Y-73568126D01*
X153032046Y-73743000D01*
X153680900Y-73743000D01*
X153680900Y-73997000D01*
X153032046Y-73997000D01*
X152905881Y-74171874D01*
X152922554Y-74226864D01*
X153012877Y-74430206D01*
X153141135Y-74612020D01*
X153247362Y-74713000D01*
X153180966Y-74713000D01*
X153159999Y-74710935D01*
X153139032Y-74713000D01*
X153139022Y-74713000D01*
X153076293Y-74719178D01*
X152995804Y-74743595D01*
X152961273Y-74762052D01*
X152921623Y-74783245D01*
X152872898Y-74823232D01*
X152872889Y-74823241D01*
X152856605Y-74836605D01*
X152843241Y-74852889D01*
X149816934Y-77879198D01*
X149746280Y-77893252D01*
X149650372Y-77932979D01*
X149564057Y-77990652D01*
X149490652Y-78064057D01*
X149432979Y-78150372D01*
X149393252Y-78246280D01*
X149373000Y-78348095D01*
X149373000Y-78451905D01*
X149393252Y-78553720D01*
X149432979Y-78649628D01*
X149490652Y-78735943D01*
X149564057Y-78809348D01*
X149650372Y-78867021D01*
X149746280Y-78906748D01*
X149848095Y-78927000D01*
X149951905Y-78927000D01*
X150053720Y-78906748D01*
X150149628Y-78867021D01*
X150235943Y-78809348D01*
X150309348Y-78735943D01*
X150367021Y-78649628D01*
X150406748Y-78553720D01*
X150420802Y-78483066D01*
X150863004Y-78040864D01*
X150874954Y-78058749D01*
X150948359Y-78132154D01*
X151034674Y-78189827D01*
X151130582Y-78229554D01*
X151232397Y-78249806D01*
X151336207Y-78249806D01*
X151438022Y-78229554D01*
X151533930Y-78189827D01*
X151620245Y-78132154D01*
X151693650Y-78058749D01*
X151751323Y-77972434D01*
X151791050Y-77876526D01*
X151805104Y-77805873D01*
X152773977Y-76837000D01*
X153290689Y-76837000D01*
X153357628Y-76937181D01*
X153465447Y-77045000D01*
X153357628Y-77152819D01*
X153267123Y-77288269D01*
X153204782Y-77438773D01*
X153173000Y-77598548D01*
X153173000Y-77761452D01*
X153204782Y-77921227D01*
X153267123Y-78071731D01*
X153357628Y-78207181D01*
X153465447Y-78315000D01*
X153357628Y-78422819D01*
X153267123Y-78558269D01*
X153204782Y-78708773D01*
X153173000Y-78868548D01*
X153173000Y-79031452D01*
X153204782Y-79191227D01*
X153267123Y-79341731D01*
X153357628Y-79477181D01*
X153465447Y-79585000D01*
X153357628Y-79692819D01*
X153267123Y-79828269D01*
X153204782Y-79978773D01*
X153173000Y-80138548D01*
X153173000Y-80301452D01*
X153204782Y-80461227D01*
X153267123Y-80611731D01*
X153357628Y-80747181D01*
X153465447Y-80855000D01*
X153357628Y-80962819D01*
X153267123Y-81098269D01*
X153204782Y-81248773D01*
X153173000Y-81408548D01*
X153173000Y-81571452D01*
X153204782Y-81731227D01*
X153267123Y-81881731D01*
X153357628Y-82017181D01*
X153465447Y-82125000D01*
X153357628Y-82232819D01*
X153267123Y-82368269D01*
X153204782Y-82518773D01*
X153173000Y-82678548D01*
X153173000Y-82841452D01*
X153204782Y-83001227D01*
X153267123Y-83151731D01*
X153357628Y-83287181D01*
X153465447Y-83395000D01*
X153357628Y-83502819D01*
X153267123Y-83638269D01*
X153204782Y-83788773D01*
X153173000Y-83948548D01*
X153173000Y-84111452D01*
X153204782Y-84271227D01*
X153267123Y-84421731D01*
X153357628Y-84557181D01*
X153465447Y-84665000D01*
X153357628Y-84772819D01*
X153267123Y-84908269D01*
X153204782Y-85058773D01*
X153173000Y-85218548D01*
X153173000Y-85381452D01*
X153204782Y-85541227D01*
X153267123Y-85691731D01*
X153332094Y-85788967D01*
X153317450Y-85796794D01*
X153267657Y-85837657D01*
X153226794Y-85887450D01*
X153196430Y-85944257D01*
X153177732Y-86005897D01*
X153171418Y-86070000D01*
X153171418Y-87070000D01*
X153177732Y-87134103D01*
X153196430Y-87195743D01*
X153226794Y-87252550D01*
X153267657Y-87302343D01*
X153317450Y-87343206D01*
X153374257Y-87373570D01*
X153435897Y-87392268D01*
X153500000Y-87398582D01*
X154500000Y-87398582D01*
X154515046Y-87397100D01*
X155073000Y-87397100D01*
X155073000Y-91737059D01*
X155057347Y-91756252D01*
X155037102Y-91773000D01*
X153397100Y-91773000D01*
X153397100Y-90725400D01*
X153397000Y-90724380D01*
X153397000Y-90618548D01*
X153365218Y-90458773D01*
X153302877Y-90308269D01*
X153212372Y-90172819D01*
X153097181Y-90057628D01*
X152961731Y-89967123D01*
X152811227Y-89904782D01*
X152651452Y-89873000D01*
X152488548Y-89873000D01*
X152328773Y-89904782D01*
X152178269Y-89967123D01*
X152042819Y-90057628D01*
X151935000Y-90165447D01*
X151827181Y-90057628D01*
X151691731Y-89967123D01*
X151541227Y-89904782D01*
X151381452Y-89873000D01*
X151218548Y-89873000D01*
X151058773Y-89904782D01*
X150908269Y-89967123D01*
X150772819Y-90057628D01*
X150665000Y-90165447D01*
X150557181Y-90057628D01*
X150421731Y-89967123D01*
X150271227Y-89904782D01*
X150111452Y-89873000D01*
X149948548Y-89873000D01*
X149788773Y-89904782D01*
X149638269Y-89967123D01*
X149502819Y-90057628D01*
X149395000Y-90165447D01*
X149287181Y-90057628D01*
X149151731Y-89967123D01*
X149001227Y-89904782D01*
X148841452Y-89873000D01*
X148678548Y-89873000D01*
X148518773Y-89904782D01*
X148368269Y-89967123D01*
X148232819Y-90057628D01*
X148125000Y-90165447D01*
X148017181Y-90057628D01*
X147881731Y-89967123D01*
X147731227Y-89904782D01*
X147571452Y-89873000D01*
X147408548Y-89873000D01*
X147248773Y-89904782D01*
X147098269Y-89967123D01*
X146962819Y-90057628D01*
X146855000Y-90165447D01*
X146747181Y-90057628D01*
X146611731Y-89967123D01*
X146461227Y-89904782D01*
X146301452Y-89873000D01*
X146138548Y-89873000D01*
X145978773Y-89904782D01*
X145828269Y-89967123D01*
X145692819Y-90057628D01*
X145585000Y-90165447D01*
X145477181Y-90057628D01*
X145341731Y-89967123D01*
X145191227Y-89904782D01*
X145031452Y-89873000D01*
X144868548Y-89873000D01*
X144708773Y-89904782D01*
X144558269Y-89967123D01*
X144422819Y-90057628D01*
X144315000Y-90165447D01*
X144207181Y-90057628D01*
X144071731Y-89967123D01*
X143921227Y-89904782D01*
X143761452Y-89873000D01*
X143598548Y-89873000D01*
X143438773Y-89904782D01*
X143288269Y-89967123D01*
X143152819Y-90057628D01*
X143045000Y-90165447D01*
X142937181Y-90057628D01*
X142801731Y-89967123D01*
X142651227Y-89904782D01*
X142491452Y-89873000D01*
X142328548Y-89873000D01*
X142168773Y-89904782D01*
X142018269Y-89967123D01*
X141882819Y-90057628D01*
X141775000Y-90165447D01*
X141667181Y-90057628D01*
X141531731Y-89967123D01*
X141381227Y-89904782D01*
X141221452Y-89873000D01*
X141058548Y-89873000D01*
X140898773Y-89904782D01*
X140748269Y-89967123D01*
X140612819Y-90057628D01*
X140505000Y-90165447D01*
X140397181Y-90057628D01*
X140261731Y-89967123D01*
X140111227Y-89904782D01*
X139951452Y-89873000D01*
X139788548Y-89873000D01*
X139628773Y-89904782D01*
X139478269Y-89967123D01*
X139381033Y-90032094D01*
X139373206Y-90017450D01*
X139332343Y-89967657D01*
X139282550Y-89926794D01*
X139225743Y-89896430D01*
X139164103Y-89877732D01*
X139100000Y-89871418D01*
X138100000Y-89871418D01*
X138035897Y-89877732D01*
X137974257Y-89896430D01*
X137917450Y-89926794D01*
X137867657Y-89967657D01*
X137826794Y-90017450D01*
X137796430Y-90074257D01*
X137777732Y-90135897D01*
X137771418Y-90200000D01*
X137771418Y-91200000D01*
X137772900Y-91215046D01*
X137772900Y-91773000D01*
X136162941Y-91773000D01*
X136143748Y-91757347D01*
X136127000Y-91737102D01*
X136127000Y-87397100D01*
X137174600Y-87397100D01*
X137175620Y-87397000D01*
X137281452Y-87397000D01*
X137441227Y-87365218D01*
X137591731Y-87302877D01*
X137727181Y-87212372D01*
X137842372Y-87097181D01*
X137932877Y-86961731D01*
X137940195Y-86944063D01*
X138583206Y-87587075D01*
X138596575Y-87603365D01*
X138612865Y-87616734D01*
X138612869Y-87616738D01*
X138661593Y-87656725D01*
X138701243Y-87677918D01*
X138735774Y-87696375D01*
X138816263Y-87720792D01*
X138878992Y-87726970D01*
X138879002Y-87726970D01*
X138899969Y-87729035D01*
X138920936Y-87726970D01*
X141394829Y-87726970D01*
X141454726Y-87766991D01*
X141550634Y-87806718D01*
X141652449Y-87826970D01*
X141756259Y-87826970D01*
X141858074Y-87806718D01*
X141953982Y-87766991D01*
X142040297Y-87709318D01*
X142113702Y-87635913D01*
X142171375Y-87549598D01*
X142211102Y-87453690D01*
X142231354Y-87351875D01*
X142231354Y-87248065D01*
X142227158Y-87226969D01*
X142898784Y-87226969D01*
X142919751Y-87229034D01*
X142940718Y-87226969D01*
X142940729Y-87226969D01*
X143003458Y-87220791D01*
X143083947Y-87196374D01*
X143158127Y-87156724D01*
X143223146Y-87103364D01*
X143236519Y-87087069D01*
X143602868Y-86720721D01*
X143673521Y-86706667D01*
X143769429Y-86666940D01*
X143855744Y-86609267D01*
X143929149Y-86535862D01*
X143986822Y-86449547D01*
X144026549Y-86353639D01*
X144046801Y-86251824D01*
X144046801Y-86148014D01*
X144026549Y-86046199D01*
X143986822Y-85950291D01*
X143929149Y-85863976D01*
X143855744Y-85790571D01*
X143769429Y-85732898D01*
X143673521Y-85693171D01*
X143571706Y-85672919D01*
X143467896Y-85672919D01*
X143366081Y-85693171D01*
X143270173Y-85732898D01*
X143183858Y-85790571D01*
X143110453Y-85863976D01*
X143052780Y-85950291D01*
X143013053Y-86046199D01*
X142998999Y-86116852D01*
X142742883Y-86372969D01*
X141420998Y-86372969D01*
X141400031Y-86370904D01*
X141379064Y-86372969D01*
X141379053Y-86372969D01*
X141378738Y-86373000D01*
X139392698Y-86373000D01*
X139392698Y-83362662D01*
X139394763Y-83341695D01*
X139392698Y-83320728D01*
X139392698Y-83320718D01*
X139386520Y-83257989D01*
X139362103Y-83177500D01*
X139325543Y-83109101D01*
X139322453Y-83103319D01*
X139282466Y-83054595D01*
X139282462Y-83054591D01*
X139269093Y-83038301D01*
X139252803Y-83024932D01*
X137984638Y-81756768D01*
X137995218Y-81731227D01*
X138013824Y-81637692D01*
X138353119Y-81976988D01*
X138366488Y-81993278D01*
X138382778Y-82006647D01*
X138382781Y-82006650D01*
X138431506Y-82046638D01*
X138471156Y-82067831D01*
X138505687Y-82086288D01*
X138586176Y-82110705D01*
X138648905Y-82116883D01*
X138648925Y-82116883D01*
X138669882Y-82118947D01*
X138690839Y-82116883D01*
X140610485Y-82116883D01*
X140670382Y-82156904D01*
X140766290Y-82196631D01*
X140868105Y-82216883D01*
X140971915Y-82216883D01*
X141073730Y-82196631D01*
X141169638Y-82156904D01*
X141255953Y-82099231D01*
X141269446Y-82085738D01*
X141269446Y-84025210D01*
X141269445Y-84025220D01*
X141269445Y-84114554D01*
X141012038Y-84371961D01*
X140990026Y-84390026D01*
X140971963Y-84412036D01*
X140951815Y-84432184D01*
X140935988Y-84455871D01*
X140917921Y-84477885D01*
X140904497Y-84503000D01*
X140888669Y-84526688D01*
X140877765Y-84553013D01*
X140864343Y-84578124D01*
X140856078Y-84605370D01*
X140845174Y-84631695D01*
X140839615Y-84659639D01*
X140831349Y-84686889D01*
X140829542Y-84705242D01*
X140828559Y-84715222D01*
X140823000Y-84743170D01*
X140823000Y-84771664D01*
X140820209Y-84800000D01*
X140823000Y-84828336D01*
X140823000Y-84856830D01*
X140828558Y-84884773D01*
X140831349Y-84913111D01*
X140839615Y-84940361D01*
X140845174Y-84968305D01*
X140856078Y-84994630D01*
X140864343Y-85021876D01*
X140877765Y-85046987D01*
X140888669Y-85073312D01*
X140904497Y-85097000D01*
X140917921Y-85122115D01*
X140935988Y-85144129D01*
X140951815Y-85167816D01*
X140971961Y-85187962D01*
X140990026Y-85209974D01*
X141012036Y-85228037D01*
X141032184Y-85248185D01*
X141055871Y-85264012D01*
X141077885Y-85282079D01*
X141103000Y-85295503D01*
X141126688Y-85311331D01*
X141153013Y-85322235D01*
X141178124Y-85335657D01*
X141205370Y-85343922D01*
X141231695Y-85354826D01*
X141259639Y-85360385D01*
X141286889Y-85368651D01*
X141315227Y-85371442D01*
X141343170Y-85377000D01*
X141371669Y-85377000D01*
X141400000Y-85379790D01*
X141428331Y-85377000D01*
X147160999Y-85377000D01*
X148032184Y-86248185D01*
X148055879Y-86264018D01*
X148077886Y-86282078D01*
X148102992Y-86295498D01*
X148126688Y-86311331D01*
X148153013Y-86322235D01*
X148178123Y-86335657D01*
X148205375Y-86343924D01*
X148231695Y-86354826D01*
X148259634Y-86360383D01*
X148286888Y-86368651D01*
X148315230Y-86371442D01*
X148343170Y-86377000D01*
X148371661Y-86377000D01*
X148400000Y-86379791D01*
X148428339Y-86377000D01*
X148456830Y-86377000D01*
X148484771Y-86371442D01*
X148513111Y-86368651D01*
X148540363Y-86360384D01*
X148568305Y-86354826D01*
X148594628Y-86343923D01*
X148621876Y-86335657D01*
X148646984Y-86322236D01*
X148673312Y-86311331D01*
X148697009Y-86295497D01*
X148722114Y-86282078D01*
X148744121Y-86264018D01*
X148767816Y-86248185D01*
X148787964Y-86228037D01*
X148809974Y-86209974D01*
X148828037Y-86187964D01*
X148848185Y-86167816D01*
X148864018Y-86144121D01*
X148882078Y-86122114D01*
X148895497Y-86097009D01*
X148911331Y-86073312D01*
X148922236Y-86046984D01*
X148935657Y-86021876D01*
X148943923Y-85994628D01*
X148954826Y-85968305D01*
X148960384Y-85940363D01*
X148968651Y-85913111D01*
X148971442Y-85884771D01*
X148977000Y-85856830D01*
X148977000Y-85828339D01*
X148979791Y-85800000D01*
X148977000Y-85771661D01*
X148977000Y-85743170D01*
X148971442Y-85715230D01*
X148968651Y-85686888D01*
X148960383Y-85659634D01*
X148954826Y-85631695D01*
X148943924Y-85605375D01*
X148935657Y-85578123D01*
X148922235Y-85553013D01*
X148911331Y-85526688D01*
X148895498Y-85502992D01*
X148882078Y-85477886D01*
X148864018Y-85455879D01*
X148848185Y-85432184D01*
X147828037Y-84412036D01*
X147809974Y-84390026D01*
X147722115Y-84317921D01*
X147621876Y-84264343D01*
X147557770Y-84244897D01*
X147513111Y-84231349D01*
X147455332Y-84225659D01*
X147428336Y-84223000D01*
X147428331Y-84223000D01*
X147400000Y-84220210D01*
X147371669Y-84223000D01*
X142423445Y-84223000D01*
X142423445Y-77930555D01*
X142825225Y-77930555D01*
X142853554Y-77933345D01*
X142881883Y-77930555D01*
X145580116Y-77930555D01*
X145608447Y-77933345D01*
X145636778Y-77930555D01*
X145636783Y-77930555D01*
X145666492Y-77927629D01*
X145721558Y-77922206D01*
X145766217Y-77908658D01*
X145830323Y-77889212D01*
X145930562Y-77835634D01*
X146018421Y-77763529D01*
X146036486Y-77741517D01*
X148301003Y-75477000D01*
X149733671Y-75477000D01*
X149762002Y-75479790D01*
X149790333Y-75477000D01*
X149790338Y-75477000D01*
X149820047Y-75474074D01*
X149875113Y-75468651D01*
X149919772Y-75455103D01*
X149983878Y-75435657D01*
X150084117Y-75382079D01*
X150171976Y-75309974D01*
X150190041Y-75287962D01*
X152301004Y-73177000D01*
X153106555Y-73177000D01*
X153012877Y-73309794D01*
%TA.AperFunction,Conductor*%
D19*
G36*
X153012877Y-73309794D02*
G01*
X152922554Y-73513136D01*
X152905881Y-73568126D01*
X153032046Y-73743000D01*
X153680900Y-73743000D01*
X153680900Y-73997000D01*
X153032046Y-73997000D01*
X152905881Y-74171874D01*
X152922554Y-74226864D01*
X153012877Y-74430206D01*
X153141135Y-74612020D01*
X153247362Y-74713000D01*
X153180966Y-74713000D01*
X153159999Y-74710935D01*
X153139032Y-74713000D01*
X153139022Y-74713000D01*
X153076293Y-74719178D01*
X152995804Y-74743595D01*
X152961273Y-74762052D01*
X152921623Y-74783245D01*
X152872898Y-74823232D01*
X152872889Y-74823241D01*
X152856605Y-74836605D01*
X152843241Y-74852889D01*
X149816934Y-77879198D01*
X149746280Y-77893252D01*
X149650372Y-77932979D01*
X149564057Y-77990652D01*
X149490652Y-78064057D01*
X149432979Y-78150372D01*
X149393252Y-78246280D01*
X149373000Y-78348095D01*
X149373000Y-78451905D01*
X149393252Y-78553720D01*
X149432979Y-78649628D01*
X149490652Y-78735943D01*
X149564057Y-78809348D01*
X149650372Y-78867021D01*
X149746280Y-78906748D01*
X149848095Y-78927000D01*
X149951905Y-78927000D01*
X150053720Y-78906748D01*
X150149628Y-78867021D01*
X150235943Y-78809348D01*
X150309348Y-78735943D01*
X150367021Y-78649628D01*
X150406748Y-78553720D01*
X150420802Y-78483066D01*
X150863004Y-78040864D01*
X150874954Y-78058749D01*
X150948359Y-78132154D01*
X151034674Y-78189827D01*
X151130582Y-78229554D01*
X151232397Y-78249806D01*
X151336207Y-78249806D01*
X151438022Y-78229554D01*
X151533930Y-78189827D01*
X151620245Y-78132154D01*
X151693650Y-78058749D01*
X151751323Y-77972434D01*
X151791050Y-77876526D01*
X151805104Y-77805873D01*
X152773977Y-76837000D01*
X153290689Y-76837000D01*
X153357628Y-76937181D01*
X153465447Y-77045000D01*
X153357628Y-77152819D01*
X153267123Y-77288269D01*
X153204782Y-77438773D01*
X153173000Y-77598548D01*
X153173000Y-77761452D01*
X153204782Y-77921227D01*
X153267123Y-78071731D01*
X153357628Y-78207181D01*
X153465447Y-78315000D01*
X153357628Y-78422819D01*
X153267123Y-78558269D01*
X153204782Y-78708773D01*
X153173000Y-78868548D01*
X153173000Y-79031452D01*
X153204782Y-79191227D01*
X153267123Y-79341731D01*
X153357628Y-79477181D01*
X153465447Y-79585000D01*
X153357628Y-79692819D01*
X153267123Y-79828269D01*
X153204782Y-79978773D01*
X153173000Y-80138548D01*
X153173000Y-80301452D01*
X153204782Y-80461227D01*
X153267123Y-80611731D01*
X153357628Y-80747181D01*
X153465447Y-80855000D01*
X153357628Y-80962819D01*
X153267123Y-81098269D01*
X153204782Y-81248773D01*
X153173000Y-81408548D01*
X153173000Y-81571452D01*
X153204782Y-81731227D01*
X153267123Y-81881731D01*
X153357628Y-82017181D01*
X153465447Y-82125000D01*
X153357628Y-82232819D01*
X153267123Y-82368269D01*
X153204782Y-82518773D01*
X153173000Y-82678548D01*
X153173000Y-82841452D01*
X153204782Y-83001227D01*
X153267123Y-83151731D01*
X153357628Y-83287181D01*
X153465447Y-83395000D01*
X153357628Y-83502819D01*
X153267123Y-83638269D01*
X153204782Y-83788773D01*
X153173000Y-83948548D01*
X153173000Y-84111452D01*
X153204782Y-84271227D01*
X153267123Y-84421731D01*
X153357628Y-84557181D01*
X153465447Y-84665000D01*
X153357628Y-84772819D01*
X153267123Y-84908269D01*
X153204782Y-85058773D01*
X153173000Y-85218548D01*
X153173000Y-85381452D01*
X153204782Y-85541227D01*
X153267123Y-85691731D01*
X153332094Y-85788967D01*
X153317450Y-85796794D01*
X153267657Y-85837657D01*
X153226794Y-85887450D01*
X153196430Y-85944257D01*
X153177732Y-86005897D01*
X153171418Y-86070000D01*
X153171418Y-87070000D01*
X153177732Y-87134103D01*
X153196430Y-87195743D01*
X153226794Y-87252550D01*
X153267657Y-87302343D01*
X153317450Y-87343206D01*
X153374257Y-87373570D01*
X153435897Y-87392268D01*
X153500000Y-87398582D01*
X154500000Y-87398582D01*
X154515046Y-87397100D01*
X155073000Y-87397100D01*
X155073000Y-91737059D01*
X155057347Y-91756252D01*
X155037102Y-91773000D01*
X153397100Y-91773000D01*
X153397100Y-90725400D01*
X153397000Y-90724380D01*
X153397000Y-90618548D01*
X153365218Y-90458773D01*
X153302877Y-90308269D01*
X153212372Y-90172819D01*
X153097181Y-90057628D01*
X152961731Y-89967123D01*
X152811227Y-89904782D01*
X152651452Y-89873000D01*
X152488548Y-89873000D01*
X152328773Y-89904782D01*
X152178269Y-89967123D01*
X152042819Y-90057628D01*
X151935000Y-90165447D01*
X151827181Y-90057628D01*
X151691731Y-89967123D01*
X151541227Y-89904782D01*
X151381452Y-89873000D01*
X151218548Y-89873000D01*
X151058773Y-89904782D01*
X150908269Y-89967123D01*
X150772819Y-90057628D01*
X150665000Y-90165447D01*
X150557181Y-90057628D01*
X150421731Y-89967123D01*
X150271227Y-89904782D01*
X150111452Y-89873000D01*
X149948548Y-89873000D01*
X149788773Y-89904782D01*
X149638269Y-89967123D01*
X149502819Y-90057628D01*
X149395000Y-90165447D01*
X149287181Y-90057628D01*
X149151731Y-89967123D01*
X149001227Y-89904782D01*
X148841452Y-89873000D01*
X148678548Y-89873000D01*
X148518773Y-89904782D01*
X148368269Y-89967123D01*
X148232819Y-90057628D01*
X148125000Y-90165447D01*
X148017181Y-90057628D01*
X147881731Y-89967123D01*
X147731227Y-89904782D01*
X147571452Y-89873000D01*
X147408548Y-89873000D01*
X147248773Y-89904782D01*
X147098269Y-89967123D01*
X146962819Y-90057628D01*
X146855000Y-90165447D01*
X146747181Y-90057628D01*
X146611731Y-89967123D01*
X146461227Y-89904782D01*
X146301452Y-89873000D01*
X146138548Y-89873000D01*
X145978773Y-89904782D01*
X145828269Y-89967123D01*
X145692819Y-90057628D01*
X145585000Y-90165447D01*
X145477181Y-90057628D01*
X145341731Y-89967123D01*
X145191227Y-89904782D01*
X145031452Y-89873000D01*
X144868548Y-89873000D01*
X144708773Y-89904782D01*
X144558269Y-89967123D01*
X144422819Y-90057628D01*
X144315000Y-90165447D01*
X144207181Y-90057628D01*
X144071731Y-89967123D01*
X143921227Y-89904782D01*
X143761452Y-89873000D01*
X143598548Y-89873000D01*
X143438773Y-89904782D01*
X143288269Y-89967123D01*
X143152819Y-90057628D01*
X143045000Y-90165447D01*
X142937181Y-90057628D01*
X142801731Y-89967123D01*
X142651227Y-89904782D01*
X142491452Y-89873000D01*
X142328548Y-89873000D01*
X142168773Y-89904782D01*
X142018269Y-89967123D01*
X141882819Y-90057628D01*
X141775000Y-90165447D01*
X141667181Y-90057628D01*
X141531731Y-89967123D01*
X141381227Y-89904782D01*
X141221452Y-89873000D01*
X141058548Y-89873000D01*
X140898773Y-89904782D01*
X140748269Y-89967123D01*
X140612819Y-90057628D01*
X140505000Y-90165447D01*
X140397181Y-90057628D01*
X140261731Y-89967123D01*
X140111227Y-89904782D01*
X139951452Y-89873000D01*
X139788548Y-89873000D01*
X139628773Y-89904782D01*
X139478269Y-89967123D01*
X139381033Y-90032094D01*
X139373206Y-90017450D01*
X139332343Y-89967657D01*
X139282550Y-89926794D01*
X139225743Y-89896430D01*
X139164103Y-89877732D01*
X139100000Y-89871418D01*
X138100000Y-89871418D01*
X138035897Y-89877732D01*
X137974257Y-89896430D01*
X137917450Y-89926794D01*
X137867657Y-89967657D01*
X137826794Y-90017450D01*
X137796430Y-90074257D01*
X137777732Y-90135897D01*
X137771418Y-90200000D01*
X137771418Y-91200000D01*
X137772900Y-91215046D01*
X137772900Y-91773000D01*
X136162941Y-91773000D01*
X136143748Y-91757347D01*
X136127000Y-91737102D01*
X136127000Y-87397100D01*
X137174600Y-87397100D01*
X137175620Y-87397000D01*
X137281452Y-87397000D01*
X137441227Y-87365218D01*
X137591731Y-87302877D01*
X137727181Y-87212372D01*
X137842372Y-87097181D01*
X137932877Y-86961731D01*
X137940195Y-86944063D01*
X138583206Y-87587075D01*
X138596575Y-87603365D01*
X138612865Y-87616734D01*
X138612869Y-87616738D01*
X138661593Y-87656725D01*
X138701243Y-87677918D01*
X138735774Y-87696375D01*
X138816263Y-87720792D01*
X138878992Y-87726970D01*
X138879002Y-87726970D01*
X138899969Y-87729035D01*
X138920936Y-87726970D01*
X141394829Y-87726970D01*
X141454726Y-87766991D01*
X141550634Y-87806718D01*
X141652449Y-87826970D01*
X141756259Y-87826970D01*
X141858074Y-87806718D01*
X141953982Y-87766991D01*
X142040297Y-87709318D01*
X142113702Y-87635913D01*
X142171375Y-87549598D01*
X142211102Y-87453690D01*
X142231354Y-87351875D01*
X142231354Y-87248065D01*
X142227158Y-87226969D01*
X142898784Y-87226969D01*
X142919751Y-87229034D01*
X142940718Y-87226969D01*
X142940729Y-87226969D01*
X143003458Y-87220791D01*
X143083947Y-87196374D01*
X143158127Y-87156724D01*
X143223146Y-87103364D01*
X143236519Y-87087069D01*
X143602868Y-86720721D01*
X143673521Y-86706667D01*
X143769429Y-86666940D01*
X143855744Y-86609267D01*
X143929149Y-86535862D01*
X143986822Y-86449547D01*
X144026549Y-86353639D01*
X144046801Y-86251824D01*
X144046801Y-86148014D01*
X144026549Y-86046199D01*
X143986822Y-85950291D01*
X143929149Y-85863976D01*
X143855744Y-85790571D01*
X143769429Y-85732898D01*
X143673521Y-85693171D01*
X143571706Y-85672919D01*
X143467896Y-85672919D01*
X143366081Y-85693171D01*
X143270173Y-85732898D01*
X143183858Y-85790571D01*
X143110453Y-85863976D01*
X143052780Y-85950291D01*
X143013053Y-86046199D01*
X142998999Y-86116852D01*
X142742883Y-86372969D01*
X141420998Y-86372969D01*
X141400031Y-86370904D01*
X141379064Y-86372969D01*
X141379053Y-86372969D01*
X141378738Y-86373000D01*
X139392698Y-86373000D01*
X139392698Y-83362662D01*
X139394763Y-83341695D01*
X139392698Y-83320728D01*
X139392698Y-83320718D01*
X139386520Y-83257989D01*
X139362103Y-83177500D01*
X139325543Y-83109101D01*
X139322453Y-83103319D01*
X139282466Y-83054595D01*
X139282462Y-83054591D01*
X139269093Y-83038301D01*
X139252803Y-83024932D01*
X137984638Y-81756768D01*
X137995218Y-81731227D01*
X138013824Y-81637692D01*
X138353119Y-81976988D01*
X138366488Y-81993278D01*
X138382778Y-82006647D01*
X138382781Y-82006650D01*
X138431506Y-82046638D01*
X138471156Y-82067831D01*
X138505687Y-82086288D01*
X138586176Y-82110705D01*
X138648905Y-82116883D01*
X138648925Y-82116883D01*
X138669882Y-82118947D01*
X138690839Y-82116883D01*
X140610485Y-82116883D01*
X140670382Y-82156904D01*
X140766290Y-82196631D01*
X140868105Y-82216883D01*
X140971915Y-82216883D01*
X141073730Y-82196631D01*
X141169638Y-82156904D01*
X141255953Y-82099231D01*
X141269446Y-82085738D01*
X141269446Y-84025210D01*
X141269445Y-84025220D01*
X141269445Y-84114554D01*
X141012038Y-84371961D01*
X140990026Y-84390026D01*
X140971963Y-84412036D01*
X140951815Y-84432184D01*
X140935988Y-84455871D01*
X140917921Y-84477885D01*
X140904497Y-84503000D01*
X140888669Y-84526688D01*
X140877765Y-84553013D01*
X140864343Y-84578124D01*
X140856078Y-84605370D01*
X140845174Y-84631695D01*
X140839615Y-84659639D01*
X140831349Y-84686889D01*
X140829542Y-84705242D01*
X140828559Y-84715222D01*
X140823000Y-84743170D01*
X140823000Y-84771664D01*
X140820209Y-84800000D01*
X140823000Y-84828336D01*
X140823000Y-84856830D01*
X140828558Y-84884773D01*
X140831349Y-84913111D01*
X140839615Y-84940361D01*
X140845174Y-84968305D01*
X140856078Y-84994630D01*
X140864343Y-85021876D01*
X140877765Y-85046987D01*
X140888669Y-85073312D01*
X140904497Y-85097000D01*
X140917921Y-85122115D01*
X140935988Y-85144129D01*
X140951815Y-85167816D01*
X140971961Y-85187962D01*
X140990026Y-85209974D01*
X141012036Y-85228037D01*
X141032184Y-85248185D01*
X141055871Y-85264012D01*
X141077885Y-85282079D01*
X141103000Y-85295503D01*
X141126688Y-85311331D01*
X141153013Y-85322235D01*
X141178124Y-85335657D01*
X141205370Y-85343922D01*
X141231695Y-85354826D01*
X141259639Y-85360385D01*
X141286889Y-85368651D01*
X141315227Y-85371442D01*
X141343170Y-85377000D01*
X141371669Y-85377000D01*
X141400000Y-85379790D01*
X141428331Y-85377000D01*
X147160999Y-85377000D01*
X148032184Y-86248185D01*
X148055879Y-86264018D01*
X148077886Y-86282078D01*
X148102992Y-86295498D01*
X148126688Y-86311331D01*
X148153013Y-86322235D01*
X148178123Y-86335657D01*
X148205375Y-86343924D01*
X148231695Y-86354826D01*
X148259634Y-86360383D01*
X148286888Y-86368651D01*
X148315230Y-86371442D01*
X148343170Y-86377000D01*
X148371661Y-86377000D01*
X148400000Y-86379791D01*
X148428339Y-86377000D01*
X148456830Y-86377000D01*
X148484771Y-86371442D01*
X148513111Y-86368651D01*
X148540363Y-86360384D01*
X148568305Y-86354826D01*
X148594628Y-86343923D01*
X148621876Y-86335657D01*
X148646984Y-86322236D01*
X148673312Y-86311331D01*
X148697009Y-86295497D01*
X148722114Y-86282078D01*
X148744121Y-86264018D01*
X148767816Y-86248185D01*
X148787964Y-86228037D01*
X148809974Y-86209974D01*
X148828037Y-86187964D01*
X148848185Y-86167816D01*
X148864018Y-86144121D01*
X148882078Y-86122114D01*
X148895497Y-86097009D01*
X148911331Y-86073312D01*
X148922236Y-86046984D01*
X148935657Y-86021876D01*
X148943923Y-85994628D01*
X148954826Y-85968305D01*
X148960384Y-85940363D01*
X148968651Y-85913111D01*
X148971442Y-85884771D01*
X148977000Y-85856830D01*
X148977000Y-85828339D01*
X148979791Y-85800000D01*
X148977000Y-85771661D01*
X148977000Y-85743170D01*
X148971442Y-85715230D01*
X148968651Y-85686888D01*
X148960383Y-85659634D01*
X148954826Y-85631695D01*
X148943924Y-85605375D01*
X148935657Y-85578123D01*
X148922235Y-85553013D01*
X148911331Y-85526688D01*
X148895498Y-85502992D01*
X148882078Y-85477886D01*
X148864018Y-85455879D01*
X148848185Y-85432184D01*
X147828037Y-84412036D01*
X147809974Y-84390026D01*
X147722115Y-84317921D01*
X147621876Y-84264343D01*
X147557770Y-84244897D01*
X147513111Y-84231349D01*
X147455332Y-84225659D01*
X147428336Y-84223000D01*
X147428331Y-84223000D01*
X147400000Y-84220210D01*
X147371669Y-84223000D01*
X142423445Y-84223000D01*
X142423445Y-77930555D01*
X142825225Y-77930555D01*
X142853554Y-77933345D01*
X142881883Y-77930555D01*
X145580116Y-77930555D01*
X145608447Y-77933345D01*
X145636778Y-77930555D01*
X145636783Y-77930555D01*
X145666492Y-77927629D01*
X145721558Y-77922206D01*
X145766217Y-77908658D01*
X145830323Y-77889212D01*
X145930562Y-77835634D01*
X146018421Y-77763529D01*
X146036486Y-77741517D01*
X148301003Y-75477000D01*
X149733671Y-75477000D01*
X149762002Y-75479790D01*
X149790333Y-75477000D01*
X149790338Y-75477000D01*
X149820047Y-75474074D01*
X149875113Y-75468651D01*
X149919772Y-75455103D01*
X149983878Y-75435657D01*
X150084117Y-75382079D01*
X150171976Y-75309974D01*
X150190041Y-75287962D01*
X152301004Y-73177000D01*
X153106555Y-73177000D01*
X153012877Y-73309794D01*
G37*
%TD.AperFunction*%
D18*
X140348882Y-80425555D02*
X140362935Y-80496208D01*
X140401049Y-80588222D01*
X139652089Y-80588222D01*
X138027000Y-78963134D01*
X138027000Y-78868548D01*
X137995218Y-78708773D01*
X137932877Y-78558269D01*
X137842372Y-78422819D01*
X137734553Y-78315000D01*
X137842372Y-78207181D01*
X137909311Y-78107000D01*
X138030327Y-78107000D01*
X140348882Y-80425555D01*
%TA.AperFunction,Conductor*%
D19*
G36*
X140348882Y-80425555D02*
G01*
X140362935Y-80496208D01*
X140401049Y-80588222D01*
X139652089Y-80588222D01*
X138027000Y-78963134D01*
X138027000Y-78868548D01*
X137995218Y-78708773D01*
X137932877Y-78558269D01*
X137842372Y-78422819D01*
X137734553Y-78315000D01*
X137842372Y-78207181D01*
X137909311Y-78107000D01*
X138030327Y-78107000D01*
X140348882Y-80425555D01*
G37*
%TD.AperFunction*%
D18*
X155073000Y-71772900D02*
X154025400Y-71772900D01*
X154024380Y-71773000D01*
X153918548Y-71773000D01*
X153758773Y-71804782D01*
X153608269Y-71867123D01*
X153472819Y-71957628D01*
X153407447Y-72023000D01*
X152090330Y-72023000D01*
X152062001Y-72020210D01*
X152033672Y-72023000D01*
X152033666Y-72023000D01*
X151948890Y-72031350D01*
X151840126Y-72064343D01*
X151739887Y-72117921D01*
X151693982Y-72155595D01*
X151674037Y-72171963D01*
X151674035Y-72171965D01*
X151652028Y-72190026D01*
X151633967Y-72212033D01*
X150838425Y-73007575D01*
X150809348Y-72964057D01*
X150735943Y-72890652D01*
X150649628Y-72832979D01*
X150553720Y-72793252D01*
X150451905Y-72773000D01*
X150348095Y-72773000D01*
X150246280Y-72793252D01*
X150150372Y-72832979D01*
X150064057Y-72890652D01*
X149990652Y-72964057D01*
X149932979Y-73050372D01*
X149893252Y-73146280D01*
X149879198Y-73216933D01*
X149303880Y-73792252D01*
X148988716Y-73792252D01*
X149049628Y-73767021D01*
X149135943Y-73709348D01*
X149209348Y-73635943D01*
X149267021Y-73549628D01*
X149306748Y-73453720D01*
X149327000Y-73351905D01*
X149327000Y-73248095D01*
X149306748Y-73146280D01*
X149267021Y-73050372D01*
X149209348Y-72964057D01*
X149135943Y-72890652D01*
X149049628Y-72832979D01*
X148953720Y-72793252D01*
X148851905Y-72773000D01*
X148748095Y-72773000D01*
X148646280Y-72793252D01*
X148550372Y-72832979D01*
X148464057Y-72890652D01*
X148390652Y-72964057D01*
X148332979Y-73050372D01*
X148293252Y-73146280D01*
X148279199Y-73216932D01*
X148123130Y-73373001D01*
X147622804Y-73373001D01*
X147627000Y-73351905D01*
X147627000Y-73248095D01*
X147606748Y-73146280D01*
X147567021Y-73050372D01*
X147509348Y-72964057D01*
X147435943Y-72890652D01*
X147349628Y-72832979D01*
X147253720Y-72793252D01*
X147151905Y-72773000D01*
X147048095Y-72773000D01*
X146946280Y-72793252D01*
X146850372Y-72832979D01*
X146790475Y-72873000D01*
X144789569Y-72873000D01*
X144768602Y-72870935D01*
X144747635Y-72873000D01*
X144747624Y-72873000D01*
X144684895Y-72879178D01*
X144623139Y-72897912D01*
X144604405Y-72903595D01*
X144530225Y-72943244D01*
X144481501Y-72983232D01*
X144481497Y-72983236D01*
X144465207Y-72996605D01*
X144451838Y-73012895D01*
X143408690Y-74056044D01*
X143406748Y-74046280D01*
X143367021Y-73950372D01*
X143309348Y-73864057D01*
X143235943Y-73790652D01*
X143149628Y-73732979D01*
X143053720Y-73693252D01*
X142951905Y-73673000D01*
X142848095Y-73673000D01*
X142746280Y-73693252D01*
X142650372Y-73732979D01*
X142564057Y-73790652D01*
X142490652Y-73864057D01*
X142432979Y-73950372D01*
X142393252Y-74046280D01*
X142373000Y-74148095D01*
X142373000Y-74251905D01*
X142393252Y-74353720D01*
X142432979Y-74449628D01*
X142490652Y-74535943D01*
X142521834Y-74567125D01*
X142521833Y-75790475D01*
X142481812Y-75850372D01*
X142442085Y-75946280D01*
X142421833Y-76048095D01*
X142421833Y-76105832D01*
X141767816Y-75451815D01*
X141744121Y-75435982D01*
X141722114Y-75417922D01*
X141697011Y-75404504D01*
X141673312Y-75388669D01*
X141646978Y-75377761D01*
X141621876Y-75364344D01*
X141594635Y-75356080D01*
X141568305Y-75345174D01*
X141540361Y-75339615D01*
X141513111Y-75331349D01*
X141484773Y-75328558D01*
X141456830Y-75323000D01*
X141428331Y-75323000D01*
X141400000Y-75320210D01*
X141371669Y-75323000D01*
X141343170Y-75323000D01*
X141315227Y-75328558D01*
X141286889Y-75331349D01*
X141259639Y-75339615D01*
X141231695Y-75345174D01*
X141205365Y-75356080D01*
X141178124Y-75364344D01*
X141153022Y-75377761D01*
X141126688Y-75388669D01*
X141102989Y-75404504D01*
X141077886Y-75417922D01*
X141055879Y-75435982D01*
X141032184Y-75451815D01*
X141012036Y-75471963D01*
X140990026Y-75490026D01*
X140971963Y-75512036D01*
X140951815Y-75532184D01*
X140935982Y-75555879D01*
X140917922Y-75577886D01*
X140904504Y-75602989D01*
X140888669Y-75626688D01*
X140877761Y-75653022D01*
X140864344Y-75678124D01*
X140856080Y-75705365D01*
X140845174Y-75731695D01*
X140839615Y-75759639D01*
X140831349Y-75786889D01*
X140828558Y-75815227D01*
X140823000Y-75843170D01*
X140823000Y-75871669D01*
X140820210Y-75900000D01*
X140823000Y-75928331D01*
X140823000Y-75956830D01*
X140828558Y-75984773D01*
X140831349Y-76013111D01*
X140839615Y-76040361D01*
X140845174Y-76068305D01*
X140856080Y-76094635D01*
X140864344Y-76121876D01*
X140877761Y-76146978D01*
X140888669Y-76173312D01*
X140904504Y-76197011D01*
X140917922Y-76222114D01*
X140935982Y-76244121D01*
X140951815Y-76267816D01*
X140971963Y-76287964D01*
X141544626Y-76860628D01*
X141524330Y-76871476D01*
X141436471Y-76943581D01*
X141364366Y-77031440D01*
X141310788Y-77131679D01*
X141277795Y-77240443D01*
X141266654Y-77353555D01*
X141269445Y-77381891D01*
X141269445Y-79996959D01*
X141205626Y-79933140D01*
X141119311Y-79875467D01*
X141023403Y-79835740D01*
X140952750Y-79821687D01*
X138523963Y-77392900D01*
X138510590Y-77376605D01*
X138445571Y-77323245D01*
X138371391Y-77283595D01*
X138290902Y-77259178D01*
X138228173Y-77253000D01*
X138228162Y-77253000D01*
X138207195Y-77250935D01*
X138186228Y-77253000D01*
X137909311Y-77253000D01*
X137842372Y-77152819D01*
X137734553Y-77045000D01*
X137842372Y-76937181D01*
X137932877Y-76801731D01*
X137995218Y-76651227D01*
X138027000Y-76491452D01*
X138027000Y-76328548D01*
X137995218Y-76168773D01*
X137932877Y-76018269D01*
X137842372Y-75882819D01*
X137734553Y-75775000D01*
X137842372Y-75667181D01*
X137932877Y-75531731D01*
X137995218Y-75381227D01*
X138027000Y-75221452D01*
X138027000Y-75058548D01*
X137995218Y-74898773D01*
X137932877Y-74748269D01*
X137842372Y-74612819D01*
X137734553Y-74505000D01*
X137842372Y-74397181D01*
X137932877Y-74261731D01*
X137995218Y-74111227D01*
X138027000Y-73951452D01*
X138027000Y-73788548D01*
X137995218Y-73628773D01*
X137932877Y-73478269D01*
X137867906Y-73381033D01*
X137882550Y-73373206D01*
X137932343Y-73332343D01*
X137973206Y-73282550D01*
X138003570Y-73225743D01*
X138022268Y-73164103D01*
X138028582Y-73100000D01*
X138028582Y-72100000D01*
X138022268Y-72035897D01*
X138003570Y-71974257D01*
X137973206Y-71917450D01*
X137932343Y-71867657D01*
X137882550Y-71826794D01*
X137825743Y-71796430D01*
X137764103Y-71777732D01*
X137700000Y-71771418D01*
X136700000Y-71771418D01*
X136684954Y-71772900D01*
X136127000Y-71772900D01*
X136127000Y-66172471D01*
X136146199Y-66182733D01*
X136170024Y-66189960D01*
X136194800Y-66192400D01*
X140500100Y-66192400D01*
X140524876Y-66189960D01*
X140548701Y-66182733D01*
X140570657Y-66170997D01*
X140589903Y-66155203D01*
X140605697Y-66135957D01*
X140617433Y-66114001D01*
X140624660Y-66090176D01*
X140627100Y-66065400D01*
X140627100Y-64668400D01*
X154990800Y-64668400D01*
X155015576Y-64665960D01*
X155039401Y-64658733D01*
X155061357Y-64646997D01*
X155073000Y-64637442D01*
X155073000Y-71772900D01*
%TA.AperFunction,Conductor*%
D19*
G36*
X155073000Y-71772900D02*
G01*
X154025400Y-71772900D01*
X154024380Y-71773000D01*
X153918548Y-71773000D01*
X153758773Y-71804782D01*
X153608269Y-71867123D01*
X153472819Y-71957628D01*
X153407447Y-72023000D01*
X152090330Y-72023000D01*
X152062001Y-72020210D01*
X152033672Y-72023000D01*
X152033666Y-72023000D01*
X151948890Y-72031350D01*
X151840126Y-72064343D01*
X151739887Y-72117921D01*
X151693982Y-72155595D01*
X151674037Y-72171963D01*
X151674035Y-72171965D01*
X151652028Y-72190026D01*
X151633967Y-72212033D01*
X150838425Y-73007575D01*
X150809348Y-72964057D01*
X150735943Y-72890652D01*
X150649628Y-72832979D01*
X150553720Y-72793252D01*
X150451905Y-72773000D01*
X150348095Y-72773000D01*
X150246280Y-72793252D01*
X150150372Y-72832979D01*
X150064057Y-72890652D01*
X149990652Y-72964057D01*
X149932979Y-73050372D01*
X149893252Y-73146280D01*
X149879198Y-73216933D01*
X149303880Y-73792252D01*
X148988716Y-73792252D01*
X149049628Y-73767021D01*
X149135943Y-73709348D01*
X149209348Y-73635943D01*
X149267021Y-73549628D01*
X149306748Y-73453720D01*
X149327000Y-73351905D01*
X149327000Y-73248095D01*
X149306748Y-73146280D01*
X149267021Y-73050372D01*
X149209348Y-72964057D01*
X149135943Y-72890652D01*
X149049628Y-72832979D01*
X148953720Y-72793252D01*
X148851905Y-72773000D01*
X148748095Y-72773000D01*
X148646280Y-72793252D01*
X148550372Y-72832979D01*
X148464057Y-72890652D01*
X148390652Y-72964057D01*
X148332979Y-73050372D01*
X148293252Y-73146280D01*
X148279199Y-73216932D01*
X148123130Y-73373001D01*
X147622804Y-73373001D01*
X147627000Y-73351905D01*
X147627000Y-73248095D01*
X147606748Y-73146280D01*
X147567021Y-73050372D01*
X147509348Y-72964057D01*
X147435943Y-72890652D01*
X147349628Y-72832979D01*
X147253720Y-72793252D01*
X147151905Y-72773000D01*
X147048095Y-72773000D01*
X146946280Y-72793252D01*
X146850372Y-72832979D01*
X146790475Y-72873000D01*
X144789569Y-72873000D01*
X144768602Y-72870935D01*
X144747635Y-72873000D01*
X144747624Y-72873000D01*
X144684895Y-72879178D01*
X144623139Y-72897912D01*
X144604405Y-72903595D01*
X144530225Y-72943244D01*
X144481501Y-72983232D01*
X144481497Y-72983236D01*
X144465207Y-72996605D01*
X144451838Y-73012895D01*
X143408690Y-74056044D01*
X143406748Y-74046280D01*
X143367021Y-73950372D01*
X143309348Y-73864057D01*
X143235943Y-73790652D01*
X143149628Y-73732979D01*
X143053720Y-73693252D01*
X142951905Y-73673000D01*
X142848095Y-73673000D01*
X142746280Y-73693252D01*
X142650372Y-73732979D01*
X142564057Y-73790652D01*
X142490652Y-73864057D01*
X142432979Y-73950372D01*
X142393252Y-74046280D01*
X142373000Y-74148095D01*
X142373000Y-74251905D01*
X142393252Y-74353720D01*
X142432979Y-74449628D01*
X142490652Y-74535943D01*
X142521834Y-74567125D01*
X142521833Y-75790475D01*
X142481812Y-75850372D01*
X142442085Y-75946280D01*
X142421833Y-76048095D01*
X142421833Y-76105832D01*
X141767816Y-75451815D01*
X141744121Y-75435982D01*
X141722114Y-75417922D01*
X141697011Y-75404504D01*
X141673312Y-75388669D01*
X141646978Y-75377761D01*
X141621876Y-75364344D01*
X141594635Y-75356080D01*
X141568305Y-75345174D01*
X141540361Y-75339615D01*
X141513111Y-75331349D01*
X141484773Y-75328558D01*
X141456830Y-75323000D01*
X141428331Y-75323000D01*
X141400000Y-75320210D01*
X141371669Y-75323000D01*
X141343170Y-75323000D01*
X141315227Y-75328558D01*
X141286889Y-75331349D01*
X141259639Y-75339615D01*
X141231695Y-75345174D01*
X141205365Y-75356080D01*
X141178124Y-75364344D01*
X141153022Y-75377761D01*
X141126688Y-75388669D01*
X141102989Y-75404504D01*
X141077886Y-75417922D01*
X141055879Y-75435982D01*
X141032184Y-75451815D01*
X141012036Y-75471963D01*
X140990026Y-75490026D01*
X140971963Y-75512036D01*
X140951815Y-75532184D01*
X140935982Y-75555879D01*
X140917922Y-75577886D01*
X140904504Y-75602989D01*
X140888669Y-75626688D01*
X140877761Y-75653022D01*
X140864344Y-75678124D01*
X140856080Y-75705365D01*
X140845174Y-75731695D01*
X140839615Y-75759639D01*
X140831349Y-75786889D01*
X140828558Y-75815227D01*
X140823000Y-75843170D01*
X140823000Y-75871669D01*
X140820210Y-75900000D01*
X140823000Y-75928331D01*
X140823000Y-75956830D01*
X140828558Y-75984773D01*
X140831349Y-76013111D01*
X140839615Y-76040361D01*
X140845174Y-76068305D01*
X140856080Y-76094635D01*
X140864344Y-76121876D01*
X140877761Y-76146978D01*
X140888669Y-76173312D01*
X140904504Y-76197011D01*
X140917922Y-76222114D01*
X140935982Y-76244121D01*
X140951815Y-76267816D01*
X140971963Y-76287964D01*
X141544626Y-76860628D01*
X141524330Y-76871476D01*
X141436471Y-76943581D01*
X141364366Y-77031440D01*
X141310788Y-77131679D01*
X141277795Y-77240443D01*
X141266654Y-77353555D01*
X141269445Y-77381891D01*
X141269445Y-79996959D01*
X141205626Y-79933140D01*
X141119311Y-79875467D01*
X141023403Y-79835740D01*
X140952750Y-79821687D01*
X138523963Y-77392900D01*
X138510590Y-77376605D01*
X138445571Y-77323245D01*
X138371391Y-77283595D01*
X138290902Y-77259178D01*
X138228173Y-77253000D01*
X138228162Y-77253000D01*
X138207195Y-77250935D01*
X138186228Y-77253000D01*
X137909311Y-77253000D01*
X137842372Y-77152819D01*
X137734553Y-77045000D01*
X137842372Y-76937181D01*
X137932877Y-76801731D01*
X137995218Y-76651227D01*
X138027000Y-76491452D01*
X138027000Y-76328548D01*
X137995218Y-76168773D01*
X137932877Y-76018269D01*
X137842372Y-75882819D01*
X137734553Y-75775000D01*
X137842372Y-75667181D01*
X137932877Y-75531731D01*
X137995218Y-75381227D01*
X138027000Y-75221452D01*
X138027000Y-75058548D01*
X137995218Y-74898773D01*
X137932877Y-74748269D01*
X137842372Y-74612819D01*
X137734553Y-74505000D01*
X137842372Y-74397181D01*
X137932877Y-74261731D01*
X137995218Y-74111227D01*
X138027000Y-73951452D01*
X138027000Y-73788548D01*
X137995218Y-73628773D01*
X137932877Y-73478269D01*
X137867906Y-73381033D01*
X137882550Y-73373206D01*
X137932343Y-73332343D01*
X137973206Y-73282550D01*
X138003570Y-73225743D01*
X138022268Y-73164103D01*
X138028582Y-73100000D01*
X138028582Y-72100000D01*
X138022268Y-72035897D01*
X138003570Y-71974257D01*
X137973206Y-71917450D01*
X137932343Y-71867657D01*
X137882550Y-71826794D01*
X137825743Y-71796430D01*
X137764103Y-71777732D01*
X137700000Y-71771418D01*
X136700000Y-71771418D01*
X136684954Y-71772900D01*
X136127000Y-71772900D01*
X136127000Y-66172471D01*
X136146199Y-66182733D01*
X136170024Y-66189960D01*
X136194800Y-66192400D01*
X140500100Y-66192400D01*
X140524876Y-66189960D01*
X140548701Y-66182733D01*
X140570657Y-66170997D01*
X140589903Y-66155203D01*
X140605697Y-66135957D01*
X140617433Y-66114001D01*
X140624660Y-66090176D01*
X140627100Y-66065400D01*
X140627100Y-64668400D01*
X154990800Y-64668400D01*
X155015576Y-64665960D01*
X155039401Y-64658733D01*
X155061357Y-64646997D01*
X155073000Y-64637442D01*
X155073000Y-71772900D01*
G37*
%TD.AperFunction*%
D18*
X145369446Y-76776555D02*
X143092557Y-76776555D01*
X142943002Y-76627000D01*
X143000738Y-76627000D01*
X143102553Y-76606748D01*
X143198461Y-76567021D01*
X143248835Y-76533363D01*
X143299208Y-76567021D01*
X143395116Y-76606748D01*
X143496931Y-76627000D01*
X143600741Y-76627000D01*
X143702556Y-76606748D01*
X143798464Y-76567021D01*
X143848838Y-76533363D01*
X143899211Y-76567021D01*
X143995119Y-76606748D01*
X144096934Y-76627000D01*
X144200744Y-76627000D01*
X144302559Y-76606748D01*
X144398467Y-76567021D01*
X144408151Y-76560550D01*
X144410503Y-76562902D01*
X144496818Y-76620575D01*
X144592726Y-76660302D01*
X144694541Y-76680554D01*
X144798351Y-76680554D01*
X144900166Y-76660302D01*
X144996074Y-76620575D01*
X145082389Y-76562902D01*
X145155794Y-76489497D01*
X145213467Y-76403182D01*
X145253194Y-76307274D01*
X145273446Y-76205459D01*
X145273446Y-76101649D01*
X145253194Y-75999834D01*
X145213467Y-75903926D01*
X145173446Y-75844029D01*
X145173446Y-74646252D01*
X147499749Y-74646252D01*
X145369446Y-76776555D01*
%TA.AperFunction,Conductor*%
D19*
G36*
X145369446Y-76776555D02*
G01*
X143092557Y-76776555D01*
X142943002Y-76627000D01*
X143000738Y-76627000D01*
X143102553Y-76606748D01*
X143198461Y-76567021D01*
X143248835Y-76533363D01*
X143299208Y-76567021D01*
X143395116Y-76606748D01*
X143496931Y-76627000D01*
X143600741Y-76627000D01*
X143702556Y-76606748D01*
X143798464Y-76567021D01*
X143848838Y-76533363D01*
X143899211Y-76567021D01*
X143995119Y-76606748D01*
X144096934Y-76627000D01*
X144200744Y-76627000D01*
X144302559Y-76606748D01*
X144398467Y-76567021D01*
X144408151Y-76560550D01*
X144410503Y-76562902D01*
X144496818Y-76620575D01*
X144592726Y-76660302D01*
X144694541Y-76680554D01*
X144798351Y-76680554D01*
X144900166Y-76660302D01*
X144996074Y-76620575D01*
X145082389Y-76562902D01*
X145155794Y-76489497D01*
X145213467Y-76403182D01*
X145253194Y-76307274D01*
X145273446Y-76205459D01*
X145273446Y-76101649D01*
X145253194Y-75999834D01*
X145213467Y-75903926D01*
X145173446Y-75844029D01*
X145173446Y-74646252D01*
X147499749Y-74646252D01*
X145369446Y-76776555D01*
G37*
%TD.AperFunction*%
%TD*%
M02*
