%TF.GenerationSoftware,KiCad,Pcbnew,(5.1.10)-1*%
%TF.CreationDate,2024-04-20T07:26:56+09:00*%
%TF.ProjectId,BLEModule,424c454d-6f64-4756-9c65-2e6b69636164,rev?*%
%TF.SameCoordinates,Original*%
%TF.FileFunction,Soldermask,Bot*%
%TF.FilePolarity,Negative*%
%FSLAX46Y46*%
G04 Gerber Fmt 4.6, Leading zero omitted, Abs format (unit mm)*
G04 Created by KiCad (PCBNEW (5.1.10)-1) date 2024-04-20 07:26:56*
%MOMM*%
%LPD*%
G01*
G04 APERTURE LIST*
%ADD10C,0.035000*%
%ADD11O,1.000000X1.000000*%
%ADD12R,1.000000X1.000000*%
G04 APERTURE END LIST*
D10*
%TO.C,J2*%
G36*
X139082600Y-91944600D02*
G01*
X139082600Y-90725400D01*
X138117400Y-90725400D01*
X138117400Y-91944600D01*
X139082600Y-91944600D01*
G37*
X139082600Y-91944600D02*
X139082600Y-90725400D01*
X138117400Y-90725400D01*
X138117400Y-91944600D01*
X139082600Y-91944600D01*
G36*
X144162600Y-91944600D02*
G01*
X144162600Y-90725400D01*
X143197400Y-90725400D01*
X143197400Y-91944600D01*
X144162600Y-91944600D01*
G37*
X144162600Y-91944600D02*
X144162600Y-90725400D01*
X143197400Y-90725400D01*
X143197400Y-91944600D01*
X144162600Y-91944600D01*
G36*
X141622600Y-91944600D02*
G01*
X141622600Y-90725400D01*
X140657400Y-90725400D01*
X140657400Y-91944600D01*
X141622600Y-91944600D01*
G37*
X141622600Y-91944600D02*
X141622600Y-90725400D01*
X140657400Y-90725400D01*
X140657400Y-91944600D01*
X141622600Y-91944600D01*
G36*
X142892600Y-91944600D02*
G01*
X142892600Y-90725400D01*
X141927400Y-90725400D01*
X141927400Y-91944600D01*
X142892600Y-91944600D01*
G37*
X142892600Y-91944600D02*
X142892600Y-90725400D01*
X141927400Y-90725400D01*
X141927400Y-91944600D01*
X142892600Y-91944600D01*
G36*
X140352600Y-91944600D02*
G01*
X140352600Y-90725400D01*
X139387400Y-90725400D01*
X139387400Y-91944600D01*
X140352600Y-91944600D01*
G37*
X140352600Y-91944600D02*
X140352600Y-90725400D01*
X139387400Y-90725400D01*
X139387400Y-91944600D01*
X140352600Y-91944600D01*
G36*
X145432600Y-91944600D02*
G01*
X145432600Y-90725400D01*
X144467400Y-90725400D01*
X144467400Y-91944600D01*
X145432600Y-91944600D01*
G37*
X145432600Y-91944600D02*
X145432600Y-90725400D01*
X144467400Y-90725400D01*
X144467400Y-91944600D01*
X145432600Y-91944600D01*
G36*
X146702600Y-91944600D02*
G01*
X146702600Y-90725400D01*
X145737400Y-90725400D01*
X145737400Y-91944600D01*
X146702600Y-91944600D01*
G37*
X146702600Y-91944600D02*
X146702600Y-90725400D01*
X145737400Y-90725400D01*
X145737400Y-91944600D01*
X146702600Y-91944600D01*
G36*
X147972600Y-91944600D02*
G01*
X147972600Y-90725400D01*
X147007400Y-90725400D01*
X147007400Y-91944600D01*
X147972600Y-91944600D01*
G37*
X147972600Y-91944600D02*
X147972600Y-90725400D01*
X147007400Y-90725400D01*
X147007400Y-91944600D01*
X147972600Y-91944600D01*
G36*
X150512600Y-91944600D02*
G01*
X150512600Y-90725400D01*
X149547400Y-90725400D01*
X149547400Y-91944600D01*
X150512600Y-91944600D01*
G37*
X150512600Y-91944600D02*
X150512600Y-90725400D01*
X149547400Y-90725400D01*
X149547400Y-91944600D01*
X150512600Y-91944600D01*
G36*
X153052600Y-91944600D02*
G01*
X153052600Y-90725400D01*
X152087400Y-90725400D01*
X152087400Y-91944600D01*
X153052600Y-91944600D01*
G37*
X153052600Y-91944600D02*
X153052600Y-90725400D01*
X152087400Y-90725400D01*
X152087400Y-91944600D01*
X153052600Y-91944600D01*
G36*
X149242600Y-91944600D02*
G01*
X149242600Y-90725400D01*
X148277400Y-90725400D01*
X148277400Y-91944600D01*
X149242600Y-91944600D01*
G37*
X149242600Y-91944600D02*
X149242600Y-90725400D01*
X148277400Y-90725400D01*
X148277400Y-91944600D01*
X149242600Y-91944600D01*
G36*
X151782600Y-91944600D02*
G01*
X151782600Y-90725400D01*
X150817400Y-90725400D01*
X150817400Y-91944600D01*
X151782600Y-91944600D01*
G37*
X151782600Y-91944600D02*
X151782600Y-90725400D01*
X150817400Y-90725400D01*
X150817400Y-91944600D01*
X151782600Y-91944600D01*
%TO.C,J1*%
G36*
X135955400Y-73082600D02*
G01*
X137174600Y-73082600D01*
X137174600Y-72117400D01*
X135955400Y-72117400D01*
X135955400Y-73082600D01*
G37*
X135955400Y-73082600D02*
X137174600Y-73082600D01*
X137174600Y-72117400D01*
X135955400Y-72117400D01*
X135955400Y-73082600D01*
G36*
X135955400Y-78162600D02*
G01*
X137174600Y-78162600D01*
X137174600Y-77197400D01*
X135955400Y-77197400D01*
X135955400Y-78162600D01*
G37*
X135955400Y-78162600D02*
X137174600Y-78162600D01*
X137174600Y-77197400D01*
X135955400Y-77197400D01*
X135955400Y-78162600D01*
G36*
X135955400Y-75622600D02*
G01*
X137174600Y-75622600D01*
X137174600Y-74657400D01*
X135955400Y-74657400D01*
X135955400Y-75622600D01*
G37*
X135955400Y-75622600D02*
X137174600Y-75622600D01*
X137174600Y-74657400D01*
X135955400Y-74657400D01*
X135955400Y-75622600D01*
G36*
X135955400Y-76892600D02*
G01*
X137174600Y-76892600D01*
X137174600Y-75927400D01*
X135955400Y-75927400D01*
X135955400Y-76892600D01*
G37*
X135955400Y-76892600D02*
X137174600Y-76892600D01*
X137174600Y-75927400D01*
X135955400Y-75927400D01*
X135955400Y-76892600D01*
G36*
X135955400Y-74352600D02*
G01*
X137174600Y-74352600D01*
X137174600Y-73387400D01*
X135955400Y-73387400D01*
X135955400Y-74352600D01*
G37*
X135955400Y-74352600D02*
X137174600Y-74352600D01*
X137174600Y-73387400D01*
X135955400Y-73387400D01*
X135955400Y-74352600D01*
G36*
X135955400Y-79432600D02*
G01*
X137174600Y-79432600D01*
X137174600Y-78467400D01*
X135955400Y-78467400D01*
X135955400Y-79432600D01*
G37*
X135955400Y-79432600D02*
X137174600Y-79432600D01*
X137174600Y-78467400D01*
X135955400Y-78467400D01*
X135955400Y-79432600D01*
G36*
X135955400Y-80702600D02*
G01*
X137174600Y-80702600D01*
X137174600Y-79737400D01*
X135955400Y-79737400D01*
X135955400Y-80702600D01*
G37*
X135955400Y-80702600D02*
X137174600Y-80702600D01*
X137174600Y-79737400D01*
X135955400Y-79737400D01*
X135955400Y-80702600D01*
G36*
X135955400Y-81972600D02*
G01*
X137174600Y-81972600D01*
X137174600Y-81007400D01*
X135955400Y-81007400D01*
X135955400Y-81972600D01*
G37*
X135955400Y-81972600D02*
X137174600Y-81972600D01*
X137174600Y-81007400D01*
X135955400Y-81007400D01*
X135955400Y-81972600D01*
G36*
X135955400Y-84512600D02*
G01*
X137174600Y-84512600D01*
X137174600Y-83547400D01*
X135955400Y-83547400D01*
X135955400Y-84512600D01*
G37*
X135955400Y-84512600D02*
X137174600Y-84512600D01*
X137174600Y-83547400D01*
X135955400Y-83547400D01*
X135955400Y-84512600D01*
G36*
X135955400Y-87052600D02*
G01*
X137174600Y-87052600D01*
X137174600Y-86087400D01*
X135955400Y-86087400D01*
X135955400Y-87052600D01*
G37*
X135955400Y-87052600D02*
X137174600Y-87052600D01*
X137174600Y-86087400D01*
X135955400Y-86087400D01*
X135955400Y-87052600D01*
G36*
X135955400Y-83242600D02*
G01*
X137174600Y-83242600D01*
X137174600Y-82277400D01*
X135955400Y-82277400D01*
X135955400Y-83242600D01*
G37*
X135955400Y-83242600D02*
X137174600Y-83242600D01*
X137174600Y-82277400D01*
X135955400Y-82277400D01*
X135955400Y-83242600D01*
G36*
X135955400Y-85782600D02*
G01*
X137174600Y-85782600D01*
X137174600Y-84817400D01*
X135955400Y-84817400D01*
X135955400Y-85782600D01*
G37*
X135955400Y-85782600D02*
X137174600Y-85782600D01*
X137174600Y-84817400D01*
X135955400Y-84817400D01*
X135955400Y-85782600D01*
%TO.C,J3*%
G36*
X155244600Y-86087400D02*
G01*
X154025400Y-86087400D01*
X154025400Y-87052600D01*
X155244600Y-87052600D01*
X155244600Y-86087400D01*
G37*
X155244600Y-86087400D02*
X154025400Y-86087400D01*
X154025400Y-87052600D01*
X155244600Y-87052600D01*
X155244600Y-86087400D01*
G36*
X155244600Y-81007400D02*
G01*
X154025400Y-81007400D01*
X154025400Y-81972600D01*
X155244600Y-81972600D01*
X155244600Y-81007400D01*
G37*
X155244600Y-81007400D02*
X154025400Y-81007400D01*
X154025400Y-81972600D01*
X155244600Y-81972600D01*
X155244600Y-81007400D01*
G36*
X155244600Y-83547400D02*
G01*
X154025400Y-83547400D01*
X154025400Y-84512600D01*
X155244600Y-84512600D01*
X155244600Y-83547400D01*
G37*
X155244600Y-83547400D02*
X154025400Y-83547400D01*
X154025400Y-84512600D01*
X155244600Y-84512600D01*
X155244600Y-83547400D01*
G36*
X155244600Y-82277400D02*
G01*
X154025400Y-82277400D01*
X154025400Y-83242600D01*
X155244600Y-83242600D01*
X155244600Y-82277400D01*
G37*
X155244600Y-82277400D02*
X154025400Y-82277400D01*
X154025400Y-83242600D01*
X155244600Y-83242600D01*
X155244600Y-82277400D01*
G36*
X155244600Y-84817400D02*
G01*
X154025400Y-84817400D01*
X154025400Y-85782600D01*
X155244600Y-85782600D01*
X155244600Y-84817400D01*
G37*
X155244600Y-84817400D02*
X154025400Y-84817400D01*
X154025400Y-85782600D01*
X155244600Y-85782600D01*
X155244600Y-84817400D01*
G36*
X155244600Y-79737400D02*
G01*
X154025400Y-79737400D01*
X154025400Y-80702600D01*
X155244600Y-80702600D01*
X155244600Y-79737400D01*
G37*
X155244600Y-79737400D02*
X154025400Y-79737400D01*
X154025400Y-80702600D01*
X155244600Y-80702600D01*
X155244600Y-79737400D01*
G36*
X155244600Y-78467400D02*
G01*
X154025400Y-78467400D01*
X154025400Y-79432600D01*
X155244600Y-79432600D01*
X155244600Y-78467400D01*
G37*
X155244600Y-78467400D02*
X154025400Y-78467400D01*
X154025400Y-79432600D01*
X155244600Y-79432600D01*
X155244600Y-78467400D01*
G36*
X155244600Y-77197400D02*
G01*
X154025400Y-77197400D01*
X154025400Y-78162600D01*
X155244600Y-78162600D01*
X155244600Y-77197400D01*
G37*
X155244600Y-77197400D02*
X154025400Y-77197400D01*
X154025400Y-78162600D01*
X155244600Y-78162600D01*
X155244600Y-77197400D01*
G36*
X155244600Y-74657400D02*
G01*
X154025400Y-74657400D01*
X154025400Y-75622600D01*
X155244600Y-75622600D01*
X155244600Y-74657400D01*
G37*
X155244600Y-74657400D02*
X154025400Y-74657400D01*
X154025400Y-75622600D01*
X155244600Y-75622600D01*
X155244600Y-74657400D01*
G36*
X155244600Y-72117400D02*
G01*
X154025400Y-72117400D01*
X154025400Y-73082600D01*
X155244600Y-73082600D01*
X155244600Y-72117400D01*
G37*
X155244600Y-72117400D02*
X154025400Y-72117400D01*
X154025400Y-73082600D01*
X155244600Y-73082600D01*
X155244600Y-72117400D01*
G36*
X155244600Y-75927400D02*
G01*
X154025400Y-75927400D01*
X154025400Y-76892600D01*
X155244600Y-76892600D01*
X155244600Y-75927400D01*
G37*
X155244600Y-75927400D02*
X154025400Y-75927400D01*
X154025400Y-76892600D01*
X155244600Y-76892600D01*
X155244600Y-75927400D01*
G36*
X155244600Y-73387400D02*
G01*
X154025400Y-73387400D01*
X154025400Y-74352600D01*
X155244600Y-74352600D01*
X155244600Y-73387400D01*
G37*
X155244600Y-73387400D02*
X154025400Y-73387400D01*
X154025400Y-74352600D01*
X155244600Y-74352600D01*
X155244600Y-73387400D01*
%TD*%
D11*
%TO.C,J2*%
X141140000Y-90700000D03*
X151300000Y-90700000D03*
X143680000Y-90700000D03*
X146220000Y-90700000D03*
X152570000Y-90700000D03*
X150030000Y-90700000D03*
X144950000Y-90700000D03*
D12*
X138600000Y-90700000D03*
D11*
X147490000Y-90700000D03*
X148760000Y-90700000D03*
X142410000Y-90700000D03*
X139870000Y-90700000D03*
X138600000Y-91970000D03*
X151300000Y-91970000D03*
X148760000Y-91970000D03*
X147490000Y-91970000D03*
X143680000Y-91970000D03*
X150030000Y-91970000D03*
X141140000Y-91970000D03*
X144950000Y-91970000D03*
X152570000Y-91970000D03*
X146220000Y-91970000D03*
X139870000Y-91970000D03*
X142410000Y-91970000D03*
%TD*%
%TO.C,J1*%
X137200000Y-75140000D03*
X137200000Y-85300000D03*
X137200000Y-77680000D03*
X137200000Y-80220000D03*
X137200000Y-86570000D03*
X137200000Y-84030000D03*
X137200000Y-78950000D03*
D12*
X137200000Y-72600000D03*
D11*
X137200000Y-81490000D03*
X137200000Y-82760000D03*
X137200000Y-76410000D03*
X137200000Y-73870000D03*
X135930000Y-72600000D03*
X135930000Y-85300000D03*
X135930000Y-82760000D03*
X135930000Y-81490000D03*
X135930000Y-77680000D03*
X135930000Y-84030000D03*
X135930000Y-75140000D03*
X135930000Y-78950000D03*
X135930000Y-86570000D03*
X135930000Y-80220000D03*
X135930000Y-73870000D03*
X135930000Y-76410000D03*
%TD*%
%TO.C,J3*%
X154000000Y-84030000D03*
X154000000Y-73870000D03*
X154000000Y-81490000D03*
X154000000Y-78950000D03*
X154000000Y-72600000D03*
X154000000Y-75140000D03*
X154000000Y-80220000D03*
D12*
X154000000Y-86570000D03*
D11*
X154000000Y-77680000D03*
X154000000Y-76410000D03*
X154000000Y-82760000D03*
X154000000Y-85300000D03*
X155270000Y-86570000D03*
X155270000Y-73870000D03*
X155270000Y-76410000D03*
X155270000Y-77680000D03*
X155270000Y-81490000D03*
X155270000Y-75140000D03*
X155270000Y-84030000D03*
X155270000Y-80220000D03*
X155270000Y-72600000D03*
X155270000Y-78950000D03*
X155270000Y-85300000D03*
X155270000Y-82760000D03*
%TD*%
M02*
