%TF.GenerationSoftware,KiCad,Pcbnew,(5.1.10)-1*%
%TF.CreationDate,2024-04-20T07:26:56+09:00*%
%TF.ProjectId,BLEModule,424c454d-6f64-4756-9c65-2e6b69636164,rev?*%
%TF.SameCoordinates,Original*%
%TF.FileFunction,Legend,Top*%
%TF.FilePolarity,Positive*%
%FSLAX46Y46*%
G04 Gerber Fmt 4.6, Leading zero omitted, Abs format (unit mm)*
G04 Created by KiCad (PCBNEW (5.1.10)-1) date 2024-04-20 07:26:56*
%MOMM*%
%LPD*%
G01*
G04 APERTURE LIST*
%ADD10C,0.100000*%
%ADD11C,0.120000*%
%ADD12C,0.010000*%
%ADD13C,0.200000*%
%ADD14C,0.150000*%
G04 APERTURE END LIST*
D10*
X150071428Y-86220714D02*
X150071428Y-86363571D01*
X149214285Y-86363571D01*
X149214285Y-86220714D01*
X149557142Y-85792142D02*
X149585714Y-85706428D01*
X149614285Y-85677857D01*
X149671428Y-85649285D01*
X149757142Y-85649285D01*
X149814285Y-85677857D01*
X149842857Y-85706428D01*
X149871428Y-85763571D01*
X149871428Y-85992142D01*
X149271428Y-85992142D01*
X149271428Y-85792142D01*
X149300000Y-85735000D01*
X149328571Y-85706428D01*
X149385714Y-85677857D01*
X149442857Y-85677857D01*
X149500000Y-85706428D01*
X149528571Y-85735000D01*
X149557142Y-85792142D01*
X149557142Y-85992142D01*
X149871428Y-85106428D02*
X149871428Y-85392142D01*
X149271428Y-85392142D01*
X149557142Y-84906428D02*
X149557142Y-84706428D01*
X149871428Y-84620714D02*
X149871428Y-84906428D01*
X149271428Y-84906428D01*
X149271428Y-84620714D01*
X149871428Y-84363571D02*
X149271428Y-84363571D01*
X149700000Y-84163571D01*
X149271428Y-83963571D01*
X149871428Y-83963571D01*
X149871428Y-83592142D02*
X149842857Y-83649285D01*
X149814285Y-83677857D01*
X149757142Y-83706428D01*
X149585714Y-83706428D01*
X149528571Y-83677857D01*
X149500000Y-83649285D01*
X149471428Y-83592142D01*
X149471428Y-83506428D01*
X149500000Y-83449285D01*
X149528571Y-83420714D01*
X149585714Y-83392142D01*
X149757142Y-83392142D01*
X149814285Y-83420714D01*
X149842857Y-83449285D01*
X149871428Y-83506428D01*
X149871428Y-83592142D01*
X149871428Y-82877857D02*
X149271428Y-82877857D01*
X149842857Y-82877857D02*
X149871428Y-82935000D01*
X149871428Y-83049285D01*
X149842857Y-83106428D01*
X149814285Y-83135000D01*
X149757142Y-83163571D01*
X149585714Y-83163571D01*
X149528571Y-83135000D01*
X149500000Y-83106428D01*
X149471428Y-83049285D01*
X149471428Y-82935000D01*
X149500000Y-82877857D01*
X149471428Y-82335000D02*
X149871428Y-82335000D01*
X149471428Y-82592142D02*
X149785714Y-82592142D01*
X149842857Y-82563571D01*
X149871428Y-82506428D01*
X149871428Y-82420714D01*
X149842857Y-82363571D01*
X149814285Y-82335000D01*
X149871428Y-81963571D02*
X149842857Y-82020714D01*
X149785714Y-82049285D01*
X149271428Y-82049285D01*
X149842857Y-81506428D02*
X149871428Y-81563571D01*
X149871428Y-81677857D01*
X149842857Y-81735000D01*
X149785714Y-81763571D01*
X149557142Y-81763571D01*
X149500000Y-81735000D01*
X149471428Y-81677857D01*
X149471428Y-81563571D01*
X149500000Y-81506428D01*
X149557142Y-81477857D01*
X149614285Y-81477857D01*
X149671428Y-81763571D01*
X149471428Y-80820714D02*
X149871428Y-80677857D01*
X149471428Y-80535000D01*
X149871428Y-79992142D02*
X149871428Y-80335000D01*
X149871428Y-80163571D02*
X149271428Y-80163571D01*
X149357142Y-80220714D01*
X149414285Y-80277857D01*
X149442857Y-80335000D01*
X149814285Y-79735000D02*
X149842857Y-79706428D01*
X149871428Y-79735000D01*
X149842857Y-79763571D01*
X149814285Y-79735000D01*
X149871428Y-79735000D01*
X149871428Y-79135000D02*
X149871428Y-79477857D01*
X149871428Y-79306428D02*
X149271428Y-79306428D01*
X149357142Y-79363571D01*
X149414285Y-79420714D01*
X149442857Y-79477857D01*
X150071428Y-78935000D02*
X150071428Y-78792142D01*
X149214285Y-78792142D01*
X149214285Y-78935000D01*
X150871428Y-85935000D02*
X150271428Y-85935000D01*
X150500000Y-85935000D02*
X150471428Y-85877857D01*
X150471428Y-85763571D01*
X150500000Y-85706428D01*
X150528571Y-85677857D01*
X150585714Y-85649285D01*
X150757142Y-85649285D01*
X150814285Y-85677857D01*
X150842857Y-85706428D01*
X150871428Y-85763571D01*
X150871428Y-85877857D01*
X150842857Y-85935000D01*
X150471428Y-85449285D02*
X150871428Y-85306428D01*
X150471428Y-85163571D02*
X150871428Y-85306428D01*
X151014285Y-85363571D01*
X151042857Y-85392142D01*
X151071428Y-85449285D01*
X150871428Y-84477857D02*
X150271428Y-84477857D01*
X150871428Y-84135000D02*
X150528571Y-84392142D01*
X150271428Y-84135000D02*
X150614285Y-84477857D01*
X150871428Y-83620714D02*
X150557142Y-83620714D01*
X150500000Y-83649285D01*
X150471428Y-83706428D01*
X150471428Y-83820714D01*
X150500000Y-83877857D01*
X150842857Y-83620714D02*
X150871428Y-83677857D01*
X150871428Y-83820714D01*
X150842857Y-83877857D01*
X150785714Y-83906428D01*
X150728571Y-83906428D01*
X150671428Y-83877857D01*
X150642857Y-83820714D01*
X150642857Y-83677857D01*
X150614285Y-83620714D01*
X150471428Y-83335000D02*
X150871428Y-83335000D01*
X150528571Y-83335000D02*
X150500000Y-83306428D01*
X150471428Y-83249285D01*
X150471428Y-83163571D01*
X150500000Y-83106428D01*
X150557142Y-83077857D01*
X150871428Y-83077857D01*
X150471428Y-82535000D02*
X150957142Y-82535000D01*
X151014285Y-82563571D01*
X151042857Y-82592142D01*
X151071428Y-82649285D01*
X151071428Y-82735000D01*
X151042857Y-82792142D01*
X150842857Y-82535000D02*
X150871428Y-82592142D01*
X150871428Y-82706428D01*
X150842857Y-82763571D01*
X150814285Y-82792142D01*
X150757142Y-82820714D01*
X150585714Y-82820714D01*
X150528571Y-82792142D01*
X150500000Y-82763571D01*
X150471428Y-82706428D01*
X150471428Y-82592142D01*
X150500000Y-82535000D01*
X150842857Y-81820714D02*
X150871428Y-81735000D01*
X150871428Y-81592142D01*
X150842857Y-81535000D01*
X150814285Y-81506428D01*
X150757142Y-81477857D01*
X150700000Y-81477857D01*
X150642857Y-81506428D01*
X150614285Y-81535000D01*
X150585714Y-81592142D01*
X150557142Y-81706428D01*
X150528571Y-81763571D01*
X150500000Y-81792142D01*
X150442857Y-81820714D01*
X150385714Y-81820714D01*
X150328571Y-81792142D01*
X150300000Y-81763571D01*
X150271428Y-81706428D01*
X150271428Y-81563571D01*
X150300000Y-81477857D01*
X150871428Y-81220714D02*
X150271428Y-81220714D01*
X150871428Y-80963571D02*
X150557142Y-80963571D01*
X150500000Y-80992142D01*
X150471428Y-81049285D01*
X150471428Y-81135000D01*
X150500000Y-81192142D01*
X150528571Y-81220714D01*
X150871428Y-80677857D02*
X150471428Y-80677857D01*
X150271428Y-80677857D02*
X150300000Y-80706428D01*
X150328571Y-80677857D01*
X150300000Y-80649285D01*
X150271428Y-80677857D01*
X150328571Y-80677857D01*
X150471428Y-80392142D02*
X150871428Y-80392142D01*
X150528571Y-80392142D02*
X150500000Y-80363571D01*
X150471428Y-80306428D01*
X150471428Y-80220714D01*
X150500000Y-80163571D01*
X150557142Y-80135000D01*
X150871428Y-80135000D01*
X150300000Y-79077857D02*
X150271428Y-79135000D01*
X150271428Y-79220714D01*
X150300000Y-79306428D01*
X150357142Y-79363571D01*
X150414285Y-79392142D01*
X150528571Y-79420714D01*
X150614285Y-79420714D01*
X150728571Y-79392142D01*
X150785714Y-79363571D01*
X150842857Y-79306428D01*
X150871428Y-79220714D01*
X150871428Y-79163571D01*
X150842857Y-79077857D01*
X150814285Y-79049285D01*
X150614285Y-79049285D01*
X150614285Y-79163571D01*
X150471428Y-78535000D02*
X150871428Y-78535000D01*
X150471428Y-78792142D02*
X150785714Y-78792142D01*
X150842857Y-78763571D01*
X150871428Y-78706428D01*
X150871428Y-78620714D01*
X150842857Y-78563571D01*
X150814285Y-78535000D01*
X151328571Y-85963571D02*
X151300000Y-85935000D01*
X151271428Y-85877857D01*
X151271428Y-85735000D01*
X151300000Y-85677857D01*
X151328571Y-85649285D01*
X151385714Y-85620714D01*
X151442857Y-85620714D01*
X151528571Y-85649285D01*
X151871428Y-85992142D01*
X151871428Y-85620714D01*
X151271428Y-85249285D02*
X151271428Y-85192142D01*
X151300000Y-85135000D01*
X151328571Y-85106428D01*
X151385714Y-85077857D01*
X151500000Y-85049285D01*
X151642857Y-85049285D01*
X151757142Y-85077857D01*
X151814285Y-85106428D01*
X151842857Y-85135000D01*
X151871428Y-85192142D01*
X151871428Y-85249285D01*
X151842857Y-85306428D01*
X151814285Y-85335000D01*
X151757142Y-85363571D01*
X151642857Y-85392142D01*
X151500000Y-85392142D01*
X151385714Y-85363571D01*
X151328571Y-85335000D01*
X151300000Y-85306428D01*
X151271428Y-85249285D01*
X151328571Y-84820714D02*
X151300000Y-84792142D01*
X151271428Y-84735000D01*
X151271428Y-84592142D01*
X151300000Y-84535000D01*
X151328571Y-84506428D01*
X151385714Y-84477857D01*
X151442857Y-84477857D01*
X151528571Y-84506428D01*
X151871428Y-84849285D01*
X151871428Y-84477857D01*
X151471428Y-83963571D02*
X151871428Y-83963571D01*
X151242857Y-84106428D02*
X151671428Y-84249285D01*
X151671428Y-83877857D01*
X151642857Y-83649285D02*
X151642857Y-83192142D01*
X151271428Y-82792142D02*
X151271428Y-82735000D01*
X151300000Y-82677857D01*
X151328571Y-82649285D01*
X151385714Y-82620714D01*
X151500000Y-82592142D01*
X151642857Y-82592142D01*
X151757142Y-82620714D01*
X151814285Y-82649285D01*
X151842857Y-82677857D01*
X151871428Y-82735000D01*
X151871428Y-82792142D01*
X151842857Y-82849285D01*
X151814285Y-82877857D01*
X151757142Y-82906428D01*
X151642857Y-82935000D01*
X151500000Y-82935000D01*
X151385714Y-82906428D01*
X151328571Y-82877857D01*
X151300000Y-82849285D01*
X151271428Y-82792142D01*
X151471428Y-82077857D02*
X151871428Y-82077857D01*
X151242857Y-82220714D02*
X151671428Y-82363571D01*
X151671428Y-81992142D01*
X151642857Y-81763571D02*
X151642857Y-81306428D01*
X151328571Y-81049285D02*
X151300000Y-81020714D01*
X151271428Y-80963571D01*
X151271428Y-80820714D01*
X151300000Y-80763571D01*
X151328571Y-80735000D01*
X151385714Y-80706428D01*
X151442857Y-80706428D01*
X151528571Y-80735000D01*
X151871428Y-81077857D01*
X151871428Y-80706428D01*
X151271428Y-80335000D02*
X151271428Y-80277857D01*
X151300000Y-80220714D01*
X151328571Y-80192142D01*
X151385714Y-80163571D01*
X151500000Y-80135000D01*
X151642857Y-80135000D01*
X151757142Y-80163571D01*
X151814285Y-80192142D01*
X151842857Y-80220714D01*
X151871428Y-80277857D01*
X151871428Y-80335000D01*
X151842857Y-80392142D01*
X151814285Y-80420714D01*
X151757142Y-80449285D01*
X151642857Y-80477857D01*
X151500000Y-80477857D01*
X151385714Y-80449285D01*
X151328571Y-80420714D01*
X151300000Y-80392142D01*
X151271428Y-80335000D01*
X153333333Y-71226190D02*
X153500000Y-71726190D01*
X153666666Y-71226190D01*
X154119047Y-71678571D02*
X154095238Y-71702380D01*
X154023809Y-71726190D01*
X153976190Y-71726190D01*
X153904761Y-71702380D01*
X153857142Y-71654761D01*
X153833333Y-71607142D01*
X153809523Y-71511904D01*
X153809523Y-71440476D01*
X153833333Y-71345238D01*
X153857142Y-71297619D01*
X153904761Y-71250000D01*
X153976190Y-71226190D01*
X154023809Y-71226190D01*
X154095238Y-71250000D01*
X154119047Y-71273809D01*
X154619047Y-71678571D02*
X154595238Y-71702380D01*
X154523809Y-71726190D01*
X154476190Y-71726190D01*
X154404761Y-71702380D01*
X154357142Y-71654761D01*
X154333333Y-71607142D01*
X154309523Y-71511904D01*
X154309523Y-71440476D01*
X154333333Y-71345238D01*
X154357142Y-71297619D01*
X154404761Y-71250000D01*
X154476190Y-71226190D01*
X154523809Y-71226190D01*
X154595238Y-71250000D01*
X154619047Y-71273809D01*
X151619047Y-73750000D02*
X151571428Y-73726190D01*
X151500000Y-73726190D01*
X151428571Y-73750000D01*
X151380952Y-73797619D01*
X151357142Y-73845238D01*
X151333333Y-73940476D01*
X151333333Y-74011904D01*
X151357142Y-74107142D01*
X151380952Y-74154761D01*
X151428571Y-74202380D01*
X151500000Y-74226190D01*
X151547619Y-74226190D01*
X151619047Y-74202380D01*
X151642857Y-74178571D01*
X151642857Y-74011904D01*
X151547619Y-74011904D01*
X151857142Y-74226190D02*
X151857142Y-73726190D01*
X152142857Y-74226190D01*
X152142857Y-73726190D01*
X152380952Y-74226190D02*
X152380952Y-73726190D01*
X152500000Y-73726190D01*
X152571428Y-73750000D01*
X152619047Y-73797619D01*
X152642857Y-73845238D01*
X152666666Y-73940476D01*
X152666666Y-74011904D01*
X152642857Y-74107142D01*
X152619047Y-74154761D01*
X152571428Y-74202380D01*
X152500000Y-74226190D01*
X152380952Y-74226190D01*
X149919047Y-75402380D02*
X149990476Y-75426190D01*
X150109523Y-75426190D01*
X150157142Y-75402380D01*
X150180952Y-75378571D01*
X150204761Y-75330952D01*
X150204761Y-75283333D01*
X150180952Y-75235714D01*
X150157142Y-75211904D01*
X150109523Y-75188095D01*
X150014285Y-75164285D01*
X149966666Y-75140476D01*
X149942857Y-75116666D01*
X149919047Y-75069047D01*
X149919047Y-75021428D01*
X149942857Y-74973809D01*
X149966666Y-74950000D01*
X150014285Y-74926190D01*
X150133333Y-74926190D01*
X150204761Y-74950000D01*
X150371428Y-74926190D02*
X150490476Y-75426190D01*
X150585714Y-75069047D01*
X150680952Y-75426190D01*
X150800000Y-74926190D01*
X150990476Y-75426190D02*
X150990476Y-74926190D01*
X151109523Y-74926190D01*
X151180952Y-74950000D01*
X151228571Y-74997619D01*
X151252380Y-75045238D01*
X151276190Y-75140476D01*
X151276190Y-75211904D01*
X151252380Y-75307142D01*
X151228571Y-75354761D01*
X151180952Y-75402380D01*
X151109523Y-75426190D01*
X150990476Y-75426190D01*
X151776190Y-75378571D02*
X151752380Y-75402380D01*
X151680952Y-75426190D01*
X151633333Y-75426190D01*
X151561904Y-75402380D01*
X151514285Y-75354761D01*
X151490476Y-75307142D01*
X151466666Y-75211904D01*
X151466666Y-75140476D01*
X151490476Y-75045238D01*
X151514285Y-74997619D01*
X151561904Y-74950000D01*
X151633333Y-74926190D01*
X151680952Y-74926190D01*
X151752380Y-74950000D01*
X151776190Y-74973809D01*
X152228571Y-75426190D02*
X151990476Y-75426190D01*
X151990476Y-74926190D01*
X152395238Y-75426190D02*
X152395238Y-74926190D01*
X152680952Y-75426190D02*
X152466666Y-75140476D01*
X152680952Y-74926190D02*
X152395238Y-75211904D01*
X150540476Y-76602380D02*
X150611904Y-76626190D01*
X150730952Y-76626190D01*
X150778571Y-76602380D01*
X150802380Y-76578571D01*
X150826190Y-76530952D01*
X150826190Y-76483333D01*
X150802380Y-76435714D01*
X150778571Y-76411904D01*
X150730952Y-76388095D01*
X150635714Y-76364285D01*
X150588095Y-76340476D01*
X150564285Y-76316666D01*
X150540476Y-76269047D01*
X150540476Y-76221428D01*
X150564285Y-76173809D01*
X150588095Y-76150000D01*
X150635714Y-76126190D01*
X150754761Y-76126190D01*
X150826190Y-76150000D01*
X150992857Y-76126190D02*
X151111904Y-76626190D01*
X151207142Y-76269047D01*
X151302380Y-76626190D01*
X151421428Y-76126190D01*
X151611904Y-76626190D02*
X151611904Y-76126190D01*
X151730952Y-76126190D01*
X151802380Y-76150000D01*
X151850000Y-76197619D01*
X151873809Y-76245238D01*
X151897619Y-76340476D01*
X151897619Y-76411904D01*
X151873809Y-76507142D01*
X151850000Y-76554761D01*
X151802380Y-76602380D01*
X151730952Y-76626190D01*
X151611904Y-76626190D01*
X152111904Y-76626190D02*
X152111904Y-76126190D01*
X152445238Y-76126190D02*
X152540476Y-76126190D01*
X152588095Y-76150000D01*
X152635714Y-76197619D01*
X152659523Y-76292857D01*
X152659523Y-76459523D01*
X152635714Y-76554761D01*
X152588095Y-76602380D01*
X152540476Y-76626190D01*
X152445238Y-76626190D01*
X152397619Y-76602380D01*
X152350000Y-76554761D01*
X152326190Y-76459523D01*
X152326190Y-76292857D01*
X152350000Y-76197619D01*
X152397619Y-76150000D01*
X152445238Y-76126190D01*
X152173809Y-77980952D02*
X152150000Y-77957142D01*
X152126190Y-77909523D01*
X152126190Y-77790476D01*
X152150000Y-77742857D01*
X152173809Y-77719047D01*
X152221428Y-77695238D01*
X152269047Y-77695238D01*
X152340476Y-77719047D01*
X152626190Y-78004761D01*
X152626190Y-77695238D01*
X152292857Y-77266666D02*
X152626190Y-77266666D01*
X152102380Y-77385714D02*
X152459523Y-77504761D01*
X152459523Y-77195238D01*
X152173809Y-79380952D02*
X152150000Y-79357142D01*
X152126190Y-79309523D01*
X152126190Y-79190476D01*
X152150000Y-79142857D01*
X152173809Y-79119047D01*
X152221428Y-79095238D01*
X152269047Y-79095238D01*
X152340476Y-79119047D01*
X152626190Y-79404761D01*
X152626190Y-79095238D01*
X152126190Y-78928571D02*
X152126190Y-78619047D01*
X152316666Y-78785714D01*
X152316666Y-78714285D01*
X152340476Y-78666666D01*
X152364285Y-78642857D01*
X152411904Y-78619047D01*
X152530952Y-78619047D01*
X152578571Y-78642857D01*
X152602380Y-78666666D01*
X152626190Y-78714285D01*
X152626190Y-78857142D01*
X152602380Y-78904761D01*
X152578571Y-78928571D01*
X152173809Y-80580952D02*
X152150000Y-80557142D01*
X152126190Y-80509523D01*
X152126190Y-80390476D01*
X152150000Y-80342857D01*
X152173809Y-80319047D01*
X152221428Y-80295238D01*
X152269047Y-80295238D01*
X152340476Y-80319047D01*
X152626190Y-80604761D01*
X152626190Y-80295238D01*
X152173809Y-80104761D02*
X152150000Y-80080952D01*
X152126190Y-80033333D01*
X152126190Y-79914285D01*
X152150000Y-79866666D01*
X152173809Y-79842857D01*
X152221428Y-79819047D01*
X152269047Y-79819047D01*
X152340476Y-79842857D01*
X152626190Y-80128571D01*
X152626190Y-79819047D01*
X152173809Y-81980952D02*
X152150000Y-81957142D01*
X152126190Y-81909523D01*
X152126190Y-81790476D01*
X152150000Y-81742857D01*
X152173809Y-81719047D01*
X152221428Y-81695238D01*
X152269047Y-81695238D01*
X152340476Y-81719047D01*
X152626190Y-82004761D01*
X152626190Y-81695238D01*
X152626190Y-81219047D02*
X152626190Y-81504761D01*
X152626190Y-81361904D02*
X152126190Y-81361904D01*
X152197619Y-81409523D01*
X152245238Y-81457142D01*
X152269047Y-81504761D01*
X152173809Y-83180952D02*
X152150000Y-83157142D01*
X152126190Y-83109523D01*
X152126190Y-82990476D01*
X152150000Y-82942857D01*
X152173809Y-82919047D01*
X152221428Y-82895238D01*
X152269047Y-82895238D01*
X152340476Y-82919047D01*
X152626190Y-83204761D01*
X152626190Y-82895238D01*
X152126190Y-82585714D02*
X152126190Y-82538095D01*
X152150000Y-82490476D01*
X152173809Y-82466666D01*
X152221428Y-82442857D01*
X152316666Y-82419047D01*
X152435714Y-82419047D01*
X152530952Y-82442857D01*
X152578571Y-82466666D01*
X152602380Y-82490476D01*
X152626190Y-82538095D01*
X152626190Y-82585714D01*
X152602380Y-82633333D01*
X152578571Y-82657142D01*
X152530952Y-82680952D01*
X152435714Y-82704761D01*
X152316666Y-82704761D01*
X152221428Y-82680952D01*
X152173809Y-82657142D01*
X152150000Y-82633333D01*
X152126190Y-82585714D01*
X152626190Y-84295238D02*
X152626190Y-84580952D01*
X152626190Y-84438095D02*
X152126190Y-84438095D01*
X152197619Y-84485714D01*
X152245238Y-84533333D01*
X152269047Y-84580952D01*
X152626190Y-84057142D02*
X152626190Y-83961904D01*
X152602380Y-83914285D01*
X152578571Y-83890476D01*
X152507142Y-83842857D01*
X152411904Y-83819047D01*
X152221428Y-83819047D01*
X152173809Y-83842857D01*
X152150000Y-83866666D01*
X152126190Y-83914285D01*
X152126190Y-84009523D01*
X152150000Y-84057142D01*
X152173809Y-84080952D01*
X152221428Y-84104761D01*
X152340476Y-84104761D01*
X152388095Y-84080952D01*
X152411904Y-84057142D01*
X152435714Y-84009523D01*
X152435714Y-83914285D01*
X152411904Y-83866666D01*
X152388095Y-83842857D01*
X152340476Y-83819047D01*
X152626190Y-85495238D02*
X152626190Y-85780952D01*
X152626190Y-85638095D02*
X152126190Y-85638095D01*
X152197619Y-85685714D01*
X152245238Y-85733333D01*
X152269047Y-85780952D01*
X152340476Y-85209523D02*
X152316666Y-85257142D01*
X152292857Y-85280952D01*
X152245238Y-85304761D01*
X152221428Y-85304761D01*
X152173809Y-85280952D01*
X152150000Y-85257142D01*
X152126190Y-85209523D01*
X152126190Y-85114285D01*
X152150000Y-85066666D01*
X152173809Y-85042857D01*
X152221428Y-85019047D01*
X152245238Y-85019047D01*
X152292857Y-85042857D01*
X152316666Y-85066666D01*
X152340476Y-85114285D01*
X152340476Y-85209523D01*
X152364285Y-85257142D01*
X152388095Y-85280952D01*
X152435714Y-85304761D01*
X152530952Y-85304761D01*
X152578571Y-85280952D01*
X152602380Y-85257142D01*
X152626190Y-85209523D01*
X152626190Y-85114285D01*
X152602380Y-85066666D01*
X152578571Y-85042857D01*
X152530952Y-85019047D01*
X152435714Y-85019047D01*
X152388095Y-85042857D01*
X152364285Y-85066666D01*
X152340476Y-85114285D01*
X152626190Y-86895238D02*
X152626190Y-87180952D01*
X152626190Y-87038095D02*
X152126190Y-87038095D01*
X152197619Y-87085714D01*
X152245238Y-87133333D01*
X152269047Y-87180952D01*
X152126190Y-86728571D02*
X152126190Y-86395238D01*
X152626190Y-86609523D01*
X152504761Y-89426190D02*
X152219047Y-89426190D01*
X152361904Y-89426190D02*
X152361904Y-88926190D01*
X152314285Y-88997619D01*
X152266666Y-89045238D01*
X152219047Y-89069047D01*
X152933333Y-88926190D02*
X152838095Y-88926190D01*
X152790476Y-88950000D01*
X152766666Y-88973809D01*
X152719047Y-89045238D01*
X152695238Y-89140476D01*
X152695238Y-89330952D01*
X152719047Y-89378571D01*
X152742857Y-89402380D01*
X152790476Y-89426190D01*
X152885714Y-89426190D01*
X152933333Y-89402380D01*
X152957142Y-89378571D01*
X152980952Y-89330952D01*
X152980952Y-89211904D01*
X152957142Y-89164285D01*
X152933333Y-89140476D01*
X152885714Y-89116666D01*
X152790476Y-89116666D01*
X152742857Y-89140476D01*
X152719047Y-89164285D01*
X152695238Y-89211904D01*
X151104761Y-89426190D02*
X150819047Y-89426190D01*
X150961904Y-89426190D02*
X150961904Y-88926190D01*
X150914285Y-88997619D01*
X150866666Y-89045238D01*
X150819047Y-89069047D01*
X151557142Y-88926190D02*
X151319047Y-88926190D01*
X151295238Y-89164285D01*
X151319047Y-89140476D01*
X151366666Y-89116666D01*
X151485714Y-89116666D01*
X151533333Y-89140476D01*
X151557142Y-89164285D01*
X151580952Y-89211904D01*
X151580952Y-89330952D01*
X151557142Y-89378571D01*
X151533333Y-89402380D01*
X151485714Y-89426190D01*
X151366666Y-89426190D01*
X151319047Y-89402380D01*
X151295238Y-89378571D01*
X149904761Y-89426190D02*
X149619047Y-89426190D01*
X149761904Y-89426190D02*
X149761904Y-88926190D01*
X149714285Y-88997619D01*
X149666666Y-89045238D01*
X149619047Y-89069047D01*
X150333333Y-89092857D02*
X150333333Y-89426190D01*
X150214285Y-88902380D02*
X150095238Y-89259523D01*
X150404761Y-89259523D01*
X148704761Y-89426190D02*
X148419047Y-89426190D01*
X148561904Y-89426190D02*
X148561904Y-88926190D01*
X148514285Y-88997619D01*
X148466666Y-89045238D01*
X148419047Y-89069047D01*
X148871428Y-88926190D02*
X149180952Y-88926190D01*
X149014285Y-89116666D01*
X149085714Y-89116666D01*
X149133333Y-89140476D01*
X149157142Y-89164285D01*
X149180952Y-89211904D01*
X149180952Y-89330952D01*
X149157142Y-89378571D01*
X149133333Y-89402380D01*
X149085714Y-89426190D01*
X148942857Y-89426190D01*
X148895238Y-89402380D01*
X148871428Y-89378571D01*
X147304761Y-89426190D02*
X147019047Y-89426190D01*
X147161904Y-89426190D02*
X147161904Y-88926190D01*
X147114285Y-88997619D01*
X147066666Y-89045238D01*
X147019047Y-89069047D01*
X147495238Y-88973809D02*
X147519047Y-88950000D01*
X147566666Y-88926190D01*
X147685714Y-88926190D01*
X147733333Y-88950000D01*
X147757142Y-88973809D01*
X147780952Y-89021428D01*
X147780952Y-89069047D01*
X147757142Y-89140476D01*
X147471428Y-89426190D01*
X147780952Y-89426190D01*
X146104761Y-89426190D02*
X145819047Y-89426190D01*
X145961904Y-89426190D02*
X145961904Y-88926190D01*
X145914285Y-88997619D01*
X145866666Y-89045238D01*
X145819047Y-89069047D01*
X146580952Y-89426190D02*
X146295238Y-89426190D01*
X146438095Y-89426190D02*
X146438095Y-88926190D01*
X146390476Y-88997619D01*
X146342857Y-89045238D01*
X146295238Y-89069047D01*
X144704761Y-89426190D02*
X144419047Y-89426190D01*
X144561904Y-89426190D02*
X144561904Y-88926190D01*
X144514285Y-88997619D01*
X144466666Y-89045238D01*
X144419047Y-89069047D01*
X145014285Y-88926190D02*
X145061904Y-88926190D01*
X145109523Y-88950000D01*
X145133333Y-88973809D01*
X145157142Y-89021428D01*
X145180952Y-89116666D01*
X145180952Y-89235714D01*
X145157142Y-89330952D01*
X145133333Y-89378571D01*
X145109523Y-89402380D01*
X145061904Y-89426190D01*
X145014285Y-89426190D01*
X144966666Y-89402380D01*
X144942857Y-89378571D01*
X144919047Y-89330952D01*
X144895238Y-89235714D01*
X144895238Y-89116666D01*
X144919047Y-89021428D01*
X144942857Y-88973809D01*
X144966666Y-88950000D01*
X145014285Y-88926190D01*
X143338095Y-88926190D02*
X143385714Y-88926190D01*
X143433333Y-88950000D01*
X143457142Y-88973809D01*
X143480952Y-89021428D01*
X143504761Y-89116666D01*
X143504761Y-89235714D01*
X143480952Y-89330952D01*
X143457142Y-89378571D01*
X143433333Y-89402380D01*
X143385714Y-89426190D01*
X143338095Y-89426190D01*
X143290476Y-89402380D01*
X143266666Y-89378571D01*
X143242857Y-89330952D01*
X143219047Y-89235714D01*
X143219047Y-89116666D01*
X143242857Y-89021428D01*
X143266666Y-88973809D01*
X143290476Y-88950000D01*
X143338095Y-88926190D01*
X143742857Y-89426190D02*
X143838095Y-89426190D01*
X143885714Y-89402380D01*
X143909523Y-89378571D01*
X143957142Y-89307142D01*
X143980952Y-89211904D01*
X143980952Y-89021428D01*
X143957142Y-88973809D01*
X143933333Y-88950000D01*
X143885714Y-88926190D01*
X143790476Y-88926190D01*
X143742857Y-88950000D01*
X143719047Y-88973809D01*
X143695238Y-89021428D01*
X143695238Y-89140476D01*
X143719047Y-89188095D01*
X143742857Y-89211904D01*
X143790476Y-89235714D01*
X143885714Y-89235714D01*
X143933333Y-89211904D01*
X143957142Y-89188095D01*
X143980952Y-89140476D01*
X142138095Y-88926190D02*
X142185714Y-88926190D01*
X142233333Y-88950000D01*
X142257142Y-88973809D01*
X142280952Y-89021428D01*
X142304761Y-89116666D01*
X142304761Y-89235714D01*
X142280952Y-89330952D01*
X142257142Y-89378571D01*
X142233333Y-89402380D01*
X142185714Y-89426190D01*
X142138095Y-89426190D01*
X142090476Y-89402380D01*
X142066666Y-89378571D01*
X142042857Y-89330952D01*
X142019047Y-89235714D01*
X142019047Y-89116666D01*
X142042857Y-89021428D01*
X142066666Y-88973809D01*
X142090476Y-88950000D01*
X142138095Y-88926190D01*
X142590476Y-89140476D02*
X142542857Y-89116666D01*
X142519047Y-89092857D01*
X142495238Y-89045238D01*
X142495238Y-89021428D01*
X142519047Y-88973809D01*
X142542857Y-88950000D01*
X142590476Y-88926190D01*
X142685714Y-88926190D01*
X142733333Y-88950000D01*
X142757142Y-88973809D01*
X142780952Y-89021428D01*
X142780952Y-89045238D01*
X142757142Y-89092857D01*
X142733333Y-89116666D01*
X142685714Y-89140476D01*
X142590476Y-89140476D01*
X142542857Y-89164285D01*
X142519047Y-89188095D01*
X142495238Y-89235714D01*
X142495238Y-89330952D01*
X142519047Y-89378571D01*
X142542857Y-89402380D01*
X142590476Y-89426190D01*
X142685714Y-89426190D01*
X142733333Y-89402380D01*
X142757142Y-89378571D01*
X142780952Y-89330952D01*
X142780952Y-89235714D01*
X142757142Y-89188095D01*
X142733333Y-89164285D01*
X142685714Y-89140476D01*
X140738095Y-88926190D02*
X140785714Y-88926190D01*
X140833333Y-88950000D01*
X140857142Y-88973809D01*
X140880952Y-89021428D01*
X140904761Y-89116666D01*
X140904761Y-89235714D01*
X140880952Y-89330952D01*
X140857142Y-89378571D01*
X140833333Y-89402380D01*
X140785714Y-89426190D01*
X140738095Y-89426190D01*
X140690476Y-89402380D01*
X140666666Y-89378571D01*
X140642857Y-89330952D01*
X140619047Y-89235714D01*
X140619047Y-89116666D01*
X140642857Y-89021428D01*
X140666666Y-88973809D01*
X140690476Y-88950000D01*
X140738095Y-88926190D01*
X141071428Y-88926190D02*
X141404761Y-88926190D01*
X141190476Y-89426190D01*
X139538095Y-88926190D02*
X139585714Y-88926190D01*
X139633333Y-88950000D01*
X139657142Y-88973809D01*
X139680952Y-89021428D01*
X139704761Y-89116666D01*
X139704761Y-89235714D01*
X139680952Y-89330952D01*
X139657142Y-89378571D01*
X139633333Y-89402380D01*
X139585714Y-89426190D01*
X139538095Y-89426190D01*
X139490476Y-89402380D01*
X139466666Y-89378571D01*
X139442857Y-89330952D01*
X139419047Y-89235714D01*
X139419047Y-89116666D01*
X139442857Y-89021428D01*
X139466666Y-88973809D01*
X139490476Y-88950000D01*
X139538095Y-88926190D01*
X140133333Y-88926190D02*
X140038095Y-88926190D01*
X139990476Y-88950000D01*
X139966666Y-88973809D01*
X139919047Y-89045238D01*
X139895238Y-89140476D01*
X139895238Y-89330952D01*
X139919047Y-89378571D01*
X139942857Y-89402380D01*
X139990476Y-89426190D01*
X140085714Y-89426190D01*
X140133333Y-89402380D01*
X140157142Y-89378571D01*
X140180952Y-89330952D01*
X140180952Y-89211904D01*
X140157142Y-89164285D01*
X140133333Y-89140476D01*
X140085714Y-89116666D01*
X139990476Y-89116666D01*
X139942857Y-89140476D01*
X139919047Y-89164285D01*
X139895238Y-89211904D01*
X138338095Y-88926190D02*
X138385714Y-88926190D01*
X138433333Y-88950000D01*
X138457142Y-88973809D01*
X138480952Y-89021428D01*
X138504761Y-89116666D01*
X138504761Y-89235714D01*
X138480952Y-89330952D01*
X138457142Y-89378571D01*
X138433333Y-89402380D01*
X138385714Y-89426190D01*
X138338095Y-89426190D01*
X138290476Y-89402380D01*
X138266666Y-89378571D01*
X138242857Y-89330952D01*
X138219047Y-89235714D01*
X138219047Y-89116666D01*
X138242857Y-89021428D01*
X138266666Y-88973809D01*
X138290476Y-88950000D01*
X138338095Y-88926190D01*
X138957142Y-88926190D02*
X138719047Y-88926190D01*
X138695238Y-89164285D01*
X138719047Y-89140476D01*
X138766666Y-89116666D01*
X138885714Y-89116666D01*
X138933333Y-89140476D01*
X138957142Y-89164285D01*
X138980952Y-89211904D01*
X138980952Y-89330952D01*
X138957142Y-89378571D01*
X138933333Y-89402380D01*
X138885714Y-89426190D01*
X138766666Y-89426190D01*
X138719047Y-89402380D01*
X138695238Y-89378571D01*
X138873809Y-86338095D02*
X138873809Y-86385714D01*
X138850000Y-86433333D01*
X138826190Y-86457142D01*
X138778571Y-86480952D01*
X138683333Y-86504761D01*
X138564285Y-86504761D01*
X138469047Y-86480952D01*
X138421428Y-86457142D01*
X138397619Y-86433333D01*
X138373809Y-86385714D01*
X138373809Y-86338095D01*
X138397619Y-86290476D01*
X138421428Y-86266666D01*
X138469047Y-86242857D01*
X138564285Y-86219047D01*
X138683333Y-86219047D01*
X138778571Y-86242857D01*
X138826190Y-86266666D01*
X138850000Y-86290476D01*
X138873809Y-86338095D01*
X138707142Y-86933333D02*
X138373809Y-86933333D01*
X138897619Y-86814285D02*
X138540476Y-86695238D01*
X138540476Y-87004761D01*
X139073809Y-84938095D02*
X139073809Y-84985714D01*
X139050000Y-85033333D01*
X139026190Y-85057142D01*
X138978571Y-85080952D01*
X138883333Y-85104761D01*
X138764285Y-85104761D01*
X138669047Y-85080952D01*
X138621428Y-85057142D01*
X138597619Y-85033333D01*
X138573809Y-84985714D01*
X138573809Y-84938095D01*
X138597619Y-84890476D01*
X138621428Y-84866666D01*
X138669047Y-84842857D01*
X138764285Y-84819047D01*
X138883333Y-84819047D01*
X138978571Y-84842857D01*
X139026190Y-84866666D01*
X139050000Y-84890476D01*
X139073809Y-84938095D01*
X139073809Y-85271428D02*
X139073809Y-85580952D01*
X138883333Y-85414285D01*
X138883333Y-85485714D01*
X138859523Y-85533333D01*
X138835714Y-85557142D01*
X138788095Y-85580952D01*
X138669047Y-85580952D01*
X138621428Y-85557142D01*
X138597619Y-85533333D01*
X138573809Y-85485714D01*
X138573809Y-85342857D01*
X138597619Y-85295238D01*
X138621428Y-85271428D01*
X139073809Y-83738095D02*
X139073809Y-83785714D01*
X139050000Y-83833333D01*
X139026190Y-83857142D01*
X138978571Y-83880952D01*
X138883333Y-83904761D01*
X138764285Y-83904761D01*
X138669047Y-83880952D01*
X138621428Y-83857142D01*
X138597619Y-83833333D01*
X138573809Y-83785714D01*
X138573809Y-83738095D01*
X138597619Y-83690476D01*
X138621428Y-83666666D01*
X138669047Y-83642857D01*
X138764285Y-83619047D01*
X138883333Y-83619047D01*
X138978571Y-83642857D01*
X139026190Y-83666666D01*
X139050000Y-83690476D01*
X139073809Y-83738095D01*
X139026190Y-84095238D02*
X139050000Y-84119047D01*
X139073809Y-84166666D01*
X139073809Y-84285714D01*
X139050000Y-84333333D01*
X139026190Y-84357142D01*
X138978571Y-84380952D01*
X138930952Y-84380952D01*
X138859523Y-84357142D01*
X138573809Y-84071428D01*
X138573809Y-84380952D01*
X139073809Y-82538095D02*
X139073809Y-82585714D01*
X139050000Y-82633333D01*
X139026190Y-82657142D01*
X138978571Y-82680952D01*
X138883333Y-82704761D01*
X138764285Y-82704761D01*
X138669047Y-82680952D01*
X138621428Y-82657142D01*
X138597619Y-82633333D01*
X138573809Y-82585714D01*
X138573809Y-82538095D01*
X138597619Y-82490476D01*
X138621428Y-82466666D01*
X138669047Y-82442857D01*
X138764285Y-82419047D01*
X138883333Y-82419047D01*
X138978571Y-82442857D01*
X139026190Y-82466666D01*
X139050000Y-82490476D01*
X139073809Y-82538095D01*
X138573809Y-83180952D02*
X138573809Y-82895238D01*
X138573809Y-83038095D02*
X139073809Y-83038095D01*
X139002380Y-82990476D01*
X138954761Y-82942857D01*
X138930952Y-82895238D01*
X139073809Y-81138095D02*
X139073809Y-81185714D01*
X139050000Y-81233333D01*
X139026190Y-81257142D01*
X138978571Y-81280952D01*
X138883333Y-81304761D01*
X138764285Y-81304761D01*
X138669047Y-81280952D01*
X138621428Y-81257142D01*
X138597619Y-81233333D01*
X138573809Y-81185714D01*
X138573809Y-81138095D01*
X138597619Y-81090476D01*
X138621428Y-81066666D01*
X138669047Y-81042857D01*
X138764285Y-81019047D01*
X138883333Y-81019047D01*
X138978571Y-81042857D01*
X139026190Y-81066666D01*
X139050000Y-81090476D01*
X139073809Y-81138095D01*
X139073809Y-81614285D02*
X139073809Y-81661904D01*
X139050000Y-81709523D01*
X139026190Y-81733333D01*
X138978571Y-81757142D01*
X138883333Y-81780952D01*
X138764285Y-81780952D01*
X138669047Y-81757142D01*
X138621428Y-81733333D01*
X138597619Y-81709523D01*
X138573809Y-81661904D01*
X138573809Y-81614285D01*
X138597619Y-81566666D01*
X138621428Y-81542857D01*
X138669047Y-81519047D01*
X138764285Y-81495238D01*
X138883333Y-81495238D01*
X138978571Y-81519047D01*
X139026190Y-81542857D01*
X139050000Y-81566666D01*
X139073809Y-81614285D01*
X139073809Y-79795238D02*
X139073809Y-80104761D01*
X138883333Y-79938095D01*
X138883333Y-80009523D01*
X138859523Y-80057142D01*
X138835714Y-80080952D01*
X138788095Y-80104761D01*
X138669047Y-80104761D01*
X138621428Y-80080952D01*
X138597619Y-80057142D01*
X138573809Y-80009523D01*
X138573809Y-79866666D01*
X138597619Y-79819047D01*
X138621428Y-79795238D01*
X138573809Y-80580952D02*
X138573809Y-80295238D01*
X138573809Y-80438095D02*
X139073809Y-80438095D01*
X139002380Y-80390476D01*
X138954761Y-80342857D01*
X138930952Y-80295238D01*
X139073809Y-78395238D02*
X139073809Y-78704761D01*
X138883333Y-78538095D01*
X138883333Y-78609523D01*
X138859523Y-78657142D01*
X138835714Y-78680952D01*
X138788095Y-78704761D01*
X138669047Y-78704761D01*
X138621428Y-78680952D01*
X138597619Y-78657142D01*
X138573809Y-78609523D01*
X138573809Y-78466666D01*
X138597619Y-78419047D01*
X138621428Y-78395238D01*
X139073809Y-79014285D02*
X139073809Y-79061904D01*
X139050000Y-79109523D01*
X139026190Y-79133333D01*
X138978571Y-79157142D01*
X138883333Y-79180952D01*
X138764285Y-79180952D01*
X138669047Y-79157142D01*
X138621428Y-79133333D01*
X138597619Y-79109523D01*
X138573809Y-79061904D01*
X138573809Y-79014285D01*
X138597619Y-78966666D01*
X138621428Y-78942857D01*
X138669047Y-78919047D01*
X138764285Y-78895238D01*
X138883333Y-78895238D01*
X138978571Y-78919047D01*
X139026190Y-78942857D01*
X139050000Y-78966666D01*
X139073809Y-79014285D01*
X139026190Y-77219047D02*
X139050000Y-77242857D01*
X139073809Y-77290476D01*
X139073809Y-77409523D01*
X139050000Y-77457142D01*
X139026190Y-77480952D01*
X138978571Y-77504761D01*
X138930952Y-77504761D01*
X138859523Y-77480952D01*
X138573809Y-77195238D01*
X138573809Y-77504761D01*
X138573809Y-77742857D02*
X138573809Y-77838095D01*
X138597619Y-77885714D01*
X138621428Y-77909523D01*
X138692857Y-77957142D01*
X138788095Y-77980952D01*
X138978571Y-77980952D01*
X139026190Y-77957142D01*
X139050000Y-77933333D01*
X139073809Y-77885714D01*
X139073809Y-77790476D01*
X139050000Y-77742857D01*
X139026190Y-77719047D01*
X138978571Y-77695238D01*
X138859523Y-77695238D01*
X138811904Y-77719047D01*
X138788095Y-77742857D01*
X138764285Y-77790476D01*
X138764285Y-77885714D01*
X138788095Y-77933333D01*
X138811904Y-77957142D01*
X138859523Y-77980952D01*
X139026190Y-76019047D02*
X139050000Y-76042857D01*
X139073809Y-76090476D01*
X139073809Y-76209523D01*
X139050000Y-76257142D01*
X139026190Y-76280952D01*
X138978571Y-76304761D01*
X138930952Y-76304761D01*
X138859523Y-76280952D01*
X138573809Y-75995238D01*
X138573809Y-76304761D01*
X138859523Y-76590476D02*
X138883333Y-76542857D01*
X138907142Y-76519047D01*
X138954761Y-76495238D01*
X138978571Y-76495238D01*
X139026190Y-76519047D01*
X139050000Y-76542857D01*
X139073809Y-76590476D01*
X139073809Y-76685714D01*
X139050000Y-76733333D01*
X139026190Y-76757142D01*
X138978571Y-76780952D01*
X138954761Y-76780952D01*
X138907142Y-76757142D01*
X138883333Y-76733333D01*
X138859523Y-76685714D01*
X138859523Y-76590476D01*
X138835714Y-76542857D01*
X138811904Y-76519047D01*
X138764285Y-76495238D01*
X138669047Y-76495238D01*
X138621428Y-76519047D01*
X138597619Y-76542857D01*
X138573809Y-76590476D01*
X138573809Y-76685714D01*
X138597619Y-76733333D01*
X138621428Y-76757142D01*
X138669047Y-76780952D01*
X138764285Y-76780952D01*
X138811904Y-76757142D01*
X138835714Y-76733333D01*
X138859523Y-76685714D01*
X139026190Y-74819047D02*
X139050000Y-74842857D01*
X139073809Y-74890476D01*
X139073809Y-75009523D01*
X139050000Y-75057142D01*
X139026190Y-75080952D01*
X138978571Y-75104761D01*
X138930952Y-75104761D01*
X138859523Y-75080952D01*
X138573809Y-74795238D01*
X138573809Y-75104761D01*
X139073809Y-75271428D02*
X139073809Y-75604761D01*
X138573809Y-75390476D01*
X139026190Y-73419047D02*
X139050000Y-73442857D01*
X139073809Y-73490476D01*
X139073809Y-73609523D01*
X139050000Y-73657142D01*
X139026190Y-73680952D01*
X138978571Y-73704761D01*
X138930952Y-73704761D01*
X138859523Y-73680952D01*
X138573809Y-73395238D01*
X138573809Y-73704761D01*
X139073809Y-74133333D02*
X139073809Y-74038095D01*
X139050000Y-73990476D01*
X139026190Y-73966666D01*
X138954761Y-73919047D01*
X138859523Y-73895238D01*
X138669047Y-73895238D01*
X138621428Y-73919047D01*
X138597619Y-73942857D01*
X138573809Y-73990476D01*
X138573809Y-74085714D01*
X138597619Y-74133333D01*
X138621428Y-74157142D01*
X138669047Y-74180952D01*
X138788095Y-74180952D01*
X138835714Y-74157142D01*
X138859523Y-74133333D01*
X138883333Y-74085714D01*
X138883333Y-73990476D01*
X138859523Y-73942857D01*
X138835714Y-73919047D01*
X138788095Y-73895238D01*
X138626190Y-72019047D02*
X138650000Y-72042857D01*
X138673809Y-72090476D01*
X138673809Y-72209523D01*
X138650000Y-72257142D01*
X138626190Y-72280952D01*
X138578571Y-72304761D01*
X138530952Y-72304761D01*
X138459523Y-72280952D01*
X138173809Y-71995238D01*
X138173809Y-72304761D01*
X138673809Y-72757142D02*
X138673809Y-72519047D01*
X138435714Y-72495238D01*
X138459523Y-72519047D01*
X138483333Y-72566666D01*
X138483333Y-72685714D01*
X138459523Y-72733333D01*
X138435714Y-72757142D01*
X138388095Y-72780952D01*
X138269047Y-72780952D01*
X138221428Y-72757142D01*
X138197619Y-72733333D01*
X138173809Y-72685714D01*
X138173809Y-72566666D01*
X138197619Y-72519047D01*
X138221428Y-72495238D01*
D11*
%TO.C,J2*%
X137840000Y-89570000D02*
X137840000Y-90700000D01*
X139360000Y-91263471D02*
X139360000Y-91406529D01*
X153265000Y-89570000D02*
X153265000Y-90392470D01*
X153265000Y-91007530D02*
X153265000Y-91662470D01*
X139360000Y-89570000D02*
X153265000Y-89570000D01*
X139360000Y-89570000D02*
X139360000Y-90136529D01*
X139306529Y-91460000D02*
X139163471Y-91460000D01*
X138036529Y-91460000D02*
X137905000Y-91460000D01*
X137905000Y-91460000D02*
X137905000Y-91662470D01*
X138600000Y-89570000D02*
X137840000Y-89570000D01*
%TO.C,J1*%
X138330000Y-71840000D02*
X137200000Y-71840000D01*
X136636529Y-73360000D02*
X136493471Y-73360000D01*
X138330000Y-87265000D02*
X137507530Y-87265000D01*
X136892470Y-87265000D02*
X136237530Y-87265000D01*
X138330000Y-73360000D02*
X138330000Y-87265000D01*
X138330000Y-73360000D02*
X137763471Y-73360000D01*
X136440000Y-73306529D02*
X136440000Y-73163471D01*
X136440000Y-72036529D02*
X136440000Y-71905000D01*
X136440000Y-71905000D02*
X136237530Y-71905000D01*
X138330000Y-72600000D02*
X138330000Y-71840000D01*
%TO.C,J3*%
X152870000Y-87330000D02*
X154000000Y-87330000D01*
X154563471Y-85810000D02*
X154706529Y-85810000D01*
X152870000Y-71905000D02*
X153692470Y-71905000D01*
X154307530Y-71905000D02*
X154962470Y-71905000D01*
X152870000Y-85810000D02*
X152870000Y-71905000D01*
X152870000Y-85810000D02*
X153436529Y-85810000D01*
X154760000Y-85863471D02*
X154760000Y-86006529D01*
X154760000Y-87133471D02*
X154760000Y-87265000D01*
X154760000Y-87265000D02*
X154962470Y-87265000D01*
X152870000Y-86570000D02*
X152870000Y-87330000D01*
D12*
%TO.C,REF\u002A\u002A*%
G36*
X151641960Y-59598926D02*
G01*
X151405292Y-59628318D01*
X151171716Y-59677692D01*
X150941665Y-59746885D01*
X150715574Y-59835731D01*
X150493875Y-59944068D01*
X150277003Y-60071732D01*
X150134678Y-60167953D01*
X150086185Y-60203368D01*
X150036051Y-60241500D01*
X149986924Y-60280163D01*
X149941455Y-60317170D01*
X149902291Y-60350335D01*
X149872081Y-60377470D01*
X149853475Y-60396389D01*
X149848720Y-60404035D01*
X149849326Y-60408395D01*
X149852818Y-60410530D01*
X149861707Y-60409725D01*
X149878507Y-60405262D01*
X149905728Y-60396427D01*
X149945882Y-60382502D01*
X150001482Y-60362772D01*
X150033398Y-60351385D01*
X150273117Y-60275134D01*
X150512267Y-60217503D01*
X150749943Y-60178466D01*
X150985236Y-60157999D01*
X151217240Y-60156078D01*
X151445049Y-60172678D01*
X151667756Y-60207774D01*
X151884454Y-60261343D01*
X152094235Y-60333360D01*
X152271880Y-60411719D01*
X152410702Y-60484661D01*
X152534461Y-60560841D01*
X152648408Y-60643934D01*
X152757797Y-60737616D01*
X152814129Y-60791252D01*
X152944513Y-60933019D01*
X153056979Y-61084333D01*
X153151494Y-61245096D01*
X153228025Y-61415212D01*
X153286539Y-61594583D01*
X153327003Y-61783111D01*
X153349386Y-61980701D01*
X153353653Y-62187255D01*
X153343646Y-62362884D01*
X153317749Y-62549180D01*
X153274163Y-62737393D01*
X153214382Y-62922736D01*
X153139900Y-63100421D01*
X153073612Y-63228753D01*
X152957505Y-63414338D01*
X152821996Y-63594146D01*
X152667215Y-63768011D01*
X152615015Y-63820998D01*
X152558533Y-63875457D01*
X152511928Y-63916350D01*
X152472106Y-63945751D01*
X152435972Y-63965736D01*
X152400430Y-63978377D01*
X152371100Y-63984478D01*
X152334358Y-63985715D01*
X152304423Y-63974799D01*
X152277925Y-63949328D01*
X152251495Y-63906899D01*
X152245146Y-63894636D01*
X152224737Y-63857223D01*
X152197322Y-63810976D01*
X152167580Y-63763685D01*
X152155250Y-63744983D01*
X152125337Y-63699855D01*
X152105568Y-63668008D01*
X152094454Y-63646064D01*
X152090507Y-63630643D01*
X152092239Y-63618366D01*
X152095868Y-63610152D01*
X152103357Y-63601230D01*
X152117348Y-63596168D01*
X152142252Y-63594241D01*
X152182480Y-63594723D01*
X152188475Y-63594906D01*
X152235791Y-63595216D01*
X152270119Y-63591879D01*
X152298627Y-63583833D01*
X152316772Y-63575893D01*
X152353358Y-63561926D01*
X152381965Y-63560531D01*
X152389817Y-63562314D01*
X152407891Y-63564118D01*
X152434299Y-63560465D01*
X152472227Y-63550640D01*
X152524862Y-63533926D01*
X152542206Y-63528073D01*
X152589117Y-63511333D01*
X152628544Y-63495822D01*
X152656724Y-63483126D01*
X152669891Y-63474832D01*
X152670338Y-63474067D01*
X152663717Y-63464664D01*
X152642081Y-63452919D01*
X152620378Y-63444730D01*
X152545399Y-63418623D01*
X152465253Y-63387985D01*
X152382240Y-63353942D01*
X152298658Y-63317616D01*
X152216808Y-63280130D01*
X152138987Y-63242609D01*
X152067496Y-63206175D01*
X152004634Y-63171952D01*
X151952700Y-63141064D01*
X151913994Y-63114633D01*
X151890814Y-63093784D01*
X151885764Y-63085800D01*
X151886891Y-63067504D01*
X151896471Y-63046715D01*
X151905550Y-63029147D01*
X151907440Y-63010277D01*
X151902439Y-62982373D01*
X151899412Y-62970196D01*
X151892356Y-62939143D01*
X151891667Y-62922377D01*
X151897409Y-62914869D01*
X151900110Y-62913763D01*
X151915339Y-62904591D01*
X151938718Y-62886347D01*
X151953182Y-62873778D01*
X151989200Y-62828491D01*
X152009305Y-62774548D01*
X152012385Y-62730420D01*
X152011706Y-62700476D01*
X152016892Y-62683721D01*
X152031261Y-62673184D01*
X152041839Y-62668517D01*
X152073094Y-62649210D01*
X152106757Y-62618932D01*
X152136098Y-62584588D01*
X152154387Y-62553086D01*
X152154436Y-62552958D01*
X152164154Y-62504700D01*
X152162975Y-62444364D01*
X152151245Y-62376799D01*
X152138782Y-62333275D01*
X152112363Y-62253340D01*
X152155403Y-62199010D01*
X152202125Y-62129200D01*
X152229043Y-62061821D01*
X152236284Y-61995352D01*
X152223975Y-61928273D01*
X152192243Y-61859061D01*
X152184892Y-61846919D01*
X152158102Y-61803023D01*
X152141182Y-61770425D01*
X152132776Y-61743487D01*
X152131526Y-61716570D01*
X152136077Y-61684035D01*
X152140458Y-61662197D01*
X152148167Y-61621023D01*
X152150618Y-61590546D01*
X152147761Y-61561820D01*
X152139718Y-61526562D01*
X152117758Y-61462776D01*
X152084933Y-61394793D01*
X152045739Y-61331714D01*
X152038420Y-61321668D01*
X152018239Y-61290473D01*
X151994172Y-61247107D01*
X151969622Y-61198362D01*
X151947994Y-61151035D01*
X151932694Y-61111918D01*
X151931528Y-61108360D01*
X151897508Y-61026865D01*
X151847267Y-60942457D01*
X151804440Y-60884840D01*
X151777496Y-60850840D01*
X151754832Y-60821085D01*
X151740048Y-60800344D01*
X151737155Y-60795655D01*
X151725984Y-60780947D01*
X151719276Y-60784548D01*
X151717326Y-60804877D01*
X151720429Y-60840355D01*
X151724231Y-60864801D01*
X151736767Y-60949209D01*
X151743723Y-61029683D01*
X151745160Y-61111827D01*
X151741138Y-61201245D01*
X151731717Y-61303542D01*
X151729178Y-61326144D01*
X151722107Y-61385569D01*
X151715458Y-61437773D01*
X151709681Y-61479503D01*
X151705225Y-61507505D01*
X151702560Y-61518507D01*
X151695098Y-61519747D01*
X151686675Y-61507797D01*
X151676563Y-61480827D01*
X151664034Y-61437005D01*
X151653233Y-61394499D01*
X151638840Y-61341584D01*
X151622089Y-61288463D01*
X151605503Y-61242817D01*
X151596477Y-61221779D01*
X151578139Y-61185231D01*
X151553446Y-61138979D01*
X151525206Y-61087975D01*
X151496227Y-61037169D01*
X151469315Y-60991514D01*
X151447280Y-60955960D01*
X151437549Y-60941511D01*
X151424749Y-60925310D01*
X151417685Y-60924914D01*
X151411949Y-60936431D01*
X151409875Y-60952012D01*
X151408551Y-60984657D01*
X151408003Y-61031120D01*
X151408258Y-61088156D01*
X151409341Y-61152522D01*
X151410008Y-61179480D01*
X151410681Y-61221750D01*
X151410889Y-61279009D01*
X151410673Y-61348991D01*
X151410076Y-61429429D01*
X151409139Y-61518056D01*
X151407906Y-61612606D01*
X151406417Y-61710813D01*
X151404715Y-61810411D01*
X151402842Y-61909132D01*
X151400841Y-62004711D01*
X151398752Y-62094882D01*
X151396619Y-62177377D01*
X151394484Y-62249930D01*
X151392388Y-62310276D01*
X151390373Y-62356147D01*
X151388482Y-62385277D01*
X151387461Y-62393600D01*
X151385801Y-62411153D01*
X151384421Y-62442122D01*
X151383658Y-62477420D01*
X151382076Y-62511772D01*
X151378666Y-62536376D01*
X151374162Y-62545996D01*
X151374071Y-62546000D01*
X151363863Y-62538218D01*
X151347529Y-62518350D01*
X151337033Y-62503345D01*
X151299707Y-62453461D01*
X151255922Y-62405064D01*
X151211147Y-62363722D01*
X151172889Y-62336179D01*
X151126827Y-62315163D01*
X151076778Y-62305169D01*
X151018940Y-62306080D01*
X150949515Y-62317777D01*
X150908277Y-62327895D01*
X150844886Y-62347127D01*
X150796756Y-62368755D01*
X150758868Y-62396483D01*
X150726206Y-62434015D01*
X150693752Y-62485053D01*
X150692575Y-62487100D01*
X150669107Y-62536777D01*
X150661995Y-62577922D01*
X150671299Y-62614142D01*
X150695301Y-62647171D01*
X150715982Y-62675770D01*
X150738388Y-62717054D01*
X150759928Y-62764848D01*
X150778012Y-62812972D01*
X150790052Y-62855248D01*
X150793600Y-62881695D01*
X150800770Y-62909691D01*
X150821540Y-62928820D01*
X150845293Y-62945827D01*
X150875265Y-62970012D01*
X150892433Y-62984934D01*
X150929661Y-63012035D01*
X150965952Y-63022817D01*
X151006658Y-63017894D01*
X151046965Y-63002620D01*
X151076044Y-62991578D01*
X151098768Y-62986725D01*
X151105385Y-62987285D01*
X151116988Y-63001588D01*
X151115928Y-63028818D01*
X151102420Y-63066180D01*
X151098778Y-63073579D01*
X151086351Y-63105176D01*
X151074754Y-63146640D01*
X151068223Y-63179104D01*
X151055813Y-63229710D01*
X151034063Y-63290076D01*
X151010979Y-63341993D01*
X150988939Y-63389472D01*
X150975732Y-63423424D01*
X150970075Y-63447945D01*
X150970684Y-63467133D01*
X150971116Y-63469266D01*
X150982303Y-63499554D01*
X150999882Y-63527403D01*
X151019299Y-63546685D01*
X151032498Y-63551840D01*
X151048780Y-63557267D01*
X151051700Y-63560413D01*
X151053104Y-63576943D01*
X151047697Y-63602140D01*
X151038266Y-63627272D01*
X151027598Y-63643605D01*
X151024542Y-63645494D01*
X151010629Y-63646170D01*
X150980137Y-63645332D01*
X150936737Y-63643155D01*
X150884099Y-63639813D01*
X150844400Y-63636926D01*
X150776914Y-63632193D01*
X150705924Y-63627930D01*
X150638490Y-63624515D01*
X150581671Y-63622328D01*
X150565000Y-63621911D01*
X150514814Y-63621263D01*
X150478318Y-63622432D01*
X150448891Y-63626570D01*
X150419915Y-63634832D01*
X150384770Y-63648370D01*
X150364222Y-63656890D01*
X150324485Y-63673043D01*
X150291423Y-63685653D01*
X150269761Y-63692960D01*
X150264470Y-63694080D01*
X150262486Y-63687054D01*
X150271234Y-63669698D01*
X150274374Y-63665097D01*
X150297303Y-63643387D01*
X150335666Y-63622550D01*
X150371586Y-63608186D01*
X150407232Y-63594176D01*
X150434037Y-63581718D01*
X150447434Y-63572998D01*
X150448160Y-63571533D01*
X150440027Y-63562526D01*
X150418540Y-63546751D01*
X150388076Y-63527373D01*
X150382921Y-63524304D01*
X150348766Y-63502808D01*
X150326536Y-63483228D01*
X150313690Y-63460393D01*
X150307683Y-63429131D01*
X150305975Y-63384271D01*
X150305920Y-63367690D01*
X150304744Y-63335935D01*
X150301690Y-63314321D01*
X150298300Y-63308090D01*
X150287457Y-63314305D01*
X150265682Y-63330672D01*
X150237291Y-63353911D01*
X150231438Y-63358890D01*
X150200783Y-63383289D01*
X150174105Y-63401262D01*
X150156504Y-63409428D01*
X150154881Y-63409600D01*
X150137187Y-63406555D01*
X150106511Y-63398523D01*
X150069074Y-63387152D01*
X150064048Y-63385518D01*
X150028501Y-63374948D01*
X150001084Y-63368808D01*
X149986814Y-63368172D01*
X149985985Y-63368790D01*
X149987510Y-63381031D01*
X149995708Y-63406634D01*
X150008889Y-63440437D01*
X150011326Y-63446211D01*
X150025948Y-63482570D01*
X150036683Y-63513208D01*
X150041421Y-63532050D01*
X150041486Y-63533128D01*
X150035515Y-63549013D01*
X150019568Y-63574745D01*
X149997040Y-63604872D01*
X149996040Y-63606103D01*
X149973517Y-63634647D01*
X149957190Y-63657043D01*
X149950358Y-63668748D01*
X149950320Y-63669073D01*
X149959677Y-63671362D01*
X149984722Y-63671723D01*
X150020914Y-63670168D01*
X150040297Y-63668795D01*
X150130273Y-63661674D01*
X150162217Y-63713589D01*
X150179164Y-63741766D01*
X150190746Y-63762239D01*
X150194160Y-63769644D01*
X150185574Y-63775168D01*
X150164351Y-63783567D01*
X150158600Y-63785520D01*
X150131595Y-63799430D01*
X150123040Y-63815372D01*
X150124797Y-63823640D01*
X150132517Y-63828604D01*
X150149880Y-63830768D01*
X150180563Y-63830639D01*
X150222100Y-63829003D01*
X150282374Y-63825232D01*
X150328949Y-63818923D01*
X150368437Y-63808168D01*
X150407449Y-63791057D01*
X150452596Y-63765680D01*
X150462915Y-63759463D01*
X150490753Y-63743413D01*
X150321817Y-63743413D01*
X150321160Y-63744880D01*
X150307934Y-63751048D01*
X150282425Y-63754210D01*
X150272301Y-63754325D01*
X150247717Y-63753060D01*
X150241574Y-63749895D01*
X150250040Y-63744880D01*
X150273281Y-63738130D01*
X150297337Y-63735636D01*
X150315689Y-63737396D01*
X150321817Y-63743413D01*
X150490753Y-63743413D01*
X150499915Y-63738131D01*
X150533438Y-63720752D01*
X150557336Y-63710469D01*
X150560695Y-63709470D01*
X150588373Y-63708153D01*
X150634948Y-63713211D01*
X150700044Y-63724578D01*
X150783288Y-63742184D01*
X150884306Y-63765960D01*
X150930760Y-63777472D01*
X151093320Y-63818270D01*
X151147838Y-63799844D01*
X151178971Y-63789770D01*
X151196854Y-63786491D01*
X151207428Y-63790127D01*
X151216635Y-63800800D01*
X151216967Y-63801249D01*
X151230182Y-63822252D01*
X151247593Y-63853954D01*
X151266730Y-63891309D01*
X151285124Y-63929271D01*
X151300305Y-63962791D01*
X151309803Y-63986823D01*
X151311760Y-63994976D01*
X151312039Y-64000247D01*
X151311139Y-64004161D01*
X151306460Y-64006901D01*
X151295401Y-64008645D01*
X151275360Y-64009576D01*
X151243736Y-64009873D01*
X151197927Y-64009717D01*
X151135333Y-64009289D01*
X151108301Y-64009104D01*
X151008679Y-64009735D01*
X150926706Y-64013280D01*
X150859881Y-64020037D01*
X150805705Y-64030303D01*
X150761674Y-64044378D01*
X150743329Y-64052614D01*
X150698815Y-64081396D01*
X150670769Y-64116246D01*
X150658972Y-64158692D01*
X150663208Y-64210261D01*
X150683260Y-64272481D01*
X150705235Y-64320489D01*
X150729142Y-64370420D01*
X150756081Y-64429906D01*
X150781833Y-64489519D01*
X150793553Y-64517926D01*
X150836977Y-64625493D01*
X150800152Y-64843046D01*
X150780032Y-64963857D01*
X150763513Y-65068236D01*
X150750243Y-65159686D01*
X150739870Y-65241707D01*
X150732042Y-65317799D01*
X150726407Y-65391464D01*
X150722612Y-65466202D01*
X150720307Y-65545514D01*
X150719138Y-65632902D01*
X150719021Y-65649880D01*
X150718478Y-65730001D01*
X150717806Y-65792401D01*
X150716780Y-65839680D01*
X150715180Y-65874436D01*
X150712782Y-65899269D01*
X150709366Y-65916779D01*
X150704709Y-65929563D01*
X150698588Y-65940221D01*
X150693594Y-65947418D01*
X150678965Y-65971231D01*
X150676985Y-65986699D01*
X150682138Y-65995678D01*
X150705118Y-66008432D01*
X150738337Y-66007361D01*
X150777418Y-65992761D01*
X150784703Y-65988739D01*
X150814845Y-65965060D01*
X150837408Y-65931633D01*
X150854376Y-65884692D01*
X150865006Y-65836256D01*
X150885621Y-65759836D01*
X150920271Y-65685964D01*
X150971345Y-65609550D01*
X150971580Y-65609240D01*
X151000009Y-65568313D01*
X151013322Y-65537311D01*
X151011020Y-65512041D01*
X150992607Y-65488314D01*
X150957583Y-65461938D01*
X150953769Y-65459403D01*
X150915872Y-65431133D01*
X150894527Y-65404582D01*
X150887355Y-65374089D01*
X150891976Y-65333989D01*
X150895155Y-65319870D01*
X150909540Y-65279387D01*
X150933152Y-65232290D01*
X150961671Y-65185918D01*
X150990777Y-65147608D01*
X151005309Y-65132774D01*
X151027083Y-65113509D01*
X151060891Y-65188654D01*
X151078726Y-65229190D01*
X151101094Y-65281328D01*
X151124915Y-65337834D01*
X151143710Y-65383180D01*
X151164577Y-65431470D01*
X151183058Y-65469428D01*
X151197603Y-65494104D01*
X151206457Y-65502560D01*
X151222817Y-65493824D01*
X151242779Y-65470956D01*
X151263125Y-65438967D01*
X151280636Y-65402865D01*
X151291524Y-65370132D01*
X151297031Y-65344255D01*
X151298059Y-65323758D01*
X151293419Y-65302423D01*
X151281923Y-65274029D01*
X151267092Y-65242265D01*
X151246905Y-65197928D01*
X151235529Y-65165410D01*
X151232249Y-65138578D01*
X151236350Y-65111301D01*
X151247116Y-65077450D01*
X151247678Y-65075867D01*
X151257377Y-65045895D01*
X151259491Y-65027034D01*
X151254132Y-65011587D01*
X151248738Y-65002819D01*
X151228896Y-64984042D01*
X151199374Y-64967636D01*
X151190373Y-64964255D01*
X151155513Y-64946948D01*
X151123739Y-64922158D01*
X151119039Y-64917170D01*
X151095914Y-64879437D01*
X151078869Y-64829328D01*
X151069920Y-64774375D01*
X151069823Y-64733412D01*
X151075933Y-64706608D01*
X151090910Y-64687507D01*
X151117422Y-64674974D01*
X151158138Y-64667869D01*
X151215725Y-64665055D01*
X151230480Y-64664902D01*
X151311411Y-64669086D01*
X151378166Y-64683457D01*
X151434805Y-64709238D01*
X151475210Y-64738598D01*
X151502483Y-64765289D01*
X151513079Y-64787164D01*
X151508076Y-64809294D01*
X151494498Y-64829408D01*
X151480304Y-64851183D01*
X151482253Y-64861131D01*
X151500876Y-64860430D01*
X151507757Y-64858840D01*
X151541102Y-64844354D01*
X151568497Y-64821712D01*
X151584277Y-64796216D01*
X151586080Y-64785542D01*
X151589956Y-64764948D01*
X151601665Y-64763100D01*
X151615250Y-64773580D01*
X151627157Y-64779521D01*
X151640726Y-64770409D01*
X151647686Y-64762388D01*
X151661176Y-64748334D01*
X151675561Y-64743213D01*
X151698297Y-64745576D01*
X151715544Y-64749204D01*
X151750829Y-64756319D01*
X151796185Y-64764531D01*
X151840080Y-64771787D01*
X151910583Y-64786769D01*
X151962708Y-64807443D01*
X151997864Y-64834872D01*
X152017461Y-64870119D01*
X152022960Y-64909861D01*
X152025518Y-64938111D01*
X152031920Y-64957061D01*
X152034662Y-64959952D01*
X152049186Y-64959467D01*
X152062272Y-64943385D01*
X152071275Y-64916396D01*
X152073760Y-64890691D01*
X152070672Y-64852016D01*
X152059920Y-64818222D01*
X152039277Y-64786539D01*
X152006513Y-64754201D01*
X151959399Y-64718438D01*
X151907154Y-64683758D01*
X151872421Y-64660205D01*
X151855286Y-64645242D01*
X151856008Y-64639108D01*
X151858063Y-64638960D01*
X151887642Y-64642878D01*
X151906967Y-64652921D01*
X151911200Y-64661786D01*
X151919199Y-64676447D01*
X151937274Y-64691349D01*
X151956545Y-64699418D01*
X151958673Y-64699596D01*
X151969381Y-64691147D01*
X151980368Y-64669936D01*
X151982046Y-64665191D01*
X151989074Y-64647086D01*
X151998726Y-64635709D01*
X152016016Y-64628306D01*
X152045961Y-64622121D01*
X152066654Y-64618720D01*
X152209694Y-64589568D01*
X152361888Y-64547204D01*
X152518590Y-64493331D01*
X152675153Y-64429651D01*
X152826929Y-64357867D01*
X152930408Y-64302249D01*
X153122907Y-64183861D01*
X153232140Y-64105693D01*
X152249411Y-64105693D01*
X152248790Y-64118844D01*
X152243056Y-64131498D01*
X152229576Y-64146282D01*
X152205715Y-64165825D01*
X152168839Y-64192751D01*
X152145805Y-64209026D01*
X152104885Y-64237171D01*
X152069399Y-64260429D01*
X152042902Y-64276550D01*
X152028945Y-64283288D01*
X152028327Y-64283360D01*
X152020748Y-64274263D01*
X152009129Y-64249587D01*
X151995138Y-64213255D01*
X151982382Y-64175367D01*
X151952611Y-64088786D01*
X151921905Y-64013168D01*
X151891701Y-63951817D01*
X151869844Y-63916593D01*
X151851112Y-63896787D01*
X151821002Y-63871649D01*
X151785610Y-63846218D01*
X151781028Y-63843211D01*
X151737118Y-63812663D01*
X151694199Y-63779186D01*
X151655463Y-63745690D01*
X151624100Y-63715083D01*
X151603303Y-63690276D01*
X151596240Y-63674772D01*
X151604323Y-63650511D01*
X151629001Y-63636792D01*
X151664023Y-63633120D01*
X151719353Y-63642012D01*
X151781092Y-63667856D01*
X151846612Y-63709401D01*
X151880720Y-63736302D01*
X151922783Y-63770449D01*
X151969982Y-63806884D01*
X152012209Y-63837810D01*
X152012800Y-63838225D01*
X152067368Y-63880050D01*
X152119298Y-63926330D01*
X152165949Y-63974078D01*
X152204678Y-64020307D01*
X152232843Y-64062029D01*
X152247800Y-64096258D01*
X152249411Y-64105693D01*
X153232140Y-64105693D01*
X153304273Y-64054075D01*
X153473287Y-63914189D01*
X153628734Y-63765504D01*
X153769397Y-63609320D01*
X153894059Y-63446936D01*
X154001506Y-63279652D01*
X154090519Y-63108769D01*
X154127447Y-63023097D01*
X154195122Y-62831888D01*
X154245847Y-62636921D01*
X154280117Y-62435522D01*
X154298426Y-62225019D01*
X154302007Y-62078640D01*
X154292938Y-61845931D01*
X154265102Y-61620791D01*
X154218550Y-61403367D01*
X154153330Y-61193807D01*
X154069493Y-60992258D01*
X153967088Y-60798868D01*
X153846164Y-60613785D01*
X153782730Y-60529431D01*
X153685633Y-60416835D01*
X153572176Y-60304366D01*
X153446117Y-60195028D01*
X153311212Y-60091822D01*
X153171217Y-59997752D01*
X153029890Y-59915820D01*
X152987713Y-59894015D01*
X152770337Y-59794479D01*
X152554391Y-59714703D01*
X152340166Y-59654751D01*
X152127952Y-59614687D01*
X151918041Y-59594574D01*
X151710723Y-59594476D01*
X151641960Y-59598926D01*
G37*
X151641960Y-59598926D02*
X151405292Y-59628318D01*
X151171716Y-59677692D01*
X150941665Y-59746885D01*
X150715574Y-59835731D01*
X150493875Y-59944068D01*
X150277003Y-60071732D01*
X150134678Y-60167953D01*
X150086185Y-60203368D01*
X150036051Y-60241500D01*
X149986924Y-60280163D01*
X149941455Y-60317170D01*
X149902291Y-60350335D01*
X149872081Y-60377470D01*
X149853475Y-60396389D01*
X149848720Y-60404035D01*
X149849326Y-60408395D01*
X149852818Y-60410530D01*
X149861707Y-60409725D01*
X149878507Y-60405262D01*
X149905728Y-60396427D01*
X149945882Y-60382502D01*
X150001482Y-60362772D01*
X150033398Y-60351385D01*
X150273117Y-60275134D01*
X150512267Y-60217503D01*
X150749943Y-60178466D01*
X150985236Y-60157999D01*
X151217240Y-60156078D01*
X151445049Y-60172678D01*
X151667756Y-60207774D01*
X151884454Y-60261343D01*
X152094235Y-60333360D01*
X152271880Y-60411719D01*
X152410702Y-60484661D01*
X152534461Y-60560841D01*
X152648408Y-60643934D01*
X152757797Y-60737616D01*
X152814129Y-60791252D01*
X152944513Y-60933019D01*
X153056979Y-61084333D01*
X153151494Y-61245096D01*
X153228025Y-61415212D01*
X153286539Y-61594583D01*
X153327003Y-61783111D01*
X153349386Y-61980701D01*
X153353653Y-62187255D01*
X153343646Y-62362884D01*
X153317749Y-62549180D01*
X153274163Y-62737393D01*
X153214382Y-62922736D01*
X153139900Y-63100421D01*
X153073612Y-63228753D01*
X152957505Y-63414338D01*
X152821996Y-63594146D01*
X152667215Y-63768011D01*
X152615015Y-63820998D01*
X152558533Y-63875457D01*
X152511928Y-63916350D01*
X152472106Y-63945751D01*
X152435972Y-63965736D01*
X152400430Y-63978377D01*
X152371100Y-63984478D01*
X152334358Y-63985715D01*
X152304423Y-63974799D01*
X152277925Y-63949328D01*
X152251495Y-63906899D01*
X152245146Y-63894636D01*
X152224737Y-63857223D01*
X152197322Y-63810976D01*
X152167580Y-63763685D01*
X152155250Y-63744983D01*
X152125337Y-63699855D01*
X152105568Y-63668008D01*
X152094454Y-63646064D01*
X152090507Y-63630643D01*
X152092239Y-63618366D01*
X152095868Y-63610152D01*
X152103357Y-63601230D01*
X152117348Y-63596168D01*
X152142252Y-63594241D01*
X152182480Y-63594723D01*
X152188475Y-63594906D01*
X152235791Y-63595216D01*
X152270119Y-63591879D01*
X152298627Y-63583833D01*
X152316772Y-63575893D01*
X152353358Y-63561926D01*
X152381965Y-63560531D01*
X152389817Y-63562314D01*
X152407891Y-63564118D01*
X152434299Y-63560465D01*
X152472227Y-63550640D01*
X152524862Y-63533926D01*
X152542206Y-63528073D01*
X152589117Y-63511333D01*
X152628544Y-63495822D01*
X152656724Y-63483126D01*
X152669891Y-63474832D01*
X152670338Y-63474067D01*
X152663717Y-63464664D01*
X152642081Y-63452919D01*
X152620378Y-63444730D01*
X152545399Y-63418623D01*
X152465253Y-63387985D01*
X152382240Y-63353942D01*
X152298658Y-63317616D01*
X152216808Y-63280130D01*
X152138987Y-63242609D01*
X152067496Y-63206175D01*
X152004634Y-63171952D01*
X151952700Y-63141064D01*
X151913994Y-63114633D01*
X151890814Y-63093784D01*
X151885764Y-63085800D01*
X151886891Y-63067504D01*
X151896471Y-63046715D01*
X151905550Y-63029147D01*
X151907440Y-63010277D01*
X151902439Y-62982373D01*
X151899412Y-62970196D01*
X151892356Y-62939143D01*
X151891667Y-62922377D01*
X151897409Y-62914869D01*
X151900110Y-62913763D01*
X151915339Y-62904591D01*
X151938718Y-62886347D01*
X151953182Y-62873778D01*
X151989200Y-62828491D01*
X152009305Y-62774548D01*
X152012385Y-62730420D01*
X152011706Y-62700476D01*
X152016892Y-62683721D01*
X152031261Y-62673184D01*
X152041839Y-62668517D01*
X152073094Y-62649210D01*
X152106757Y-62618932D01*
X152136098Y-62584588D01*
X152154387Y-62553086D01*
X152154436Y-62552958D01*
X152164154Y-62504700D01*
X152162975Y-62444364D01*
X152151245Y-62376799D01*
X152138782Y-62333275D01*
X152112363Y-62253340D01*
X152155403Y-62199010D01*
X152202125Y-62129200D01*
X152229043Y-62061821D01*
X152236284Y-61995352D01*
X152223975Y-61928273D01*
X152192243Y-61859061D01*
X152184892Y-61846919D01*
X152158102Y-61803023D01*
X152141182Y-61770425D01*
X152132776Y-61743487D01*
X152131526Y-61716570D01*
X152136077Y-61684035D01*
X152140458Y-61662197D01*
X152148167Y-61621023D01*
X152150618Y-61590546D01*
X152147761Y-61561820D01*
X152139718Y-61526562D01*
X152117758Y-61462776D01*
X152084933Y-61394793D01*
X152045739Y-61331714D01*
X152038420Y-61321668D01*
X152018239Y-61290473D01*
X151994172Y-61247107D01*
X151969622Y-61198362D01*
X151947994Y-61151035D01*
X151932694Y-61111918D01*
X151931528Y-61108360D01*
X151897508Y-61026865D01*
X151847267Y-60942457D01*
X151804440Y-60884840D01*
X151777496Y-60850840D01*
X151754832Y-60821085D01*
X151740048Y-60800344D01*
X151737155Y-60795655D01*
X151725984Y-60780947D01*
X151719276Y-60784548D01*
X151717326Y-60804877D01*
X151720429Y-60840355D01*
X151724231Y-60864801D01*
X151736767Y-60949209D01*
X151743723Y-61029683D01*
X151745160Y-61111827D01*
X151741138Y-61201245D01*
X151731717Y-61303542D01*
X151729178Y-61326144D01*
X151722107Y-61385569D01*
X151715458Y-61437773D01*
X151709681Y-61479503D01*
X151705225Y-61507505D01*
X151702560Y-61518507D01*
X151695098Y-61519747D01*
X151686675Y-61507797D01*
X151676563Y-61480827D01*
X151664034Y-61437005D01*
X151653233Y-61394499D01*
X151638840Y-61341584D01*
X151622089Y-61288463D01*
X151605503Y-61242817D01*
X151596477Y-61221779D01*
X151578139Y-61185231D01*
X151553446Y-61138979D01*
X151525206Y-61087975D01*
X151496227Y-61037169D01*
X151469315Y-60991514D01*
X151447280Y-60955960D01*
X151437549Y-60941511D01*
X151424749Y-60925310D01*
X151417685Y-60924914D01*
X151411949Y-60936431D01*
X151409875Y-60952012D01*
X151408551Y-60984657D01*
X151408003Y-61031120D01*
X151408258Y-61088156D01*
X151409341Y-61152522D01*
X151410008Y-61179480D01*
X151410681Y-61221750D01*
X151410889Y-61279009D01*
X151410673Y-61348991D01*
X151410076Y-61429429D01*
X151409139Y-61518056D01*
X151407906Y-61612606D01*
X151406417Y-61710813D01*
X151404715Y-61810411D01*
X151402842Y-61909132D01*
X151400841Y-62004711D01*
X151398752Y-62094882D01*
X151396619Y-62177377D01*
X151394484Y-62249930D01*
X151392388Y-62310276D01*
X151390373Y-62356147D01*
X151388482Y-62385277D01*
X151387461Y-62393600D01*
X151385801Y-62411153D01*
X151384421Y-62442122D01*
X151383658Y-62477420D01*
X151382076Y-62511772D01*
X151378666Y-62536376D01*
X151374162Y-62545996D01*
X151374071Y-62546000D01*
X151363863Y-62538218D01*
X151347529Y-62518350D01*
X151337033Y-62503345D01*
X151299707Y-62453461D01*
X151255922Y-62405064D01*
X151211147Y-62363722D01*
X151172889Y-62336179D01*
X151126827Y-62315163D01*
X151076778Y-62305169D01*
X151018940Y-62306080D01*
X150949515Y-62317777D01*
X150908277Y-62327895D01*
X150844886Y-62347127D01*
X150796756Y-62368755D01*
X150758868Y-62396483D01*
X150726206Y-62434015D01*
X150693752Y-62485053D01*
X150692575Y-62487100D01*
X150669107Y-62536777D01*
X150661995Y-62577922D01*
X150671299Y-62614142D01*
X150695301Y-62647171D01*
X150715982Y-62675770D01*
X150738388Y-62717054D01*
X150759928Y-62764848D01*
X150778012Y-62812972D01*
X150790052Y-62855248D01*
X150793600Y-62881695D01*
X150800770Y-62909691D01*
X150821540Y-62928820D01*
X150845293Y-62945827D01*
X150875265Y-62970012D01*
X150892433Y-62984934D01*
X150929661Y-63012035D01*
X150965952Y-63022817D01*
X151006658Y-63017894D01*
X151046965Y-63002620D01*
X151076044Y-62991578D01*
X151098768Y-62986725D01*
X151105385Y-62987285D01*
X151116988Y-63001588D01*
X151115928Y-63028818D01*
X151102420Y-63066180D01*
X151098778Y-63073579D01*
X151086351Y-63105176D01*
X151074754Y-63146640D01*
X151068223Y-63179104D01*
X151055813Y-63229710D01*
X151034063Y-63290076D01*
X151010979Y-63341993D01*
X150988939Y-63389472D01*
X150975732Y-63423424D01*
X150970075Y-63447945D01*
X150970684Y-63467133D01*
X150971116Y-63469266D01*
X150982303Y-63499554D01*
X150999882Y-63527403D01*
X151019299Y-63546685D01*
X151032498Y-63551840D01*
X151048780Y-63557267D01*
X151051700Y-63560413D01*
X151053104Y-63576943D01*
X151047697Y-63602140D01*
X151038266Y-63627272D01*
X151027598Y-63643605D01*
X151024542Y-63645494D01*
X151010629Y-63646170D01*
X150980137Y-63645332D01*
X150936737Y-63643155D01*
X150884099Y-63639813D01*
X150844400Y-63636926D01*
X150776914Y-63632193D01*
X150705924Y-63627930D01*
X150638490Y-63624515D01*
X150581671Y-63622328D01*
X150565000Y-63621911D01*
X150514814Y-63621263D01*
X150478318Y-63622432D01*
X150448891Y-63626570D01*
X150419915Y-63634832D01*
X150384770Y-63648370D01*
X150364222Y-63656890D01*
X150324485Y-63673043D01*
X150291423Y-63685653D01*
X150269761Y-63692960D01*
X150264470Y-63694080D01*
X150262486Y-63687054D01*
X150271234Y-63669698D01*
X150274374Y-63665097D01*
X150297303Y-63643387D01*
X150335666Y-63622550D01*
X150371586Y-63608186D01*
X150407232Y-63594176D01*
X150434037Y-63581718D01*
X150447434Y-63572998D01*
X150448160Y-63571533D01*
X150440027Y-63562526D01*
X150418540Y-63546751D01*
X150388076Y-63527373D01*
X150382921Y-63524304D01*
X150348766Y-63502808D01*
X150326536Y-63483228D01*
X150313690Y-63460393D01*
X150307683Y-63429131D01*
X150305975Y-63384271D01*
X150305920Y-63367690D01*
X150304744Y-63335935D01*
X150301690Y-63314321D01*
X150298300Y-63308090D01*
X150287457Y-63314305D01*
X150265682Y-63330672D01*
X150237291Y-63353911D01*
X150231438Y-63358890D01*
X150200783Y-63383289D01*
X150174105Y-63401262D01*
X150156504Y-63409428D01*
X150154881Y-63409600D01*
X150137187Y-63406555D01*
X150106511Y-63398523D01*
X150069074Y-63387152D01*
X150064048Y-63385518D01*
X150028501Y-63374948D01*
X150001084Y-63368808D01*
X149986814Y-63368172D01*
X149985985Y-63368790D01*
X149987510Y-63381031D01*
X149995708Y-63406634D01*
X150008889Y-63440437D01*
X150011326Y-63446211D01*
X150025948Y-63482570D01*
X150036683Y-63513208D01*
X150041421Y-63532050D01*
X150041486Y-63533128D01*
X150035515Y-63549013D01*
X150019568Y-63574745D01*
X149997040Y-63604872D01*
X149996040Y-63606103D01*
X149973517Y-63634647D01*
X149957190Y-63657043D01*
X149950358Y-63668748D01*
X149950320Y-63669073D01*
X149959677Y-63671362D01*
X149984722Y-63671723D01*
X150020914Y-63670168D01*
X150040297Y-63668795D01*
X150130273Y-63661674D01*
X150162217Y-63713589D01*
X150179164Y-63741766D01*
X150190746Y-63762239D01*
X150194160Y-63769644D01*
X150185574Y-63775168D01*
X150164351Y-63783567D01*
X150158600Y-63785520D01*
X150131595Y-63799430D01*
X150123040Y-63815372D01*
X150124797Y-63823640D01*
X150132517Y-63828604D01*
X150149880Y-63830768D01*
X150180563Y-63830639D01*
X150222100Y-63829003D01*
X150282374Y-63825232D01*
X150328949Y-63818923D01*
X150368437Y-63808168D01*
X150407449Y-63791057D01*
X150452596Y-63765680D01*
X150462915Y-63759463D01*
X150490753Y-63743413D01*
X150321817Y-63743413D01*
X150321160Y-63744880D01*
X150307934Y-63751048D01*
X150282425Y-63754210D01*
X150272301Y-63754325D01*
X150247717Y-63753060D01*
X150241574Y-63749895D01*
X150250040Y-63744880D01*
X150273281Y-63738130D01*
X150297337Y-63735636D01*
X150315689Y-63737396D01*
X150321817Y-63743413D01*
X150490753Y-63743413D01*
X150499915Y-63738131D01*
X150533438Y-63720752D01*
X150557336Y-63710469D01*
X150560695Y-63709470D01*
X150588373Y-63708153D01*
X150634948Y-63713211D01*
X150700044Y-63724578D01*
X150783288Y-63742184D01*
X150884306Y-63765960D01*
X150930760Y-63777472D01*
X151093320Y-63818270D01*
X151147838Y-63799844D01*
X151178971Y-63789770D01*
X151196854Y-63786491D01*
X151207428Y-63790127D01*
X151216635Y-63800800D01*
X151216967Y-63801249D01*
X151230182Y-63822252D01*
X151247593Y-63853954D01*
X151266730Y-63891309D01*
X151285124Y-63929271D01*
X151300305Y-63962791D01*
X151309803Y-63986823D01*
X151311760Y-63994976D01*
X151312039Y-64000247D01*
X151311139Y-64004161D01*
X151306460Y-64006901D01*
X151295401Y-64008645D01*
X151275360Y-64009576D01*
X151243736Y-64009873D01*
X151197927Y-64009717D01*
X151135333Y-64009289D01*
X151108301Y-64009104D01*
X151008679Y-64009735D01*
X150926706Y-64013280D01*
X150859881Y-64020037D01*
X150805705Y-64030303D01*
X150761674Y-64044378D01*
X150743329Y-64052614D01*
X150698815Y-64081396D01*
X150670769Y-64116246D01*
X150658972Y-64158692D01*
X150663208Y-64210261D01*
X150683260Y-64272481D01*
X150705235Y-64320489D01*
X150729142Y-64370420D01*
X150756081Y-64429906D01*
X150781833Y-64489519D01*
X150793553Y-64517926D01*
X150836977Y-64625493D01*
X150800152Y-64843046D01*
X150780032Y-64963857D01*
X150763513Y-65068236D01*
X150750243Y-65159686D01*
X150739870Y-65241707D01*
X150732042Y-65317799D01*
X150726407Y-65391464D01*
X150722612Y-65466202D01*
X150720307Y-65545514D01*
X150719138Y-65632902D01*
X150719021Y-65649880D01*
X150718478Y-65730001D01*
X150717806Y-65792401D01*
X150716780Y-65839680D01*
X150715180Y-65874436D01*
X150712782Y-65899269D01*
X150709366Y-65916779D01*
X150704709Y-65929563D01*
X150698588Y-65940221D01*
X150693594Y-65947418D01*
X150678965Y-65971231D01*
X150676985Y-65986699D01*
X150682138Y-65995678D01*
X150705118Y-66008432D01*
X150738337Y-66007361D01*
X150777418Y-65992761D01*
X150784703Y-65988739D01*
X150814845Y-65965060D01*
X150837408Y-65931633D01*
X150854376Y-65884692D01*
X150865006Y-65836256D01*
X150885621Y-65759836D01*
X150920271Y-65685964D01*
X150971345Y-65609550D01*
X150971580Y-65609240D01*
X151000009Y-65568313D01*
X151013322Y-65537311D01*
X151011020Y-65512041D01*
X150992607Y-65488314D01*
X150957583Y-65461938D01*
X150953769Y-65459403D01*
X150915872Y-65431133D01*
X150894527Y-65404582D01*
X150887355Y-65374089D01*
X150891976Y-65333989D01*
X150895155Y-65319870D01*
X150909540Y-65279387D01*
X150933152Y-65232290D01*
X150961671Y-65185918D01*
X150990777Y-65147608D01*
X151005309Y-65132774D01*
X151027083Y-65113509D01*
X151060891Y-65188654D01*
X151078726Y-65229190D01*
X151101094Y-65281328D01*
X151124915Y-65337834D01*
X151143710Y-65383180D01*
X151164577Y-65431470D01*
X151183058Y-65469428D01*
X151197603Y-65494104D01*
X151206457Y-65502560D01*
X151222817Y-65493824D01*
X151242779Y-65470956D01*
X151263125Y-65438967D01*
X151280636Y-65402865D01*
X151291524Y-65370132D01*
X151297031Y-65344255D01*
X151298059Y-65323758D01*
X151293419Y-65302423D01*
X151281923Y-65274029D01*
X151267092Y-65242265D01*
X151246905Y-65197928D01*
X151235529Y-65165410D01*
X151232249Y-65138578D01*
X151236350Y-65111301D01*
X151247116Y-65077450D01*
X151247678Y-65075867D01*
X151257377Y-65045895D01*
X151259491Y-65027034D01*
X151254132Y-65011587D01*
X151248738Y-65002819D01*
X151228896Y-64984042D01*
X151199374Y-64967636D01*
X151190373Y-64964255D01*
X151155513Y-64946948D01*
X151123739Y-64922158D01*
X151119039Y-64917170D01*
X151095914Y-64879437D01*
X151078869Y-64829328D01*
X151069920Y-64774375D01*
X151069823Y-64733412D01*
X151075933Y-64706608D01*
X151090910Y-64687507D01*
X151117422Y-64674974D01*
X151158138Y-64667869D01*
X151215725Y-64665055D01*
X151230480Y-64664902D01*
X151311411Y-64669086D01*
X151378166Y-64683457D01*
X151434805Y-64709238D01*
X151475210Y-64738598D01*
X151502483Y-64765289D01*
X151513079Y-64787164D01*
X151508076Y-64809294D01*
X151494498Y-64829408D01*
X151480304Y-64851183D01*
X151482253Y-64861131D01*
X151500876Y-64860430D01*
X151507757Y-64858840D01*
X151541102Y-64844354D01*
X151568497Y-64821712D01*
X151584277Y-64796216D01*
X151586080Y-64785542D01*
X151589956Y-64764948D01*
X151601665Y-64763100D01*
X151615250Y-64773580D01*
X151627157Y-64779521D01*
X151640726Y-64770409D01*
X151647686Y-64762388D01*
X151661176Y-64748334D01*
X151675561Y-64743213D01*
X151698297Y-64745576D01*
X151715544Y-64749204D01*
X151750829Y-64756319D01*
X151796185Y-64764531D01*
X151840080Y-64771787D01*
X151910583Y-64786769D01*
X151962708Y-64807443D01*
X151997864Y-64834872D01*
X152017461Y-64870119D01*
X152022960Y-64909861D01*
X152025518Y-64938111D01*
X152031920Y-64957061D01*
X152034662Y-64959952D01*
X152049186Y-64959467D01*
X152062272Y-64943385D01*
X152071275Y-64916396D01*
X152073760Y-64890691D01*
X152070672Y-64852016D01*
X152059920Y-64818222D01*
X152039277Y-64786539D01*
X152006513Y-64754201D01*
X151959399Y-64718438D01*
X151907154Y-64683758D01*
X151872421Y-64660205D01*
X151855286Y-64645242D01*
X151856008Y-64639108D01*
X151858063Y-64638960D01*
X151887642Y-64642878D01*
X151906967Y-64652921D01*
X151911200Y-64661786D01*
X151919199Y-64676447D01*
X151937274Y-64691349D01*
X151956545Y-64699418D01*
X151958673Y-64699596D01*
X151969381Y-64691147D01*
X151980368Y-64669936D01*
X151982046Y-64665191D01*
X151989074Y-64647086D01*
X151998726Y-64635709D01*
X152016016Y-64628306D01*
X152045961Y-64622121D01*
X152066654Y-64618720D01*
X152209694Y-64589568D01*
X152361888Y-64547204D01*
X152518590Y-64493331D01*
X152675153Y-64429651D01*
X152826929Y-64357867D01*
X152930408Y-64302249D01*
X153122907Y-64183861D01*
X153232140Y-64105693D01*
X152249411Y-64105693D01*
X152248790Y-64118844D01*
X152243056Y-64131498D01*
X152229576Y-64146282D01*
X152205715Y-64165825D01*
X152168839Y-64192751D01*
X152145805Y-64209026D01*
X152104885Y-64237171D01*
X152069399Y-64260429D01*
X152042902Y-64276550D01*
X152028945Y-64283288D01*
X152028327Y-64283360D01*
X152020748Y-64274263D01*
X152009129Y-64249587D01*
X151995138Y-64213255D01*
X151982382Y-64175367D01*
X151952611Y-64088786D01*
X151921905Y-64013168D01*
X151891701Y-63951817D01*
X151869844Y-63916593D01*
X151851112Y-63896787D01*
X151821002Y-63871649D01*
X151785610Y-63846218D01*
X151781028Y-63843211D01*
X151737118Y-63812663D01*
X151694199Y-63779186D01*
X151655463Y-63745690D01*
X151624100Y-63715083D01*
X151603303Y-63690276D01*
X151596240Y-63674772D01*
X151604323Y-63650511D01*
X151629001Y-63636792D01*
X151664023Y-63633120D01*
X151719353Y-63642012D01*
X151781092Y-63667856D01*
X151846612Y-63709401D01*
X151880720Y-63736302D01*
X151922783Y-63770449D01*
X151969982Y-63806884D01*
X152012209Y-63837810D01*
X152012800Y-63838225D01*
X152067368Y-63880050D01*
X152119298Y-63926330D01*
X152165949Y-63974078D01*
X152204678Y-64020307D01*
X152232843Y-64062029D01*
X152247800Y-64096258D01*
X152249411Y-64105693D01*
X153232140Y-64105693D01*
X153304273Y-64054075D01*
X153473287Y-63914189D01*
X153628734Y-63765504D01*
X153769397Y-63609320D01*
X153894059Y-63446936D01*
X154001506Y-63279652D01*
X154090519Y-63108769D01*
X154127447Y-63023097D01*
X154195122Y-62831888D01*
X154245847Y-62636921D01*
X154280117Y-62435522D01*
X154298426Y-62225019D01*
X154302007Y-62078640D01*
X154292938Y-61845931D01*
X154265102Y-61620791D01*
X154218550Y-61403367D01*
X154153330Y-61193807D01*
X154069493Y-60992258D01*
X153967088Y-60798868D01*
X153846164Y-60613785D01*
X153782730Y-60529431D01*
X153685633Y-60416835D01*
X153572176Y-60304366D01*
X153446117Y-60195028D01*
X153311212Y-60091822D01*
X153171217Y-59997752D01*
X153029890Y-59915820D01*
X152987713Y-59894015D01*
X152770337Y-59794479D01*
X152554391Y-59714703D01*
X152340166Y-59654751D01*
X152127952Y-59614687D01*
X151918041Y-59594574D01*
X151710723Y-59594476D01*
X151641960Y-59598926D01*
D11*
%TO.C,C4*%
X142307836Y-86160000D02*
X142092164Y-86160000D01*
X142307836Y-85440000D02*
X142092164Y-85440000D01*
%TO.C,C1*%
X149060000Y-87312164D02*
X149060000Y-87527836D01*
X148340000Y-87312164D02*
X148340000Y-87527836D01*
%TO.C,Y1*%
X144050000Y-71650000D02*
X144050000Y-73950000D01*
X144050000Y-73950000D02*
X146750000Y-73950000D01*
D13*
X144950000Y-74400000D02*
G75*
G03*
X144950000Y-74400000I-250000J0D01*
G01*
%TO.C,U1*%
X142450000Y-84800000D02*
G75*
G03*
X142450000Y-84800000I-250000J0D01*
G01*
D11*
X142490000Y-83960000D02*
X142490000Y-84510000D01*
X148710000Y-78290000D02*
X148160000Y-78290000D01*
X148710000Y-78840000D02*
X148710000Y-78290000D01*
X148710000Y-84510000D02*
X148160000Y-84510000D01*
X148710000Y-83960000D02*
X148710000Y-84510000D01*
X142490000Y-78290000D02*
X143040000Y-78290000D01*
X142490000Y-78840000D02*
X142490000Y-78290000D01*
X142490000Y-84510000D02*
X143040000Y-84510000D01*
%TO.C,L2*%
X139490000Y-84037221D02*
X139490000Y-84362779D01*
X140510000Y-84037221D02*
X140510000Y-84362779D01*
%TO.C,C10*%
X140840000Y-72507836D02*
X140840000Y-72292164D01*
X141560000Y-72507836D02*
X141560000Y-72292164D01*
%TO.C,C9*%
X142440000Y-72507836D02*
X142440000Y-72292164D01*
X143160000Y-72507836D02*
X143160000Y-72292164D01*
%TO.C,C8*%
X147640000Y-72507836D02*
X147640000Y-72292164D01*
X148360000Y-72507836D02*
X148360000Y-72292164D01*
%TO.C,C7*%
X139440000Y-78907836D02*
X139440000Y-78692164D01*
X140160000Y-78907836D02*
X140160000Y-78692164D01*
%TO.C,C6*%
X149240000Y-72507836D02*
X149240000Y-72292164D01*
X149960000Y-72507836D02*
X149960000Y-72292164D01*
%TO.C,C5*%
X150840000Y-72507836D02*
X150840000Y-72292164D01*
X151560000Y-72507836D02*
X151560000Y-72292164D01*
%TO.C,C3*%
X140107836Y-86960000D02*
X139892164Y-86960000D01*
X140107836Y-86240000D02*
X139892164Y-86240000D01*
%TO.C,C2*%
X140907836Y-74960000D02*
X140692164Y-74960000D01*
X140907836Y-74240000D02*
X140692164Y-74240000D01*
%TO.C,J2*%
D14*
X136666666Y-90452380D02*
X136666666Y-91166666D01*
X136619047Y-91309523D01*
X136523809Y-91404761D01*
X136380952Y-91452380D01*
X136285714Y-91452380D01*
X137095238Y-90547619D02*
X137142857Y-90500000D01*
X137238095Y-90452380D01*
X137476190Y-90452380D01*
X137571428Y-90500000D01*
X137619047Y-90547619D01*
X137666666Y-90642857D01*
X137666666Y-90738095D01*
X137619047Y-90880952D01*
X137047619Y-91452380D01*
X137666666Y-91452380D01*
%TO.C,J1*%
D10*
X136433333Y-71326190D02*
X136433333Y-71683333D01*
X136409523Y-71754761D01*
X136361904Y-71802380D01*
X136290476Y-71826190D01*
X136242857Y-71826190D01*
X136933333Y-71826190D02*
X136647619Y-71826190D01*
X136790476Y-71826190D02*
X136790476Y-71326190D01*
X136742857Y-71397619D01*
X136695238Y-71445238D01*
X136647619Y-71469047D01*
%TO.C,J3*%
D14*
X153966666Y-87717380D02*
X153966666Y-88431666D01*
X153919047Y-88574523D01*
X153823809Y-88669761D01*
X153680952Y-88717380D01*
X153585714Y-88717380D01*
X154347619Y-87717380D02*
X154966666Y-87717380D01*
X154633333Y-88098333D01*
X154776190Y-88098333D01*
X154871428Y-88145952D01*
X154919047Y-88193571D01*
X154966666Y-88288809D01*
X154966666Y-88526904D01*
X154919047Y-88622142D01*
X154871428Y-88669761D01*
X154776190Y-88717380D01*
X154490476Y-88717380D01*
X154395238Y-88669761D01*
X154347619Y-88622142D01*
%TO.C,C4*%
X142033333Y-87317142D02*
X141985714Y-87364761D01*
X141842857Y-87412380D01*
X141747619Y-87412380D01*
X141604761Y-87364761D01*
X141509523Y-87269523D01*
X141461904Y-87174285D01*
X141414285Y-86983809D01*
X141414285Y-86840952D01*
X141461904Y-86650476D01*
X141509523Y-86555238D01*
X141604761Y-86460000D01*
X141747619Y-86412380D01*
X141842857Y-86412380D01*
X141985714Y-86460000D01*
X142033333Y-86507619D01*
X142890476Y-86745714D02*
X142890476Y-87412380D01*
X142652380Y-86364761D02*
X142414285Y-87079047D01*
X143033333Y-87079047D01*
%TO.C,C1*%
X150217142Y-87586666D02*
X150264761Y-87634285D01*
X150312380Y-87777142D01*
X150312380Y-87872380D01*
X150264761Y-88015238D01*
X150169523Y-88110476D01*
X150074285Y-88158095D01*
X149883809Y-88205714D01*
X149740952Y-88205714D01*
X149550476Y-88158095D01*
X149455238Y-88110476D01*
X149360000Y-88015238D01*
X149312380Y-87872380D01*
X149312380Y-87777142D01*
X149360000Y-87634285D01*
X149407619Y-87586666D01*
X150312380Y-86634285D02*
X150312380Y-87205714D01*
X150312380Y-86920000D02*
X149312380Y-86920000D01*
X149455238Y-87015238D01*
X149550476Y-87110476D01*
X149598095Y-87205714D01*
%TO.C,Y1*%
D10*
X146161904Y-74588095D02*
X146161904Y-74826190D01*
X145995238Y-74326190D02*
X146161904Y-74588095D01*
X146328571Y-74326190D01*
X146757142Y-74826190D02*
X146471428Y-74826190D01*
X146614285Y-74826190D02*
X146614285Y-74326190D01*
X146566666Y-74397619D01*
X146519047Y-74445238D01*
X146471428Y-74469047D01*
%TO.C,U1*%
D14*
X144838095Y-85252380D02*
X144838095Y-86061904D01*
X144885714Y-86157142D01*
X144933333Y-86204761D01*
X145028571Y-86252380D01*
X145219047Y-86252380D01*
X145314285Y-86204761D01*
X145361904Y-86157142D01*
X145409523Y-86061904D01*
X145409523Y-85252380D01*
X146409523Y-86252380D02*
X145838095Y-86252380D01*
X146123809Y-86252380D02*
X146123809Y-85252380D01*
X146028571Y-85395238D01*
X145933333Y-85490476D01*
X145838095Y-85538095D01*
%TO.C,L3*%
D10*
X140426190Y-72483333D02*
X140426190Y-72721428D01*
X139926190Y-72721428D01*
X139926190Y-72364285D02*
X139926190Y-72054761D01*
X140116666Y-72221428D01*
X140116666Y-72150000D01*
X140140476Y-72102380D01*
X140164285Y-72078571D01*
X140211904Y-72054761D01*
X140330952Y-72054761D01*
X140378571Y-72078571D01*
X140402380Y-72102380D01*
X140426190Y-72150000D01*
X140426190Y-72292857D01*
X140402380Y-72340476D01*
X140378571Y-72364285D01*
%TO.C,L2*%
D14*
X141882380Y-83766666D02*
X141882380Y-84242857D01*
X140882380Y-84242857D01*
X140977619Y-83480952D02*
X140930000Y-83433333D01*
X140882380Y-83338095D01*
X140882380Y-83100000D01*
X140930000Y-83004761D01*
X140977619Y-82957142D01*
X141072857Y-82909523D01*
X141168095Y-82909523D01*
X141310952Y-82957142D01*
X141882380Y-83528571D01*
X141882380Y-82909523D01*
%TO.C,L1*%
X141422380Y-81366666D02*
X141422380Y-81842857D01*
X140422380Y-81842857D01*
X141422380Y-80509523D02*
X141422380Y-81080952D01*
X141422380Y-80795238D02*
X140422380Y-80795238D01*
X140565238Y-80890476D01*
X140660476Y-80985714D01*
X140708095Y-81080952D01*
%TO.C,C10*%
D10*
X140878571Y-73928571D02*
X140854761Y-73952380D01*
X140783333Y-73976190D01*
X140735714Y-73976190D01*
X140664285Y-73952380D01*
X140616666Y-73904761D01*
X140592857Y-73857142D01*
X140569047Y-73761904D01*
X140569047Y-73690476D01*
X140592857Y-73595238D01*
X140616666Y-73547619D01*
X140664285Y-73500000D01*
X140735714Y-73476190D01*
X140783333Y-73476190D01*
X140854761Y-73500000D01*
X140878571Y-73523809D01*
X141354761Y-73976190D02*
X141069047Y-73976190D01*
X141211904Y-73976190D02*
X141211904Y-73476190D01*
X141164285Y-73547619D01*
X141116666Y-73595238D01*
X141069047Y-73619047D01*
X141664285Y-73476190D02*
X141711904Y-73476190D01*
X141759523Y-73500000D01*
X141783333Y-73523809D01*
X141807142Y-73571428D01*
X141830952Y-73666666D01*
X141830952Y-73785714D01*
X141807142Y-73880952D01*
X141783333Y-73928571D01*
X141759523Y-73952380D01*
X141711904Y-73976190D01*
X141664285Y-73976190D01*
X141616666Y-73952380D01*
X141592857Y-73928571D01*
X141569047Y-73880952D01*
X141545238Y-73785714D01*
X141545238Y-73666666D01*
X141569047Y-73571428D01*
X141592857Y-73523809D01*
X141616666Y-73500000D01*
X141664285Y-73476190D01*
%TO.C,C9*%
X142716666Y-73928571D02*
X142692857Y-73952380D01*
X142621428Y-73976190D01*
X142573809Y-73976190D01*
X142502380Y-73952380D01*
X142454761Y-73904761D01*
X142430952Y-73857142D01*
X142407142Y-73761904D01*
X142407142Y-73690476D01*
X142430952Y-73595238D01*
X142454761Y-73547619D01*
X142502380Y-73500000D01*
X142573809Y-73476190D01*
X142621428Y-73476190D01*
X142692857Y-73500000D01*
X142716666Y-73523809D01*
X142954761Y-73976190D02*
X143050000Y-73976190D01*
X143097619Y-73952380D01*
X143121428Y-73928571D01*
X143169047Y-73857142D01*
X143192857Y-73761904D01*
X143192857Y-73571428D01*
X143169047Y-73523809D01*
X143145238Y-73500000D01*
X143097619Y-73476190D01*
X143002380Y-73476190D01*
X142954761Y-73500000D01*
X142930952Y-73523809D01*
X142907142Y-73571428D01*
X142907142Y-73690476D01*
X142930952Y-73738095D01*
X142954761Y-73761904D01*
X143002380Y-73785714D01*
X143097619Y-73785714D01*
X143145238Y-73761904D01*
X143169047Y-73738095D01*
X143192857Y-73690476D01*
%TO.C,C8*%
D14*
X148357142Y-74566666D02*
X148404761Y-74614285D01*
X148452380Y-74757142D01*
X148452380Y-74852380D01*
X148404761Y-74995238D01*
X148309523Y-75090476D01*
X148214285Y-75138095D01*
X148023809Y-75185714D01*
X147880952Y-75185714D01*
X147690476Y-75138095D01*
X147595238Y-75090476D01*
X147500000Y-74995238D01*
X147452380Y-74852380D01*
X147452380Y-74757142D01*
X147500000Y-74614285D01*
X147547619Y-74566666D01*
X147880952Y-73995238D02*
X147833333Y-74090476D01*
X147785714Y-74138095D01*
X147690476Y-74185714D01*
X147642857Y-74185714D01*
X147547619Y-74138095D01*
X147500000Y-74090476D01*
X147452380Y-73995238D01*
X147452380Y-73804761D01*
X147500000Y-73709523D01*
X147547619Y-73661904D01*
X147642857Y-73614285D01*
X147690476Y-73614285D01*
X147785714Y-73661904D01*
X147833333Y-73709523D01*
X147880952Y-73804761D01*
X147880952Y-73995238D01*
X147928571Y-74090476D01*
X147976190Y-74138095D01*
X148071428Y-74185714D01*
X148261904Y-74185714D01*
X148357142Y-74138095D01*
X148404761Y-74090476D01*
X148452380Y-73995238D01*
X148452380Y-73804761D01*
X148404761Y-73709523D01*
X148357142Y-73661904D01*
X148261904Y-73614285D01*
X148071428Y-73614285D01*
X147976190Y-73661904D01*
X147928571Y-73709523D01*
X147880952Y-73804761D01*
%TO.C,C7*%
X141357142Y-78966666D02*
X141404761Y-79014285D01*
X141452380Y-79157142D01*
X141452380Y-79252380D01*
X141404761Y-79395238D01*
X141309523Y-79490476D01*
X141214285Y-79538095D01*
X141023809Y-79585714D01*
X140880952Y-79585714D01*
X140690476Y-79538095D01*
X140595238Y-79490476D01*
X140500000Y-79395238D01*
X140452380Y-79252380D01*
X140452380Y-79157142D01*
X140500000Y-79014285D01*
X140547619Y-78966666D01*
X140452380Y-78633333D02*
X140452380Y-77966666D01*
X141452380Y-78395238D01*
%TO.C,C6*%
D10*
X149850000Y-74116666D02*
X149883333Y-74150000D01*
X149916666Y-74250000D01*
X149916666Y-74316666D01*
X149883333Y-74416666D01*
X149816666Y-74483333D01*
X149750000Y-74516666D01*
X149616666Y-74550000D01*
X149516666Y-74550000D01*
X149383333Y-74516666D01*
X149316666Y-74483333D01*
X149250000Y-74416666D01*
X149216666Y-74316666D01*
X149216666Y-74250000D01*
X149250000Y-74150000D01*
X149283333Y-74116666D01*
X149216666Y-73516666D02*
X149216666Y-73650000D01*
X149250000Y-73716666D01*
X149283333Y-73750000D01*
X149383333Y-73816666D01*
X149516666Y-73850000D01*
X149783333Y-73850000D01*
X149850000Y-73816666D01*
X149883333Y-73783333D01*
X149916666Y-73716666D01*
X149916666Y-73583333D01*
X149883333Y-73516666D01*
X149850000Y-73483333D01*
X149783333Y-73450000D01*
X149616666Y-73450000D01*
X149550000Y-73483333D01*
X149516666Y-73516666D01*
X149483333Y-73583333D01*
X149483333Y-73716666D01*
X149516666Y-73783333D01*
X149550000Y-73816666D01*
X149616666Y-73850000D01*
%TO.C,C5*%
X152450000Y-72616666D02*
X152483333Y-72650000D01*
X152516666Y-72750000D01*
X152516666Y-72816666D01*
X152483333Y-72916666D01*
X152416666Y-72983333D01*
X152350000Y-73016666D01*
X152216666Y-73050000D01*
X152116666Y-73050000D01*
X151983333Y-73016666D01*
X151916666Y-72983333D01*
X151850000Y-72916666D01*
X151816666Y-72816666D01*
X151816666Y-72750000D01*
X151850000Y-72650000D01*
X151883333Y-72616666D01*
X151816666Y-71983333D02*
X151816666Y-72316666D01*
X152150000Y-72350000D01*
X152116666Y-72316666D01*
X152083333Y-72250000D01*
X152083333Y-72083333D01*
X152116666Y-72016666D01*
X152150000Y-71983333D01*
X152216666Y-71950000D01*
X152383333Y-71950000D01*
X152450000Y-71983333D01*
X152483333Y-72016666D01*
X152516666Y-72083333D01*
X152516666Y-72250000D01*
X152483333Y-72316666D01*
X152450000Y-72350000D01*
%TO.C,C3*%
D14*
X139833333Y-88117142D02*
X139785714Y-88164761D01*
X139642857Y-88212380D01*
X139547619Y-88212380D01*
X139404761Y-88164761D01*
X139309523Y-88069523D01*
X139261904Y-87974285D01*
X139214285Y-87783809D01*
X139214285Y-87640952D01*
X139261904Y-87450476D01*
X139309523Y-87355238D01*
X139404761Y-87260000D01*
X139547619Y-87212380D01*
X139642857Y-87212380D01*
X139785714Y-87260000D01*
X139833333Y-87307619D01*
X140166666Y-87212380D02*
X140785714Y-87212380D01*
X140452380Y-87593333D01*
X140595238Y-87593333D01*
X140690476Y-87640952D01*
X140738095Y-87688571D01*
X140785714Y-87783809D01*
X140785714Y-88021904D01*
X140738095Y-88117142D01*
X140690476Y-88164761D01*
X140595238Y-88212380D01*
X140309523Y-88212380D01*
X140214285Y-88164761D01*
X140166666Y-88117142D01*
%TO.C,C2*%
X140233333Y-76117142D02*
X140185714Y-76164761D01*
X140042857Y-76212380D01*
X139947619Y-76212380D01*
X139804761Y-76164761D01*
X139709523Y-76069523D01*
X139661904Y-75974285D01*
X139614285Y-75783809D01*
X139614285Y-75640952D01*
X139661904Y-75450476D01*
X139709523Y-75355238D01*
X139804761Y-75260000D01*
X139947619Y-75212380D01*
X140042857Y-75212380D01*
X140185714Y-75260000D01*
X140233333Y-75307619D01*
X140614285Y-75307619D02*
X140661904Y-75260000D01*
X140757142Y-75212380D01*
X140995238Y-75212380D01*
X141090476Y-75260000D01*
X141138095Y-75307619D01*
X141185714Y-75402857D01*
X141185714Y-75498095D01*
X141138095Y-75640952D01*
X140566666Y-76212380D01*
X141185714Y-76212380D01*
%TD*%
M02*
